# Bellows Diecut foldcore die
v -53.40000 -72.00000 5.20000
v -37.80000 -72.00000 1.73333
v -55.80000 -78.00000 1.04000
v -40.20000 -78.00000 1.73333
v -53.40000 -84.00000 5.20000
v -37.80000 -84.00000 2.60000
v -22.20000 -72.00000 1.73333
v -24.60000 -78.00000 1.73333
v -22.20000 -84.00000 2.60000
v -6.60000 -72.00000 1.73333
v -9.00000 -78.00000 1.73333
v -6.60000 -84.00000 2.60000
v 9.00000 -72.00000 1.73333
v 6.60000 -78.00000 1.73333
v 9.00000 -84.00000 2.60000
v 24.60000 -72.00000 1.73333
v 22.20000 -78.00000 1.73333
v 24.60000 -84.00000 2.60000
v 40.20000 -72.00000 1.73333
v 37.80000 -78.00000 1.73333
v 40.20000 -84.00000 2.60000
v 55.80000 -72.00000 1.04000
v 53.40000 -78.00000 5.20000
v 55.80000 -84.00000 1.73333
v -53.40000 -60.00000 5.20000
v -37.80000 -60.00000 1.73333
v -55.80000 -66.00000 1.04000
v -40.20000 -66.00000 1.73333
v -22.20000 -60.00000 1.73333
v -24.60000 -66.00000 1.73333
v -6.60000 -60.00000 1.73333
v -9.00000 -66.00000 1.73333
v 9.00000 -60.00000 1.73333
v 6.60000 -66.00000 1.73333
v 24.60000 -60.00000 1.73333
v 22.20000 -66.00000 1.73333
v 40.20000 -60.00000 1.73333
v 37.80000 -66.00000 1.73333
v 55.80000 -60.00000 1.04000
v 53.40000 -66.00000 5.20000
v -53.40000 -48.00000 5.20000
v -37.80000 -48.00000 1.73333
v -55.80000 -54.00000 1.04000
v -40.20000 -54.00000 1.73333
v -22.20000 -48.00000 1.73333
v -24.60000 -54.00000 1.73333
v -6.60000 -48.00000 1.73333
v -9.00000 -54.00000 1.73333
v 9.00000 -48.00000 1.73333
v 6.60000 -54.00000 1.73333
v 24.60000 -48.00000 1.73333
v 22.20000 -54.00000 1.73333
v 40.20000 -48.00000 1.73333
v 37.80000 -54.00000 1.73333
v 55.80000 -48.00000 1.04000
v 53.40000 -54.00000 5.20000
v -53.40000 -36.00000 5.20000
v -37.80000 -36.00000 1.73333
v -55.80000 -42.00000 1.04000
v -40.20000 -42.00000 1.73333
v -22.20000 -36.00000 1.73333
v -24.60000 -42.00000 1.73333
v -6.60000 -36.00000 1.73333
v -9.00000 -42.00000 1.73333
v 9.00000 -36.00000 1.73333
v 6.60000 -42.00000 1.73333
v 24.60000 -36.00000 1.73333
v 22.20000 -42.00000 1.73333
v 40.20000 -36.00000 1.73333
v 37.80000 -42.00000 1.73333
v 55.80000 -36.00000 1.04000
v 53.40000 -42.00000 5.20000
v -53.40000 -24.00000 5.20000
v -37.80000 -24.00000 1.73333
v -55.80000 -30.00000 1.04000
v -40.20000 -30.00000 1.73333
v -22.20000 -24.00000 1.73333
v -24.60000 -30.00000 1.73333
v -6.60000 -24.00000 1.73333
v -9.00000 -30.00000 1.73333
v 9.00000 -24.00000 1.73333
v 6.60000 -30.00000 1.73333
v 24.60000 -24.00000 1.73333
v 22.20000 -30.00000 1.73333
v 40.20000 -24.00000 1.73333
v 37.80000 -30.00000 1.73333
v 55.80000 -24.00000 1.04000
v 53.40000 -30.00000 5.20000
v -53.40000 -12.00000 5.20000
v -37.80000 -12.00000 1.73333
v -55.80000 -18.00000 1.04000
v -40.20000 -18.00000 1.73333
v -22.20000 -12.00000 1.73333
v -24.60000 -18.00000 1.73333
v -6.60000 -12.00000 1.73333
v -9.00000 -18.00000 1.73333
v 9.00000 -12.00000 1.73333
v 6.60000 -18.00000 1.73333
v 24.60000 -12.00000 1.73333
v 22.20000 -18.00000 1.73333
v 40.20000 -12.00000 1.73333
v 37.80000 -18.00000 1.73333
v 55.80000 -12.00000 1.04000
v 53.40000 -18.00000 5.20000
v -53.40000 0.00000 5.20000
v -37.80000 0.00000 1.73333
v -55.80000 -6.00000 1.04000
v -40.20000 -6.00000 1.73333
v -22.20000 0.00000 1.73333
v -24.60000 -6.00000 1.73333
v -6.60000 0.00000 1.73333
v -9.00000 -6.00000 1.73333
v 9.00000 0.00000 1.73333
v 6.60000 -6.00000 1.73333
v 24.60000 0.00000 1.73333
v 22.20000 -6.00000 1.73333
v 40.20000 0.00000 1.73333
v 37.80000 -6.00000 1.73333
v 55.80000 0.00000 1.04000
v 53.40000 -6.00000 5.20000
v -53.40000 12.00000 5.20000
v -37.80000 12.00000 1.73333
v -55.80000 6.00000 1.04000
v -40.20000 6.00000 1.73333
v -22.20000 12.00000 1.73333
v -24.60000 6.00000 1.73333
v -6.60000 12.00000 1.73333
v -9.00000 6.00000 1.73333
v 9.00000 12.00000 1.73333
v 6.60000 6.00000 1.73333
v 24.60000 12.00000 1.73333
v 22.20000 6.00000 1.73333
v 40.20000 12.00000 1.73333
v 37.80000 6.00000 1.73333
v 55.80000 12.00000 1.04000
v 53.40000 6.00000 5.20000
v -53.40000 24.00000 5.20000
v -37.80000 24.00000 1.73333
v -55.80000 18.00000 1.04000
v -40.20000 18.00000 1.73333
v -22.20000 24.00000 1.73333
v -24.60000 18.00000 1.73333
v -6.60000 24.00000 1.73333
v -9.00000 18.00000 1.73333
v 9.00000 24.00000 1.73333
v 6.60000 18.00000 1.73333
v 24.60000 24.00000 1.73333
v 22.20000 18.00000 1.73333
v 40.20000 24.00000 1.73333
v 37.80000 18.00000 1.73333
v 55.80000 24.00000 1.04000
v 53.40000 18.00000 5.20000
v -53.40000 36.00000 5.20000
v -37.80000 36.00000 1.73333
v -55.80000 30.00000 1.04000
v -40.20000 30.00000 1.73333
v -22.20000 36.00000 1.73333
v -24.60000 30.00000 1.73333
v -6.60000 36.00000 1.73333
v -9.00000 30.00000 1.73333
v 9.00000 36.00000 1.73333
v 6.60000 30.00000 1.73333
v 24.60000 36.00000 1.73333
v 22.20000 30.00000 1.73333
v 40.20000 36.00000 1.73333
v 37.80000 30.00000 1.73333
v 55.80000 36.00000 1.04000
v 53.40000 30.00000 5.20000
v -53.40000 48.00000 5.20000
v -37.80000 48.00000 1.73333
v -55.80000 42.00000 1.04000
v -40.20000 42.00000 1.73333
v -22.20000 48.00000 1.73333
v -24.60000 42.00000 1.73333
v -6.60000 48.00000 1.73333
v -9.00000 42.00000 1.73333
v 9.00000 48.00000 1.73333
v 6.60000 42.00000 1.73333
v 24.60000 48.00000 1.73333
v 22.20000 42.00000 1.73333
v 40.20000 48.00000 1.73333
v 37.80000 42.00000 1.73333
v 55.80000 48.00000 1.04000
v 53.40000 42.00000 5.20000
v -53.40000 60.00000 5.20000
v -37.80000 60.00000 1.73333
v -55.80000 54.00000 1.04000
v -40.20000 54.00000 1.73333
v -22.20000 60.00000 1.73333
v -24.60000 54.00000 1.73333
v -6.60000 60.00000 1.73333
v -9.00000 54.00000 1.73333
v 9.00000 60.00000 1.73333
v 6.60000 54.00000 1.73333
v 24.60000 60.00000 1.73333
v 22.20000 54.00000 1.73333
v 40.20000 60.00000 1.73333
v 37.80000 54.00000 1.73333
v 55.80000 60.00000 1.04000
v 53.40000 54.00000 5.20000
v -53.40000 72.00000 5.20000
v -37.80000 72.00000 1.73333
v -55.80000 66.00000 1.04000
v -40.20000 66.00000 1.73333
v -22.20000 72.00000 1.73333
v -24.60000 66.00000 1.73333
v -6.60000 72.00000 1.73333
v -9.00000 66.00000 1.73333
v 9.00000 72.00000 1.73333
v 6.60000 66.00000 1.73333
v 24.60000 72.00000 1.73333
v 22.20000 66.00000 1.73333
v 40.20000 72.00000 1.73333
v 37.80000 66.00000 1.73333
v 55.80000 72.00000 1.04000
v 53.40000 66.00000 5.20000
v -53.40000 84.00000 5.20000
v -37.80000 84.00000 2.60000
v -55.80000 78.00000 1.04000
v -40.20000 78.00000 1.73333
v -22.20000 84.00000 2.60000
v -24.60000 78.00000 1.73333
v -6.60000 84.00000 2.60000
v -9.00000 78.00000 1.73333
v 9.00000 84.00000 2.60000
v 6.60000 78.00000 1.73333
v 24.60000 84.00000 2.60000
v 22.20000 78.00000 1.73333
v 40.20000 84.00000 2.60000
v 37.80000 78.00000 1.73333
v 55.80000 84.00000 1.73333
v 53.40000 78.00000 5.20000
v -55.80000 -84.00000 0.00000
v -55.80000 84.00000 0.00000
v -33.40000 -74.00000 4.33333
v -44.60000 -76.00000 4.10222
v -44.60000 -80.00000 4.39111
v -33.40000 -70.00000 4.33333
v -17.80000 -74.00000 4.33333
v -29.00000 -76.00000 4.33333
v -17.80000 -70.00000 4.33333
v -2.20000 -74.00000 4.33333
v -13.40000 -76.00000 4.33333
v -2.20000 -70.00000 4.33333
v 13.40000 -74.00000 4.33333
v 2.20000 -76.00000 4.33333
v 13.40000 -70.00000 4.33333
v 29.00000 -74.00000 4.33333
v 17.80000 -76.00000 4.33333
v 29.00000 -70.00000 4.33333
v 44.60000 -74.00000 4.10222
v 33.40000 -76.00000 4.33333
v 44.60000 -70.00000 4.10222
v -33.40000 -62.00000 4.33333
v -44.60000 -64.00000 4.10222
v -44.60000 -68.00000 4.10222
v -33.40000 -58.00000 4.33333
v -17.80000 -62.00000 4.33333
v -29.00000 -64.00000 4.33333
v -29.00000 -68.00000 4.33333
v -17.80000 -58.00000 4.33333
v -2.20000 -62.00000 4.33333
v -13.40000 -64.00000 4.33333
v -13.40000 -68.00000 4.33333
v -2.20000 -58.00000 4.33333
v 13.40000 -62.00000 4.33333
v 2.20000 -64.00000 4.33333
v 2.20000 -68.00000 4.33333
v 13.40000 -58.00000 4.33333
v 29.00000 -62.00000 4.33333
v 17.80000 -64.00000 4.33333
v 17.80000 -68.00000 4.33333
v 29.00000 -58.00000 4.33333
v 44.60000 -62.00000 4.10222
v 33.40000 -64.00000 4.33333
v 33.40000 -68.00000 4.33333
v 44.60000 -58.00000 4.10222
v -33.40000 -50.00000 4.33333
v -44.60000 -52.00000 4.10222
v -44.60000 -56.00000 4.10222
v -33.40000 -46.00000 4.33333
v -17.80000 -50.00000 4.33333
v -29.00000 -52.00000 4.33333
v -29.00000 -56.00000 4.33333
v -17.80000 -46.00000 4.33333
v -2.20000 -50.00000 4.33333
v -13.40000 -52.00000 4.33333
v -13.40000 -56.00000 4.33333
v -2.20000 -46.00000 4.33333
v 13.40000 -50.00000 4.33333
v 2.20000 -52.00000 4.33333
v 2.20000 -56.00000 4.33333
v 13.40000 -46.00000 4.33333
v 29.00000 -50.00000 4.33333
v 17.80000 -52.00000 4.33333
v 17.80000 -56.00000 4.33333
v 29.00000 -46.00000 4.33333
v 44.60000 -50.00000 4.10222
v 33.40000 -52.00000 4.33333
v 33.40000 -56.00000 4.33333
v 44.60000 -46.00000 4.10222
v -33.40000 -38.00000 4.33333
v -44.60000 -40.00000 4.10222
v -44.60000 -44.00000 4.10222
v -33.40000 -34.00000 4.33333
v -17.80000 -38.00000 4.33333
v -29.00000 -40.00000 4.33333
v -29.00000 -44.00000 4.33333
v -17.80000 -34.00000 4.33333
v -2.20000 -38.00000 4.33333
v -13.40000 -40.00000 4.33333
v -13.40000 -44.00000 4.33333
v -2.20000 -34.00000 4.33333
v 13.40000 -38.00000 4.33333
v 2.20000 -40.00000 4.33333
v 2.20000 -44.00000 4.33333
v 13.40000 -34.00000 4.33333
v 29.00000 -38.00000 4.33333
v 17.80000 -40.00000 4.33333
v 17.80000 -44.00000 4.33333
v 29.00000 -34.00000 4.33333
v 44.60000 -38.00000 4.10222
v 33.40000 -40.00000 4.33333
v 33.40000 -44.00000 4.33333
v 44.60000 -34.00000 4.10222
v -33.40000 -26.00000 4.33333
v -44.60000 -28.00000 4.10222
v -44.60000 -32.00000 4.10222
v -33.40000 -22.00000 4.33333
v -17.80000 -26.00000 4.33333
v -29.00000 -28.00000 4.33333
v -29.00000 -32.00000 4.33333
v -17.80000 -22.00000 4.33333
v -2.20000 -26.00000 4.33333
v -13.40000 -28.00000 4.33333
v -13.40000 -32.00000 4.33333
v -2.20000 -22.00000 4.33333
v 13.40000 -26.00000 4.33333
v 2.20000 -28.00000 4.33333
v 2.20000 -32.00000 4.33333
v 13.40000 -22.00000 4.33333
v 29.00000 -26.00000 4.33333
v 17.80000 -28.00000 4.33333
v 17.80000 -32.00000 4.33333
v 29.00000 -22.00000 4.33333
v 44.60000 -26.00000 4.10222
v 33.40000 -28.00000 4.33333
v 33.40000 -32.00000 4.33333
v 44.60000 -22.00000 4.10222
v -33.40000 -14.00000 4.33333
v -44.60000 -16.00000 4.10222
v -44.60000 -20.00000 4.10222
v -33.40000 -10.00000 4.33333
v -17.80000 -14.00000 4.33333
v -29.00000 -16.00000 4.33333
v -29.00000 -20.00000 4.33333
v -17.80000 -10.00000 4.33333
v -2.20000 -14.00000 4.33333
v -13.40000 -16.00000 4.33333
v -13.40000 -20.00000 4.33333
v -2.20000 -10.00000 4.33333
v 13.40000 -14.00000 4.33333
v 2.20000 -16.00000 4.33333
v 2.20000 -20.00000 4.33333
v 13.40000 -10.00000 4.33333
v 29.00000 -14.00000 4.33333
v 17.80000 -16.00000 4.33333
v 17.80000 -20.00000 4.33333
v 29.00000 -10.00000 4.33333
v 44.60000 -14.00000 4.10222
v 33.40000 -16.00000 4.33333
v 33.40000 -20.00000 4.33333
v 44.60000 -10.00000 4.10222
v -33.40000 -2.00000 4.33333
v -44.60000 -4.00000 4.10222
v -44.60000 -8.00000 4.10222
v -33.40000 2.00000 4.33333
v -17.80000 -2.00000 4.33333
v -29.00000 -4.00000 4.33333
v -29.00000 -8.00000 4.33333
v -17.80000 2.00000 4.33333
v -2.20000 -2.00000 4.33333
v -13.40000 -4.00000 4.33333
v -13.40000 -8.00000 4.33333
v -2.20000 2.00000 4.33333
v 13.40000 -2.00000 4.33333
v 2.20000 -4.00000 4.33333
v 2.20000 -8.00000 4.33333
v 13.40000 2.00000 4.33333
v 29.00000 -2.00000 4.33333
v 17.80000 -4.00000 4.33333
v 17.80000 -8.00000 4.33333
v 29.00000 2.00000 4.33333
v 44.60000 -2.00000 4.10222
v 33.40000 -4.00000 4.33333
v 33.40000 -8.00000 4.33333
v 44.60000 2.00000 4.10222
v -33.40000 10.00000 4.33333
v -44.60000 8.00000 4.10222
v -44.60000 4.00000 4.10222
v -33.40000 14.00000 4.33333
v -17.80000 10.00000 4.33333
v -29.00000 8.00000 4.33333
v -29.00000 4.00000 4.33333
v -17.80000 14.00000 4.33333
v -2.20000 10.00000 4.33333
v -13.40000 8.00000 4.33333
v -13.40000 4.00000 4.33333
v -2.20000 14.00000 4.33333
v 13.40000 10.00000 4.33333
v 2.20000 8.00000 4.33333
v 2.20000 4.00000 4.33333
v 13.40000 14.00000 4.33333
v 29.00000 10.00000 4.33333
v 17.80000 8.00000 4.33333
v 17.80000 4.00000 4.33333
v 29.00000 14.00000 4.33333
v 44.60000 10.00000 4.10222
v 33.40000 8.00000 4.33333
v 33.40000 4.00000 4.33333
v 44.60000 14.00000 4.10222
v -33.40000 22.00000 4.33333
v -44.60000 20.00000 4.10222
v -44.60000 16.00000 4.10222
v -33.40000 26.00000 4.33333
v -17.80000 22.00000 4.33333
v -29.00000 20.00000 4.33333
v -29.00000 16.00000 4.33333
v -17.80000 26.00000 4.33333
v -2.20000 22.00000 4.33333
v -13.40000 20.00000 4.33333
v -13.40000 16.00000 4.33333
v -2.20000 26.00000 4.33333
v 13.40000 22.00000 4.33333
v 2.20000 20.00000 4.33333
v 2.20000 16.00000 4.33333
v 13.40000 26.00000 4.33333
v 29.00000 22.00000 4.33333
v 17.80000 20.00000 4.33333
v 17.80000 16.00000 4.33333
v 29.00000 26.00000 4.33333
v 44.60000 22.00000 4.10222
v 33.40000 20.00000 4.33333
v 33.40000 16.00000 4.33333
v 44.60000 26.00000 4.10222
v -33.40000 34.00000 4.33333
v -44.60000 32.00000 4.10222
v -44.60000 28.00000 4.10222
v -33.40000 38.00000 4.33333
v -17.80000 34.00000 4.33333
v -29.00000 32.00000 4.33333
v -29.00000 28.00000 4.33333
v -17.80000 38.00000 4.33333
v -2.20000 34.00000 4.33333
v -13.40000 32.00000 4.33333
v -13.40000 28.00000 4.33333
v -2.20000 38.00000 4.33333
v 13.40000 34.00000 4.33333
v 2.20000 32.00000 4.33333
v 2.20000 28.00000 4.33333
v 13.40000 38.00000 4.33333
v 29.00000 34.00000 4.33333
v 17.80000 32.00000 4.33333
v 17.80000 28.00000 4.33333
v 29.00000 38.00000 4.33333
v 44.60000 34.00000 4.10222
v 33.40000 32.00000 4.33333
v 33.40000 28.00000 4.33333
v 44.60000 38.00000 4.10222
v -33.40000 46.00000 4.33333
v -44.60000 44.00000 4.10222
v -44.60000 40.00000 4.10222
v -33.40000 50.00000 4.33333
v -17.80000 46.00000 4.33333
v -29.00000 44.00000 4.33333
v -29.00000 40.00000 4.33333
v -17.80000 50.00000 4.33333
v -2.20000 46.00000 4.33333
v -13.40000 44.00000 4.33333
v -13.40000 40.00000 4.33333
v -2.20000 50.00000 4.33333
v 13.40000 46.00000 4.33333
v 2.20000 44.00000 4.33333
v 2.20000 40.00000 4.33333
v 13.40000 50.00000 4.33333
v 29.00000 46.00000 4.33333
v 17.80000 44.00000 4.33333
v 17.80000 40.00000 4.33333
v 29.00000 50.00000 4.33333
v 44.60000 46.00000 4.10222
v 33.40000 44.00000 4.33333
v 33.40000 40.00000 4.33333
v 44.60000 50.00000 4.10222
v -33.40000 58.00000 4.33333
v -44.60000 56.00000 4.10222
v -44.60000 52.00000 4.10222
v -33.40000 62.00000 4.33333
v -17.80000 58.00000 4.33333
v -29.00000 56.00000 4.33333
v -29.00000 52.00000 4.33333
v -17.80000 62.00000 4.33333
v -2.20000 58.00000 4.33333
v -13.40000 56.00000 4.33333
v -13.40000 52.00000 4.33333
v -2.20000 62.00000 4.33333
v 13.40000 58.00000 4.33333
v 2.20000 56.00000 4.33333
v 2.20000 52.00000 4.33333
v 13.40000 62.00000 4.33333
v 29.00000 58.00000 4.33333
v 17.80000 56.00000 4.33333
v 17.80000 52.00000 4.33333
v 29.00000 62.00000 4.33333
v 44.60000 58.00000 4.10222
v 33.40000 56.00000 4.33333
v 33.40000 52.00000 4.33333
v 44.60000 62.00000 4.10222
v -33.40000 70.00000 4.33333
v -44.60000 68.00000 4.10222
v -44.60000 64.00000 4.10222
v -33.40000 74.00000 4.33333
v -17.80000 70.00000 4.33333
v -29.00000 68.00000 4.33333
v -29.00000 64.00000 4.33333
v -17.80000 74.00000 4.33333
v -2.20000 70.00000 4.33333
v -13.40000 68.00000 4.33333
v -13.40000 64.00000 4.33333
v -2.20000 74.00000 4.33333
v 13.40000 70.00000 4.33333
v 2.20000 68.00000 4.33333
v 2.20000 64.00000 4.33333
v 13.40000 74.00000 4.33333
v 29.00000 70.00000 4.33333
v 17.80000 68.00000 4.33333
v 17.80000 64.00000 4.33333
v 29.00000 74.00000 4.33333
v 44.60000 70.00000 4.10222
v 33.40000 68.00000 4.33333
v 33.40000 64.00000 4.33333
v 44.60000 74.00000 4.10222
v -44.60000 80.00000 4.39111
v -44.60000 76.00000 4.10222
v -29.00000 76.00000 4.33333
v -13.40000 76.00000 4.33333
v 2.20000 76.00000 4.33333
v 17.80000 76.00000 4.33333
v 33.40000 76.00000 4.33333
v -53.40000 -72.00000 -3.00000
v -37.80000 -72.00000 -3.00000
v -55.80000 -78.00000 -3.00000
v -40.20000 -78.00000 -3.00000
v -53.40000 -84.00000 -3.00000
v -37.80000 -84.00000 -3.00000
v -22.20000 -72.00000 -3.00000
v -24.60000 -78.00000 -3.00000
v -22.20000 -84.00000 -3.00000
v -6.60000 -72.00000 -3.00000
v -9.00000 -78.00000 -3.00000
v -6.60000 -84.00000 -3.00000
v 9.00000 -72.00000 -3.00000
v 6.60000 -78.00000 -3.00000
v 9.00000 -84.00000 -3.00000
v 24.60000 -72.00000 -3.00000
v 22.20000 -78.00000 -3.00000
v 24.60000 -84.00000 -3.00000
v 40.20000 -72.00000 -3.00000
v 37.80000 -78.00000 -3.00000
v 40.20000 -84.00000 -3.00000
v 55.80000 -72.00000 -3.00000
v 53.40000 -78.00000 -3.00000
v 55.80000 -84.00000 -3.00000
v -53.40000 -60.00000 -3.00000
v -37.80000 -60.00000 -3.00000
v -55.80000 -66.00000 -3.00000
v -40.20000 -66.00000 -3.00000
v -22.20000 -60.00000 -3.00000
v -24.60000 -66.00000 -3.00000
v -6.60000 -60.00000 -3.00000
v -9.00000 -66.00000 -3.00000
v 9.00000 -60.00000 -3.00000
v 6.60000 -66.00000 -3.00000
v 24.60000 -60.00000 -3.00000
v 22.20000 -66.00000 -3.00000
v 40.20000 -60.00000 -3.00000
v 37.80000 -66.00000 -3.00000
v 55.80000 -60.00000 -3.00000
v 53.40000 -66.00000 -3.00000
v -53.40000 -48.00000 -3.00000
v -37.80000 -48.00000 -3.00000
v -55.80000 -54.00000 -3.00000
v -40.20000 -54.00000 -3.00000
v -22.20000 -48.00000 -3.00000
v -24.60000 -54.00000 -3.00000
v -6.60000 -48.00000 -3.00000
v -9.00000 -54.00000 -3.00000
v 9.00000 -48.00000 -3.00000
v 6.60000 -54.00000 -3.00000
v 24.60000 -48.00000 -3.00000
v 22.20000 -54.00000 -3.00000
v 40.20000 -48.00000 -3.00000
v 37.80000 -54.00000 -3.00000
v 55.80000 -48.00000 -3.00000
v 53.40000 -54.00000 -3.00000
v -53.40000 -36.00000 -3.00000
v -37.80000 -36.00000 -3.00000
v -55.80000 -42.00000 -3.00000
v -40.20000 -42.00000 -3.00000
v -22.20000 -36.00000 -3.00000
v -24.60000 -42.00000 -3.00000
v -6.60000 -36.00000 -3.00000
v -9.00000 -42.00000 -3.00000
v 9.00000 -36.00000 -3.00000
v 6.60000 -42.00000 -3.00000
v 24.60000 -36.00000 -3.00000
v 22.20000 -42.00000 -3.00000
v 40.20000 -36.00000 -3.00000
v 37.80000 -42.00000 -3.00000
v 55.80000 -36.00000 -3.00000
v 53.40000 -42.00000 -3.00000
v -53.40000 -24.00000 -3.00000
v -37.80000 -24.00000 -3.00000
v -55.80000 -30.00000 -3.00000
v -40.20000 -30.00000 -3.00000
v -22.20000 -24.00000 -3.00000
v -24.60000 -30.00000 -3.00000
v -6.60000 -24.00000 -3.00000
v -9.00000 -30.00000 -3.00000
v 9.00000 -24.00000 -3.00000
v 6.60000 -30.00000 -3.00000
v 24.60000 -24.00000 -3.00000
v 22.20000 -30.00000 -3.00000
v 40.20000 -24.00000 -3.00000
v 37.80000 -30.00000 -3.00000
v 55.80000 -24.00000 -3.00000
v 53.40000 -30.00000 -3.00000
v -53.40000 -12.00000 -3.00000
v -37.80000 -12.00000 -3.00000
v -55.80000 -18.00000 -3.00000
v -40.20000 -18.00000 -3.00000
v -22.20000 -12.00000 -3.00000
v -24.60000 -18.00000 -3.00000
v -6.60000 -12.00000 -3.00000
v -9.00000 -18.00000 -3.00000
v 9.00000 -12.00000 -3.00000
v 6.60000 -18.00000 -3.00000
v 24.60000 -12.00000 -3.00000
v 22.20000 -18.00000 -3.00000
v 40.20000 -12.00000 -3.00000
v 37.80000 -18.00000 -3.00000
v 55.80000 -12.00000 -3.00000
v 53.40000 -18.00000 -3.00000
v -53.40000 0.00000 -3.00000
v -37.80000 0.00000 -3.00000
v -55.80000 -6.00000 -3.00000
v -40.20000 -6.00000 -3.00000
v -22.20000 0.00000 -3.00000
v -24.60000 -6.00000 -3.00000
v -6.60000 0.00000 -3.00000
v -9.00000 -6.00000 -3.00000
v 9.00000 0.00000 -3.00000
v 6.60000 -6.00000 -3.00000
v 24.60000 0.00000 -3.00000
v 22.20000 -6.00000 -3.00000
v 40.20000 0.00000 -3.00000
v 37.80000 -6.00000 -3.00000
v 55.80000 0.00000 -3.00000
v 53.40000 -6.00000 -3.00000
v -53.40000 12.00000 -3.00000
v -37.80000 12.00000 -3.00000
v -55.80000 6.00000 -3.00000
v -40.20000 6.00000 -3.00000
v -22.20000 12.00000 -3.00000
v -24.60000 6.00000 -3.00000
v -6.60000 12.00000 -3.00000
v -9.00000 6.00000 -3.00000
v 9.00000 12.00000 -3.00000
v 6.60000 6.00000 -3.00000
v 24.60000 12.00000 -3.00000
v 22.20000 6.00000 -3.00000
v 40.20000 12.00000 -3.00000
v 37.80000 6.00000 -3.00000
v 55.80000 12.00000 -3.00000
v 53.40000 6.00000 -3.00000
v -53.40000 24.00000 -3.00000
v -37.80000 24.00000 -3.00000
v -55.80000 18.00000 -3.00000
v -40.20000 18.00000 -3.00000
v -22.20000 24.00000 -3.00000
v -24.60000 18.00000 -3.00000
v -6.60000 24.00000 -3.00000
v -9.00000 18.00000 -3.00000
v 9.00000 24.00000 -3.00000
v 6.60000 18.00000 -3.00000
v 24.60000 24.00000 -3.00000
v 22.20000 18.00000 -3.00000
v 40.20000 24.00000 -3.00000
v 37.80000 18.00000 -3.00000
v 55.80000 24.00000 -3.00000
v 53.40000 18.00000 -3.00000
v -53.40000 36.00000 -3.00000
v -37.80000 36.00000 -3.00000
v -55.80000 30.00000 -3.00000
v -40.20000 30.00000 -3.00000
v -22.20000 36.00000 -3.00000
v -24.60000 30.00000 -3.00000
v -6.60000 36.00000 -3.00000
v -9.00000 30.00000 -3.00000
v 9.00000 36.00000 -3.00000
v 6.60000 30.00000 -3.00000
v 24.60000 36.00000 -3.00000
v 22.20000 30.00000 -3.00000
v 40.20000 36.00000 -3.00000
v 37.80000 30.00000 -3.00000
v 55.80000 36.00000 -3.00000
v 53.40000 30.00000 -3.00000
v -53.40000 48.00000 -3.00000
v -37.80000 48.00000 -3.00000
v -55.80000 42.00000 -3.00000
v -40.20000 42.00000 -3.00000
v -22.20000 48.00000 -3.00000
v -24.60000 42.00000 -3.00000
v -6.60000 48.00000 -3.00000
v -9.00000 42.00000 -3.00000
v 9.00000 48.00000 -3.00000
v 6.60000 42.00000 -3.00000
v 24.60000 48.00000 -3.00000
v 22.20000 42.00000 -3.00000
v 40.20000 48.00000 -3.00000
v 37.80000 42.00000 -3.00000
v 55.80000 48.00000 -3.00000
v 53.40000 42.00000 -3.00000
v -53.40000 60.00000 -3.00000
v -37.80000 60.00000 -3.00000
v -55.80000 54.00000 -3.00000
v -40.20000 54.00000 -3.00000
v -22.20000 60.00000 -3.00000
v -24.60000 54.00000 -3.00000
v -6.60000 60.00000 -3.00000
v -9.00000 54.00000 -3.00000
v 9.00000 60.00000 -3.00000
v 6.60000 54.00000 -3.00000
v 24.60000 60.00000 -3.00000
v 22.20000 54.00000 -3.00000
v 40.20000 60.00000 -3.00000
v 37.80000 54.00000 -3.00000
v 55.80000 60.00000 -3.00000
v 53.40000 54.00000 -3.00000
v -53.40000 72.00000 -3.00000
v -37.80000 72.00000 -3.00000
v -55.80000 66.00000 -3.00000
v -40.20000 66.00000 -3.00000
v -22.20000 72.00000 -3.00000
v -24.60000 66.00000 -3.00000
v -6.60000 72.00000 -3.00000
v -9.00000 66.00000 -3.00000
v 9.00000 72.00000 -3.00000
v 6.60000 66.00000 -3.00000
v 24.60000 72.00000 -3.00000
v 22.20000 66.00000 -3.00000
v 40.20000 72.00000 -3.00000
v 37.80000 66.00000 -3.00000
v 55.80000 72.00000 -3.00000
v 53.40000 66.00000 -3.00000
v -53.40000 84.00000 -3.00000
v -37.80000 84.00000 -3.00000
v -55.80000 78.00000 -3.00000
v -40.20000 78.00000 -3.00000
v -22.20000 84.00000 -3.00000
v -24.60000 78.00000 -3.00000
v -6.60000 84.00000 -3.00000
v -9.00000 78.00000 -3.00000
v 9.00000 84.00000 -3.00000
v 6.60000 78.00000 -3.00000
v 24.60000 84.00000 -3.00000
v 22.20000 78.00000 -3.00000
v 40.20000 84.00000 -3.00000
v 37.80000 78.00000 -3.00000
v 55.80000 84.00000 -3.00000
v 53.40000 78.00000 -3.00000
v -55.80000 -84.00000 -3.00000
v -55.80000 84.00000 -3.00000
v -33.40000 -74.00000 -3.00000
v -44.60000 -76.00000 -3.00000
v -44.60000 -80.00000 -3.00000
v -33.40000 -70.00000 -3.00000
v -17.80000 -74.00000 -3.00000
v -29.00000 -76.00000 -3.00000
v -17.80000 -70.00000 -3.00000
v -2.20000 -74.00000 -3.00000
v -13.40000 -76.00000 -3.00000
v -2.20000 -70.00000 -3.00000
v 13.40000 -74.00000 -3.00000
v 2.20000 -76.00000 -3.00000
v 13.40000 -70.00000 -3.00000
v 29.00000 -74.00000 -3.00000
v 17.80000 -76.00000 -3.00000
v 29.00000 -70.00000 -3.00000
v 44.60000 -74.00000 -3.00000
v 33.40000 -76.00000 -3.00000
v 44.60000 -70.00000 -3.00000
v -33.40000 -62.00000 -3.00000
v -44.60000 -64.00000 -3.00000
v -44.60000 -68.00000 -3.00000
v -33.40000 -58.00000 -3.00000
v -17.80000 -62.00000 -3.00000
v -29.00000 -64.00000 -3.00000
v -29.00000 -68.00000 -3.00000
v -17.80000 -58.00000 -3.00000
v -2.20000 -62.00000 -3.00000
v -13.40000 -64.00000 -3.00000
v -13.40000 -68.00000 -3.00000
v -2.20000 -58.00000 -3.00000
v 13.40000 -62.00000 -3.00000
v 2.20000 -64.00000 -3.00000
v 2.20000 -68.00000 -3.00000
v 13.40000 -58.00000 -3.00000
v 29.00000 -62.00000 -3.00000
v 17.80000 -64.00000 -3.00000
v 17.80000 -68.00000 -3.00000
v 29.00000 -58.00000 -3.00000
v 44.60000 -62.00000 -3.00000
v 33.40000 -64.00000 -3.00000
v 33.40000 -68.00000 -3.00000
v 44.60000 -58.00000 -3.00000
v -33.40000 -50.00000 -3.00000
v -44.60000 -52.00000 -3.00000
v -44.60000 -56.00000 -3.00000
v -33.40000 -46.00000 -3.00000
v -17.80000 -50.00000 -3.00000
v -29.00000 -52.00000 -3.00000
v -29.00000 -56.00000 -3.00000
v -17.80000 -46.00000 -3.00000
v -2.20000 -50.00000 -3.00000
v -13.40000 -52.00000 -3.00000
v -13.40000 -56.00000 -3.00000
v -2.20000 -46.00000 -3.00000
v 13.40000 -50.00000 -3.00000
v 2.20000 -52.00000 -3.00000
v 2.20000 -56.00000 -3.00000
v 13.40000 -46.00000 -3.00000
v 29.00000 -50.00000 -3.00000
v 17.80000 -52.00000 -3.00000
v 17.80000 -56.00000 -3.00000
v 29.00000 -46.00000 -3.00000
v 44.60000 -50.00000 -3.00000
v 33.40000 -52.00000 -3.00000
v 33.40000 -56.00000 -3.00000
v 44.60000 -46.00000 -3.00000
v -33.40000 -38.00000 -3.00000
v -44.60000 -40.00000 -3.00000
v -44.60000 -44.00000 -3.00000
v -33.40000 -34.00000 -3.00000
v -17.80000 -38.00000 -3.00000
v -29.00000 -40.00000 -3.00000
v -29.00000 -44.00000 -3.00000
v -17.80000 -34.00000 -3.00000
v -2.20000 -38.00000 -3.00000
v -13.40000 -40.00000 -3.00000
v -13.40000 -44.00000 -3.00000
v -2.20000 -34.00000 -3.00000
v 13.40000 -38.00000 -3.00000
v 2.20000 -40.00000 -3.00000
v 2.20000 -44.00000 -3.00000
v 13.40000 -34.00000 -3.00000
v 29.00000 -38.00000 -3.00000
v 17.80000 -40.00000 -3.00000
v 17.80000 -44.00000 -3.00000
v 29.00000 -34.00000 -3.00000
v 44.60000 -38.00000 -3.00000
v 33.40000 -40.00000 -3.00000
v 33.40000 -44.00000 -3.00000
v 44.60000 -34.00000 -3.00000
v -33.40000 -26.00000 -3.00000
v -44.60000 -28.00000 -3.00000
v -44.60000 -32.00000 -3.00000
v -33.40000 -22.00000 -3.00000
v -17.80000 -26.00000 -3.00000
v -29.00000 -28.00000 -3.00000
v -29.00000 -32.00000 -3.00000
v -17.80000 -22.00000 -3.00000
v -2.20000 -26.00000 -3.00000
v -13.40000 -28.00000 -3.00000
v -13.40000 -32.00000 -3.00000
v -2.20000 -22.00000 -3.00000
v 13.40000 -26.00000 -3.00000
v 2.20000 -28.00000 -3.00000
v 2.20000 -32.00000 -3.00000
v 13.40000 -22.00000 -3.00000
v 29.00000 -26.00000 -3.00000
v 17.80000 -28.00000 -3.00000
v 17.80000 -32.00000 -3.00000
v 29.00000 -22.00000 -3.00000
v 44.60000 -26.00000 -3.00000
v 33.40000 -28.00000 -3.00000
v 33.40000 -32.00000 -3.00000
v 44.60000 -22.00000 -3.00000
v -33.40000 -14.00000 -3.00000
v -44.60000 -16.00000 -3.00000
v -44.60000 -20.00000 -3.00000
v -33.40000 -10.00000 -3.00000
v -17.80000 -14.00000 -3.00000
v -29.00000 -16.00000 -3.00000
v -29.00000 -20.00000 -3.00000
v -17.80000 -10.00000 -3.00000
v -2.20000 -14.00000 -3.00000
v -13.40000 -16.00000 -3.00000
v -13.40000 -20.00000 -3.00000
v -2.20000 -10.00000 -3.00000
v 13.40000 -14.00000 -3.00000
v 2.20000 -16.00000 -3.00000
v 2.20000 -20.00000 -3.00000
v 13.40000 -10.00000 -3.00000
v 29.00000 -14.00000 -3.00000
v 17.80000 -16.00000 -3.00000
v 17.80000 -20.00000 -3.00000
v 29.00000 -10.00000 -3.00000
v 44.60000 -14.00000 -3.00000
v 33.40000 -16.00000 -3.00000
v 33.40000 -20.00000 -3.00000
v 44.60000 -10.00000 -3.00000
v -33.40000 -2.00000 -3.00000
v -44.60000 -4.00000 -3.00000
v -44.60000 -8.00000 -3.00000
v -33.40000 2.00000 -3.00000
v -17.80000 -2.00000 -3.00000
v -29.00000 -4.00000 -3.00000
v -29.00000 -8.00000 -3.00000
v -17.80000 2.00000 -3.00000
v -2.20000 -2.00000 -3.00000
v -13.40000 -4.00000 -3.00000
v -13.40000 -8.00000 -3.00000
v -2.20000 2.00000 -3.00000
v 13.40000 -2.00000 -3.00000
v 2.20000 -4.00000 -3.00000
v 2.20000 -8.00000 -3.00000
v 13.40000 2.00000 -3.00000
v 29.00000 -2.00000 -3.00000
v 17.80000 -4.00000 -3.00000
v 17.80000 -8.00000 -3.00000
v 29.00000 2.00000 -3.00000
v 44.60000 -2.00000 -3.00000
v 33.40000 -4.00000 -3.00000
v 33.40000 -8.00000 -3.00000
v 44.60000 2.00000 -3.00000
v -33.40000 10.00000 -3.00000
v -44.60000 8.00000 -3.00000
v -44.60000 4.00000 -3.00000
v -33.40000 14.00000 -3.00000
v -17.80000 10.00000 -3.00000
v -29.00000 8.00000 -3.00000
v -29.00000 4.00000 -3.00000
v -17.80000 14.00000 -3.00000
v -2.20000 10.00000 -3.00000
v -13.40000 8.00000 -3.00000
v -13.40000 4.00000 -3.00000
v -2.20000 14.00000 -3.00000
v 13.40000 10.00000 -3.00000
v 2.20000 8.00000 -3.00000
v 2.20000 4.00000 -3.00000
v 13.40000 14.00000 -3.00000
v 29.00000 10.00000 -3.00000
v 17.80000 8.00000 -3.00000
v 17.80000 4.00000 -3.00000
v 29.00000 14.00000 -3.00000
v 44.60000 10.00000 -3.00000
v 33.40000 8.00000 -3.00000
v 33.40000 4.00000 -3.00000
v 44.60000 14.00000 -3.00000
v -33.40000 22.00000 -3.00000
v -44.60000 20.00000 -3.00000
v -44.60000 16.00000 -3.00000
v -33.40000 26.00000 -3.00000
v -17.80000 22.00000 -3.00000
v -29.00000 20.00000 -3.00000
v -29.00000 16.00000 -3.00000
v -17.80000 26.00000 -3.00000
v -2.20000 22.00000 -3.00000
v -13.40000 20.00000 -3.00000
v -13.40000 16.00000 -3.00000
v -2.20000 26.00000 -3.00000
v 13.40000 22.00000 -3.00000
v 2.20000 20.00000 -3.00000
v 2.20000 16.00000 -3.00000
v 13.40000 26.00000 -3.00000
v 29.00000 22.00000 -3.00000
v 17.80000 20.00000 -3.00000
v 17.80000 16.00000 -3.00000
v 29.00000 26.00000 -3.00000
v 44.60000 22.00000 -3.00000
v 33.40000 20.00000 -3.00000
v 33.40000 16.00000 -3.00000
v 44.60000 26.00000 -3.00000
v -33.40000 34.00000 -3.00000
v -44.60000 32.00000 -3.00000
v -44.60000 28.00000 -3.00000
v -33.40000 38.00000 -3.00000
v -17.80000 34.00000 -3.00000
v -29.00000 32.00000 -3.00000
v -29.00000 28.00000 -3.00000
v -17.80000 38.00000 -3.00000
v -2.20000 34.00000 -3.00000
v -13.40000 32.00000 -3.00000
v -13.40000 28.00000 -3.00000
v -2.20000 38.00000 -3.00000
v 13.40000 34.00000 -3.00000
v 2.20000 32.00000 -3.00000
v 2.20000 28.00000 -3.00000
v 13.40000 38.00000 -3.00000
v 29.00000 34.00000 -3.00000
v 17.80000 32.00000 -3.00000
v 17.80000 28.00000 -3.00000
v 29.00000 38.00000 -3.00000
v 44.60000 34.00000 -3.00000
v 33.40000 32.00000 -3.00000
v 33.40000 28.00000 -3.00000
v 44.60000 38.00000 -3.00000
v -33.40000 46.00000 -3.00000
v -44.60000 44.00000 -3.00000
v -44.60000 40.00000 -3.00000
v -33.40000 50.00000 -3.00000
v -17.80000 46.00000 -3.00000
v -29.00000 44.00000 -3.00000
v -29.00000 40.00000 -3.00000
v -17.80000 50.00000 -3.00000
v -2.20000 46.00000 -3.00000
v -13.40000 44.00000 -3.00000
v -13.40000 40.00000 -3.00000
v -2.20000 50.00000 -3.00000
v 13.40000 46.00000 -3.00000
v 2.20000 44.00000 -3.00000
v 2.20000 40.00000 -3.00000
v 13.40000 50.00000 -3.00000
v 29.00000 46.00000 -3.00000
v 17.80000 44.00000 -3.00000
v 17.80000 40.00000 -3.00000
v 29.00000 50.00000 -3.00000
v 44.60000 46.00000 -3.00000
v 33.40000 44.00000 -3.00000
v 33.40000 40.00000 -3.00000
v 44.60000 50.00000 -3.00000
v -33.40000 58.00000 -3.00000
v -44.60000 56.00000 -3.00000
v -44.60000 52.00000 -3.00000
v -33.40000 62.00000 -3.00000
v -17.80000 58.00000 -3.00000
v -29.00000 56.00000 -3.00000
v -29.00000 52.00000 -3.00000
v -17.80000 62.00000 -3.00000
v -2.20000 58.00000 -3.00000
v -13.40000 56.00000 -3.00000
v -13.40000 52.00000 -3.00000
v -2.20000 62.00000 -3.00000
v 13.40000 58.00000 -3.00000
v 2.20000 56.00000 -3.00000
v 2.20000 52.00000 -3.00000
v 13.40000 62.00000 -3.00000
v 29.00000 58.00000 -3.00000
v 17.80000 56.00000 -3.00000
v 17.80000 52.00000 -3.00000
v 29.00000 62.00000 -3.00000
v 44.60000 58.00000 -3.00000
v 33.40000 56.00000 -3.00000
v 33.40000 52.00000 -3.00000
v 44.60000 62.00000 -3.00000
v -33.40000 70.00000 -3.00000
v -44.60000 68.00000 -3.00000
v -44.60000 64.00000 -3.00000
v -33.40000 74.00000 -3.00000
v -17.80000 70.00000 -3.00000
v -29.00000 68.00000 -3.00000
v -29.00000 64.00000 -3.00000
v -17.80000 74.00000 -3.00000
v -2.20000 70.00000 -3.00000
v -13.40000 68.00000 -3.00000
v -13.40000 64.00000 -3.00000
v -2.20000 74.00000 -3.00000
v 13.40000 70.00000 -3.00000
v 2.20000 68.00000 -3.00000
v 2.20000 64.00000 -3.00000
v 13.40000 74.00000 -3.00000
v 29.00000 70.00000 -3.00000
v 17.80000 68.00000 -3.00000
v 17.80000 64.00000 -3.00000
v 29.00000 74.00000 -3.00000
v 44.60000 70.00000 -3.00000
v 33.40000 68.00000 -3.00000
v 33.40000 64.00000 -3.00000
v 44.60000 74.00000 -3.00000
v -44.60000 80.00000 -3.00000
v -44.60000 76.00000 -3.00000
v -29.00000 76.00000 -3.00000
v -13.40000 76.00000 -3.00000
v 2.20000 76.00000 -3.00000
v 17.80000 76.00000 -3.00000
v 33.40000 76.00000 -3.00000
f 1 2 27
f 549 575 550
f 2 1 3
f 550 551 549
f 3 1 27
f 551 575 549
f 2 4 235
f 550 783 552
f 4 7 235
f 552 783 555
f 7 2 235
f 555 783 550
f 4 2 236
f 552 784 550
f 2 3 236
f 550 784 551
f 3 4 236
f 551 784 552
f 4 3 237
f 552 785 551
f 3 6 237
f 551 785 554
f 6 4 237
f 554 785 552
f 3 5 6
f 551 554 553
f 5 3 233
f 553 781 551
f 4 6 9
f 552 557 554
f 2 7 238
f 550 786 555
f 7 28 238
f 555 786 576
f 28 2 238
f 576 786 550
f 7 8 239
f 555 787 556
f 8 10 239
f 556 787 558
f 10 7 239
f 558 787 555
f 8 7 240
f 556 788 555
f 7 4 240
f 555 788 552
f 4 8 240
f 552 788 556
f 8 4 9
f 556 557 552
f 8 9 12
f 556 560 557
f 7 10 241
f 555 789 558
f 10 30 241
f 558 789 578
f 30 7 241
f 578 789 555
f 10 11 242
f 558 790 559
f 11 13 242
f 559 790 561
f 13 10 242
f 561 790 558
f 11 10 243
f 559 791 558
f 10 8 243
f 558 791 556
f 8 11 243
f 556 791 559
f 11 8 12
f 559 560 556
f 11 12 15
f 559 563 560
f 10 13 244
f 558 792 561
f 13 32 244
f 561 792 580
f 32 10 244
f 580 792 558
f 13 14 245
f 561 793 562
f 14 16 245
f 562 793 564
f 16 13 245
f 564 793 561
f 14 13 246
f 562 794 561
f 13 11 246
f 561 794 559
f 11 14 246
f 559 794 562
f 14 11 15
f 562 563 559
f 14 15 18
f 562 566 563
f 13 16 247
f 561 795 564
f 16 34 247
f 564 795 582
f 34 13 247
f 582 795 561
f 16 17 248
f 564 796 565
f 17 19 248
f 565 796 567
f 19 16 248
f 567 796 564
f 17 16 249
f 565 797 564
f 16 14 249
f 564 797 562
f 14 17 249
f 562 797 565
f 17 14 18
f 565 566 562
f 17 18 21
f 565 569 566
f 16 19 250
f 564 798 567
f 19 36 250
f 567 798 584
f 36 16 250
f 584 798 564
f 19 20 251
f 567 799 568
f 20 22 251
f 568 799 570
f 22 19 251
f 570 799 567
f 20 19 252
f 568 800 567
f 19 17 252
f 567 800 565
f 17 20 252
f 565 800 568
f 20 17 21
f 568 569 565
f 20 21 24
f 568 572 569
f 19 22 253
f 567 801 570
f 22 38 253
f 570 801 586
f 38 19 253
f 586 801 567
f 22 23 24
f 570 572 571
f 23 22 20
f 571 568 570
f 23 20 24
f 571 572 568
f 25 26 43
f 573 591 574
f 26 25 27
f 574 575 573
f 27 25 43
f 575 591 573
f 26 28 254
f 574 802 576
f 28 29 254
f 576 802 577
f 29 26 254
f 577 802 574
f 28 26 255
f 576 803 574
f 26 27 255
f 574 803 575
f 27 28 255
f 575 803 576
f 28 27 256
f 576 804 575
f 27 2 256
f 575 804 550
f 2 28 256
f 550 804 576
f 26 29 257
f 574 805 577
f 29 44 257
f 577 805 592
f 44 26 257
f 592 805 574
f 29 30 258
f 577 806 578
f 30 31 258
f 578 806 579
f 31 29 258
f 579 806 577
f 30 29 259
f 578 807 577
f 29 28 259
f 577 807 576
f 28 30 259
f 576 807 578
f 30 28 260
f 578 808 576
f 28 7 260
f 576 808 555
f 7 30 260
f 555 808 578
f 29 31 261
f 577 809 579
f 31 46 261
f 579 809 594
f 46 29 261
f 594 809 577
f 31 32 262
f 579 810 580
f 32 33 262
f 580 810 581
f 33 31 262
f 581 810 579
f 32 31 263
f 580 811 579
f 31 30 263
f 579 811 578
f 30 32 263
f 578 811 580
f 32 30 264
f 580 812 578
f 30 10 264
f 578 812 558
f 10 32 264
f 558 812 580
f 31 33 265
f 579 813 581
f 33 48 265
f 581 813 596
f 48 31 265
f 596 813 579
f 33 34 266
f 581 814 582
f 34 35 266
f 582 814 583
f 35 33 266
f 583 814 581
f 34 33 267
f 582 815 581
f 33 32 267
f 581 815 580
f 32 34 267
f 580 815 582
f 34 32 268
f 582 816 580
f 32 13 268
f 580 816 561
f 13 34 268
f 561 816 582
f 33 35 269
f 581 817 583
f 35 50 269
f 583 817 598
f 50 33 269
f 598 817 581
f 35 36 270
f 583 818 584
f 36 37 270
f 584 818 585
f 37 35 270
f 585 818 583
f 36 35 271
f 584 819 583
f 35 34 271
f 583 819 582
f 34 36 271
f 582 819 584
f 36 34 272
f 584 820 582
f 34 16 272
f 582 820 564
f 16 36 272
f 564 820 584
f 35 37 273
f 583 821 585
f 37 52 273
f 585 821 600
f 52 35 273
f 600 821 583
f 37 38 274
f 585 822 586
f 38 39 274
f 586 822 587
f 39 37 274
f 587 822 585
f 38 37 275
f 586 823 585
f 37 36 275
f 585 823 584
f 36 38 275
f 584 823 586
f 38 36 276
f 586 824 584
f 36 19 276
f 584 824 567
f 19 38 276
f 567 824 586
f 37 39 277
f 585 825 587
f 39 54 277
f 587 825 602
f 54 37 277
f 602 825 585
f 39 40 22
f 587 570 588
f 40 39 38
f 588 586 587
f 40 38 22
f 588 570 586
f 41 42 59
f 589 607 590
f 42 41 43
f 590 591 589
f 43 41 59
f 591 607 589
f 42 44 278
f 590 826 592
f 44 45 278
f 592 826 593
f 45 42 278
f 593 826 590
f 44 42 279
f 592 827 590
f 42 43 279
f 590 827 591
f 43 44 279
f 591 827 592
f 44 43 280
f 592 828 591
f 43 26 280
f 591 828 574
f 26 44 280
f 574 828 592
f 42 45 281
f 590 829 593
f 45 60 281
f 593 829 608
f 60 42 281
f 608 829 590
f 45 46 282
f 593 830 594
f 46 47 282
f 594 830 595
f 47 45 282
f 595 830 593
f 46 45 283
f 594 831 593
f 45 44 283
f 593 831 592
f 44 46 283
f 592 831 594
f 46 44 284
f 594 832 592
f 44 29 284
f 592 832 577
f 29 46 284
f 577 832 594
f 45 47 285
f 593 833 595
f 47 62 285
f 595 833 610
f 62 45 285
f 610 833 593
f 47 48 286
f 595 834 596
f 48 49 286
f 596 834 597
f 49 47 286
f 597 834 595
f 48 47 287
f 596 835 595
f 47 46 287
f 595 835 594
f 46 48 287
f 594 835 596
f 48 46 288
f 596 836 594
f 46 31 288
f 594 836 579
f 31 48 288
f 579 836 596
f 47 49 289
f 595 837 597
f 49 64 289
f 597 837 612
f 64 47 289
f 612 837 595
f 49 50 290
f 597 838 598
f 50 51 290
f 598 838 599
f 51 49 290
f 599 838 597
f 50 49 291
f 598 839 597
f 49 48 291
f 597 839 596
f 48 50 291
f 596 839 598
f 50 48 292
f 598 840 596
f 48 33 292
f 596 840 581
f 33 50 292
f 581 840 598
f 49 51 293
f 597 841 599
f 51 66 293
f 599 841 614
f 66 49 293
f 614 841 597
f 51 52 294
f 599 842 600
f 52 53 294
f 600 842 601
f 53 51 294
f 601 842 599
f 52 51 295
f 600 843 599
f 51 50 295
f 599 843 598
f 50 52 295
f 598 843 600
f 52 50 296
f 600 844 598
f 50 35 296
f 598 844 583
f 35 52 296
f 583 844 600
f 51 53 297
f 599 845 601
f 53 68 297
f 601 845 616
f 68 51 297
f 616 845 599
f 53 54 298
f 601 846 602
f 54 55 298
f 602 846 603
f 55 53 298
f 603 846 601
f 54 53 299
f 602 847 601
f 53 52 299
f 601 847 600
f 52 54 299
f 600 847 602
f 54 52 300
f 602 848 600
f 52 37 300
f 600 848 585
f 37 54 300
f 585 848 602
f 53 55 301
f 601 849 603
f 55 70 301
f 603 849 618
f 70 53 301
f 618 849 601
f 55 56 39
f 603 587 604
f 56 55 54
f 604 602 603
f 56 54 39
f 604 587 602
f 57 58 75
f 605 623 606
f 58 57 59
f 606 607 605
f 59 57 75
f 607 623 605
f 58 60 302
f 606 850 608
f 60 61 302
f 608 850 609
f 61 58 302
f 609 850 606
f 60 58 303
f 608 851 606
f 58 59 303
f 606 851 607
f 59 60 303
f 607 851 608
f 60 59 304
f 608 852 607
f 59 42 304
f 607 852 590
f 42 60 304
f 590 852 608
f 58 61 305
f 606 853 609
f 61 76 305
f 609 853 624
f 76 58 305
f 624 853 606
f 61 62 306
f 609 854 610
f 62 63 306
f 610 854 611
f 63 61 306
f 611 854 609
f 62 61 307
f 610 855 609
f 61 60 307
f 609 855 608
f 60 62 307
f 608 855 610
f 62 60 308
f 610 856 608
f 60 45 308
f 608 856 593
f 45 62 308
f 593 856 610
f 61 63 309
f 609 857 611
f 63 78 309
f 611 857 626
f 78 61 309
f 626 857 609
f 63 64 310
f 611 858 612
f 64 65 310
f 612 858 613
f 65 63 310
f 613 858 611
f 64 63 311
f 612 859 611
f 63 62 311
f 611 859 610
f 62 64 311
f 610 859 612
f 64 62 312
f 612 860 610
f 62 47 312
f 610 860 595
f 47 64 312
f 595 860 612
f 63 65 313
f 611 861 613
f 65 80 313
f 613 861 628
f 80 63 313
f 628 861 611
f 65 66 314
f 613 862 614
f 66 67 314
f 614 862 615
f 67 65 314
f 615 862 613
f 66 65 315
f 614 863 613
f 65 64 315
f 613 863 612
f 64 66 315
f 612 863 614
f 66 64 316
f 614 864 612
f 64 49 316
f 612 864 597
f 49 66 316
f 597 864 614
f 65 67 317
f 613 865 615
f 67 82 317
f 615 865 630
f 82 65 317
f 630 865 613
f 67 68 318
f 615 866 616
f 68 69 318
f 616 866 617
f 69 67 318
f 617 866 615
f 68 67 319
f 616 867 615
f 67 66 319
f 615 867 614
f 66 68 319
f 614 867 616
f 68 66 320
f 616 868 614
f 66 51 320
f 614 868 599
f 51 68 320
f 599 868 616
f 67 69 321
f 615 869 617
f 69 84 321
f 617 869 632
f 84 67 321
f 632 869 615
f 69 70 322
f 617 870 618
f 70 71 322
f 618 870 619
f 71 69 322
f 619 870 617
f 70 69 323
f 618 871 617
f 69 68 323
f 617 871 616
f 68 70 323
f 616 871 618
f 70 68 324
f 618 872 616
f 68 53 324
f 616 872 601
f 53 70 324
f 601 872 618
f 69 71 325
f 617 873 619
f 71 86 325
f 619 873 634
f 86 69 325
f 634 873 617
f 71 72 55
f 619 603 620
f 72 71 70
f 620 618 619
f 72 70 55
f 620 603 618
f 73 74 91
f 621 639 622
f 74 73 75
f 622 623 621
f 75 73 91
f 623 639 621
f 74 76 326
f 622 874 624
f 76 77 326
f 624 874 625
f 77 74 326
f 625 874 622
f 76 74 327
f 624 875 622
f 74 75 327
f 622 875 623
f 75 76 327
f 623 875 624
f 76 75 328
f 624 876 623
f 75 58 328
f 623 876 606
f 58 76 328
f 606 876 624
f 74 77 329
f 622 877 625
f 77 92 329
f 625 877 640
f 92 74 329
f 640 877 622
f 77 78 330
f 625 878 626
f 78 79 330
f 626 878 627
f 79 77 330
f 627 878 625
f 78 77 331
f 626 879 625
f 77 76 331
f 625 879 624
f 76 78 331
f 624 879 626
f 78 76 332
f 626 880 624
f 76 61 332
f 624 880 609
f 61 78 332
f 609 880 626
f 77 79 333
f 625 881 627
f 79 94 333
f 627 881 642
f 94 77 333
f 642 881 625
f 79 80 334
f 627 882 628
f 80 81 334
f 628 882 629
f 81 79 334
f 629 882 627
f 80 79 335
f 628 883 627
f 79 78 335
f 627 883 626
f 78 80 335
f 626 883 628
f 80 78 336
f 628 884 626
f 78 63 336
f 626 884 611
f 63 80 336
f 611 884 628
f 79 81 337
f 627 885 629
f 81 96 337
f 629 885 644
f 96 79 337
f 644 885 627
f 81 82 338
f 629 886 630
f 82 83 338
f 630 886 631
f 83 81 338
f 631 886 629
f 82 81 339
f 630 887 629
f 81 80 339
f 629 887 628
f 80 82 339
f 628 887 630
f 82 80 340
f 630 888 628
f 80 65 340
f 628 888 613
f 65 82 340
f 613 888 630
f 81 83 341
f 629 889 631
f 83 98 341
f 631 889 646
f 98 81 341
f 646 889 629
f 83 84 342
f 631 890 632
f 84 85 342
f 632 890 633
f 85 83 342
f 633 890 631
f 84 83 343
f 632 891 631
f 83 82 343
f 631 891 630
f 82 84 343
f 630 891 632
f 84 82 344
f 632 892 630
f 82 67 344
f 630 892 615
f 67 84 344
f 615 892 632
f 83 85 345
f 631 893 633
f 85 100 345
f 633 893 648
f 100 83 345
f 648 893 631
f 85 86 346
f 633 894 634
f 86 87 346
f 634 894 635
f 87 85 346
f 635 894 633
f 86 85 347
f 634 895 633
f 85 84 347
f 633 895 632
f 84 86 347
f 632 895 634
f 86 84 348
f 634 896 632
f 84 69 348
f 632 896 617
f 69 86 348
f 617 896 634
f 85 87 349
f 633 897 635
f 87 102 349
f 635 897 650
f 102 85 349
f 650 897 633
f 87 88 71
f 635 619 636
f 88 87 86
f 636 634 635
f 88 86 71
f 636 619 634
f 89 90 107
f 637 655 638
f 90 89 91
f 638 639 637
f 91 89 107
f 639 655 637
f 90 92 350
f 638 898 640
f 92 93 350
f 640 898 641
f 93 90 350
f 641 898 638
f 92 90 351
f 640 899 638
f 90 91 351
f 638 899 639
f 91 92 351
f 639 899 640
f 92 91 352
f 640 900 639
f 91 74 352
f 639 900 622
f 74 92 352
f 622 900 640
f 90 93 353
f 638 901 641
f 93 108 353
f 641 901 656
f 108 90 353
f 656 901 638
f 93 94 354
f 641 902 642
f 94 95 354
f 642 902 643
f 95 93 354
f 643 902 641
f 94 93 355
f 642 903 641
f 93 92 355
f 641 903 640
f 92 94 355
f 640 903 642
f 94 92 356
f 642 904 640
f 92 77 356
f 640 904 625
f 77 94 356
f 625 904 642
f 93 95 357
f 641 905 643
f 95 110 357
f 643 905 658
f 110 93 357
f 658 905 641
f 95 96 358
f 643 906 644
f 96 97 358
f 644 906 645
f 97 95 358
f 645 906 643
f 96 95 359
f 644 907 643
f 95 94 359
f 643 907 642
f 94 96 359
f 642 907 644
f 96 94 360
f 644 908 642
f 94 79 360
f 642 908 627
f 79 96 360
f 627 908 644
f 95 97 361
f 643 909 645
f 97 112 361
f 645 909 660
f 112 95 361
f 660 909 643
f 97 98 362
f 645 910 646
f 98 99 362
f 646 910 647
f 99 97 362
f 647 910 645
f 98 97 363
f 646 911 645
f 97 96 363
f 645 911 644
f 96 98 363
f 644 911 646
f 98 96 364
f 646 912 644
f 96 81 364
f 644 912 629
f 81 98 364
f 629 912 646
f 97 99 365
f 645 913 647
f 99 114 365
f 647 913 662
f 114 97 365
f 662 913 645
f 99 100 366
f 647 914 648
f 100 101 366
f 648 914 649
f 101 99 366
f 649 914 647
f 100 99 367
f 648 915 647
f 99 98 367
f 647 915 646
f 98 100 367
f 646 915 648
f 100 98 368
f 648 916 646
f 98 83 368
f 646 916 631
f 83 100 368
f 631 916 648
f 99 101 369
f 647 917 649
f 101 116 369
f 649 917 664
f 116 99 369
f 664 917 647
f 101 102 370
f 649 918 650
f 102 103 370
f 650 918 651
f 103 101 370
f 651 918 649
f 102 101 371
f 650 919 649
f 101 100 371
f 649 919 648
f 100 102 371
f 648 919 650
f 102 100 372
f 650 920 648
f 100 85 372
f 648 920 633
f 85 102 372
f 633 920 650
f 101 103 373
f 649 921 651
f 103 118 373
f 651 921 666
f 118 101 373
f 666 921 649
f 103 104 87
f 651 635 652
f 104 103 102
f 652 650 651
f 104 102 87
f 652 635 650
f 105 106 123
f 653 671 654
f 106 105 107
f 654 655 653
f 107 105 123
f 655 671 653
f 106 108 374
f 654 922 656
f 108 109 374
f 656 922 657
f 109 106 374
f 657 922 654
f 108 106 375
f 656 923 654
f 106 107 375
f 654 923 655
f 107 108 375
f 655 923 656
f 108 107 376
f 656 924 655
f 107 90 376
f 655 924 638
f 90 108 376
f 638 924 656
f 106 109 377
f 654 925 657
f 109 124 377
f 657 925 672
f 124 106 377
f 672 925 654
f 109 110 378
f 657 926 658
f 110 111 378
f 658 926 659
f 111 109 378
f 659 926 657
f 110 109 379
f 658 927 657
f 109 108 379
f 657 927 656
f 108 110 379
f 656 927 658
f 110 108 380
f 658 928 656
f 108 93 380
f 656 928 641
f 93 110 380
f 641 928 658
f 109 111 381
f 657 929 659
f 111 126 381
f 659 929 674
f 126 109 381
f 674 929 657
f 111 112 382
f 659 930 660
f 112 113 382
f 660 930 661
f 113 111 382
f 661 930 659
f 112 111 383
f 660 931 659
f 111 110 383
f 659 931 658
f 110 112 383
f 658 931 660
f 112 110 384
f 660 932 658
f 110 95 384
f 658 932 643
f 95 112 384
f 643 932 660
f 111 113 385
f 659 933 661
f 113 128 385
f 661 933 676
f 128 111 385
f 676 933 659
f 113 114 386
f 661 934 662
f 114 115 386
f 662 934 663
f 115 113 386
f 663 934 661
f 114 113 387
f 662 935 661
f 113 112 387
f 661 935 660
f 112 114 387
f 660 935 662
f 114 112 388
f 662 936 660
f 112 97 388
f 660 936 645
f 97 114 388
f 645 936 662
f 113 115 389
f 661 937 663
f 115 130 389
f 663 937 678
f 130 113 389
f 678 937 661
f 115 116 390
f 663 938 664
f 116 117 390
f 664 938 665
f 117 115 390
f 665 938 663
f 116 115 391
f 664 939 663
f 115 114 391
f 663 939 662
f 114 116 391
f 662 939 664
f 116 114 392
f 664 940 662
f 114 99 392
f 662 940 647
f 99 116 392
f 647 940 664
f 115 117 393
f 663 941 665
f 117 132 393
f 665 941 680
f 132 115 393
f 680 941 663
f 117 118 394
f 665 942 666
f 118 119 394
f 666 942 667
f 119 117 394
f 667 942 665
f 118 117 395
f 666 943 665
f 117 116 395
f 665 943 664
f 116 118 395
f 664 943 666
f 118 116 396
f 666 944 664
f 116 101 396
f 664 944 649
f 101 118 396
f 649 944 666
f 117 119 397
f 665 945 667
f 119 134 397
f 667 945 682
f 134 117 397
f 682 945 665
f 119 120 103
f 667 651 668
f 120 119 118
f 668 666 667
f 120 118 103
f 668 651 666
f 121 122 139
f 669 687 670
f 122 121 123
f 670 671 669
f 123 121 139
f 671 687 669
f 122 124 398
f 670 946 672
f 124 125 398
f 672 946 673
f 125 122 398
f 673 946 670
f 124 122 399
f 672 947 670
f 122 123 399
f 670 947 671
f 123 124 399
f 671 947 672
f 124 123 400
f 672 948 671
f 123 106 400
f 671 948 654
f 106 124 400
f 654 948 672
f 122 125 401
f 670 949 673
f 125 140 401
f 673 949 688
f 140 122 401
f 688 949 670
f 125 126 402
f 673 950 674
f 126 127 402
f 674 950 675
f 127 125 402
f 675 950 673
f 126 125 403
f 674 951 673
f 125 124 403
f 673 951 672
f 124 126 403
f 672 951 674
f 126 124 404
f 674 952 672
f 124 109 404
f 672 952 657
f 109 126 404
f 657 952 674
f 125 127 405
f 673 953 675
f 127 142 405
f 675 953 690
f 142 125 405
f 690 953 673
f 127 128 406
f 675 954 676
f 128 129 406
f 676 954 677
f 129 127 406
f 677 954 675
f 128 127 407
f 676 955 675
f 127 126 407
f 675 955 674
f 126 128 407
f 674 955 676
f 128 126 408
f 676 956 674
f 126 111 408
f 674 956 659
f 111 128 408
f 659 956 676
f 127 129 409
f 675 957 677
f 129 144 409
f 677 957 692
f 144 127 409
f 692 957 675
f 129 130 410
f 677 958 678
f 130 131 410
f 678 958 679
f 131 129 410
f 679 958 677
f 130 129 411
f 678 959 677
f 129 128 411
f 677 959 676
f 128 130 411
f 676 959 678
f 130 128 412
f 678 960 676
f 128 113 412
f 676 960 661
f 113 130 412
f 661 960 678
f 129 131 413
f 677 961 679
f 131 146 413
f 679 961 694
f 146 129 413
f 694 961 677
f 131 132 414
f 679 962 680
f 132 133 414
f 680 962 681
f 133 131 414
f 681 962 679
f 132 131 415
f 680 963 679
f 131 130 415
f 679 963 678
f 130 132 415
f 678 963 680
f 132 130 416
f 680 964 678
f 130 115 416
f 678 964 663
f 115 132 416
f 663 964 680
f 131 133 417
f 679 965 681
f 133 148 417
f 681 965 696
f 148 131 417
f 696 965 679
f 133 134 418
f 681 966 682
f 134 135 418
f 682 966 683
f 135 133 418
f 683 966 681
f 134 133 419
f 682 967 681
f 133 132 419
f 681 967 680
f 132 134 419
f 680 967 682
f 134 132 420
f 682 968 680
f 132 117 420
f 680 968 665
f 117 134 420
f 665 968 682
f 133 135 421
f 681 969 683
f 135 150 421
f 683 969 698
f 150 133 421
f 698 969 681
f 135 136 119
f 683 667 684
f 136 135 134
f 684 682 683
f 136 134 119
f 684 667 682
f 137 138 155
f 685 703 686
f 138 137 139
f 686 687 685
f 139 137 155
f 687 703 685
f 138 140 422
f 686 970 688
f 140 141 422
f 688 970 689
f 141 138 422
f 689 970 686
f 140 138 423
f 688 971 686
f 138 139 423
f 686 971 687
f 139 140 423
f 687 971 688
f 140 139 424
f 688 972 687
f 139 122 424
f 687 972 670
f 122 140 424
f 670 972 688
f 138 141 425
f 686 973 689
f 141 156 425
f 689 973 704
f 156 138 425
f 704 973 686
f 141 142 426
f 689 974 690
f 142 143 426
f 690 974 691
f 143 141 426
f 691 974 689
f 142 141 427
f 690 975 689
f 141 140 427
f 689 975 688
f 140 142 427
f 688 975 690
f 142 140 428
f 690 976 688
f 140 125 428
f 688 976 673
f 125 142 428
f 673 976 690
f 141 143 429
f 689 977 691
f 143 158 429
f 691 977 706
f 158 141 429
f 706 977 689
f 143 144 430
f 691 978 692
f 144 145 430
f 692 978 693
f 145 143 430
f 693 978 691
f 144 143 431
f 692 979 691
f 143 142 431
f 691 979 690
f 142 144 431
f 690 979 692
f 144 142 432
f 692 980 690
f 142 127 432
f 690 980 675
f 127 144 432
f 675 980 692
f 143 145 433
f 691 981 693
f 145 160 433
f 693 981 708
f 160 143 433
f 708 981 691
f 145 146 434
f 693 982 694
f 146 147 434
f 694 982 695
f 147 145 434
f 695 982 693
f 146 145 435
f 694 983 693
f 145 144 435
f 693 983 692
f 144 146 435
f 692 983 694
f 146 144 436
f 694 984 692
f 144 129 436
f 692 984 677
f 129 146 436
f 677 984 694
f 145 147 437
f 693 985 695
f 147 162 437
f 695 985 710
f 162 145 437
f 710 985 693
f 147 148 438
f 695 986 696
f 148 149 438
f 696 986 697
f 149 147 438
f 697 986 695
f 148 147 439
f 696 987 695
f 147 146 439
f 695 987 694
f 146 148 439
f 694 987 696
f 148 146 440
f 696 988 694
f 146 131 440
f 694 988 679
f 131 148 440
f 679 988 696
f 147 149 441
f 695 989 697
f 149 164 441
f 697 989 712
f 164 147 441
f 712 989 695
f 149 150 442
f 697 990 698
f 150 151 442
f 698 990 699
f 151 149 442
f 699 990 697
f 150 149 443
f 698 991 697
f 149 148 443
f 697 991 696
f 148 150 443
f 696 991 698
f 150 148 444
f 698 992 696
f 148 133 444
f 696 992 681
f 133 150 444
f 681 992 698
f 149 151 445
f 697 993 699
f 151 166 445
f 699 993 714
f 166 149 445
f 714 993 697
f 151 152 135
f 699 683 700
f 152 151 150
f 700 698 699
f 152 150 135
f 700 683 698
f 153 154 171
f 701 719 702
f 154 153 155
f 702 703 701
f 155 153 171
f 703 719 701
f 154 156 446
f 702 994 704
f 156 157 446
f 704 994 705
f 157 154 446
f 705 994 702
f 156 154 447
f 704 995 702
f 154 155 447
f 702 995 703
f 155 156 447
f 703 995 704
f 156 155 448
f 704 996 703
f 155 138 448
f 703 996 686
f 138 156 448
f 686 996 704
f 154 157 449
f 702 997 705
f 157 172 449
f 705 997 720
f 172 154 449
f 720 997 702
f 157 158 450
f 705 998 706
f 158 159 450
f 706 998 707
f 159 157 450
f 707 998 705
f 158 157 451
f 706 999 705
f 157 156 451
f 705 999 704
f 156 158 451
f 704 999 706
f 158 156 452
f 706 1000 704
f 156 141 452
f 704 1000 689
f 141 158 452
f 689 1000 706
f 157 159 453
f 705 1001 707
f 159 174 453
f 707 1001 722
f 174 157 453
f 722 1001 705
f 159 160 454
f 707 1002 708
f 160 161 454
f 708 1002 709
f 161 159 454
f 709 1002 707
f 160 159 455
f 708 1003 707
f 159 158 455
f 707 1003 706
f 158 160 455
f 706 1003 708
f 160 158 456
f 708 1004 706
f 158 143 456
f 706 1004 691
f 143 160 456
f 691 1004 708
f 159 161 457
f 707 1005 709
f 161 176 457
f 709 1005 724
f 176 159 457
f 724 1005 707
f 161 162 458
f 709 1006 710
f 162 163 458
f 710 1006 711
f 163 161 458
f 711 1006 709
f 162 161 459
f 710 1007 709
f 161 160 459
f 709 1007 708
f 160 162 459
f 708 1007 710
f 162 160 460
f 710 1008 708
f 160 145 460
f 708 1008 693
f 145 162 460
f 693 1008 710
f 161 163 461
f 709 1009 711
f 163 178 461
f 711 1009 726
f 178 161 461
f 726 1009 709
f 163 164 462
f 711 1010 712
f 164 165 462
f 712 1010 713
f 165 163 462
f 713 1010 711
f 164 163 463
f 712 1011 711
f 163 162 463
f 711 1011 710
f 162 164 463
f 710 1011 712
f 164 162 464
f 712 1012 710
f 162 147 464
f 710 1012 695
f 147 164 464
f 695 1012 712
f 163 165 465
f 711 1013 713
f 165 180 465
f 713 1013 728
f 180 163 465
f 728 1013 711
f 165 166 466
f 713 1014 714
f 166 167 466
f 714 1014 715
f 167 165 466
f 715 1014 713
f 166 165 467
f 714 1015 713
f 165 164 467
f 713 1015 712
f 164 166 467
f 712 1015 714
f 166 164 468
f 714 1016 712
f 164 149 468
f 712 1016 697
f 149 166 468
f 697 1016 714
f 165 167 469
f 713 1017 715
f 167 182 469
f 715 1017 730
f 182 165 469
f 730 1017 713
f 167 168 151
f 715 699 716
f 168 167 166
f 716 714 715
f 168 166 151
f 716 699 714
f 169 170 187
f 717 735 718
f 170 169 171
f 718 719 717
f 171 169 187
f 719 735 717
f 170 172 470
f 718 1018 720
f 172 173 470
f 720 1018 721
f 173 170 470
f 721 1018 718
f 172 170 471
f 720 1019 718
f 170 171 471
f 718 1019 719
f 171 172 471
f 719 1019 720
f 172 171 472
f 720 1020 719
f 171 154 472
f 719 1020 702
f 154 172 472
f 702 1020 720
f 170 173 473
f 718 1021 721
f 173 188 473
f 721 1021 736
f 188 170 473
f 736 1021 718
f 173 174 474
f 721 1022 722
f 174 175 474
f 722 1022 723
f 175 173 474
f 723 1022 721
f 174 173 475
f 722 1023 721
f 173 172 475
f 721 1023 720
f 172 174 475
f 720 1023 722
f 174 172 476
f 722 1024 720
f 172 157 476
f 720 1024 705
f 157 174 476
f 705 1024 722
f 173 175 477
f 721 1025 723
f 175 190 477
f 723 1025 738
f 190 173 477
f 738 1025 721
f 175 176 478
f 723 1026 724
f 176 177 478
f 724 1026 725
f 177 175 478
f 725 1026 723
f 176 175 479
f 724 1027 723
f 175 174 479
f 723 1027 722
f 174 176 479
f 722 1027 724
f 176 174 480
f 724 1028 722
f 174 159 480
f 722 1028 707
f 159 176 480
f 707 1028 724
f 175 177 481
f 723 1029 725
f 177 192 481
f 725 1029 740
f 192 175 481
f 740 1029 723
f 177 178 482
f 725 1030 726
f 178 179 482
f 726 1030 727
f 179 177 482
f 727 1030 725
f 178 177 483
f 726 1031 725
f 177 176 483
f 725 1031 724
f 176 178 483
f 724 1031 726
f 178 176 484
f 726 1032 724
f 176 161 484
f 724 1032 709
f 161 178 484
f 709 1032 726
f 177 179 485
f 725 1033 727
f 179 194 485
f 727 1033 742
f 194 177 485
f 742 1033 725
f 179 180 486
f 727 1034 728
f 180 181 486
f 728 1034 729
f 181 179 486
f 729 1034 727
f 180 179 487
f 728 1035 727
f 179 178 487
f 727 1035 726
f 178 180 487
f 726 1035 728
f 180 178 488
f 728 1036 726
f 178 163 488
f 726 1036 711
f 163 180 488
f 711 1036 728
f 179 181 489
f 727 1037 729
f 181 196 489
f 729 1037 744
f 196 179 489
f 744 1037 727
f 181 182 490
f 729 1038 730
f 182 183 490
f 730 1038 731
f 183 181 490
f 731 1038 729
f 182 181 491
f 730 1039 729
f 181 180 491
f 729 1039 728
f 180 182 491
f 728 1039 730
f 182 180 492
f 730 1040 728
f 180 165 492
f 728 1040 713
f 165 182 492
f 713 1040 730
f 181 183 493
f 729 1041 731
f 183 198 493
f 731 1041 746
f 198 181 493
f 746 1041 729
f 183 184 167
f 731 715 732
f 184 183 182
f 732 730 731
f 184 182 167
f 732 715 730
f 185 186 203
f 733 751 734
f 186 185 187
f 734 735 733
f 187 185 203
f 735 751 733
f 186 188 494
f 734 1042 736
f 188 189 494
f 736 1042 737
f 189 186 494
f 737 1042 734
f 188 186 495
f 736 1043 734
f 186 187 495
f 734 1043 735
f 187 188 495
f 735 1043 736
f 188 187 496
f 736 1044 735
f 187 170 496
f 735 1044 718
f 170 188 496
f 718 1044 736
f 186 189 497
f 734 1045 737
f 189 204 497
f 737 1045 752
f 204 186 497
f 752 1045 734
f 189 190 498
f 737 1046 738
f 190 191 498
f 738 1046 739
f 191 189 498
f 739 1046 737
f 190 189 499
f 738 1047 737
f 189 188 499
f 737 1047 736
f 188 190 499
f 736 1047 738
f 190 188 500
f 738 1048 736
f 188 173 500
f 736 1048 721
f 173 190 500
f 721 1048 738
f 189 191 501
f 737 1049 739
f 191 206 501
f 739 1049 754
f 206 189 501
f 754 1049 737
f 191 192 502
f 739 1050 740
f 192 193 502
f 740 1050 741
f 193 191 502
f 741 1050 739
f 192 191 503
f 740 1051 739
f 191 190 503
f 739 1051 738
f 190 192 503
f 738 1051 740
f 192 190 504
f 740 1052 738
f 190 175 504
f 738 1052 723
f 175 192 504
f 723 1052 740
f 191 193 505
f 739 1053 741
f 193 208 505
f 741 1053 756
f 208 191 505
f 756 1053 739
f 193 194 506
f 741 1054 742
f 194 195 506
f 742 1054 743
f 195 193 506
f 743 1054 741
f 194 193 507
f 742 1055 741
f 193 192 507
f 741 1055 740
f 192 194 507
f 740 1055 742
f 194 192 508
f 742 1056 740
f 192 177 508
f 740 1056 725
f 177 194 508
f 725 1056 742
f 193 195 509
f 741 1057 743
f 195 210 509
f 743 1057 758
f 210 193 509
f 758 1057 741
f 195 196 510
f 743 1058 744
f 196 197 510
f 744 1058 745
f 197 195 510
f 745 1058 743
f 196 195 511
f 744 1059 743
f 195 194 511
f 743 1059 742
f 194 196 511
f 742 1059 744
f 196 194 512
f 744 1060 742
f 194 179 512
f 742 1060 727
f 179 196 512
f 727 1060 744
f 195 197 513
f 743 1061 745
f 197 212 513
f 745 1061 760
f 212 195 513
f 760 1061 743
f 197 198 514
f 745 1062 746
f 198 199 514
f 746 1062 747
f 199 197 514
f 747 1062 745
f 198 197 515
f 746 1063 745
f 197 196 515
f 745 1063 744
f 196 198 515
f 744 1063 746
f 198 196 516
f 746 1064 744
f 196 181 516
f 744 1064 729
f 181 198 516
f 729 1064 746
f 197 199 517
f 745 1065 747
f 199 214 517
f 747 1065 762
f 214 197 517
f 762 1065 745
f 199 200 183
f 747 731 748
f 200 199 198
f 748 746 747
f 200 198 183
f 748 731 746
f 201 202 219
f 749 767 750
f 202 201 203
f 750 751 749
f 203 201 219
f 751 767 749
f 202 204 518
f 750 1066 752
f 204 205 518
f 752 1066 753
f 205 202 518
f 753 1066 750
f 204 202 519
f 752 1067 750
f 202 203 519
f 750 1067 751
f 203 204 519
f 751 1067 752
f 204 203 520
f 752 1068 751
f 203 186 520
f 751 1068 734
f 186 204 520
f 734 1068 752
f 202 205 521
f 750 1069 753
f 205 220 521
f 753 1069 768
f 220 202 521
f 768 1069 750
f 205 206 522
f 753 1070 754
f 206 207 522
f 754 1070 755
f 207 205 522
f 755 1070 753
f 206 205 523
f 754 1071 753
f 205 204 523
f 753 1071 752
f 204 206 523
f 752 1071 754
f 206 204 524
f 754 1072 752
f 204 189 524
f 752 1072 737
f 189 206 524
f 737 1072 754
f 205 207 525
f 753 1073 755
f 207 222 525
f 755 1073 770
f 222 205 525
f 770 1073 753
f 207 208 526
f 755 1074 756
f 208 209 526
f 756 1074 757
f 209 207 526
f 757 1074 755
f 208 207 527
f 756 1075 755
f 207 206 527
f 755 1075 754
f 206 208 527
f 754 1075 756
f 208 206 528
f 756 1076 754
f 206 191 528
f 754 1076 739
f 191 208 528
f 739 1076 756
f 207 209 529
f 755 1077 757
f 209 224 529
f 757 1077 772
f 224 207 529
f 772 1077 755
f 209 210 530
f 757 1078 758
f 210 211 530
f 758 1078 759
f 211 209 530
f 759 1078 757
f 210 209 531
f 758 1079 757
f 209 208 531
f 757 1079 756
f 208 210 531
f 756 1079 758
f 210 208 532
f 758 1080 756
f 208 193 532
f 756 1080 741
f 193 210 532
f 741 1080 758
f 209 211 533
f 757 1081 759
f 211 226 533
f 759 1081 774
f 226 209 533
f 774 1081 757
f 211 212 534
f 759 1082 760
f 212 213 534
f 760 1082 761
f 213 211 534
f 761 1082 759
f 212 211 535
f 760 1083 759
f 211 210 535
f 759 1083 758
f 210 212 535
f 758 1083 760
f 212 210 536
f 760 1084 758
f 210 195 536
f 758 1084 743
f 195 212 536
f 743 1084 760
f 211 213 537
f 759 1085 761
f 213 228 537
f 761 1085 776
f 228 211 537
f 776 1085 759
f 213 214 538
f 761 1086 762
f 214 215 538
f 762 1086 763
f 215 213 538
f 763 1086 761
f 214 213 539
f 762 1087 761
f 213 212 539
f 761 1087 760
f 212 214 539
f 760 1087 762
f 214 212 540
f 762 1088 760
f 212 197 540
f 760 1088 745
f 197 214 540
f 745 1088 762
f 213 215 541
f 761 1089 763
f 215 230 541
f 763 1089 778
f 230 213 541
f 778 1089 761
f 215 216 199
f 763 747 764
f 216 215 214
f 764 762 763
f 216 214 199
f 764 747 762
f 218 217 219
f 766 767 765
f 219 217 234
f 767 782 765
f 218 220 221
f 766 769 768
f 220 218 542
f 768 1090 766
f 218 219 542
f 766 1090 767
f 219 220 542
f 767 1090 768
f 220 219 543
f 768 1091 767
f 219 202 543
f 767 1091 750
f 202 220 543
f 750 1091 768
f 221 222 223
f 769 771 770
f 222 221 220
f 770 768 769
f 222 220 544
f 770 1092 768
f 220 205 544
f 768 1092 753
f 205 222 544
f 753 1092 770
f 223 224 225
f 771 773 772
f 224 223 222
f 772 770 771
f 224 222 545
f 772 1093 770
f 222 207 545
f 770 1093 755
f 207 224 545
f 755 1093 772
f 225 226 227
f 773 775 774
f 226 225 224
f 774 772 773
f 226 224 546
f 774 1094 772
f 224 209 546
f 772 1094 757
f 209 226 546
f 757 1094 774
f 227 228 229
f 775 777 776
f 228 227 226
f 776 774 775
f 228 226 547
f 776 1095 774
f 226 211 547
f 774 1095 759
f 211 228 547
f 759 1095 776
f 229 230 231
f 777 779 778
f 230 229 228
f 778 776 777
f 230 228 548
f 778 1096 776
f 228 213 548
f 776 1096 761
f 213 230 548
f 761 1096 778
f 231 232 215
f 779 763 780
f 232 231 230
f 780 778 779
f 232 230 215
f 780 763 778
f 233 5 553
f 233 553 781
f 5 6 554
f 5 554 553
f 6 9 557
f 6 557 554
f 9 12 560
f 9 560 557
f 12 15 563
f 12 563 560
f 15 18 566
f 15 566 563
f 18 21 569
f 18 569 566
f 21 24 572
f 21 572 569
f 24 22 570
f 24 570 572
f 22 39 587
f 22 587 570
f 39 55 603
f 39 603 587
f 55 71 619
f 55 619 603
f 71 87 635
f 71 635 619
f 87 103 651
f 87 651 635
f 103 119 667
f 103 667 651
f 119 135 683
f 119 683 667
f 135 151 699
f 135 699 683
f 151 167 715
f 151 715 699
f 167 183 731
f 167 731 715
f 183 199 747
f 183 747 731
f 199 215 763
f 199 763 747
f 215 231 779
f 215 779 763
f 231 229 777
f 231 777 779
f 229 227 775
f 229 775 777
f 227 225 773
f 227 773 775
f 225 223 771
f 225 771 773
f 223 221 769
f 223 769 771
f 221 218 766
f 221 766 769
f 218 217 765
f 218 765 766
f 217 234 782
f 217 782 765
f 234 219 767
f 234 767 782
f 219 203 751
f 219 751 767
f 203 187 735
f 203 735 751
f 187 171 719
f 187 719 735
f 171 155 703
f 171 703 719
f 155 139 687
f 155 687 703
f 139 123 671
f 139 671 687
f 123 107 655
f 123 655 671
f 107 91 639
f 107 639 655
f 91 75 623
f 91 623 639
f 75 59 607
f 75 607 623
f 59 43 591
f 59 591 607
f 43 27 575
f 43 575 591
f 27 3 551
f 27 551 575
f 3 233 781
f 3 781 551
