# Bellows Diecut foldcore die
v -68.00000 -68.00000 7.35000
v -68.00000 -73.66667 7.35000
v -52.00000 -68.00000 7.35000
v -52.00000 -73.66667 7.35000
v -60.00000 -79.33333 7.35000
v -60.00000 -85.00000 7.35000
v -60.00000 -73.66667 7.35000
v -68.00000 -79.33333 7.35000
v -52.00000 -79.33333 7.35000
v -36.00000 -68.00000 7.35000
v -36.00000 -73.66667 7.35000
v -44.00000 -79.33333 7.35000
v -44.00000 -85.00000 7.35000
v -44.00000 -73.66667 7.35000
v -36.00000 -79.33333 7.35000
v -20.00000 -68.00000 7.35000
v -20.00000 -73.66667 7.35000
v -28.00000 -79.33333 7.35000
v -28.00000 -85.00000 7.35000
v -28.00000 -73.66667 7.35000
v -20.00000 -79.33333 7.35000
v -4.00000 -68.00000 7.35000
v -4.00000 -73.66667 7.35000
v -12.00000 -79.33333 7.35000
v -12.00000 -85.00000 7.35000
v -12.00000 -73.66667 7.35000
v -4.00000 -79.33333 7.35000
v 12.00000 -68.00000 7.35000
v 12.00000 -73.66667 7.35000
v 4.00000 -79.33333 7.35000
v 4.00000 -85.00000 7.35000
v 4.00000 -73.66667 7.35000
v 12.00000 -79.33333 7.35000
v 28.00000 -68.00000 7.35000
v 28.00000 -73.66667 7.35000
v 20.00000 -79.33333 7.35000
v 20.00000 -85.00000 7.35000
v 20.00000 -73.66667 7.35000
v 28.00000 -79.33333 7.35000
v 44.00000 -68.00000 7.35000
v 44.00000 -73.66667 7.35000
v 36.00000 -79.33333 7.35000
v 36.00000 -85.00000 7.35000
v 36.00000 -73.66667 7.35000
v 44.00000 -79.33333 7.35000
v 60.00000 -68.00000 7.35000
v 60.00000 -73.66667 7.35000
v 52.00000 -79.33333 7.35000
v 52.00000 -85.00000 7.35000
v 52.00000 -73.66667 7.35000
v 60.00000 -79.33333 7.35000
v -60.00000 -51.00000 7.35000
v -60.00000 -56.66667 7.35000
v -44.00000 -51.00000 7.35000
v -44.00000 -56.66667 7.35000
v -52.00000 -62.33333 7.35000
v -52.00000 -56.66667 7.35000
v -60.00000 -62.33333 7.35000
v -44.00000 -62.33333 7.35000
v -28.00000 -51.00000 7.35000
v -28.00000 -56.66667 7.35000
v -36.00000 -62.33333 7.35000
v -36.00000 -56.66667 7.35000
v -28.00000 -62.33333 7.35000
v -12.00000 -51.00000 7.35000
v -12.00000 -56.66667 7.35000
v -20.00000 -62.33333 7.35000
v -20.00000 -56.66667 7.35000
v -12.00000 -62.33333 7.35000
v 4.00000 -51.00000 7.35000
v 4.00000 -56.66667 7.35000
v -4.00000 -62.33333 7.35000
v -4.00000 -56.66667 7.35000
v 4.00000 -62.33333 7.35000
v 20.00000 -51.00000 7.35000
v 20.00000 -56.66667 7.35000
v 12.00000 -62.33333 7.35000
v 12.00000 -56.66667 7.35000
v 20.00000 -62.33333 7.35000
v 36.00000 -51.00000 7.35000
v 36.00000 -56.66667 7.35000
v 28.00000 -62.33333 7.35000
v 28.00000 -56.66667 7.35000
v 36.00000 -62.33333 7.35000
v 52.00000 -51.00000 7.35000
v 52.00000 -56.66667 7.35000
v 44.00000 -62.33333 7.35000
v 44.00000 -56.66667 7.35000
v 52.00000 -62.33333 7.35000
v 68.00000 -51.00000 7.35000
v 68.00000 -56.66667 7.35000
v 60.00000 -62.33333 7.35000
v 60.00000 -56.66667 7.35000
v 68.00000 -62.33333 7.35000
v -68.00000 -34.00000 7.35000
v -68.00000 -39.66667 7.35000
v -52.00000 -34.00000 7.35000
v -52.00000 -39.66667 7.35000
v -60.00000 -45.33333 7.35000
v -60.00000 -39.66667 7.35000
v -68.00000 -45.33333 7.35000
v -52.00000 -45.33333 7.35000
v -36.00000 -34.00000 7.35000
v -36.00000 -39.66667 7.35000
v -44.00000 -45.33333 7.35000
v -44.00000 -39.66667 7.35000
v -36.00000 -45.33333 7.35000
v -20.00000 -34.00000 7.35000
v -20.00000 -39.66667 7.35000
v -28.00000 -45.33333 7.35000
v -28.00000 -39.66667 7.35000
v -20.00000 -45.33333 7.35000
v -4.00000 -34.00000 7.35000
v -4.00000 -39.66667 7.35000
v -12.00000 -45.33333 7.35000
v -12.00000 -39.66667 7.35000
v -4.00000 -45.33333 7.35000
v 12.00000 -34.00000 7.35000
v 12.00000 -39.66667 7.35000
v 4.00000 -45.33333 7.35000
v 4.00000 -39.66667 7.35000
v 12.00000 -45.33333 7.35000
v 28.00000 -34.00000 7.35000
v 28.00000 -39.66667 7.35000
v 20.00000 -45.33333 7.35000
v 20.00000 -39.66667 7.35000
v 28.00000 -45.33333 7.35000
v 44.00000 -34.00000 7.35000
v 44.00000 -39.66667 7.35000
v 36.00000 -45.33333 7.35000
v 36.00000 -39.66667 7.35000
v 44.00000 -45.33333 7.35000
v 60.00000 -34.00000 7.35000
v 60.00000 -39.66667 7.35000
v 52.00000 -45.33333 7.35000
v 52.00000 -39.66667 7.35000
v 60.00000 -45.33333 7.35000
v -60.00000 -17.00000 7.35000
v -60.00000 -22.66667 7.35000
v -44.00000 -17.00000 7.35000
v -44.00000 -22.66667 7.35000
v -52.00000 -28.33333 7.35000
v -52.00000 -22.66667 7.35000
v -60.00000 -28.33333 7.35000
v -44.00000 -28.33333 7.35000
v -28.00000 -17.00000 7.35000
v -28.00000 -22.66667 7.35000
v -36.00000 -28.33333 7.35000
v -36.00000 -22.66667 7.35000
v -28.00000 -28.33333 7.35000
v -12.00000 -17.00000 7.35000
v -12.00000 -22.66667 7.35000
v -20.00000 -28.33333 7.35000
v -20.00000 -22.66667 7.35000
v -12.00000 -28.33333 7.35000
v 4.00000 -17.00000 7.35000
v 4.00000 -22.66667 7.35000
v -4.00000 -28.33333 7.35000
v -4.00000 -22.66667 7.35000
v 4.00000 -28.33333 7.35000
v 20.00000 -17.00000 7.35000
v 20.00000 -22.66667 7.35000
v 12.00000 -28.33333 7.35000
v 12.00000 -22.66667 7.35000
v 20.00000 -28.33333 7.35000
v 36.00000 -17.00000 7.35000
v 36.00000 -22.66667 7.35000
v 28.00000 -28.33333 7.35000
v 28.00000 -22.66667 7.35000
v 36.00000 -28.33333 7.35000
v 52.00000 -17.00000 7.35000
v 52.00000 -22.66667 7.35000
v 44.00000 -28.33333 7.35000
v 44.00000 -22.66667 7.35000
v 52.00000 -28.33333 7.35000
v 68.00000 -17.00000 7.35000
v 68.00000 -22.66667 7.35000
v 60.00000 -28.33333 7.35000
v 60.00000 -22.66667 7.35000
v 68.00000 -28.33333 7.35000
v -68.00000 0.00000 7.35000
v -68.00000 -5.66667 7.35000
v -52.00000 0.00000 7.35000
v -52.00000 -5.66667 7.35000
v -60.00000 -11.33333 7.35000
v -60.00000 -5.66667 7.35000
v -68.00000 -11.33333 7.35000
v -52.00000 -11.33333 7.35000
v -36.00000 0.00000 7.35000
v -36.00000 -5.66667 7.35000
v -44.00000 -11.33333 7.35000
v -44.00000 -5.66667 7.35000
v -36.00000 -11.33333 7.35000
v -20.00000 0.00000 7.35000
v -20.00000 -5.66667 7.35000
v -28.00000 -11.33333 7.35000
v -28.00000 -5.66667 7.35000
v -20.00000 -11.33333 7.35000
v -4.00000 0.00000 7.35000
v -4.00000 -5.66667 7.35000
v -12.00000 -11.33333 7.35000
v -12.00000 -5.66667 7.35000
v -4.00000 -11.33333 7.35000
v 12.00000 0.00000 7.35000
v 12.00000 -5.66667 7.35000
v 4.00000 -11.33333 7.35000
v 4.00000 -5.66667 7.35000
v 12.00000 -11.33333 7.35000
v 28.00000 0.00000 7.35000
v 28.00000 -5.66667 7.35000
v 20.00000 -11.33333 7.35000
v 20.00000 -5.66667 7.35000
v 28.00000 -11.33333 7.35000
v 44.00000 0.00000 7.35000
v 44.00000 -5.66667 7.35000
v 36.00000 -11.33333 7.35000
v 36.00000 -5.66667 7.35000
v 44.00000 -11.33333 7.35000
v 60.00000 0.00000 7.35000
v 60.00000 -5.66667 7.35000
v 52.00000 -11.33333 7.35000
v 52.00000 -5.66667 7.35000
v 60.00000 -11.33333 7.35000
v -60.00000 17.00000 7.35000
v -60.00000 11.33333 7.35000
v -44.00000 17.00000 7.35000
v -44.00000 11.33333 7.35000
v -52.00000 5.66667 7.35000
v -52.00000 11.33333 7.35000
v -60.00000 5.66667 7.35000
v -44.00000 5.66667 7.35000
v -28.00000 17.00000 7.35000
v -28.00000 11.33333 7.35000
v -36.00000 5.66667 7.35000
v -36.00000 11.33333 7.35000
v -28.00000 5.66667 7.35000
v -12.00000 17.00000 7.35000
v -12.00000 11.33333 7.35000
v -20.00000 5.66667 7.35000
v -20.00000 11.33333 7.35000
v -12.00000 5.66667 7.35000
v 4.00000 17.00000 7.35000
v 4.00000 11.33333 7.35000
v -4.00000 5.66667 7.35000
v -4.00000 11.33333 7.35000
v 4.00000 5.66667 7.35000
v 20.00000 17.00000 7.35000
v 20.00000 11.33333 7.35000
v 12.00000 5.66667 7.35000
v 12.00000 11.33333 7.35000
v 20.00000 5.66667 7.35000
v 36.00000 17.00000 7.35000
v 36.00000 11.33333 7.35000
v 28.00000 5.66667 7.35000
v 28.00000 11.33333 7.35000
v 36.00000 5.66667 7.35000
v 52.00000 17.00000 7.35000
v 52.00000 11.33333 7.35000
v 44.00000 5.66667 7.35000
v 44.00000 11.33333 7.35000
v 52.00000 5.66667 7.35000
v 68.00000 17.00000 7.35000
v 68.00000 11.33333 7.35000
v 60.00000 5.66667 7.35000
v 60.00000 11.33333 7.35000
v 68.00000 5.66667 7.35000
v -68.00000 34.00000 7.35000
v -68.00000 28.33333 7.35000
v -52.00000 34.00000 7.35000
v -52.00000 28.33333 7.35000
v -60.00000 22.66667 7.35000
v -60.00000 28.33333 7.35000
v -68.00000 22.66667 7.35000
v -52.00000 22.66667 7.35000
v -36.00000 34.00000 7.35000
v -36.00000 28.33333 7.35000
v -44.00000 22.66667 7.35000
v -44.00000 28.33333 7.35000
v -36.00000 22.66667 7.35000
v -20.00000 34.00000 7.35000
v -20.00000 28.33333 7.35000
v -28.00000 22.66667 7.35000
v -28.00000 28.33333 7.35000
v -20.00000 22.66667 7.35000
v -4.00000 34.00000 7.35000
v -4.00000 28.33333 7.35000
v -12.00000 22.66667 7.35000
v -12.00000 28.33333 7.35000
v -4.00000 22.66667 7.35000
v 12.00000 34.00000 7.35000
v 12.00000 28.33333 7.35000
v 4.00000 22.66667 7.35000
v 4.00000 28.33333 7.35000
v 12.00000 22.66667 7.35000
v 28.00000 34.00000 7.35000
v 28.00000 28.33333 7.35000
v 20.00000 22.66667 7.35000
v 20.00000 28.33333 7.35000
v 28.00000 22.66667 7.35000
v 44.00000 34.00000 7.35000
v 44.00000 28.33333 7.35000
v 36.00000 22.66667 7.35000
v 36.00000 28.33333 7.35000
v 44.00000 22.66667 7.35000
v 60.00000 34.00000 7.35000
v 60.00000 28.33333 7.35000
v 52.00000 22.66667 7.35000
v 52.00000 28.33333 7.35000
v 60.00000 22.66667 7.35000
v -60.00000 51.00000 7.35000
v -60.00000 45.33333 7.35000
v -44.00000 51.00000 7.35000
v -44.00000 45.33333 7.35000
v -52.00000 39.66667 7.35000
v -52.00000 45.33333 7.35000
v -60.00000 39.66667 7.35000
v -44.00000 39.66667 7.35000
v -28.00000 51.00000 7.35000
v -28.00000 45.33333 7.35000
v -36.00000 39.66667 7.35000
v -36.00000 45.33333 7.35000
v -28.00000 39.66667 7.35000
v -12.00000 51.00000 7.35000
v -12.00000 45.33333 7.35000
v -20.00000 39.66667 7.35000
v -20.00000 45.33333 7.35000
v -12.00000 39.66667 7.35000
v 4.00000 51.00000 7.35000
v 4.00000 45.33333 7.35000
v -4.00000 39.66667 7.35000
v -4.00000 45.33333 7.35000
v 4.00000 39.66667 7.35000
v 20.00000 51.00000 7.35000
v 20.00000 45.33333 7.35000
v 12.00000 39.66667 7.35000
v 12.00000 45.33333 7.35000
v 20.00000 39.66667 7.35000
v 36.00000 51.00000 7.35000
v 36.00000 45.33333 7.35000
v 28.00000 39.66667 7.35000
v 28.00000 45.33333 7.35000
v 36.00000 39.66667 7.35000
v 52.00000 51.00000 7.35000
v 52.00000 45.33333 7.35000
v 44.00000 39.66667 7.35000
v 44.00000 45.33333 7.35000
v 52.00000 39.66667 7.35000
v 68.00000 51.00000 7.35000
v 68.00000 45.33333 7.35000
v 60.00000 39.66667 7.35000
v 60.00000 45.33333 7.35000
v 68.00000 39.66667 7.35000
v -68.00000 68.00000 7.35000
v -68.00000 62.33333 7.35000
v -52.00000 68.00000 7.35000
v -52.00000 62.33333 7.35000
v -60.00000 56.66667 7.35000
v -60.00000 62.33333 7.35000
v -68.00000 56.66667 7.35000
v -52.00000 56.66667 7.35000
v -36.00000 68.00000 7.35000
v -36.00000 62.33333 7.35000
v -44.00000 56.66667 7.35000
v -44.00000 62.33333 7.35000
v -36.00000 56.66667 7.35000
v -20.00000 68.00000 7.35000
v -20.00000 62.33333 7.35000
v -28.00000 56.66667 7.35000
v -28.00000 62.33333 7.35000
v -20.00000 56.66667 7.35000
v -4.00000 68.00000 7.35000
v -4.00000 62.33333 7.35000
v -12.00000 56.66667 7.35000
v -12.00000 62.33333 7.35000
v -4.00000 56.66667 7.35000
v 12.00000 68.00000 7.35000
v 12.00000 62.33333 7.35000
v 4.00000 56.66667 7.35000
v 4.00000 62.33333 7.35000
v 12.00000 56.66667 7.35000
v 28.00000 68.00000 7.35000
v 28.00000 62.33333 7.35000
v 20.00000 56.66667 7.35000
v 20.00000 62.33333 7.35000
v 28.00000 56.66667 7.35000
v 44.00000 68.00000 7.35000
v 44.00000 62.33333 7.35000
v 36.00000 56.66667 7.35000
v 36.00000 62.33333 7.35000
v 44.00000 56.66667 7.35000
v 60.00000 68.00000 7.35000
v 60.00000 62.33333 7.35000
v 52.00000 56.66667 7.35000
v 52.00000 62.33333 7.35000
v 60.00000 56.66667 7.35000
v -60.00000 85.00000 7.35000
v -60.00000 79.33333 7.35000
v -44.00000 85.00000 7.35000
v -44.00000 79.33333 7.35000
v -52.00000 73.66667 7.35000
v -52.00000 79.33333 7.35000
v -60.00000 73.66667 7.35000
v -44.00000 73.66667 7.35000
v -28.00000 85.00000 7.35000
v -28.00000 79.33333 7.35000
v -36.00000 73.66667 7.35000
v -36.00000 79.33333 7.35000
v -28.00000 73.66667 7.35000
v -12.00000 85.00000 7.35000
v -12.00000 79.33333 7.35000
v -20.00000 73.66667 7.35000
v -20.00000 79.33333 7.35000
v -12.00000 73.66667 7.35000
v 4.00000 85.00000 7.35000
v 4.00000 79.33333 7.35000
v -4.00000 73.66667 7.35000
v -4.00000 79.33333 7.35000
v 4.00000 73.66667 7.35000
v 20.00000 85.00000 7.35000
v 20.00000 79.33333 7.35000
v 12.00000 73.66667 7.35000
v 12.00000 79.33333 7.35000
v 20.00000 73.66667 7.35000
v 36.00000 85.00000 7.35000
v 36.00000 79.33333 7.35000
v 28.00000 73.66667 7.35000
v 28.00000 79.33333 7.35000
v 36.00000 73.66667 7.35000
v 52.00000 85.00000 7.35000
v 52.00000 79.33333 7.35000
v 44.00000 73.66667 7.35000
v 44.00000 79.33333 7.35000
v 52.00000 73.66667 7.35000
v 68.00000 85.00000 7.35000
v 68.00000 79.33333 7.35000
v 60.00000 73.66667 7.35000
v 60.00000 79.33333 7.35000
v 68.00000 73.66667 7.35000
v -68.00000 -85.00000 7.35000
v 68.00000 -85.00000 7.35000
v -68.00000 85.00000 7.35000
v -61.14286 -60.71429 7.35000
v -44.00000 -68.00000 7.35000
v -28.00000 -68.00000 7.35000
v -12.00000 -68.00000 7.35000
v 4.00000 -68.00000 7.35000
v 20.00000 -68.00000 7.35000
v 36.00000 -68.00000 7.35000
v 52.00000 -68.00000 7.35000
v -52.00000 -51.00000 7.35000
v -36.00000 -51.00000 7.35000
v -20.00000 -51.00000 7.35000
v -4.00000 -51.00000 7.35000
v 12.00000 -51.00000 7.35000
v 28.00000 -51.00000 7.35000
v 44.00000 -51.00000 7.35000
v 61.14286 -43.71429 7.35000
v -61.14286 -26.71429 7.35000
v -44.00000 -34.00000 7.35000
v -28.00000 -34.00000 7.35000
v -12.00000 -34.00000 7.35000
v 4.00000 -34.00000 7.35000
v 20.00000 -34.00000 7.35000
v 36.00000 -34.00000 7.35000
v 52.00000 -34.00000 7.35000
v -52.00000 -17.00000 7.35000
v -36.00000 -17.00000 7.35000
v -20.00000 -17.00000 7.35000
v -4.00000 -17.00000 7.35000
v 12.00000 -17.00000 7.35000
v 28.00000 -17.00000 7.35000
v 44.00000 -17.00000 7.35000
v 61.14286 -9.71429 7.35000
v -61.14286 7.28571 7.35000
v -44.00000 0.00000 7.35000
v -28.00000 0.00000 7.35000
v -12.00000 0.00000 7.35000
v 4.00000 0.00000 7.35000
v 20.00000 0.00000 7.35000
v 36.00000 0.00000 7.35000
v 52.00000 0.00000 7.35000
v -52.00000 17.00000 7.35000
v -36.00000 17.00000 7.35000
v -20.00000 17.00000 7.35000
v -4.00000 17.00000 7.35000
v 12.00000 17.00000 7.35000
v 28.00000 17.00000 7.35000
v 44.00000 17.00000 7.35000
v 61.14286 24.28571 7.35000
v -61.14286 41.28571 7.35000
v -44.00000 34.00000 7.35000
v -28.00000 34.00000 7.35000
v -12.00000 34.00000 7.35000
v 4.00000 34.00000 7.35000
v 20.00000 34.00000 7.35000
v 36.00000 34.00000 7.35000
v 52.00000 34.00000 7.35000
v -52.00000 51.00000 7.35000
v -36.00000 51.00000 7.35000
v -20.00000 51.00000 7.35000
v -4.00000 51.00000 7.35000
v 12.00000 51.00000 7.35000
v 28.00000 51.00000 7.35000
v 44.00000 51.00000 7.35000
v 61.14286 58.28571 7.35000
v -44.00000 68.00000 7.35000
v -28.00000 68.00000 7.35000
v -12.00000 68.00000 7.35000
v 4.00000 68.00000 7.35000
v 20.00000 68.00000 7.35000
v 36.00000 68.00000 7.35000
v 52.00000 68.00000 7.35000
v -68.00000 -68.00000 0.50000
v -68.00000 -73.66667 3.06667
v -52.00000 -68.00000 -2.06667
v -52.00000 -73.66667 4.35000
v -60.00000 -79.33333 4.35000
v -60.00000 -85.00000 -2.06667
v -60.00000 -73.66667 -7.20000
v -68.00000 -79.33333 -7.20000
v -52.00000 -79.33333 -7.20000
v -36.00000 -68.00000 -2.06667
v -36.00000 -73.66667 4.35000
v -44.00000 -79.33333 4.35000
v -44.00000 -85.00000 -2.06667
v -44.00000 -73.66667 -7.20000
v -36.00000 -79.33333 -7.20000
v -20.00000 -68.00000 -2.06667
v -20.00000 -73.66667 4.35000
v -28.00000 -79.33333 4.35000
v -28.00000 -85.00000 -2.06667
v -28.00000 -73.66667 -7.20000
v -20.00000 -79.33333 -7.20000
v -4.00000 -68.00000 -2.06667
v -4.00000 -73.66667 4.35000
v -12.00000 -79.33333 4.35000
v -12.00000 -85.00000 -2.06667
v -12.00000 -73.66667 -7.20000
v -4.00000 -79.33333 -7.20000
v 12.00000 -68.00000 -2.06667
v 12.00000 -73.66667 4.35000
v 4.00000 -79.33333 4.35000
v 4.00000 -85.00000 -2.06667
v 4.00000 -73.66667 -7.20000
v 12.00000 -79.33333 -7.20000
v 28.00000 -68.00000 -2.06667
v 28.00000 -73.66667 4.35000
v 20.00000 -79.33333 4.35000
v 20.00000 -85.00000 -2.06667
v 20.00000 -73.66667 -7.20000
v 28.00000 -79.33333 -7.20000
v 44.00000 -68.00000 -2.06667
v 44.00000 -73.66667 4.35000
v 36.00000 -79.33333 4.35000
v 36.00000 -85.00000 -2.06667
v 36.00000 -73.66667 -7.20000
v 44.00000 -79.33333 -7.20000
v 60.00000 -68.00000 -1.04000
v 60.00000 -73.66667 3.06667
v 52.00000 -79.33333 4.35000
v 52.00000 -85.00000 -2.06667
v 52.00000 -73.66667 -7.20000
v 60.00000 -79.33333 -7.20000
v -60.00000 -51.00000 -1.04000
v -60.00000 -56.66667 3.06667
v -44.00000 -51.00000 -2.06667
v -44.00000 -56.66667 4.35000
v -52.00000 -62.33333 4.35000
v -52.00000 -56.66667 -7.20000
v -60.00000 -62.33333 -7.20000
v -44.00000 -62.33333 -7.20000
v -28.00000 -51.00000 -2.06667
v -28.00000 -56.66667 4.35000
v -36.00000 -62.33333 4.35000
v -36.00000 -56.66667 -7.20000
v -28.00000 -62.33333 -7.20000
v -12.00000 -51.00000 -2.06667
v -12.00000 -56.66667 4.35000
v -20.00000 -62.33333 4.35000
v -20.00000 -56.66667 -7.20000
v -12.00000 -62.33333 -7.20000
v 4.00000 -51.00000 -2.06667
v 4.00000 -56.66667 4.35000
v -4.00000 -62.33333 4.35000
v -4.00000 -56.66667 -7.20000
v 4.00000 -62.33333 -7.20000
v 20.00000 -51.00000 -2.06667
v 20.00000 -56.66667 4.35000
v 12.00000 -62.33333 4.35000
v 12.00000 -56.66667 -7.20000
v 20.00000 -62.33333 -7.20000
v 36.00000 -51.00000 -2.06667
v 36.00000 -56.66667 4.35000
v 28.00000 -62.33333 4.35000
v 28.00000 -56.66667 -7.20000
v 36.00000 -62.33333 -7.20000
v 52.00000 -51.00000 -2.06667
v 52.00000 -56.66667 4.35000
v 44.00000 -62.33333 4.35000
v 44.00000 -56.66667 -7.20000
v 52.00000 -62.33333 -7.20000
v 68.00000 -51.00000 0.50000
v 68.00000 -56.66667 3.06667
v 60.00000 -62.33333 4.35000
v 60.00000 -56.66667 -7.20000
v 68.00000 -62.33333 -7.20000
v -68.00000 -34.00000 0.50000
v -68.00000 -39.66667 3.06667
v -52.00000 -34.00000 -2.06667
v -52.00000 -39.66667 4.35000
v -60.00000 -45.33333 4.35000
v -60.00000 -39.66667 -7.20000
v -68.00000 -45.33333 -7.20000
v -52.00000 -45.33333 -7.20000
v -36.00000 -34.00000 -2.06667
v -36.00000 -39.66667 4.35000
v -44.00000 -45.33333 4.35000
v -44.00000 -39.66667 -7.20000
v -36.00000 -45.33333 -7.20000
v -20.00000 -34.00000 -2.06667
v -20.00000 -39.66667 4.35000
v -28.00000 -45.33333 4.35000
v -28.00000 -39.66667 -7.20000
v -20.00000 -45.33333 -7.20000
v -4.00000 -34.00000 -2.06667
v -4.00000 -39.66667 4.35000
v -12.00000 -45.33333 4.35000
v -12.00000 -39.66667 -7.20000
v -4.00000 -45.33333 -7.20000
v 12.00000 -34.00000 -2.06667
v 12.00000 -39.66667 4.35000
v 4.00000 -45.33333 4.35000
v 4.00000 -39.66667 -7.20000
v 12.00000 -45.33333 -7.20000
v 28.00000 -34.00000 -2.06667
v 28.00000 -39.66667 4.35000
v 20.00000 -45.33333 4.35000
v 20.00000 -39.66667 -7.20000
v 28.00000 -45.33333 -7.20000
v 44.00000 -34.00000 -2.06667
v 44.00000 -39.66667 4.35000
v 36.00000 -45.33333 4.35000
v 36.00000 -39.66667 -7.20000
v 44.00000 -45.33333 -7.20000
v 60.00000 -34.00000 -1.04000
v 60.00000 -39.66667 3.06667
v 52.00000 -45.33333 4.35000
v 52.00000 -39.66667 -7.20000
v 60.00000 -45.33333 -7.20000
v -60.00000 -17.00000 -1.04000
v -60.00000 -22.66667 3.06667
v -44.00000 -17.00000 -2.06667
v -44.00000 -22.66667 4.35000
v -52.00000 -28.33333 4.35000
v -52.00000 -22.66667 -7.20000
v -60.00000 -28.33333 -7.20000
v -44.00000 -28.33333 -7.20000
v -28.00000 -17.00000 -2.06667
v -28.00000 -22.66667 4.35000
v -36.00000 -28.33333 4.35000
v -36.00000 -22.66667 -7.20000
v -28.00000 -28.33333 -7.20000
v -12.00000 -17.00000 -2.06667
v -12.00000 -22.66667 4.35000
v -20.00000 -28.33333 4.35000
v -20.00000 -22.66667 -7.20000
v -12.00000 -28.33333 -7.20000
v 4.00000 -17.00000 -2.06667
v 4.00000 -22.66667 4.35000
v -4.00000 -28.33333 4.35000
v -4.00000 -22.66667 -7.20000
v 4.00000 -28.33333 -7.20000
v 20.00000 -17.00000 -2.06667
v 20.00000 -22.66667 4.35000
v 12.00000 -28.33333 4.35000
v 12.00000 -22.66667 -7.20000
v 20.00000 -28.33333 -7.20000
v 36.00000 -17.00000 -2.06667
v 36.00000 -22.66667 4.35000
v 28.00000 -28.33333 4.35000
v 28.00000 -22.66667 -7.20000
v 36.00000 -28.33333 -7.20000
v 52.00000 -17.00000 -2.06667
v 52.00000 -22.66667 4.35000
v 44.00000 -28.33333 4.35000
v 44.00000 -22.66667 -7.20000
v 52.00000 -28.33333 -7.20000
v 68.00000 -17.00000 0.50000
v 68.00000 -22.66667 3.06667
v 60.00000 -28.33333 4.35000
v 60.00000 -22.66667 -7.20000
v 68.00000 -28.33333 -7.20000
v -68.00000 0.00000 0.50000
v -68.00000 -5.66667 3.06667
v -52.00000 0.00000 -2.06667
v -52.00000 -5.66667 4.35000
v -60.00000 -11.33333 4.35000
v -60.00000 -5.66667 -7.20000
v -68.00000 -11.33333 -7.20000
v -52.00000 -11.33333 -7.20000
v -36.00000 0.00000 -2.06667
v -36.00000 -5.66667 4.35000
v -44.00000 -11.33333 4.35000
v -44.00000 -5.66667 -7.20000
v -36.00000 -11.33333 -7.20000
v -20.00000 0.00000 -2.06667
v -20.00000 -5.66667 4.35000
v -28.00000 -11.33333 4.35000
v -28.00000 -5.66667 -7.20000
v -20.00000 -11.33333 -7.20000
v -4.00000 0.00000 -2.06667
v -4.00000 -5.66667 4.35000
v -12.00000 -11.33333 4.35000
v -12.00000 -5.66667 -7.20000
v -4.00000 -11.33333 -7.20000
v 12.00000 0.00000 -2.06667
v 12.00000 -5.66667 4.35000
v 4.00000 -11.33333 4.35000
v 4.00000 -5.66667 -7.20000
v 12.00000 -11.33333 -7.20000
v 28.00000 0.00000 -2.06667
v 28.00000 -5.66667 4.35000
v 20.00000 -11.33333 4.35000
v 20.00000 -5.66667 -7.20000
v 28.00000 -11.33333 -7.20000
v 44.00000 0.00000 -2.06667
v 44.00000 -5.66667 4.35000
v 36.00000 -11.33333 4.35000
v 36.00000 -5.66667 -7.20000
v 44.00000 -11.33333 -7.20000
v 60.00000 0.00000 -1.04000
v 60.00000 -5.66667 3.06667
v 52.00000 -11.33333 4.35000
v 52.00000 -5.66667 -7.20000
v 60.00000 -11.33333 -7.20000
v -60.00000 17.00000 -1.04000
v -60.00000 11.33333 3.06667
v -44.00000 17.00000 -2.06667
v -44.00000 11.33333 4.35000
v -52.00000 5.66667 4.35000
v -52.00000 11.33333 -7.20000
v -60.00000 5.66667 -7.20000
v -44.00000 5.66667 -7.20000
v -28.00000 17.00000 -2.06667
v -28.00000 11.33333 4.35000
v -36.00000 5.66667 4.35000
v -36.00000 11.33333 -7.20000
v -28.00000 5.66667 -7.20000
v -12.00000 17.00000 -2.06667
v -12.00000 11.33333 4.35000
v -20.00000 5.66667 4.35000
v -20.00000 11.33333 -7.20000
v -12.00000 5.66667 -7.20000
v 4.00000 17.00000 -2.06667
v 4.00000 11.33333 4.35000
v -4.00000 5.66667 4.35000
v -4.00000 11.33333 -7.20000
v 4.00000 5.66667 -7.20000
v 20.00000 17.00000 -2.06667
v 20.00000 11.33333 4.35000
v 12.00000 5.66667 4.35000
v 12.00000 11.33333 -7.20000
v 20.00000 5.66667 -7.20000
v 36.00000 17.00000 -2.06667
v 36.00000 11.33333 4.35000
v 28.00000 5.66667 4.35000
v 28.00000 11.33333 -7.20000
v 36.00000 5.66667 -7.20000
v 52.00000 17.00000 -2.06667
v 52.00000 11.33333 4.35000
v 44.00000 5.66667 4.35000
v 44.00000 11.33333 -7.20000
v 52.00000 5.66667 -7.20000
v 68.00000 17.00000 0.50000
v 68.00000 11.33333 3.06667
v 60.00000 5.66667 4.35000
v 60.00000 11.33333 -7.20000
v 68.00000 5.66667 -7.20000
v -68.00000 34.00000 0.50000
v -68.00000 28.33333 3.06667
v -52.00000 34.00000 -2.06667
v -52.00000 28.33333 4.35000
v -60.00000 22.66667 4.35000
v -60.00000 28.33333 -7.20000
v -68.00000 22.66667 -7.20000
v -52.00000 22.66667 -7.20000
v -36.00000 34.00000 -2.06667
v -36.00000 28.33333 4.35000
v -44.00000 22.66667 4.35000
v -44.00000 28.33333 -7.20000
v -36.00000 22.66667 -7.20000
v -20.00000 34.00000 -2.06667
v -20.00000 28.33333 4.35000
v -28.00000 22.66667 4.35000
v -28.00000 28.33333 -7.20000
v -20.00000 22.66667 -7.20000
v -4.00000 34.00000 -2.06667
v -4.00000 28.33333 4.35000
v -12.00000 22.66667 4.35000
v -12.00000 28.33333 -7.20000
v -4.00000 22.66667 -7.20000
v 12.00000 34.00000 -2.06667
v 12.00000 28.33333 4.35000
v 4.00000 22.66667 4.35000
v 4.00000 28.33333 -7.20000
v 12.00000 22.66667 -7.20000
v 28.00000 34.00000 -2.06667
v 28.00000 28.33333 4.35000
v 20.00000 22.66667 4.35000
v 20.00000 28.33333 -7.20000
v 28.00000 22.66667 -7.20000
v 44.00000 34.00000 -2.06667
v 44.00000 28.33333 4.35000
v 36.00000 22.66667 4.35000
v 36.00000 28.33333 -7.20000
v 44.00000 22.66667 -7.20000
v 60.00000 34.00000 -1.04000
v 60.00000 28.33333 3.06667
v 52.00000 22.66667 4.35000
v 52.00000 28.33333 -7.20000
v 60.00000 22.66667 -7.20000
v -60.00000 51.00000 -1.04000
v -60.00000 45.33333 3.06667
v -44.00000 51.00000 -2.06667
v -44.00000 45.33333 4.35000
v -52.00000 39.66667 4.35000
v -52.00000 45.33333 -7.20000
v -60.00000 39.66667 -7.20000
v -44.00000 39.66667 -7.20000
v -28.00000 51.00000 -2.06667
v -28.00000 45.33333 4.35000
v -36.00000 39.66667 4.35000
v -36.00000 45.33333 -7.20000
v -28.00000 39.66667 -7.20000
v -12.00000 51.00000 -2.06667
v -12.00000 45.33333 4.35000
v -20.00000 39.66667 4.35000
v -20.00000 45.33333 -7.20000
v -12.00000 39.66667 -7.20000
v 4.00000 51.00000 -2.06667
v 4.00000 45.33333 4.35000
v -4.00000 39.66667 4.35000
v -4.00000 45.33333 -7.20000
v 4.00000 39.66667 -7.20000
v 20.00000 51.00000 -2.06667
v 20.00000 45.33333 4.35000
v 12.00000 39.66667 4.35000
v 12.00000 45.33333 -7.20000
v 20.00000 39.66667 -7.20000
v 36.00000 51.00000 -2.06667
v 36.00000 45.33333 4.35000
v 28.00000 39.66667 4.35000
v 28.00000 45.33333 -7.20000
v 36.00000 39.66667 -7.20000
v 52.00000 51.00000 -2.06667
v 52.00000 45.33333 4.35000
v 44.00000 39.66667 4.35000
v 44.00000 45.33333 -7.20000
v 52.00000 39.66667 -7.20000
v 68.00000 51.00000 0.50000
v 68.00000 45.33333 3.06667
v 60.00000 39.66667 4.35000
v 60.00000 45.33333 -7.20000
v 68.00000 39.66667 -7.20000
v -68.00000 68.00000 0.50000
v -68.00000 62.33333 3.06667
v -52.00000 68.00000 -2.06667
v -52.00000 62.33333 4.35000
v -60.00000 56.66667 4.35000
v -60.00000 62.33333 -7.20000
v -68.00000 56.66667 -7.20000
v -52.00000 56.66667 -7.20000
v -36.00000 68.00000 -2.06667
v -36.00000 62.33333 4.35000
v -44.00000 56.66667 4.35000
v -44.00000 62.33333 -7.20000
v -36.00000 56.66667 -7.20000
v -20.00000 68.00000 -2.06667
v -20.00000 62.33333 4.35000
v -28.00000 56.66667 4.35000
v -28.00000 62.33333 -7.20000
v -20.00000 56.66667 -7.20000
v -4.00000 68.00000 -2.06667
v -4.00000 62.33333 4.35000
v -12.00000 56.66667 4.35000
v -12.00000 62.33333 -7.20000
v -4.00000 56.66667 -7.20000
v 12.00000 68.00000 -2.06667
v 12.00000 62.33333 4.35000
v 4.00000 56.66667 4.35000
v 4.00000 62.33333 -7.20000
v 12.00000 56.66667 -7.20000
v 28.00000 68.00000 -2.06667
v 28.00000 62.33333 4.35000
v 20.00000 56.66667 4.35000
v 20.00000 62.33333 -7.20000
v 28.00000 56.66667 -7.20000
v 44.00000 68.00000 -2.06667
v 44.00000 62.33333 4.35000
v 36.00000 56.66667 4.35000
v 36.00000 62.33333 -7.20000
v 44.00000 56.66667 -7.20000
v 60.00000 68.00000 -1.04000
v 60.00000 62.33333 3.06667
v 52.00000 56.66667 4.35000
v 52.00000 62.33333 -7.20000
v 60.00000 56.66667 -7.20000
v -60.00000 85.00000 0.50000
v -60.00000 79.33333 3.06667
v -44.00000 85.00000 -2.06667
v -44.00000 79.33333 4.35000
v -52.00000 73.66667 4.35000
v -52.00000 79.33333 -7.20000
v -60.00000 73.66667 -7.20000
v -44.00000 73.66667 -7.20000
v -28.00000 85.00000 -2.06667
v -28.00000 79.33333 4.35000
v -36.00000 73.66667 4.35000
v -36.00000 79.33333 -7.20000
v -28.00000 73.66667 -7.20000
v -12.00000 85.00000 -2.06667
v -12.00000 79.33333 4.35000
v -20.00000 73.66667 4.35000
v -20.00000 79.33333 -7.20000
v -12.00000 73.66667 -7.20000
v 4.00000 85.00000 -2.06667
v 4.00000 79.33333 4.35000
v -4.00000 73.66667 4.35000
v -4.00000 79.33333 -7.20000
v 4.00000 73.66667 -7.20000
v 20.00000 85.00000 -2.06667
v 20.00000 79.33333 4.35000
v 12.00000 73.66667 4.35000
v 12.00000 79.33333 -7.20000
v 20.00000 73.66667 -7.20000
v 36.00000 85.00000 -2.06667
v 36.00000 79.33333 4.35000
v 28.00000 73.66667 4.35000
v 28.00000 79.33333 -7.20000
v 36.00000 73.66667 -7.20000
v 52.00000 85.00000 -2.06667
v 52.00000 79.33333 4.35000
v 44.00000 73.66667 4.35000
v 44.00000 79.33333 -7.20000
v 52.00000 73.66667 -7.20000
v 68.00000 85.00000 0.50000
v 68.00000 79.33333 3.06667
v 60.00000 73.66667 4.35000
v 60.00000 79.33333 -7.20000
v 68.00000 73.66667 -7.20000
v -68.00000 -85.00000 0.50000
v 68.00000 -85.00000 0.50000
v -68.00000 85.00000 0.50000
v -61.14286 -60.71429 -6.87000
v -44.00000 -68.00000 -8.48333
v -28.00000 -68.00000 -8.48333
v -12.00000 -68.00000 -8.48333
v 4.00000 -68.00000 -8.48333
v 20.00000 -68.00000 -8.48333
v 36.00000 -68.00000 -8.48333
v 52.00000 -68.00000 -8.22667
v -52.00000 -51.00000 -8.22667
v -36.00000 -51.00000 -8.48333
v -20.00000 -51.00000 -8.48333
v -4.00000 -51.00000 -8.48333
v 12.00000 -51.00000 -8.48333
v 28.00000 -51.00000 -8.48333
v 44.00000 -51.00000 -8.48333
v 61.14286 -43.71429 -6.87000
v -61.14286 -26.71429 -6.87000
v -44.00000 -34.00000 -8.48333
v -28.00000 -34.00000 -8.48333
v -12.00000 -34.00000 -8.48333
v 4.00000 -34.00000 -8.48333
v 20.00000 -34.00000 -8.48333
v 36.00000 -34.00000 -8.48333
v 52.00000 -34.00000 -8.22667
v -52.00000 -17.00000 -8.22667
v -36.00000 -17.00000 -8.48333
v -20.00000 -17.00000 -8.48333
v -4.00000 -17.00000 -8.48333
v 12.00000 -17.00000 -8.48333
v 28.00000 -17.00000 -8.48333
v 44.00000 -17.00000 -8.48333
v 61.14286 -9.71429 -6.87000
v -61.14286 7.28571 -6.87000
v -44.00000 0.00000 -8.48333
v -28.00000 0.00000 -8.48333
v -12.00000 0.00000 -8.48333
v 4.00000 0.00000 -8.48333
v 20.00000 0.00000 -8.48333
v 36.00000 0.00000 -8.48333
v 52.00000 0.00000 -8.22667
v -52.00000 17.00000 -8.22667
v -36.00000 17.00000 -8.48333
v -20.00000 17.00000 -8.48333
v -4.00000 17.00000 -8.48333
v 12.00000 17.00000 -8.48333
v 28.00000 17.00000 -8.48333
v 44.00000 17.00000 -8.48333
v 61.14286 24.28571 -6.87000
v -61.14286 41.28571 -6.87000
v -44.00000 34.00000 -8.48333
v -28.00000 34.00000 -8.48333
v -12.00000 34.00000 -8.48333
v 4.00000 34.00000 -8.48333
v 20.00000 34.00000 -8.48333
v 36.00000 34.00000 -8.48333
v 52.00000 34.00000 -8.22667
v -52.00000 51.00000 -8.22667
v -36.00000 51.00000 -8.48333
v -20.00000 51.00000 -8.48333
v -4.00000 51.00000 -8.48333
v 12.00000 51.00000 -8.48333
v 28.00000 51.00000 -8.48333
v 44.00000 51.00000 -8.48333
v 61.14286 58.28571 -6.87000
v -44.00000 68.00000 -8.48333
v -28.00000 68.00000 -8.48333
v -12.00000 68.00000 -8.48333
v 4.00000 68.00000 -8.48333
v 20.00000 68.00000 -8.48333
v 36.00000 68.00000 -8.48333
v 52.00000 68.00000 -8.22667
f 1 2 5
f 513 517 514
f 1 5 7
f 513 519 517
f 3 4 12
f 515 524 516
f 3 12 14
f 515 526 524
f 4 3 7
f 516 519 515
f 4 7 5
f 516 517 519
f 5 2 8
f 517 520 514
f 5 8 6
f 517 518 520
f 4 5 6
f 516 518 517
f 4 6 9
f 516 521 518
f 1 7 442
f 513 954 519
f 7 3 442
f 519 954 515
f 3 58 442
f 515 954 570
f 58 53 442
f 570 954 565
f 53 52 442
f 565 954 564
f 52 101 442
f 564 954 613
f 101 1 442
f 613 954 513
f 4 9 13
f 516 525 521
f 4 13 12
f 516 524 525
f 6 8 439
f 518 951 520
f 9 6 13
f 521 525 518
f 10 11 18
f 522 530 523
f 10 18 20
f 522 532 530
f 11 10 14
f 523 526 522
f 11 14 12
f 523 524 526
f 11 12 13
f 523 525 524
f 11 13 15
f 523 527 525
f 3 14 443
f 515 955 526
f 14 10 443
f 526 955 522
f 10 59 443
f 522 955 571
f 59 3 443
f 571 955 515
f 11 15 19
f 523 531 527
f 11 19 18
f 523 530 531
f 15 13 19
f 527 531 525
f 16 17 24
f 528 536 529
f 16 24 26
f 528 538 536
f 17 16 20
f 529 532 528
f 17 20 18
f 529 530 532
f 17 18 19
f 529 531 530
f 17 19 21
f 529 533 531
f 10 20 444
f 522 956 532
f 20 16 444
f 532 956 528
f 16 64 444
f 528 956 576
f 64 10 444
f 576 956 522
f 17 21 25
f 529 537 533
f 17 25 24
f 529 536 537
f 21 19 25
f 533 537 531
f 22 23 30
f 534 542 535
f 22 30 32
f 534 544 542
f 23 22 26
f 535 538 534
f 23 26 24
f 535 536 538
f 23 24 25
f 535 537 536
f 23 25 27
f 535 539 537
f 16 26 445
f 528 957 538
f 26 22 445
f 538 957 534
f 22 69 445
f 534 957 581
f 69 16 445
f 581 957 528
f 23 27 31
f 535 543 539
f 23 31 30
f 535 542 543
f 27 25 31
f 539 543 537
f 28 29 36
f 540 548 541
f 28 36 38
f 540 550 548
f 29 28 32
f 541 544 540
f 29 32 30
f 541 542 544
f 29 30 31
f 541 543 542
f 29 31 33
f 541 545 543
f 22 32 446
f 534 958 544
f 32 28 446
f 544 958 540
f 28 74 446
f 540 958 586
f 74 22 446
f 586 958 534
f 29 33 37
f 541 549 545
f 29 37 36
f 541 548 549
f 33 31 37
f 545 549 543
f 34 35 42
f 546 554 547
f 34 42 44
f 546 556 554
f 35 34 38
f 547 550 546
f 35 38 36
f 547 548 550
f 35 36 37
f 547 549 548
f 35 37 39
f 547 551 549
f 28 38 447
f 540 959 550
f 38 34 447
f 550 959 546
f 34 79 447
f 546 959 591
f 79 28 447
f 591 959 540
f 35 39 43
f 547 555 551
f 35 43 42
f 547 554 555
f 39 37 43
f 551 555 549
f 40 41 48
f 552 560 553
f 40 48 50
f 552 562 560
f 41 40 44
f 553 556 552
f 41 44 42
f 553 554 556
f 41 42 43
f 553 555 554
f 41 43 45
f 553 557 555
f 34 44 448
f 546 960 556
f 44 40 448
f 556 960 552
f 40 84 448
f 552 960 596
f 84 34 448
f 596 960 546
f 41 45 49
f 553 561 557
f 41 49 48
f 553 560 561
f 45 43 49
f 557 561 555
f 46 47 51
f 558 563 559
f 46 51 49
f 558 561 563
f 46 49 440
f 558 952 561
f 46 440 94
f 558 606 952
f 47 46 50
f 559 562 558
f 47 50 48
f 559 560 562
f 47 48 49
f 559 561 560
f 47 49 51
f 559 563 561
f 40 50 449
f 552 961 562
f 50 46 449
f 562 961 558
f 46 89 449
f 558 961 601
f 89 40 449
f 601 961 552
f 52 53 56
f 564 568 565
f 52 56 57
f 564 569 568
f 54 55 62
f 566 574 567
f 54 62 63
f 566 575 574
f 55 54 57
f 567 569 566
f 55 57 56
f 567 568 569
f 56 53 58
f 568 570 565
f 56 58 3
f 568 515 570
f 55 56 3
f 567 515 568
f 55 3 59
f 567 571 515
f 52 57 450
f 564 962 569
f 57 54 450
f 569 962 566
f 54 102 450
f 566 962 614
f 102 52 450
f 614 962 564
f 55 59 10
f 567 522 571
f 55 10 62
f 567 574 522
f 60 61 67
f 572 579 573
f 60 67 68
f 572 580 579
f 61 60 63
f 573 575 572
f 61 63 62
f 573 574 575
f 61 62 10
f 573 522 574
f 61 10 64
f 573 576 522
f 54 63 451
f 566 963 575
f 63 60 451
f 575 963 572
f 60 107 451
f 572 963 619
f 107 54 451
f 619 963 566
f 61 64 16
f 573 528 576
f 61 16 67
f 573 579 528
f 65 66 72
f 577 584 578
f 65 72 73
f 577 585 584
f 66 65 68
f 578 580 577
f 66 68 67
f 578 579 580
f 66 67 16
f 578 528 579
f 66 16 69
f 578 581 528
f 60 68 452
f 572 964 580
f 68 65 452
f 580 964 577
f 65 112 452
f 577 964 624
f 112 60 452
f 624 964 572
f 66 69 22
f 578 534 581
f 66 22 72
f 578 584 534
f 70 71 77
f 582 589 583
f 70 77 78
f 582 590 589
f 71 70 73
f 583 585 582
f 71 73 72
f 583 584 585
f 71 72 22
f 583 534 584
f 71 22 74
f 583 586 534
f 65 73 453
f 577 965 585
f 73 70 453
f 585 965 582
f 70 117 453
f 582 965 629
f 117 65 453
f 629 965 577
f 71 74 28
f 583 540 586
f 71 28 77
f 583 589 540
f 75 76 82
f 587 594 588
f 75 82 83
f 587 595 594
f 76 75 78
f 588 590 587
f 76 78 77
f 588 589 590
f 76 77 28
f 588 540 589
f 76 28 79
f 588 591 540
f 70 78 454
f 582 966 590
f 78 75 454
f 590 966 587
f 75 122 454
f 587 966 634
f 122 70 454
f 634 966 582
f 76 79 34
f 588 546 591
f 76 34 82
f 588 594 546
f 80 81 87
f 592 599 593
f 80 87 88
f 592 600 599
f 81 80 83
f 593 595 592
f 81 83 82
f 593 594 595
f 81 82 34
f 593 546 594
f 81 34 84
f 593 596 546
f 75 83 455
f 587 967 595
f 83 80 455
f 595 967 592
f 80 127 455
f 592 967 639
f 127 75 455
f 639 967 587
f 81 84 40
f 593 552 596
f 81 40 87
f 593 599 552
f 85 86 92
f 597 604 598
f 85 92 93
f 597 605 604
f 86 85 88
f 598 600 597
f 86 88 87
f 598 599 600
f 86 87 40
f 598 552 599
f 86 40 89
f 598 601 552
f 80 88 456
f 592 968 600
f 88 85 456
f 600 968 597
f 85 132 456
f 597 968 644
f 132 80 456
f 644 968 592
f 86 89 46
f 598 558 601
f 86 46 92
f 598 604 558
f 91 90 93
f 603 605 602
f 91 93 92
f 603 604 605
f 91 92 46
f 603 558 604
f 91 46 94
f 603 606 558
f 85 93 457
f 597 969 605
f 93 90 457
f 605 969 602
f 90 180 457
f 602 969 692
f 180 133 457
f 692 969 645
f 133 134 457
f 645 969 646
f 134 137 457
f 646 969 649
f 137 85 457
f 649 969 597
f 95 96 99
f 607 611 608
f 95 99 100
f 607 612 611
f 97 98 105
f 609 617 610
f 97 105 106
f 609 618 617
f 98 97 100
f 610 612 609
f 98 100 99
f 610 611 612
f 99 96 101
f 611 613 608
f 99 101 52
f 611 564 613
f 98 99 52
f 610 564 611
f 98 52 102
f 610 614 564
f 95 100 458
f 607 970 612
f 100 97 458
f 612 970 609
f 97 144 458
f 609 970 656
f 144 139 458
f 656 970 651
f 139 138 458
f 651 970 650
f 138 187 458
f 650 970 699
f 187 95 458
f 699 970 607
f 98 102 54
f 610 566 614
f 98 54 105
f 610 617 566
f 103 104 110
f 615 622 616
f 103 110 111
f 615 623 622
f 104 103 106
f 616 618 615
f 104 106 105
f 616 617 618
f 104 105 54
f 616 566 617
f 104 54 107
f 616 619 566
f 97 106 459
f 609 971 618
f 106 103 459
f 618 971 615
f 103 145 459
f 615 971 657
f 145 97 459
f 657 971 609
f 104 107 60
f 616 572 619
f 104 60 110
f 616 622 572
f 108 109 115
f 620 627 621
f 108 115 116
f 620 628 627
f 109 108 111
f 621 623 620
f 109 111 110
f 621 622 623
f 109 110 60
f 621 572 622
f 109 60 112
f 621 624 572
f 103 111 460
f 615 972 623
f 111 108 460
f 623 972 620
f 108 150 460
f 620 972 662
f 150 103 460
f 662 972 615
f 109 112 65
f 621 577 624
f 109 65 115
f 621 627 577
f 113 114 120
f 625 632 626
f 113 120 121
f 625 633 632
f 114 113 116
f 626 628 625
f 114 116 115
f 626 627 628
f 114 115 65
f 626 577 627
f 114 65 117
f 626 629 577
f 108 116 461
f 620 973 628
f 116 113 461
f 628 973 625
f 113 155 461
f 625 973 667
f 155 108 461
f 667 973 620
f 114 117 70
f 626 582 629
f 114 70 120
f 626 632 582
f 118 119 125
f 630 637 631
f 118 125 126
f 630 638 637
f 119 118 121
f 631 633 630
f 119 121 120
f 631 632 633
f 119 120 70
f 631 582 632
f 119 70 122
f 631 634 582
f 113 121 462
f 625 974 633
f 121 118 462
f 633 974 630
f 118 160 462
f 630 974 672
f 160 113 462
f 672 974 625
f 119 122 75
f 631 587 634
f 119 75 125
f 631 637 587
f 123 124 130
f 635 642 636
f 123 130 131
f 635 643 642
f 124 123 126
f 636 638 635
f 124 126 125
f 636 637 638
f 124 125 75
f 636 587 637
f 124 75 127
f 636 639 587
f 118 126 463
f 630 975 638
f 126 123 463
f 638 975 635
f 123 165 463
f 635 975 677
f 165 118 463
f 677 975 630
f 124 127 80
f 636 592 639
f 124 80 130
f 636 642 592
f 128 129 135
f 640 647 641
f 128 135 136
f 640 648 647
f 129 128 131
f 641 643 640
f 129 131 130
f 641 642 643
f 129 130 80
f 641 592 642
f 129 80 132
f 641 644 592
f 123 131 464
f 635 976 643
f 131 128 464
f 643 976 640
f 128 170 464
f 640 976 682
f 170 123 464
f 682 976 635
f 129 132 85
f 641 597 644
f 129 85 135
f 641 647 597
f 134 133 136
f 646 648 645
f 134 136 135
f 646 647 648
f 134 135 85
f 646 597 647
f 134 85 137
f 646 649 597
f 128 136 465
f 640 977 648
f 136 133 465
f 648 977 645
f 133 175 465
f 645 977 687
f 175 128 465
f 687 977 640
f 138 139 142
f 650 654 651
f 138 142 143
f 650 655 654
f 140 141 148
f 652 660 653
f 140 148 149
f 652 661 660
f 141 140 143
f 653 655 652
f 141 143 142
f 653 654 655
f 142 139 144
f 654 656 651
f 142 144 97
f 654 609 656
f 141 142 97
f 653 609 654
f 141 97 145
f 653 657 609
f 138 143 466
f 650 978 655
f 143 140 466
f 655 978 652
f 140 188 466
f 652 978 700
f 188 138 466
f 700 978 650
f 141 145 103
f 653 615 657
f 141 103 148
f 653 660 615
f 146 147 153
f 658 665 659
f 146 153 154
f 658 666 665
f 147 146 149
f 659 661 658
f 147 149 148
f 659 660 661
f 147 148 103
f 659 615 660
f 147 103 150
f 659 662 615
f 140 149 467
f 652 979 661
f 149 146 467
f 661 979 658
f 146 193 467
f 658 979 705
f 193 140 467
f 705 979 652
f 147 150 108
f 659 620 662
f 147 108 153
f 659 665 620
f 151 152 158
f 663 670 664
f 151 158 159
f 663 671 670
f 152 151 154
f 664 666 663
f 152 154 153
f 664 665 666
f 152 153 108
f 664 620 665
f 152 108 155
f 664 667 620
f 146 154 468
f 658 980 666
f 154 151 468
f 666 980 663
f 151 198 468
f 663 980 710
f 198 146 468
f 710 980 658
f 152 155 113
f 664 625 667
f 152 113 158
f 664 670 625
f 156 157 163
f 668 675 669
f 156 163 164
f 668 676 675
f 157 156 159
f 669 671 668
f 157 159 158
f 669 670 671
f 157 158 113
f 669 625 670
f 157 113 160
f 669 672 625
f 151 159 469
f 663 981 671
f 159 156 469
f 671 981 668
f 156 203 469
f 668 981 715
f 203 151 469
f 715 981 663
f 157 160 118
f 669 630 672
f 157 118 163
f 669 675 630
f 161 162 168
f 673 680 674
f 161 168 169
f 673 681 680
f 162 161 164
f 674 676 673
f 162 164 163
f 674 675 676
f 162 163 118
f 674 630 675
f 162 118 165
f 674 677 630
f 156 164 470
f 668 982 676
f 164 161 470
f 676 982 673
f 161 208 470
f 673 982 720
f 208 156 470
f 720 982 668
f 162 165 123
f 674 635 677
f 162 123 168
f 674 680 635
f 166 167 173
f 678 685 679
f 166 173 174
f 678 686 685
f 167 166 169
f 679 681 678
f 167 169 168
f 679 680 681
f 167 168 123
f 679 635 680
f 167 123 170
f 679 682 635
f 161 169 471
f 673 983 681
f 169 166 471
f 681 983 678
f 166 213 471
f 678 983 725
f 213 161 471
f 725 983 673
f 167 170 128
f 679 640 682
f 167 128 173
f 679 685 640
f 171 172 178
f 683 690 684
f 171 178 179
f 683 691 690
f 172 171 174
f 684 686 683
f 172 174 173
f 684 685 686
f 172 173 128
f 684 640 685
f 172 128 175
f 684 687 640
f 166 174 472
f 678 984 686
f 174 171 472
f 686 984 683
f 171 218 472
f 683 984 730
f 218 166 472
f 730 984 678
f 172 175 133
f 684 645 687
f 172 133 178
f 684 690 645
f 177 176 179
f 689 691 688
f 177 179 178
f 689 690 691
f 177 178 133
f 689 645 690
f 177 133 180
f 689 692 645
f 171 179 473
f 683 985 691
f 179 176 473
f 691 985 688
f 176 266 473
f 688 985 778
f 266 219 473
f 778 985 731
f 219 220 473
f 731 985 732
f 220 223 473
f 732 985 735
f 223 171 473
f 735 985 683
f 181 182 185
f 693 697 694
f 181 185 186
f 693 698 697
f 183 184 191
f 695 703 696
f 183 191 192
f 695 704 703
f 184 183 186
f 696 698 695
f 184 186 185
f 696 697 698
f 185 182 187
f 697 699 694
f 185 187 138
f 697 650 699
f 184 185 138
f 696 650 697
f 184 138 188
f 696 700 650
f 181 186 474
f 693 986 698
f 186 183 474
f 698 986 695
f 183 230 474
f 695 986 742
f 230 225 474
f 742 986 737
f 225 224 474
f 737 986 736
f 224 273 474
f 736 986 785
f 273 181 474
f 785 986 693
f 184 188 140
f 696 652 700
f 184 140 191
f 696 703 652
f 189 190 196
f 701 708 702
f 189 196 197
f 701 709 708
f 190 189 192
f 702 704 701
f 190 192 191
f 702 703 704
f 190 191 140
f 702 652 703
f 190 140 193
f 702 705 652
f 183 192 475
f 695 987 704
f 192 189 475
f 704 987 701
f 189 231 475
f 701 987 743
f 231 183 475
f 743 987 695
f 190 193 146
f 702 658 705
f 190 146 196
f 702 708 658
f 194 195 201
f 706 713 707
f 194 201 202
f 706 714 713
f 195 194 197
f 707 709 706
f 195 197 196
f 707 708 709
f 195 196 146
f 707 658 708
f 195 146 198
f 707 710 658
f 189 197 476
f 701 988 709
f 197 194 476
f 709 988 706
f 194 236 476
f 706 988 748
f 236 189 476
f 748 988 701
f 195 198 151
f 707 663 710
f 195 151 201
f 707 713 663
f 199 200 206
f 711 718 712
f 199 206 207
f 711 719 718
f 200 199 202
f 712 714 711
f 200 202 201
f 712 713 714
f 200 201 151
f 712 663 713
f 200 151 203
f 712 715 663
f 194 202 477
f 706 989 714
f 202 199 477
f 714 989 711
f 199 241 477
f 711 989 753
f 241 194 477
f 753 989 706
f 200 203 156
f 712 668 715
f 200 156 206
f 712 718 668
f 204 205 211
f 716 723 717
f 204 211 212
f 716 724 723
f 205 204 207
f 717 719 716
f 205 207 206
f 717 718 719
f 205 206 156
f 717 668 718
f 205 156 208
f 717 720 668
f 199 207 478
f 711 990 719
f 207 204 478
f 719 990 716
f 204 246 478
f 716 990 758
f 246 199 478
f 758 990 711
f 205 208 161
f 717 673 720
f 205 161 211
f 717 723 673
f 209 210 216
f 721 728 722
f 209 216 217
f 721 729 728
f 210 209 212
f 722 724 721
f 210 212 211
f 722 723 724
f 210 211 161
f 722 673 723
f 210 161 213
f 722 725 673
f 204 212 479
f 716 991 724
f 212 209 479
f 724 991 721
f 209 251 479
f 721 991 763
f 251 204 479
f 763 991 716
f 210 213 166
f 722 678 725
f 210 166 216
f 722 728 678
f 214 215 221
f 726 733 727
f 214 221 222
f 726 734 733
f 215 214 217
f 727 729 726
f 215 217 216
f 727 728 729
f 215 216 166
f 727 678 728
f 215 166 218
f 727 730 678
f 209 217 480
f 721 992 729
f 217 214 480
f 729 992 726
f 214 256 480
f 726 992 768
f 256 209 480
f 768 992 721
f 215 218 171
f 727 683 730
f 215 171 221
f 727 733 683
f 220 219 222
f 732 734 731
f 220 222 221
f 732 733 734
f 220 221 171
f 732 683 733
f 220 171 223
f 732 735 683
f 214 222 481
f 726 993 734
f 222 219 481
f 734 993 731
f 219 261 481
f 731 993 773
f 261 214 481
f 773 993 726
f 224 225 228
f 736 740 737
f 224 228 229
f 736 741 740
f 226 227 234
f 738 746 739
f 226 234 235
f 738 747 746
f 227 226 229
f 739 741 738
f 227 229 228
f 739 740 741
f 228 225 230
f 740 742 737
f 228 230 183
f 740 695 742
f 227 228 183
f 739 695 740
f 227 183 231
f 739 743 695
f 224 229 482
f 736 994 741
f 229 226 482
f 741 994 738
f 226 274 482
f 738 994 786
f 274 224 482
f 786 994 736
f 227 231 189
f 739 701 743
f 227 189 234
f 739 746 701
f 232 233 239
f 744 751 745
f 232 239 240
f 744 752 751
f 233 232 235
f 745 747 744
f 233 235 234
f 745 746 747
f 233 234 189
f 745 701 746
f 233 189 236
f 745 748 701
f 226 235 483
f 738 995 747
f 235 232 483
f 747 995 744
f 232 279 483
f 744 995 791
f 279 226 483
f 791 995 738
f 233 236 194
f 745 706 748
f 233 194 239
f 745 751 706
f 237 238 244
f 749 756 750
f 237 244 245
f 749 757 756
f 238 237 240
f 750 752 749
f 238 240 239
f 750 751 752
f 238 239 194
f 750 706 751
f 238 194 241
f 750 753 706
f 232 240 484
f 744 996 752
f 240 237 484
f 752 996 749
f 237 284 484
f 749 996 796
f 284 232 484
f 796 996 744
f 238 241 199
f 750 711 753
f 238 199 244
f 750 756 711
f 242 243 249
f 754 761 755
f 242 249 250
f 754 762 761
f 243 242 245
f 755 757 754
f 243 245 244
f 755 756 757
f 243 244 199
f 755 711 756
f 243 199 246
f 755 758 711
f 237 245 485
f 749 997 757
f 245 242 485
f 757 997 754
f 242 289 485
f 754 997 801
f 289 237 485
f 801 997 749
f 243 246 204
f 755 716 758
f 243 204 249
f 755 761 716
f 247 248 254
f 759 766 760
f 247 254 255
f 759 767 766
f 248 247 250
f 760 762 759
f 248 250 249
f 760 761 762
f 248 249 204
f 760 716 761
f 248 204 251
f 760 763 716
f 242 250 486
f 754 998 762
f 250 247 486
f 762 998 759
f 247 294 486
f 759 998 806
f 294 242 486
f 806 998 754
f 248 251 209
f 760 721 763
f 248 209 254
f 760 766 721
f 252 253 259
f 764 771 765
f 252 259 260
f 764 772 771
f 253 252 255
f 765 767 764
f 253 255 254
f 765 766 767
f 253 254 209
f 765 721 766
f 253 209 256
f 765 768 721
f 247 255 487
f 759 999 767
f 255 252 487
f 767 999 764
f 252 299 487
f 764 999 811
f 299 247 487
f 811 999 759
f 253 256 214
f 765 726 768
f 253 214 259
f 765 771 726
f 257 258 264
f 769 776 770
f 257 264 265
f 769 777 776
f 258 257 260
f 770 772 769
f 258 260 259
f 770 771 772
f 258 259 214
f 770 726 771
f 258 214 261
f 770 773 726
f 252 260 488
f 764 1000 772
f 260 257 488
f 772 1000 769
f 257 304 488
f 769 1000 816
f 304 252 488
f 816 1000 764
f 258 261 219
f 770 731 773
f 258 219 264
f 770 776 731
f 263 262 265
f 775 777 774
f 263 265 264
f 775 776 777
f 263 264 219
f 775 731 776
f 263 219 266
f 775 778 731
f 257 265 489
f 769 1001 777
f 265 262 489
f 777 1001 774
f 262 352 489
f 774 1001 864
f 352 305 489
f 864 1001 817
f 305 306 489
f 817 1001 818
f 306 309 489
f 818 1001 821
f 309 257 489
f 821 1001 769
f 267 268 271
f 779 783 780
f 267 271 272
f 779 784 783
f 269 270 277
f 781 789 782
f 269 277 278
f 781 790 789
f 270 269 272
f 782 784 781
f 270 272 271
f 782 783 784
f 271 268 273
f 783 785 780
f 271 273 224
f 783 736 785
f 270 271 224
f 782 736 783
f 270 224 274
f 782 786 736
f 267 272 490
f 779 1002 784
f 272 269 490
f 784 1002 781
f 269 316 490
f 781 1002 828
f 316 311 490
f 828 1002 823
f 311 310 490
f 823 1002 822
f 310 359 490
f 822 1002 871
f 359 267 490
f 871 1002 779
f 270 274 226
f 782 738 786
f 270 226 277
f 782 789 738
f 275 276 282
f 787 794 788
f 275 282 283
f 787 795 794
f 276 275 278
f 788 790 787
f 276 278 277
f 788 789 790
f 276 277 226
f 788 738 789
f 276 226 279
f 788 791 738
f 269 278 491
f 781 1003 790
f 278 275 491
f 790 1003 787
f 275 317 491
f 787 1003 829
f 317 269 491
f 829 1003 781
f 276 279 232
f 788 744 791
f 276 232 282
f 788 794 744
f 280 281 287
f 792 799 793
f 280 287 288
f 792 800 799
f 281 280 283
f 793 795 792
f 281 283 282
f 793 794 795
f 281 282 232
f 793 744 794
f 281 232 284
f 793 796 744
f 275 283 492
f 787 1004 795
f 283 280 492
f 795 1004 792
f 280 322 492
f 792 1004 834
f 322 275 492
f 834 1004 787
f 281 284 237
f 793 749 796
f 281 237 287
f 793 799 749
f 285 286 292
f 797 804 798
f 285 292 293
f 797 805 804
f 286 285 288
f 798 800 797
f 286 288 287
f 798 799 800
f 286 287 237
f 798 749 799
f 286 237 289
f 798 801 749
f 280 288 493
f 792 1005 800
f 288 285 493
f 800 1005 797
f 285 327 493
f 797 1005 839
f 327 280 493
f 839 1005 792
f 286 289 242
f 798 754 801
f 286 242 292
f 798 804 754
f 290 291 297
f 802 809 803
f 290 297 298
f 802 810 809
f 291 290 293
f 803 805 802
f 291 293 292
f 803 804 805
f 291 292 242
f 803 754 804
f 291 242 294
f 803 806 754
f 285 293 494
f 797 1006 805
f 293 290 494
f 805 1006 802
f 290 332 494
f 802 1006 844
f 332 285 494
f 844 1006 797
f 291 294 247
f 803 759 806
f 291 247 297
f 803 809 759
f 295 296 302
f 807 814 808
f 295 302 303
f 807 815 814
f 296 295 298
f 808 810 807
f 296 298 297
f 808 809 810
f 296 297 247
f 808 759 809
f 296 247 299
f 808 811 759
f 290 298 495
f 802 1007 810
f 298 295 495
f 810 1007 807
f 295 337 495
f 807 1007 849
f 337 290 495
f 849 1007 802
f 296 299 252
f 808 764 811
f 296 252 302
f 808 814 764
f 300 301 307
f 812 819 813
f 300 307 308
f 812 820 819
f 301 300 303
f 813 815 812
f 301 303 302
f 813 814 815
f 301 302 252
f 813 764 814
f 301 252 304
f 813 816 764
f 295 303 496
f 807 1008 815
f 303 300 496
f 815 1008 812
f 300 342 496
f 812 1008 854
f 342 295 496
f 854 1008 807
f 301 304 257
f 813 769 816
f 301 257 307
f 813 819 769
f 306 305 308
f 818 820 817
f 306 308 307
f 818 819 820
f 306 307 257
f 818 769 819
f 306 257 309
f 818 821 769
f 300 308 497
f 812 1009 820
f 308 305 497
f 820 1009 817
f 305 347 497
f 817 1009 859
f 347 300 497
f 859 1009 812
f 310 311 314
f 822 826 823
f 310 314 315
f 822 827 826
f 312 313 320
f 824 832 825
f 312 320 321
f 824 833 832
f 313 312 315
f 825 827 824
f 313 315 314
f 825 826 827
f 314 311 316
f 826 828 823
f 314 316 269
f 826 781 828
f 313 314 269
f 825 781 826
f 313 269 317
f 825 829 781
f 310 315 498
f 822 1010 827
f 315 312 498
f 827 1010 824
f 312 360 498
f 824 1010 872
f 360 310 498
f 872 1010 822
f 313 317 275
f 825 787 829
f 313 275 320
f 825 832 787
f 318 319 325
f 830 837 831
f 318 325 326
f 830 838 837
f 319 318 321
f 831 833 830
f 319 321 320
f 831 832 833
f 319 320 275
f 831 787 832
f 319 275 322
f 831 834 787
f 312 321 499
f 824 1011 833
f 321 318 499
f 833 1011 830
f 318 365 499
f 830 1011 877
f 365 312 499
f 877 1011 824
f 319 322 280
f 831 792 834
f 319 280 325
f 831 837 792
f 323 324 330
f 835 842 836
f 323 330 331
f 835 843 842
f 324 323 326
f 836 838 835
f 324 326 325
f 836 837 838
f 324 325 280
f 836 792 837
f 324 280 327
f 836 839 792
f 318 326 500
f 830 1012 838
f 326 323 500
f 838 1012 835
f 323 370 500
f 835 1012 882
f 370 318 500
f 882 1012 830
f 324 327 285
f 836 797 839
f 324 285 330
f 836 842 797
f 328 329 335
f 840 847 841
f 328 335 336
f 840 848 847
f 329 328 331
f 841 843 840
f 329 331 330
f 841 842 843
f 329 330 285
f 841 797 842
f 329 285 332
f 841 844 797
f 323 331 501
f 835 1013 843
f 331 328 501
f 843 1013 840
f 328 375 501
f 840 1013 887
f 375 323 501
f 887 1013 835
f 329 332 290
f 841 802 844
f 329 290 335
f 841 847 802
f 333 334 340
f 845 852 846
f 333 340 341
f 845 853 852
f 334 333 336
f 846 848 845
f 334 336 335
f 846 847 848
f 334 335 290
f 846 802 847
f 334 290 337
f 846 849 802
f 328 336 502
f 840 1014 848
f 336 333 502
f 848 1014 845
f 333 380 502
f 845 1014 892
f 380 328 502
f 892 1014 840
f 334 337 295
f 846 807 849
f 334 295 340
f 846 852 807
f 338 339 345
f 850 857 851
f 338 345 346
f 850 858 857
f 339 338 341
f 851 853 850
f 339 341 340
f 851 852 853
f 339 340 295
f 851 807 852
f 339 295 342
f 851 854 807
f 333 341 503
f 845 1015 853
f 341 338 503
f 853 1015 850
f 338 385 503
f 850 1015 897
f 385 333 503
f 897 1015 845
f 339 342 300
f 851 812 854
f 339 300 345
f 851 857 812
f 343 344 350
f 855 862 856
f 343 350 351
f 855 863 862
f 344 343 346
f 856 858 855
f 344 346 345
f 856 857 858
f 344 345 300
f 856 812 857
f 344 300 347
f 856 859 812
f 338 346 504
f 850 1016 858
f 346 343 504
f 858 1016 855
f 343 390 504
f 855 1016 902
f 390 338 504
f 902 1016 850
f 344 347 305
f 856 817 859
f 344 305 350
f 856 862 817
f 349 348 351
f 861 863 860
f 349 351 350
f 861 862 863
f 349 350 305
f 861 817 862
f 349 305 352
f 861 864 817
f 343 351 505
f 855 1017 863
f 351 348 505
f 863 1017 860
f 348 438 505
f 860 1017 950
f 438 391 505
f 950 1017 903
f 391 392 505
f 903 1017 904
f 392 395 505
f 904 1017 907
f 395 343 505
f 907 1017 855
f 353 354 357
f 865 869 866
f 353 357 358
f 865 870 869
f 355 356 363
f 867 875 868
f 355 363 364
f 867 876 875
f 356 355 358
f 868 870 867
f 356 358 357
f 868 869 870
f 357 354 359
f 869 871 866
f 357 359 310
f 869 822 871
f 356 357 310
f 868 822 869
f 356 310 360
f 868 872 822
f 353 358 355
f 865 867 870
f 353 355 402
f 865 914 867
f 353 402 397
f 865 909 914
f 353 397 396
f 865 908 909
f 353 396 441
f 865 953 908
f 356 360 312
f 868 824 872
f 356 312 363
f 868 875 824
f 361 362 368
f 873 880 874
f 361 368 369
f 873 881 880
f 362 361 364
f 874 876 873
f 362 364 363
f 874 875 876
f 362 363 312
f 874 824 875
f 362 312 365
f 874 877 824
f 355 364 506
f 867 1018 876
f 364 361 506
f 876 1018 873
f 361 403 506
f 873 1018 915
f 403 355 506
f 915 1018 867
f 362 365 318
f 874 830 877
f 362 318 368
f 874 880 830
f 366 367 373
f 878 885 879
f 366 373 374
f 878 886 885
f 367 366 369
f 879 881 878
f 367 369 368
f 879 880 881
f 367 368 318
f 879 830 880
f 367 318 370
f 879 882 830
f 361 369 507
f 873 1019 881
f 369 366 507
f 881 1019 878
f 366 408 507
f 878 1019 920
f 408 361 507
f 920 1019 873
f 367 370 323
f 879 835 882
f 367 323 373
f 879 885 835
f 371 372 378
f 883 890 884
f 371 378 379
f 883 891 890
f 372 371 374
f 884 886 883
f 372 374 373
f 884 885 886
f 372 373 323
f 884 835 885
f 372 323 375
f 884 887 835
f 366 374 508
f 878 1020 886
f 374 371 508
f 886 1020 883
f 371 413 508
f 883 1020 925
f 413 366 508
f 925 1020 878
f 372 375 328
f 884 840 887
f 372 328 378
f 884 890 840
f 376 377 383
f 888 895 889
f 376 383 384
f 888 896 895
f 377 376 379
f 889 891 888
f 377 379 378
f 889 890 891
f 377 378 328
f 889 840 890
f 377 328 380
f 889 892 840
f 371 379 509
f 883 1021 891
f 379 376 509
f 891 1021 888
f 376 418 509
f 888 1021 930
f 418 371 509
f 930 1021 883
f 377 380 333
f 889 845 892
f 377 333 383
f 889 895 845
f 381 382 388
f 893 900 894
f 381 388 389
f 893 901 900
f 382 381 384
f 894 896 893
f 382 384 383
f 894 895 896
f 382 383 333
f 894 845 895
f 382 333 385
f 894 897 845
f 376 384 510
f 888 1022 896
f 384 381 510
f 896 1022 893
f 381 423 510
f 893 1022 935
f 423 376 510
f 935 1022 888
f 382 385 338
f 894 850 897
f 382 338 388
f 894 900 850
f 386 387 393
f 898 905 899
f 386 393 394
f 898 906 905
f 387 386 389
f 899 901 898
f 387 389 388
f 899 900 901
f 387 388 338
f 899 850 900
f 387 338 390
f 899 902 850
f 381 389 511
f 893 1023 901
f 389 386 511
f 901 1023 898
f 386 428 511
f 898 1023 940
f 428 381 511
f 940 1023 893
f 387 390 343
f 899 855 902
f 387 343 393
f 899 905 855
f 392 391 394
f 904 906 903
f 392 394 393
f 904 905 906
f 392 393 343
f 904 855 905
f 392 343 395
f 904 907 855
f 386 394 512
f 898 1024 906
f 394 391 512
f 906 1024 903
f 391 433 512
f 903 1024 945
f 433 386 512
f 945 1024 898
f 396 397 400
f 908 912 909
f 396 400 401
f 908 913 912
f 398 399 406
f 910 918 911
f 398 406 407
f 910 919 918
f 399 398 401
f 911 913 910
f 399 401 400
f 911 912 913
f 400 397 402
f 912 914 909
f 400 402 355
f 912 867 914
f 399 400 355
f 911 867 912
f 399 355 403
f 911 915 867
f 396 401 398
f 908 910 913
f 399 403 361
f 911 873 915
f 399 361 406
f 911 918 873
f 404 405 411
f 916 923 917
f 404 411 412
f 916 924 923
f 405 404 407
f 917 919 916
f 405 407 406
f 917 918 919
f 405 406 361
f 917 873 918
f 405 361 408
f 917 920 873
f 398 407 404
f 910 916 919
f 405 408 366
f 917 878 920
f 405 366 411
f 917 923 878
f 409 410 416
f 921 928 922
f 409 416 417
f 921 929 928
f 410 409 412
f 922 924 921
f 410 412 411
f 922 923 924
f 410 411 366
f 922 878 923
f 410 366 413
f 922 925 878
f 404 412 409
f 916 921 924
f 410 413 371
f 922 883 925
f 410 371 416
f 922 928 883
f 414 415 421
f 926 933 927
f 414 421 422
f 926 934 933
f 415 414 417
f 927 929 926
f 415 417 416
f 927 928 929
f 415 416 371
f 927 883 928
f 415 371 418
f 927 930 883
f 409 417 414
f 921 926 929
f 415 418 376
f 927 888 930
f 415 376 421
f 927 933 888
f 419 420 426
f 931 938 932
f 419 426 427
f 931 939 938
f 420 419 422
f 932 934 931
f 420 422 421
f 932 933 934
f 420 421 376
f 932 888 933
f 420 376 423
f 932 935 888
f 414 422 419
f 926 931 934
f 420 423 381
f 932 893 935
f 420 381 426
f 932 938 893
f 424 425 431
f 936 943 937
f 424 431 432
f 936 944 943
f 425 424 427
f 937 939 936
f 425 427 426
f 937 938 939
f 425 426 381
f 937 893 938
f 425 381 428
f 937 940 893
f 419 427 424
f 931 936 939
f 425 428 386
f 937 898 940
f 425 386 431
f 937 943 898
f 429 430 436
f 941 948 942
f 429 436 437
f 941 949 948
f 430 429 432
f 942 944 941
f 430 432 431
f 942 943 944
f 430 431 386
f 942 898 943
f 430 386 433
f 942 945 898
f 424 432 429
f 936 941 944
f 430 433 391
f 942 903 945
f 430 391 436
f 942 948 903
f 435 434 437
f 947 949 946
f 435 437 436
f 947 948 949
f 435 436 391
f 947 903 948
f 435 391 438
f 947 950 903
f 429 437 434
f 941 946 949
f 439 6 518
f 439 518 951
f 6 13 525
f 6 525 518
f 13 19 531
f 13 531 525
f 19 25 537
f 19 537 531
f 25 31 543
f 25 543 537
f 31 37 549
f 31 549 543
f 37 43 555
f 37 555 549
f 43 49 561
f 43 561 555
f 49 440 952
f 49 952 561
f 440 94 606
f 440 606 952
f 94 91 603
f 94 603 606
f 91 90 602
f 91 602 603
f 90 180 692
f 90 692 602
f 180 177 689
f 180 689 692
f 177 176 688
f 177 688 689
f 176 266 778
f 176 778 688
f 266 263 775
f 266 775 778
f 263 262 774
f 263 774 775
f 262 352 864
f 262 864 774
f 352 349 861
f 352 861 864
f 349 348 860
f 349 860 861
f 348 438 950
f 348 950 860
f 438 435 947
f 438 947 950
f 435 434 946
f 435 946 947
f 434 429 941
f 434 941 946
f 429 424 936
f 429 936 941
f 424 419 931
f 424 931 936
f 419 414 926
f 419 926 931
f 414 409 921
f 414 921 926
f 409 404 916
f 409 916 921
f 404 398 910
f 404 910 916
f 398 396 908
f 398 908 910
f 396 441 953
f 396 953 908
f 441 353 865
f 441 865 953
f 353 354 866
f 353 866 865
f 354 359 871
f 354 871 866
f 359 267 779
f 359 779 871
f 267 268 780
f 267 780 779
f 268 273 785
f 268 785 780
f 273 181 693
f 273 693 785
f 181 182 694
f 181 694 693
f 182 187 699
f 182 699 694
f 187 95 607
f 187 607 699
f 95 96 608
f 95 608 607
f 96 101 613
f 96 613 608
f 101 1 513
f 101 513 613
f 1 2 514
f 1 514 513
f 2 8 520
f 2 520 514
f 8 439 951
f 8 951 520
