# Bellows Diecut foldcore die
v -60.00000 -75.00000 7.70000
v -53.33333 -75.00000 7.70000
v -60.00000 -80.00000 7.70000
v -53.33333 -80.00000 7.70000
v -46.66667 -75.00000 7.70000
v -46.66667 -80.00000 7.70000
v -60.00000 -85.00000 7.70000
v -53.33333 -85.00000 7.70000
v -46.66667 -85.00000 7.70000
v -40.00000 -80.00000 7.70000
v -40.00000 -85.00000 7.70000
v -40.00000 -75.00000 7.70000
v -33.33333 -75.00000 7.70000
v -33.33333 -80.00000 7.70000
v -26.66667 -75.00000 7.70000
v -26.66667 -80.00000 7.70000
v -33.33333 -85.00000 7.70000
v -26.66667 -85.00000 7.70000
v -20.00000 -80.00000 7.70000
v -20.00000 -85.00000 7.70000
v -20.00000 -75.00000 7.70000
v -13.33333 -75.00000 7.70000
v -13.33333 -80.00000 7.70000
v -6.66667 -75.00000 7.70000
v -6.66667 -80.00000 7.70000
v -13.33333 -85.00000 7.70000
v -6.66667 -85.00000 7.70000
v 0.00000 -80.00000 7.70000
v 0.00000 -85.00000 7.70000
v 0.00000 -75.00000 7.70000
v 6.66667 -75.00000 7.70000
v 6.66667 -80.00000 7.70000
v 13.33333 -75.00000 7.70000
v 13.33333 -80.00000 7.70000
v 6.66667 -85.00000 7.70000
v 13.33333 -85.00000 7.70000
v 20.00000 -80.00000 7.70000
v 20.00000 -85.00000 7.70000
v 20.00000 -75.00000 7.70000
v 26.66667 -75.00000 7.70000
v 26.66667 -80.00000 7.70000
v 33.33333 -75.00000 7.70000
v 33.33333 -80.00000 7.70000
v 26.66667 -85.00000 7.70000
v 33.33333 -85.00000 7.70000
v 40.00000 -80.00000 7.70000
v 40.00000 -85.00000 7.70000
v 40.00000 -75.00000 7.70000
v 46.66667 -75.00000 7.70000
v 46.66667 -80.00000 7.70000
v 53.33333 -75.00000 7.70000
v 53.33333 -80.00000 7.70000
v 46.66667 -85.00000 7.70000
v 53.33333 -85.00000 7.70000
v 60.00000 -80.00000 7.70000
v 60.00000 -85.00000 7.70000
v -60.00000 -65.00000 7.70000
v -53.33333 -65.00000 7.70000
v -60.00000 -70.00000 7.70000
v -53.33333 -70.00000 7.70000
v -46.66667 -65.00000 7.70000
v -46.66667 -70.00000 7.70000
v -40.00000 -70.00000 7.70000
v -40.00000 -65.00000 7.70000
v -33.33333 -65.00000 7.70000
v -33.33333 -70.00000 7.70000
v -26.66667 -65.00000 7.70000
v -26.66667 -70.00000 7.70000
v -20.00000 -70.00000 7.70000
v -20.00000 -65.00000 7.70000
v -13.33333 -65.00000 7.70000
v -13.33333 -70.00000 7.70000
v -6.66667 -65.00000 7.70000
v -6.66667 -70.00000 7.70000
v 0.00000 -70.00000 7.70000
v 0.00000 -65.00000 7.70000
v 6.66667 -65.00000 7.70000
v 6.66667 -70.00000 7.70000
v 13.33333 -65.00000 7.70000
v 13.33333 -70.00000 7.70000
v 20.00000 -70.00000 7.70000
v 20.00000 -65.00000 7.70000
v 26.66667 -65.00000 7.70000
v 26.66667 -70.00000 7.70000
v 33.33333 -65.00000 7.70000
v 33.33333 -70.00000 7.70000
v 40.00000 -70.00000 7.70000
v 40.00000 -65.00000 7.70000
v 46.66667 -65.00000 7.70000
v 46.66667 -70.00000 7.70000
v 53.33333 -65.00000 7.70000
v 53.33333 -70.00000 7.70000
v 60.00000 -70.00000 7.70000
v 60.00000 -75.00000 7.70000
v -60.00000 -55.00000 7.70000
v -53.33333 -55.00000 7.70000
v -60.00000 -60.00000 7.70000
v -53.33333 -60.00000 7.70000
v -46.66667 -55.00000 7.70000
v -46.66667 -60.00000 7.70000
v -40.00000 -60.00000 7.70000
v -40.00000 -55.00000 7.70000
v -33.33333 -55.00000 7.70000
v -33.33333 -60.00000 7.70000
v -26.66667 -55.00000 7.70000
v -26.66667 -60.00000 7.70000
v -20.00000 -60.00000 7.70000
v -20.00000 -55.00000 7.70000
v -13.33333 -55.00000 7.70000
v -13.33333 -60.00000 7.70000
v -6.66667 -55.00000 7.70000
v -6.66667 -60.00000 7.70000
v 0.00000 -60.00000 7.70000
v 0.00000 -55.00000 7.70000
v 6.66667 -55.00000 7.70000
v 6.66667 -60.00000 7.70000
v 13.33333 -55.00000 7.70000
v 13.33333 -60.00000 7.70000
v 20.00000 -60.00000 7.70000
v 20.00000 -55.00000 7.70000
v 26.66667 -55.00000 7.70000
v 26.66667 -60.00000 7.70000
v 33.33333 -55.00000 7.70000
v 33.33333 -60.00000 7.70000
v 40.00000 -60.00000 7.70000
v 40.00000 -55.00000 7.70000
v 46.66667 -55.00000 7.70000
v 46.66667 -60.00000 7.70000
v 53.33333 -55.00000 7.70000
v 53.33333 -60.00000 7.70000
v 60.00000 -60.00000 7.70000
v 60.00000 -65.00000 7.70000
v -60.00000 -45.00000 7.70000
v -53.33333 -45.00000 7.70000
v -60.00000 -50.00000 7.70000
v -53.33333 -50.00000 7.70000
v -46.66667 -45.00000 7.70000
v -46.66667 -50.00000 7.70000
v -40.00000 -50.00000 7.70000
v -40.00000 -45.00000 7.70000
v -33.33333 -45.00000 7.70000
v -33.33333 -50.00000 7.70000
v -26.66667 -45.00000 7.70000
v -26.66667 -50.00000 7.70000
v -20.00000 -50.00000 7.70000
v -20.00000 -45.00000 7.70000
v -13.33333 -45.00000 7.70000
v -13.33333 -50.00000 7.70000
v -6.66667 -45.00000 7.70000
v -6.66667 -50.00000 7.70000
v 0.00000 -50.00000 7.70000
v 0.00000 -45.00000 7.70000
v 6.66667 -45.00000 7.70000
v 6.66667 -50.00000 7.70000
v 13.33333 -45.00000 7.70000
v 13.33333 -50.00000 7.70000
v 20.00000 -50.00000 7.70000
v 20.00000 -45.00000 7.70000
v 26.66667 -45.00000 7.70000
v 26.66667 -50.00000 7.70000
v 33.33333 -45.00000 7.70000
v 33.33333 -50.00000 7.70000
v 40.00000 -50.00000 7.70000
v 40.00000 -45.00000 7.70000
v 46.66667 -45.00000 7.70000
v 46.66667 -50.00000 7.70000
v 53.33333 -45.00000 7.70000
v 53.33333 -50.00000 7.70000
v 60.00000 -50.00000 7.70000
v 60.00000 -55.00000 7.70000
v -60.00000 -35.00000 7.70000
v -53.33333 -35.00000 7.70000
v -60.00000 -40.00000 7.70000
v -53.33333 -40.00000 7.70000
v -46.66667 -35.00000 7.70000
v -46.66667 -40.00000 7.70000
v -40.00000 -40.00000 7.70000
v -40.00000 -35.00000 7.70000
v -33.33333 -35.00000 7.70000
v -33.33333 -40.00000 7.70000
v -26.66667 -35.00000 7.70000
v -26.66667 -40.00000 7.70000
v -20.00000 -40.00000 7.70000
v -20.00000 -35.00000 7.70000
v -13.33333 -35.00000 7.70000
v -13.33333 -40.00000 7.70000
v -6.66667 -35.00000 7.70000
v -6.66667 -40.00000 7.70000
v 0.00000 -40.00000 7.70000
v 0.00000 -35.00000 7.70000
v 6.66667 -35.00000 7.70000
v 6.66667 -40.00000 7.70000
v 13.33333 -35.00000 7.70000
v 13.33333 -40.00000 7.70000
v 20.00000 -40.00000 7.70000
v 20.00000 -35.00000 7.70000
v 26.66667 -35.00000 7.70000
v 26.66667 -40.00000 7.70000
v 33.33333 -35.00000 7.70000
v 33.33333 -40.00000 7.70000
v 40.00000 -40.00000 7.70000
v 40.00000 -35.00000 7.70000
v 46.66667 -35.00000 7.70000
v 46.66667 -40.00000 7.70000
v 53.33333 -35.00000 7.70000
v 53.33333 -40.00000 7.70000
v 60.00000 -40.00000 7.70000
v 60.00000 -45.00000 7.70000
v -60.00000 -25.00000 7.70000
v -53.33333 -25.00000 7.70000
v -60.00000 -30.00000 7.70000
v -53.33333 -30.00000 7.70000
v -46.66667 -25.00000 7.70000
v -46.66667 -30.00000 7.70000
v -40.00000 -30.00000 7.70000
v -40.00000 -25.00000 7.70000
v -33.33333 -25.00000 7.70000
v -33.33333 -30.00000 7.70000
v -26.66667 -25.00000 7.70000
v -26.66667 -30.00000 7.70000
v -20.00000 -30.00000 7.70000
v -20.00000 -25.00000 7.70000
v -13.33333 -25.00000 7.70000
v -13.33333 -30.00000 7.70000
v -6.66667 -25.00000 7.70000
v -6.66667 -30.00000 7.70000
v 0.00000 -30.00000 7.70000
v 0.00000 -25.00000 7.70000
v 6.66667 -25.00000 7.70000
v 6.66667 -30.00000 7.70000
v 13.33333 -25.00000 7.70000
v 13.33333 -30.00000 7.70000
v 20.00000 -30.00000 7.70000
v 20.00000 -25.00000 7.70000
v 26.66667 -25.00000 7.70000
v 26.66667 -30.00000 7.70000
v 33.33333 -25.00000 7.70000
v 33.33333 -30.00000 7.70000
v 40.00000 -30.00000 7.70000
v 40.00000 -25.00000 7.70000
v 46.66667 -25.00000 7.70000
v 46.66667 -30.00000 7.70000
v 53.33333 -25.00000 7.70000
v 53.33333 -30.00000 7.70000
v 60.00000 -30.00000 7.70000
v 60.00000 -35.00000 7.70000
v -60.00000 -15.00000 7.70000
v -53.33333 -15.00000 7.70000
v -60.00000 -20.00000 7.70000
v -53.33333 -20.00000 7.70000
v -46.66667 -15.00000 7.70000
v -46.66667 -20.00000 7.70000
v -40.00000 -20.00000 7.70000
v -40.00000 -15.00000 7.70000
v -33.33333 -15.00000 7.70000
v -33.33333 -20.00000 7.70000
v -26.66667 -15.00000 7.70000
v -26.66667 -20.00000 7.70000
v -20.00000 -20.00000 7.70000
v -20.00000 -15.00000 7.70000
v -13.33333 -15.00000 7.70000
v -13.33333 -20.00000 7.70000
v -6.66667 -15.00000 7.70000
v -6.66667 -20.00000 7.70000
v 0.00000 -20.00000 7.70000
v 0.00000 -15.00000 7.70000
v 6.66667 -15.00000 7.70000
v 6.66667 -20.00000 7.70000
v 13.33333 -15.00000 7.70000
v 13.33333 -20.00000 7.70000
v 20.00000 -20.00000 7.70000
v 20.00000 -15.00000 7.70000
v 26.66667 -15.00000 7.70000
v 26.66667 -20.00000 7.70000
v 33.33333 -15.00000 7.70000
v 33.33333 -20.00000 7.70000
v 40.00000 -20.00000 7.70000
v 40.00000 -15.00000 7.70000
v 46.66667 -15.00000 7.70000
v 46.66667 -20.00000 7.70000
v 53.33333 -15.00000 7.70000
v 53.33333 -20.00000 7.70000
v 60.00000 -20.00000 7.70000
v 60.00000 -25.00000 7.70000
v -60.00000 -5.00000 7.70000
v -53.33333 -5.00000 7.70000
v -60.00000 -10.00000 7.70000
v -53.33333 -10.00000 7.70000
v -46.66667 -5.00000 7.70000
v -46.66667 -10.00000 7.70000
v -40.00000 -10.00000 7.70000
v -40.00000 -5.00000 7.70000
v -33.33333 -5.00000 7.70000
v -33.33333 -10.00000 7.70000
v -26.66667 -5.00000 7.70000
v -26.66667 -10.00000 7.70000
v -20.00000 -10.00000 7.70000
v -20.00000 -5.00000 7.70000
v -13.33333 -5.00000 7.70000
v -13.33333 -10.00000 7.70000
v -6.66667 -5.00000 7.70000
v -6.66667 -10.00000 7.70000
v 0.00000 -10.00000 7.70000
v 0.00000 -5.00000 7.70000
v 6.66667 -5.00000 7.70000
v 6.66667 -10.00000 7.70000
v 13.33333 -5.00000 7.70000
v 13.33333 -10.00000 7.70000
v 20.00000 -10.00000 7.70000
v 20.00000 -5.00000 7.70000
v 26.66667 -5.00000 7.70000
v 26.66667 -10.00000 7.70000
v 33.33333 -5.00000 7.70000
v 33.33333 -10.00000 7.70000
v 40.00000 -10.00000 7.70000
v 40.00000 -5.00000 7.70000
v 46.66667 -5.00000 7.70000
v 46.66667 -10.00000 7.70000
v 53.33333 -5.00000 7.70000
v 53.33333 -10.00000 7.70000
v 60.00000 -10.00000 7.70000
v 60.00000 -15.00000 7.70000
v -60.00000 5.00000 7.70000
v -53.33333 5.00000 7.70000
v -60.00000 0.00000 7.70000
v -53.33333 0.00000 7.70000
v -46.66667 5.00000 7.70000
v -46.66667 0.00000 7.70000
v -40.00000 0.00000 7.70000
v -40.00000 5.00000 7.70000
v -33.33333 5.00000 7.70000
v -33.33333 0.00000 7.70000
v -26.66667 5.00000 7.70000
v -26.66667 0.00000 7.70000
v -20.00000 0.00000 7.70000
v -20.00000 5.00000 7.70000
v -13.33333 5.00000 7.70000
v -13.33333 0.00000 7.70000
v -6.66667 5.00000 7.70000
v -6.66667 0.00000 7.70000
v 0.00000 0.00000 7.70000
v 0.00000 5.00000 7.70000
v 6.66667 5.00000 7.70000
v 6.66667 0.00000 7.70000
v 13.33333 5.00000 7.70000
v 13.33333 0.00000 7.70000
v 20.00000 0.00000 7.70000
v 20.00000 5.00000 7.70000
v 26.66667 5.00000 7.70000
v 26.66667 0.00000 7.70000
v 33.33333 5.00000 7.70000
v 33.33333 0.00000 7.70000
v 40.00000 0.00000 7.70000
v 40.00000 5.00000 7.70000
v 46.66667 5.00000 7.70000
v 46.66667 0.00000 7.70000
v 53.33333 5.00000 7.70000
v 53.33333 0.00000 7.70000
v 60.00000 0.00000 7.70000
v 60.00000 -5.00000 7.70000
v -60.00000 15.00000 7.70000
v -53.33333 15.00000 7.70000
v -60.00000 10.00000 7.70000
v -53.33333 10.00000 7.70000
v -46.66667 15.00000 7.70000
v -46.66667 10.00000 7.70000
v -40.00000 10.00000 7.70000
v -40.00000 15.00000 7.70000
v -33.33333 15.00000 7.70000
v -33.33333 10.00000 7.70000
v -26.66667 15.00000 7.70000
v -26.66667 10.00000 7.70000
v -20.00000 10.00000 7.70000
v -20.00000 15.00000 7.70000
v -13.33333 15.00000 7.70000
v -13.33333 10.00000 7.70000
v -6.66667 15.00000 7.70000
v -6.66667 10.00000 7.70000
v 0.00000 10.00000 7.70000
v 0.00000 15.00000 7.70000
v 6.66667 15.00000 7.70000
v 6.66667 10.00000 7.70000
v 13.33333 15.00000 7.70000
v 13.33333 10.00000 7.70000
v 20.00000 10.00000 7.70000
v 20.00000 15.00000 7.70000
v 26.66667 15.00000 7.70000
v 26.66667 10.00000 7.70000
v 33.33333 15.00000 7.70000
v 33.33333 10.00000 7.70000
v 40.00000 10.00000 7.70000
v 40.00000 15.00000 7.70000
v 46.66667 15.00000 7.70000
v 46.66667 10.00000 7.70000
v 53.33333 15.00000 7.70000
v 53.33333 10.00000 7.70000
v 60.00000 10.00000 7.70000
v 60.00000 5.00000 7.70000
v -60.00000 25.00000 7.70000
v -53.33333 25.00000 7.70000
v -60.00000 20.00000 7.70000
v -53.33333 20.00000 7.70000
v -46.66667 25.00000 7.70000
v -46.66667 20.00000 7.70000
v -40.00000 20.00000 7.70000
v -40.00000 25.00000 7.70000
v -33.33333 25.00000 7.70000
v -33.33333 20.00000 7.70000
v -26.66667 25.00000 7.70000
v -26.66667 20.00000 7.70000
v -20.00000 20.00000 7.70000
v -20.00000 25.00000 7.70000
v -13.33333 25.00000 7.70000
v -13.33333 20.00000 7.70000
v -6.66667 25.00000 7.70000
v -6.66667 20.00000 7.70000
v 0.00000 20.00000 7.70000
v 0.00000 25.00000 7.70000
v 6.66667 25.00000 7.70000
v 6.66667 20.00000 7.70000
v 13.33333 25.00000 7.70000
v 13.33333 20.00000 7.70000
v 20.00000 20.00000 7.70000
v 20.00000 25.00000 7.70000
v 26.66667 25.00000 7.70000
v 26.66667 20.00000 7.70000
v 33.33333 25.00000 7.70000
v 33.33333 20.00000 7.70000
v 40.00000 20.00000 7.70000
v 40.00000 25.00000 7.70000
v 46.66667 25.00000 7.70000
v 46.66667 20.00000 7.70000
v 53.33333 25.00000 7.70000
v 53.33333 20.00000 7.70000
v 60.00000 20.00000 7.70000
v 60.00000 15.00000 7.70000
v -60.00000 35.00000 7.70000
v -53.33333 35.00000 7.70000
v -60.00000 30.00000 7.70000
v -53.33333 30.00000 7.70000
v -46.66667 35.00000 7.70000
v -46.66667 30.00000 7.70000
v -40.00000 30.00000 7.70000
v -40.00000 35.00000 7.70000
v -33.33333 35.00000 7.70000
v -33.33333 30.00000 7.70000
v -26.66667 35.00000 7.70000
v -26.66667 30.00000 7.70000
v -20.00000 30.00000 7.70000
v -20.00000 35.00000 7.70000
v -13.33333 35.00000 7.70000
v -13.33333 30.00000 7.70000
v -6.66667 35.00000 7.70000
v -6.66667 30.00000 7.70000
v 0.00000 30.00000 7.70000
v 0.00000 35.00000 7.70000
v 6.66667 35.00000 7.70000
v 6.66667 30.00000 7.70000
v 13.33333 35.00000 7.70000
v 13.33333 30.00000 7.70000
v 20.00000 30.00000 7.70000
v 20.00000 35.00000 7.70000
v 26.66667 35.00000 7.70000
v 26.66667 30.00000 7.70000
v 33.33333 35.00000 7.70000
v 33.33333 30.00000 7.70000
v 40.00000 30.00000 7.70000
v 40.00000 35.00000 7.70000
v 46.66667 35.00000 7.70000
v 46.66667 30.00000 7.70000
v 53.33333 35.00000 7.70000
v 53.33333 30.00000 7.70000
v 60.00000 30.00000 7.70000
v 60.00000 25.00000 7.70000
v -60.00000 45.00000 7.70000
v -53.33333 45.00000 7.70000
v -60.00000 40.00000 7.70000
v -53.33333 40.00000 7.70000
v -46.66667 45.00000 7.70000
v -46.66667 40.00000 7.70000
v -40.00000 40.00000 7.70000
v -40.00000 45.00000 7.70000
v -33.33333 45.00000 7.70000
v -33.33333 40.00000 7.70000
v -26.66667 45.00000 7.70000
v -26.66667 40.00000 7.70000
v -20.00000 40.00000 7.70000
v -20.00000 45.00000 7.70000
v -13.33333 45.00000 7.70000
v -13.33333 40.00000 7.70000
v -6.66667 45.00000 7.70000
v -6.66667 40.00000 7.70000
v 0.00000 40.00000 7.70000
v 0.00000 45.00000 7.70000
v 6.66667 45.00000 7.70000
v 6.66667 40.00000 7.70000
v 13.33333 45.00000 7.70000
v 13.33333 40.00000 7.70000
v 20.00000 40.00000 7.70000
v 20.00000 45.00000 7.70000
v 26.66667 45.00000 7.70000
v 26.66667 40.00000 7.70000
v 33.33333 45.00000 7.70000
v 33.33333 40.00000 7.70000
v 40.00000 40.00000 7.70000
v 40.00000 45.00000 7.70000
v 46.66667 45.00000 7.70000
v 46.66667 40.00000 7.70000
v 53.33333 45.00000 7.70000
v 53.33333 40.00000 7.70000
v 60.00000 40.00000 7.70000
v 60.00000 35.00000 7.70000
v -60.00000 55.00000 7.70000
v -53.33333 55.00000 7.70000
v -60.00000 50.00000 7.70000
v -53.33333 50.00000 7.70000
v -46.66667 55.00000 7.70000
v -46.66667 50.00000 7.70000
v -40.00000 50.00000 7.70000
v -40.00000 55.00000 7.70000
v -33.33333 55.00000 7.70000
v -33.33333 50.00000 7.70000
v -26.66667 55.00000 7.70000
v -26.66667 50.00000 7.70000
v -20.00000 50.00000 7.70000
v -20.00000 55.00000 7.70000
v -13.33333 55.00000 7.70000
v -13.33333 50.00000 7.70000
v -6.66667 55.00000 7.70000
v -6.66667 50.00000 7.70000
v 0.00000 50.00000 7.70000
v 0.00000 55.00000 7.70000
v 6.66667 55.00000 7.70000
v 6.66667 50.00000 7.70000
v 13.33333 55.00000 7.70000
v 13.33333 50.00000 7.70000
v 20.00000 50.00000 7.70000
v 20.00000 55.00000 7.70000
v 26.66667 55.00000 7.70000
v 26.66667 50.00000 7.70000
v 33.33333 55.00000 7.70000
v 33.33333 50.00000 7.70000
v 40.00000 50.00000 7.70000
v 40.00000 55.00000 7.70000
v 46.66667 55.00000 7.70000
v 46.66667 50.00000 7.70000
v 53.33333 55.00000 7.70000
v 53.33333 50.00000 7.70000
v 60.00000 50.00000 7.70000
v 60.00000 45.00000 7.70000
v -60.00000 65.00000 7.70000
v -53.33333 65.00000 7.70000
v -60.00000 60.00000 7.70000
v -53.33333 60.00000 7.70000
v -46.66667 65.00000 7.70000
v -46.66667 60.00000 7.70000
v -40.00000 60.00000 7.70000
v -40.00000 65.00000 7.70000
v -33.33333 65.00000 7.70000
v -33.33333 60.00000 7.70000
v -26.66667 65.00000 7.70000
v -26.66667 60.00000 7.70000
v -20.00000 60.00000 7.70000
v -20.00000 65.00000 7.70000
v -13.33333 65.00000 7.70000
v -13.33333 60.00000 7.70000
v -6.66667 65.00000 7.70000
v -6.66667 60.00000 7.70000
v 0.00000 60.00000 7.70000
v 0.00000 65.00000 7.70000
v 6.66667 65.00000 7.70000
v 6.66667 60.00000 7.70000
v 13.33333 65.00000 7.70000
v 13.33333 60.00000 7.70000
v 20.00000 60.00000 7.70000
v 20.00000 65.00000 7.70000
v 26.66667 65.00000 7.70000
v 26.66667 60.00000 7.70000
v 33.33333 65.00000 7.70000
v 33.33333 60.00000 7.70000
v 40.00000 60.00000 7.70000
v 40.00000 65.00000 7.70000
v 46.66667 65.00000 7.70000
v 46.66667 60.00000 7.70000
v 53.33333 65.00000 7.70000
v 53.33333 60.00000 7.70000
v 60.00000 60.00000 7.70000
v 60.00000 55.00000 7.70000
v -60.00000 75.00000 7.70000
v -53.33333 75.00000 7.70000
v -60.00000 70.00000 7.70000
v -53.33333 70.00000 7.70000
v -46.66667 75.00000 7.70000
v -46.66667 70.00000 7.70000
v -40.00000 70.00000 7.70000
v -40.00000 75.00000 7.70000
v -33.33333 75.00000 7.70000
v -33.33333 70.00000 7.70000
v -26.66667 75.00000 7.70000
v -26.66667 70.00000 7.70000
v -20.00000 70.00000 7.70000
v -20.00000 75.00000 7.70000
v -13.33333 75.00000 7.70000
v -13.33333 70.00000 7.70000
v -6.66667 75.00000 7.70000
v -6.66667 70.00000 7.70000
v 0.00000 70.00000 7.70000
v 0.00000 75.00000 7.70000
v 6.66667 75.00000 7.70000
v 6.66667 70.00000 7.70000
v 13.33333 75.00000 7.70000
v 13.33333 70.00000 7.70000
v 20.00000 70.00000 7.70000
v 20.00000 75.00000 7.70000
v 26.66667 75.00000 7.70000
v 26.66667 70.00000 7.70000
v 33.33333 75.00000 7.70000
v 33.33333 70.00000 7.70000
v 40.00000 70.00000 7.70000
v 40.00000 75.00000 7.70000
v 46.66667 75.00000 7.70000
v 46.66667 70.00000 7.70000
v 53.33333 75.00000 7.70000
v 53.33333 70.00000 7.70000
v 60.00000 70.00000 7.70000
v 60.00000 65.00000 7.70000
v -60.00000 85.00000 7.70000
v -53.33333 85.00000 7.70000
v -60.00000 80.00000 7.70000
v -53.33333 80.00000 7.70000
v -46.66667 85.00000 7.70000
v -46.66667 80.00000 7.70000
v -40.00000 80.00000 7.70000
v -40.00000 85.00000 7.70000
v -33.33333 85.00000 7.70000
v -33.33333 80.00000 7.70000
v -26.66667 85.00000 7.70000
v -26.66667 80.00000 7.70000
v -20.00000 80.00000 7.70000
v -20.00000 85.00000 7.70000
v -13.33333 85.00000 7.70000
v -13.33333 80.00000 7.70000
v -6.66667 85.00000 7.70000
v -6.66667 80.00000 7.70000
v 0.00000 80.00000 7.70000
v 0.00000 85.00000 7.70000
v 6.66667 85.00000 7.70000
v 6.66667 80.00000 7.70000
v 13.33333 85.00000 7.70000
v 13.33333 80.00000 7.70000
v 20.00000 80.00000 7.70000
v 20.00000 85.00000 7.70000
v 26.66667 85.00000 7.70000
v 26.66667 80.00000 7.70000
v 33.33333 85.00000 7.70000
v 33.33333 80.00000 7.70000
v 40.00000 80.00000 7.70000
v 40.00000 85.00000 7.70000
v 46.66667 85.00000 7.70000
v 46.66667 80.00000 7.70000
v 53.33333 85.00000 7.70000
v 53.33333 80.00000 7.70000
v 60.00000 80.00000 7.70000
v 60.00000 75.00000 7.70000
v 60.00000 85.00000 7.70000
v -60.00000 -75.00000 1.34000
v -53.33333 -75.00000 4.70000
v -60.00000 -80.00000 4.70000
v -53.33333 -80.00000 0.50000
v -46.66667 -75.00000 1.90000
v -46.66667 -80.00000 4.70000
v -60.00000 -85.00000 1.90000
v -53.33333 -85.00000 4.70000
v -46.66667 -85.00000 2.60000
v -40.00000 -80.00000 4.70000
v -40.00000 -85.00000 2.60000
v -40.00000 -75.00000 1.90000
v -33.33333 -75.00000 4.70000
v -33.33333 -80.00000 0.50000
v -26.66667 -75.00000 1.90000
v -26.66667 -80.00000 4.70000
v -33.33333 -85.00000 4.70000
v -26.66667 -85.00000 2.60000
v -20.00000 -80.00000 4.70000
v -20.00000 -85.00000 2.60000
v -20.00000 -75.00000 1.90000
v -13.33333 -75.00000 4.70000
v -13.33333 -80.00000 0.50000
v -6.66667 -75.00000 1.90000
v -6.66667 -80.00000 4.70000
v -13.33333 -85.00000 4.70000
v -6.66667 -85.00000 2.60000
v 0.00000 -80.00000 4.70000
v 0.00000 -85.00000 2.60000
v 0.00000 -75.00000 1.90000
v 6.66667 -75.00000 4.70000
v 6.66667 -80.00000 0.50000
v 13.33333 -75.00000 1.90000
v 13.33333 -80.00000 4.70000
v 6.66667 -85.00000 4.70000
v 13.33333 -85.00000 2.60000
v 20.00000 -80.00000 4.70000
v 20.00000 -85.00000 2.60000
v 20.00000 -75.00000 1.90000
v 26.66667 -75.00000 4.70000
v 26.66667 -80.00000 0.50000
v 33.33333 -75.00000 1.90000
v 33.33333 -80.00000 4.70000
v 26.66667 -85.00000 4.70000
v 33.33333 -85.00000 2.60000
v 40.00000 -80.00000 4.70000
v 40.00000 -85.00000 2.60000
v 40.00000 -75.00000 1.90000
v 46.66667 -75.00000 4.70000
v 46.66667 -80.00000 0.50000
v 53.33333 -75.00000 1.90000
v 53.33333 -80.00000 4.70000
v 46.66667 -85.00000 4.70000
v 53.33333 -85.00000 2.60000
v 60.00000 -80.00000 4.70000
v 60.00000 -85.00000 4.70000
v -60.00000 -65.00000 1.34000
v -53.33333 -65.00000 4.70000
v -60.00000 -70.00000 4.70000
v -53.33333 -70.00000 0.50000
v -46.66667 -65.00000 1.90000
v -46.66667 -70.00000 4.70000
v -40.00000 -70.00000 4.70000
v -40.00000 -65.00000 1.90000
v -33.33333 -65.00000 4.70000
v -33.33333 -70.00000 0.50000
v -26.66667 -65.00000 1.90000
v -26.66667 -70.00000 4.70000
v -20.00000 -70.00000 4.70000
v -20.00000 -65.00000 1.90000
v -13.33333 -65.00000 4.70000
v -13.33333 -70.00000 0.50000
v -6.66667 -65.00000 1.90000
v -6.66667 -70.00000 4.70000
v 0.00000 -70.00000 4.70000
v 0.00000 -65.00000 1.90000
v 6.66667 -65.00000 4.70000
v 6.66667 -70.00000 0.50000
v 13.33333 -65.00000 1.90000
v 13.33333 -70.00000 4.70000
v 20.00000 -70.00000 4.70000
v 20.00000 -65.00000 1.90000
v 26.66667 -65.00000 4.70000
v 26.66667 -70.00000 0.50000
v 33.33333 -65.00000 1.90000
v 33.33333 -70.00000 4.70000
v 40.00000 -70.00000 4.70000
v 40.00000 -65.00000 1.90000
v 46.66667 -65.00000 4.70000
v 46.66667 -70.00000 0.50000
v 53.33333 -65.00000 1.90000
v 53.33333 -70.00000 4.70000
v 60.00000 -70.00000 4.70000
v 60.00000 -75.00000 4.70000
v -60.00000 -55.00000 1.34000
v -53.33333 -55.00000 4.70000
v -60.00000 -60.00000 4.70000
v -53.33333 -60.00000 0.50000
v -46.66667 -55.00000 1.90000
v -46.66667 -60.00000 4.70000
v -40.00000 -60.00000 4.70000
v -40.00000 -55.00000 1.90000
v -33.33333 -55.00000 4.70000
v -33.33333 -60.00000 0.50000
v -26.66667 -55.00000 1.90000
v -26.66667 -60.00000 4.70000
v -20.00000 -60.00000 4.70000
v -20.00000 -55.00000 1.90000
v -13.33333 -55.00000 4.70000
v -13.33333 -60.00000 0.50000
v -6.66667 -55.00000 1.90000
v -6.66667 -60.00000 4.70000
v 0.00000 -60.00000 4.70000
v 0.00000 -55.00000 1.90000
v 6.66667 -55.00000 4.70000
v 6.66667 -60.00000 0.50000
v 13.33333 -55.00000 1.90000
v 13.33333 -60.00000 4.70000
v 20.00000 -60.00000 4.70000
v 20.00000 -55.00000 1.90000
v 26.66667 -55.00000 4.70000
v 26.66667 -60.00000 0.50000
v 33.33333 -55.00000 1.90000
v 33.33333 -60.00000 4.70000
v 40.00000 -60.00000 4.70000
v 40.00000 -55.00000 1.90000
v 46.66667 -55.00000 4.70000
v 46.66667 -60.00000 0.50000
v 53.33333 -55.00000 1.90000
v 53.33333 -60.00000 4.70000
v 60.00000 -60.00000 4.70000
v 60.00000 -65.00000 4.70000
v -60.00000 -45.00000 1.34000
v -53.33333 -45.00000 4.70000
v -60.00000 -50.00000 4.70000
v -53.33333 -50.00000 0.50000
v -46.66667 -45.00000 1.90000
v -46.66667 -50.00000 4.70000
v -40.00000 -50.00000 4.70000
v -40.00000 -45.00000 1.90000
v -33.33333 -45.00000 4.70000
v -33.33333 -50.00000 0.50000
v -26.66667 -45.00000 1.90000
v -26.66667 -50.00000 4.70000
v -20.00000 -50.00000 4.70000
v -20.00000 -45.00000 1.90000
v -13.33333 -45.00000 4.70000
v -13.33333 -50.00000 0.50000
v -6.66667 -45.00000 1.90000
v -6.66667 -50.00000 4.70000
v 0.00000 -50.00000 4.70000
v 0.00000 -45.00000 1.90000
v 6.66667 -45.00000 4.70000
v 6.66667 -50.00000 0.50000
v 13.33333 -45.00000 1.90000
v 13.33333 -50.00000 4.70000
v 20.00000 -50.00000 4.70000
v 20.00000 -45.00000 1.90000
v 26.66667 -45.00000 4.70000
v 26.66667 -50.00000 0.50000
v 33.33333 -45.00000 1.90000
v 33.33333 -50.00000 4.70000
v 40.00000 -50.00000 4.70000
v 40.00000 -45.00000 1.90000
v 46.66667 -45.00000 4.70000
v 46.66667 -50.00000 0.50000
v 53.33333 -45.00000 1.90000
v 53.33333 -50.00000 4.70000
v 60.00000 -50.00000 4.70000
v 60.00000 -55.00000 4.70000
v -60.00000 -35.00000 1.34000
v -53.33333 -35.00000 4.70000
v -60.00000 -40.00000 4.70000
v -53.33333 -40.00000 0.50000
v -46.66667 -35.00000 1.90000
v -46.66667 -40.00000 4.70000
v -40.00000 -40.00000 4.70000
v -40.00000 -35.00000 1.90000
v -33.33333 -35.00000 4.70000
v -33.33333 -40.00000 0.50000
v -26.66667 -35.00000 1.90000
v -26.66667 -40.00000 4.70000
v -20.00000 -40.00000 4.70000
v -20.00000 -35.00000 1.90000
v -13.33333 -35.00000 4.70000
v -13.33333 -40.00000 0.50000
v -6.66667 -35.00000 1.90000
v -6.66667 -40.00000 4.70000
v 0.00000 -40.00000 4.70000
v 0.00000 -35.00000 1.90000
v 6.66667 -35.00000 4.70000
v 6.66667 -40.00000 0.50000
v 13.33333 -35.00000 1.90000
v 13.33333 -40.00000 4.70000
v 20.00000 -40.00000 4.70000
v 20.00000 -35.00000 1.90000
v 26.66667 -35.00000 4.70000
v 26.66667 -40.00000 0.50000
v 33.33333 -35.00000 1.90000
v 33.33333 -40.00000 4.70000
v 40.00000 -40.00000 4.70000
v 40.00000 -35.00000 1.90000
v 46.66667 -35.00000 4.70000
v 46.66667 -40.00000 0.50000
v 53.33333 -35.00000 1.90000
v 53.33333 -40.00000 4.70000
v 60.00000 -40.00000 4.70000
v 60.00000 -45.00000 4.70000
v -60.00000 -25.00000 1.34000
v -53.33333 -25.00000 4.70000
v -60.00000 -30.00000 4.70000
v -53.33333 -30.00000 0.50000
v -46.66667 -25.00000 1.90000
v -46.66667 -30.00000 4.70000
v -40.00000 -30.00000 4.70000
v -40.00000 -25.00000 1.90000
v -33.33333 -25.00000 4.70000
v -33.33333 -30.00000 0.50000
v -26.66667 -25.00000 1.90000
v -26.66667 -30.00000 4.70000
v -20.00000 -30.00000 4.70000
v -20.00000 -25.00000 1.90000
v -13.33333 -25.00000 4.70000
v -13.33333 -30.00000 0.50000
v -6.66667 -25.00000 1.90000
v -6.66667 -30.00000 4.70000
v 0.00000 -30.00000 4.70000
v 0.00000 -25.00000 1.90000
v 6.66667 -25.00000 4.70000
v 6.66667 -30.00000 0.50000
v 13.33333 -25.00000 1.90000
v 13.33333 -30.00000 4.70000
v 20.00000 -30.00000 4.70000
v 20.00000 -25.00000 1.90000
v 26.66667 -25.00000 4.70000
v 26.66667 -30.00000 0.50000
v 33.33333 -25.00000 1.90000
v 33.33333 -30.00000 4.70000
v 40.00000 -30.00000 4.70000
v 40.00000 -25.00000 1.90000
v 46.66667 -25.00000 4.70000
v 46.66667 -30.00000 0.50000
v 53.33333 -25.00000 1.90000
v 53.33333 -30.00000 4.70000
v 60.00000 -30.00000 4.70000
v 60.00000 -35.00000 4.70000
v -60.00000 -15.00000 1.34000
v -53.33333 -15.00000 4.70000
v -60.00000 -20.00000 4.70000
v -53.33333 -20.00000 0.50000
v -46.66667 -15.00000 1.90000
v -46.66667 -20.00000 4.70000
v -40.00000 -20.00000 4.70000
v -40.00000 -15.00000 1.90000
v -33.33333 -15.00000 4.70000
v -33.33333 -20.00000 0.50000
v -26.66667 -15.00000 1.90000
v -26.66667 -20.00000 4.70000
v -20.00000 -20.00000 4.70000
v -20.00000 -15.00000 1.90000
v -13.33333 -15.00000 4.70000
v -13.33333 -20.00000 0.50000
v -6.66667 -15.00000 1.90000
v -6.66667 -20.00000 4.70000
v 0.00000 -20.00000 4.70000
v 0.00000 -15.00000 1.90000
v 6.66667 -15.00000 4.70000
v 6.66667 -20.00000 0.50000
v 13.33333 -15.00000 1.90000
v 13.33333 -20.00000 4.70000
v 20.00000 -20.00000 4.70000
v 20.00000 -15.00000 1.90000
v 26.66667 -15.00000 4.70000
v 26.66667 -20.00000 0.50000
v 33.33333 -15.00000 1.90000
v 33.33333 -20.00000 4.70000
v 40.00000 -20.00000 4.70000
v 40.00000 -15.00000 1.90000
v 46.66667 -15.00000 4.70000
v 46.66667 -20.00000 0.50000
v 53.33333 -15.00000 1.90000
v 53.33333 -20.00000 4.70000
v 60.00000 -20.00000 4.70000
v 60.00000 -25.00000 4.70000
v -60.00000 -5.00000 1.34000
v -53.33333 -5.00000 4.70000
v -60.00000 -10.00000 4.70000
v -53.33333 -10.00000 0.50000
v -46.66667 -5.00000 1.90000
v -46.66667 -10.00000 4.70000
v -40.00000 -10.00000 4.70000
v -40.00000 -5.00000 1.90000
v -33.33333 -5.00000 4.70000
v -33.33333 -10.00000 0.50000
v -26.66667 -5.00000 1.90000
v -26.66667 -10.00000 4.70000
v -20.00000 -10.00000 4.70000
v -20.00000 -5.00000 1.90000
v -13.33333 -5.00000 4.70000
v -13.33333 -10.00000 0.50000
v -6.66667 -5.00000 1.90000
v -6.66667 -10.00000 4.70000
v 0.00000 -10.00000 4.70000
v 0.00000 -5.00000 1.90000
v 6.66667 -5.00000 4.70000
v 6.66667 -10.00000 0.50000
v 13.33333 -5.00000 1.90000
v 13.33333 -10.00000 4.70000
v 20.00000 -10.00000 4.70000
v 20.00000 -5.00000 1.90000
v 26.66667 -5.00000 4.70000
v 26.66667 -10.00000 0.50000
v 33.33333 -5.00000 1.90000
v 33.33333 -10.00000 4.70000
v 40.00000 -10.00000 4.70000
v 40.00000 -5.00000 1.90000
v 46.66667 -5.00000 4.70000
v 46.66667 -10.00000 0.50000
v 53.33333 -5.00000 1.90000
v 53.33333 -10.00000 4.70000
v 60.00000 -10.00000 4.70000
v 60.00000 -15.00000 4.70000
v -60.00000 5.00000 1.34000
v -53.33333 5.00000 4.70000
v -60.00000 0.00000 4.70000
v -53.33333 0.00000 0.50000
v -46.66667 5.00000 1.90000
v -46.66667 0.00000 4.70000
v -40.00000 0.00000 4.70000
v -40.00000 5.00000 1.90000
v -33.33333 5.00000 4.70000
v -33.33333 0.00000 0.50000
v -26.66667 5.00000 1.90000
v -26.66667 0.00000 4.70000
v -20.00000 0.00000 4.70000
v -20.00000 5.00000 1.90000
v -13.33333 5.00000 4.70000
v -13.33333 0.00000 0.50000
v -6.66667 5.00000 1.90000
v -6.66667 0.00000 4.70000
v 0.00000 0.00000 4.70000
v 0.00000 5.00000 1.90000
v 6.66667 5.00000 4.70000
v 6.66667 0.00000 0.50000
v 13.33333 5.00000 1.90000
v 13.33333 0.00000 4.70000
v 20.00000 0.00000 4.70000
v 20.00000 5.00000 1.90000
v 26.66667 5.00000 4.70000
v 26.66667 0.00000 0.50000
v 33.33333 5.00000 1.90000
v 33.33333 0.00000 4.70000
v 40.00000 0.00000 4.70000
v 40.00000 5.00000 1.90000
v 46.66667 5.00000 4.70000
v 46.66667 0.00000 0.50000
v 53.33333 5.00000 1.90000
v 53.33333 0.00000 4.70000
v 60.00000 0.00000 4.70000
v 60.00000 -5.00000 4.70000
v -60.00000 15.00000 1.34000
v -53.33333 15.00000 4.70000
v -60.00000 10.00000 4.70000
v -53.33333 10.00000 0.50000
v -46.66667 15.00000 1.90000
v -46.66667 10.00000 4.70000
v -40.00000 10.00000 4.70000
v -40.00000 15.00000 1.90000
v -33.33333 15.00000 4.70000
v -33.33333 10.00000 0.50000
v -26.66667 15.00000 1.90000
v -26.66667 10.00000 4.70000
v -20.00000 10.00000 4.70000
v -20.00000 15.00000 1.90000
v -13.33333 15.00000 4.70000
v -13.33333 10.00000 0.50000
v -6.66667 15.00000 1.90000
v -6.66667 10.00000 4.70000
v 0.00000 10.00000 4.70000
v 0.00000 15.00000 1.90000
v 6.66667 15.00000 4.70000
v 6.66667 10.00000 0.50000
v 13.33333 15.00000 1.90000
v 13.33333 10.00000 4.70000
v 20.00000 10.00000 4.70000
v 20.00000 15.00000 1.90000
v 26.66667 15.00000 4.70000
v 26.66667 10.00000 0.50000
v 33.33333 15.00000 1.90000
v 33.33333 10.00000 4.70000
v 40.00000 10.00000 4.70000
v 40.00000 15.00000 1.90000
v 46.66667 15.00000 4.70000
v 46.66667 10.00000 0.50000
v 53.33333 15.00000 1.90000
v 53.33333 10.00000 4.70000
v 60.00000 10.00000 4.70000
v 60.00000 5.00000 4.70000
v -60.00000 25.00000 1.34000
v -53.33333 25.00000 4.70000
v -60.00000 20.00000 4.70000
v -53.33333 20.00000 0.50000
v -46.66667 25.00000 1.90000
v -46.66667 20.00000 4.70000
v -40.00000 20.00000 4.70000
v -40.00000 25.00000 1.90000
v -33.33333 25.00000 4.70000
v -33.33333 20.00000 0.50000
v -26.66667 25.00000 1.90000
v -26.66667 20.00000 4.70000
v -20.00000 20.00000 4.70000
v -20.00000 25.00000 1.90000
v -13.33333 25.00000 4.70000
v -13.33333 20.00000 0.50000
v -6.66667 25.00000 1.90000
v -6.66667 20.00000 4.70000
v 0.00000 20.00000 4.70000
v 0.00000 25.00000 1.90000
v 6.66667 25.00000 4.70000
v 6.66667 20.00000 0.50000
v 13.33333 25.00000 1.90000
v 13.33333 20.00000 4.70000
v 20.00000 20.00000 4.70000
v 20.00000 25.00000 1.90000
v 26.66667 25.00000 4.70000
v 26.66667 20.00000 0.50000
v 33.33333 25.00000 1.90000
v 33.33333 20.00000 4.70000
v 40.00000 20.00000 4.70000
v 40.00000 25.00000 1.90000
v 46.66667 25.00000 4.70000
v 46.66667 20.00000 0.50000
v 53.33333 25.00000 1.90000
v 53.33333 20.00000 4.70000
v 60.00000 20.00000 4.70000
v 60.00000 15.00000 4.70000
v -60.00000 35.00000 1.34000
v -53.33333 35.00000 4.70000
v -60.00000 30.00000 4.70000
v -53.33333 30.00000 0.50000
v -46.66667 35.00000 1.90000
v -46.66667 30.00000 4.70000
v -40.00000 30.00000 4.70000
v -40.00000 35.00000 1.90000
v -33.33333 35.00000 4.70000
v -33.33333 30.00000 0.50000
v -26.66667 35.00000 1.90000
v -26.66667 30.00000 4.70000
v -20.00000 30.00000 4.70000
v -20.00000 35.00000 1.90000
v -13.33333 35.00000 4.70000
v -13.33333 30.00000 0.50000
v -6.66667 35.00000 1.90000
v -6.66667 30.00000 4.70000
v 0.00000 30.00000 4.70000
v 0.00000 35.00000 1.90000
v 6.66667 35.00000 4.70000
v 6.66667 30.00000 0.50000
v 13.33333 35.00000 1.90000
v 13.33333 30.00000 4.70000
v 20.00000 30.00000 4.70000
v 20.00000 35.00000 1.90000
v 26.66667 35.00000 4.70000
v 26.66667 30.00000 0.50000
v 33.33333 35.00000 1.90000
v 33.33333 30.00000 4.70000
v 40.00000 30.00000 4.70000
v 40.00000 35.00000 1.90000
v 46.66667 35.00000 4.70000
v 46.66667 30.00000 0.50000
v 53.33333 35.00000 1.90000
v 53.33333 30.00000 4.70000
v 60.00000 30.00000 4.70000
v 60.00000 25.00000 4.70000
v -60.00000 45.00000 1.34000
v -53.33333 45.00000 4.70000
v -60.00000 40.00000 4.70000
v -53.33333 40.00000 0.50000
v -46.66667 45.00000 1.90000
v -46.66667 40.00000 4.70000
v -40.00000 40.00000 4.70000
v -40.00000 45.00000 1.90000
v -33.33333 45.00000 4.70000
v -33.33333 40.00000 0.50000
v -26.66667 45.00000 1.90000
v -26.66667 40.00000 4.70000
v -20.00000 40.00000 4.70000
v -20.00000 45.00000 1.90000
v -13.33333 45.00000 4.70000
v -13.33333 40.00000 0.50000
v -6.66667 45.00000 1.90000
v -6.66667 40.00000 4.70000
v 0.00000 40.00000 4.70000
v 0.00000 45.00000 1.90000
v 6.66667 45.00000 4.70000
v 6.66667 40.00000 0.50000
v 13.33333 45.00000 1.90000
v 13.33333 40.00000 4.70000
v 20.00000 40.00000 4.70000
v 20.00000 45.00000 1.90000
v 26.66667 45.00000 4.70000
v 26.66667 40.00000 0.50000
v 33.33333 45.00000 1.90000
v 33.33333 40.00000 4.70000
v 40.00000 40.00000 4.70000
v 40.00000 45.00000 1.90000
v 46.66667 45.00000 4.70000
v 46.66667 40.00000 0.50000
v 53.33333 45.00000 1.90000
v 53.33333 40.00000 4.70000
v 60.00000 40.00000 4.70000
v 60.00000 35.00000 4.70000
v -60.00000 55.00000 1.34000
v -53.33333 55.00000 4.70000
v -60.00000 50.00000 4.70000
v -53.33333 50.00000 0.50000
v -46.66667 55.00000 1.90000
v -46.66667 50.00000 4.70000
v -40.00000 50.00000 4.70000
v -40.00000 55.00000 1.90000
v -33.33333 55.00000 4.70000
v -33.33333 50.00000 0.50000
v -26.66667 55.00000 1.90000
v -26.66667 50.00000 4.70000
v -20.00000 50.00000 4.70000
v -20.00000 55.00000 1.90000
v -13.33333 55.00000 4.70000
v -13.33333 50.00000 0.50000
v -6.66667 55.00000 1.90000
v -6.66667 50.00000 4.70000
v 0.00000 50.00000 4.70000
v 0.00000 55.00000 1.90000
v 6.66667 55.00000 4.70000
v 6.66667 50.00000 0.50000
v 13.33333 55.00000 1.90000
v 13.33333 50.00000 4.70000
v 20.00000 50.00000 4.70000
v 20.00000 55.00000 1.90000
v 26.66667 55.00000 4.70000
v 26.66667 50.00000 0.50000
v 33.33333 55.00000 1.90000
v 33.33333 50.00000 4.70000
v 40.00000 50.00000 4.70000
v 40.00000 55.00000 1.90000
v 46.66667 55.00000 4.70000
v 46.66667 50.00000 0.50000
v 53.33333 55.00000 1.90000
v 53.33333 50.00000 4.70000
v 60.00000 50.00000 4.70000
v 60.00000 45.00000 4.70000
v -60.00000 65.00000 1.34000
v -53.33333 65.00000 4.70000
v -60.00000 60.00000 4.70000
v -53.33333 60.00000 0.50000
v -46.66667 65.00000 1.90000
v -46.66667 60.00000 4.70000
v -40.00000 60.00000 4.70000
v -40.00000 65.00000 1.90000
v -33.33333 65.00000 4.70000
v -33.33333 60.00000 0.50000
v -26.66667 65.00000 1.90000
v -26.66667 60.00000 4.70000
v -20.00000 60.00000 4.70000
v -20.00000 65.00000 1.90000
v -13.33333 65.00000 4.70000
v -13.33333 60.00000 0.50000
v -6.66667 65.00000 1.90000
v -6.66667 60.00000 4.70000
v 0.00000 60.00000 4.70000
v 0.00000 65.00000 1.90000
v 6.66667 65.00000 4.70000
v 6.66667 60.00000 0.50000
v 13.33333 65.00000 1.90000
v 13.33333 60.00000 4.70000
v 20.00000 60.00000 4.70000
v 20.00000 65.00000 1.90000
v 26.66667 65.00000 4.70000
v 26.66667 60.00000 0.50000
v 33.33333 65.00000 1.90000
v 33.33333 60.00000 4.70000
v 40.00000 60.00000 4.70000
v 40.00000 65.00000 1.90000
v 46.66667 65.00000 4.70000
v 46.66667 60.00000 0.50000
v 53.33333 65.00000 1.90000
v 53.33333 60.00000 4.70000
v 60.00000 60.00000 4.70000
v 60.00000 55.00000 4.70000
v -60.00000 75.00000 1.34000
v -53.33333 75.00000 4.70000
v -60.00000 70.00000 4.70000
v -53.33333 70.00000 0.50000
v -46.66667 75.00000 1.90000
v -46.66667 70.00000 4.70000
v -40.00000 70.00000 4.70000
v -40.00000 75.00000 1.90000
v -33.33333 75.00000 4.70000
v -33.33333 70.00000 0.50000
v -26.66667 75.00000 1.90000
v -26.66667 70.00000 4.70000
v -20.00000 70.00000 4.70000
v -20.00000 75.00000 1.90000
v -13.33333 75.00000 4.70000
v -13.33333 70.00000 0.50000
v -6.66667 75.00000 1.90000
v -6.66667 70.00000 4.70000
v 0.00000 70.00000 4.70000
v 0.00000 75.00000 1.90000
v 6.66667 75.00000 4.70000
v 6.66667 70.00000 0.50000
v 13.33333 75.00000 1.90000
v 13.33333 70.00000 4.70000
v 20.00000 70.00000 4.70000
v 20.00000 75.00000 1.90000
v 26.66667 75.00000 4.70000
v 26.66667 70.00000 0.50000
v 33.33333 75.00000 1.90000
v 33.33333 70.00000 4.70000
v 40.00000 70.00000 4.70000
v 40.00000 75.00000 1.90000
v 46.66667 75.00000 4.70000
v 46.66667 70.00000 0.50000
v 53.33333 75.00000 1.90000
v 53.33333 70.00000 4.70000
v 60.00000 70.00000 4.70000
v 60.00000 65.00000 4.70000
v -60.00000 85.00000 1.90000
v -53.33333 85.00000 4.70000
v -60.00000 80.00000 4.70000
v -53.33333 80.00000 0.50000
v -46.66667 85.00000 1.90000
v -46.66667 80.00000 4.70000
v -40.00000 80.00000 4.70000
v -40.00000 85.00000 1.90000
v -33.33333 85.00000 4.70000
v -33.33333 80.00000 0.50000
v -26.66667 85.00000 1.90000
v -26.66667 80.00000 4.70000
v -20.00000 80.00000 4.70000
v -20.00000 85.00000 1.90000
v -13.33333 85.00000 4.70000
v -13.33333 80.00000 0.50000
v -6.66667 85.00000 1.90000
v -6.66667 80.00000 4.70000
v 0.00000 80.00000 4.70000
v 0.00000 85.00000 1.90000
v 6.66667 85.00000 4.70000
v 6.66667 80.00000 0.50000
v 13.33333 85.00000 1.90000
v 13.33333 80.00000 4.70000
v 20.00000 80.00000 4.70000
v 20.00000 85.00000 1.90000
v 26.66667 85.00000 4.70000
v 26.66667 80.00000 0.50000
v 33.33333 85.00000 1.90000
v 33.33333 80.00000 4.70000
v 40.00000 80.00000 4.70000
v 40.00000 85.00000 1.90000
v 46.66667 85.00000 4.70000
v 46.66667 80.00000 0.50000
v 53.33333 85.00000 1.90000
v 53.33333 80.00000 4.70000
v 60.00000 80.00000 4.70000
v 60.00000 75.00000 4.70000
v 60.00000 85.00000 0.50000
f 1 2 60
f 666 725 667
f 2 1 4
f 667 669 666
f 1 3 4
f 666 669 668
f 4 3 7
f 669 672 668
f 2 4 5
f 667 670 669
f 2 5 60
f 667 725 670
f 5 6 10
f 670 675 671
f 5 10 12
f 670 677 675
f 6 5 4
f 671 669 670
f 6 4 9
f 671 674 669
f 7 8 4
f 672 669 673
f 4 8 9
f 669 674 673
f 6 9 11
f 671 676 674
f 6 11 10
f 671 675 676
f 10 11 14
f 675 679 676
f 12 13 66
f 677 731 678
f 13 12 14
f 678 679 677
f 12 10 14
f 677 679 675
f 13 14 15
f 678 680 679
f 13 15 66
f 678 731 680
f 15 16 19
f 680 684 681
f 15 19 21
f 680 686 684
f 16 15 14
f 681 679 680
f 16 14 18
f 681 683 679
f 11 17 14
f 676 679 682
f 14 17 18
f 679 683 682
f 16 18 20
f 681 685 683
f 16 20 19
f 681 684 685
f 19 20 23
f 684 688 685
f 21 22 72
f 686 737 687
f 22 21 23
f 687 688 686
f 21 19 23
f 686 688 684
f 22 23 24
f 687 689 688
f 22 24 72
f 687 737 689
f 24 25 28
f 689 693 690
f 24 28 30
f 689 695 693
f 25 24 23
f 690 688 689
f 25 23 27
f 690 692 688
f 20 26 23
f 685 688 691
f 23 26 27
f 688 692 691
f 25 27 29
f 690 694 692
f 25 29 28
f 690 693 694
f 28 29 32
f 693 697 694
f 30 31 78
f 695 743 696
f 31 30 32
f 696 697 695
f 30 28 32
f 695 697 693
f 31 32 33
f 696 698 697
f 31 33 78
f 696 743 698
f 33 34 37
f 698 702 699
f 33 37 39
f 698 704 702
f 34 33 32
f 699 697 698
f 34 32 36
f 699 701 697
f 29 35 32
f 694 697 700
f 32 35 36
f 697 701 700
f 34 36 38
f 699 703 701
f 34 38 37
f 699 702 703
f 37 38 41
f 702 706 703
f 39 40 84
f 704 749 705
f 40 39 41
f 705 706 704
f 39 37 41
f 704 706 702
f 40 41 42
f 705 707 706
f 40 42 84
f 705 749 707
f 42 43 46
f 707 711 708
f 42 46 48
f 707 713 711
f 43 42 41
f 708 706 707
f 43 41 45
f 708 710 706
f 38 44 41
f 703 706 709
f 41 44 45
f 706 710 709
f 43 45 47
f 708 712 710
f 43 47 46
f 708 711 712
f 46 47 50
f 711 715 712
f 48 49 90
f 713 755 714
f 49 48 50
f 714 715 713
f 48 46 50
f 713 715 711
f 49 50 51
f 714 716 715
f 49 51 90
f 714 755 716
f 51 52 55
f 716 720 717
f 51 55 94
f 716 759 720
f 52 51 50
f 717 715 716
f 52 50 54
f 717 719 715
f 47 53 50
f 712 715 718
f 50 53 54
f 715 719 718
f 52 54 56
f 717 721 719
f 52 56 55
f 717 720 721
f 57 58 98
f 722 763 723
f 58 57 60
f 723 725 722
f 57 59 60
f 722 725 724
f 60 59 1
f 725 666 724
f 58 60 61
f 723 726 725
f 58 61 98
f 723 763 726
f 61 62 63
f 726 728 727
f 61 63 64
f 726 729 728
f 62 61 60
f 727 725 726
f 62 60 5
f 727 670 725
f 62 5 12
f 727 677 670
f 62 12 63
f 727 728 677
f 63 12 66
f 728 731 677
f 64 65 104
f 729 769 730
f 65 64 66
f 730 731 729
f 64 63 66
f 729 731 728
f 65 66 67
f 730 732 731
f 65 67 104
f 730 769 732
f 67 68 69
f 732 734 733
f 67 69 70
f 732 735 734
f 68 67 66
f 733 731 732
f 68 66 15
f 733 680 731
f 68 15 21
f 733 686 680
f 68 21 69
f 733 734 686
f 69 21 72
f 734 737 686
f 70 71 110
f 735 775 736
f 71 70 72
f 736 737 735
f 70 69 72
f 735 737 734
f 71 72 73
f 736 738 737
f 71 73 110
f 736 775 738
f 73 74 75
f 738 740 739
f 73 75 76
f 738 741 740
f 74 73 72
f 739 737 738
f 74 72 24
f 739 689 737
f 74 24 30
f 739 695 689
f 74 30 75
f 739 740 695
f 75 30 78
f 740 743 695
f 76 77 116
f 741 781 742
f 77 76 78
f 742 743 741
f 76 75 78
f 741 743 740
f 77 78 79
f 742 744 743
f 77 79 116
f 742 781 744
f 79 80 81
f 744 746 745
f 79 81 82
f 744 747 746
f 80 79 78
f 745 743 744
f 80 78 33
f 745 698 743
f 80 33 39
f 745 704 698
f 80 39 81
f 745 746 704
f 81 39 84
f 746 749 704
f 82 83 122
f 747 787 748
f 83 82 84
f 748 749 747
f 82 81 84
f 747 749 746
f 83 84 85
f 748 750 749
f 83 85 122
f 748 787 750
f 85 86 87
f 750 752 751
f 85 87 88
f 750 753 752
f 86 85 84
f 751 749 750
f 86 84 42
f 751 707 749
f 86 42 48
f 751 713 707
f 86 48 87
f 751 752 713
f 87 48 90
f 752 755 713
f 88 89 128
f 753 793 754
f 89 88 90
f 754 755 753
f 88 87 90
f 753 755 752
f 89 90 91
f 754 756 755
f 89 91 128
f 754 793 756
f 91 92 93
f 756 758 757
f 91 93 132
f 756 797 758
f 92 91 90
f 757 755 756
f 92 90 51
f 757 716 755
f 92 51 94
f 757 759 716
f 92 94 93
f 757 758 759
f 95 96 136
f 760 801 761
f 96 95 98
f 761 763 760
f 95 97 98
f 760 763 762
f 98 97 57
f 763 722 762
f 96 98 99
f 761 764 763
f 96 99 136
f 761 801 764
f 99 100 101
f 764 766 765
f 99 101 102
f 764 767 766
f 100 99 98
f 765 763 764
f 100 98 61
f 765 726 763
f 100 61 64
f 765 729 726
f 100 64 101
f 765 766 729
f 101 64 104
f 766 769 729
f 102 103 142
f 767 807 768
f 103 102 104
f 768 769 767
f 102 101 104
f 767 769 766
f 103 104 105
f 768 770 769
f 103 105 142
f 768 807 770
f 105 106 107
f 770 772 771
f 105 107 108
f 770 773 772
f 106 105 104
f 771 769 770
f 106 104 67
f 771 732 769
f 106 67 70
f 771 735 732
f 106 70 107
f 771 772 735
f 107 70 110
f 772 775 735
f 108 109 148
f 773 813 774
f 109 108 110
f 774 775 773
f 108 107 110
f 773 775 772
f 109 110 111
f 774 776 775
f 109 111 148
f 774 813 776
f 111 112 113
f 776 778 777
f 111 113 114
f 776 779 778
f 112 111 110
f 777 775 776
f 112 110 73
f 777 738 775
f 112 73 76
f 777 741 738
f 112 76 113
f 777 778 741
f 113 76 116
f 778 781 741
f 114 115 154
f 779 819 780
f 115 114 116
f 780 781 779
f 114 113 116
f 779 781 778
f 115 116 117
f 780 782 781
f 115 117 154
f 780 819 782
f 117 118 119
f 782 784 783
f 117 119 120
f 782 785 784
f 118 117 116
f 783 781 782
f 118 116 79
f 783 744 781
f 118 79 82
f 783 747 744
f 118 82 119
f 783 784 747
f 119 82 122
f 784 787 747
f 120 121 160
f 785 825 786
f 121 120 122
f 786 787 785
f 120 119 122
f 785 787 784
f 121 122 123
f 786 788 787
f 121 123 160
f 786 825 788
f 123 124 125
f 788 790 789
f 123 125 126
f 788 791 790
f 124 123 122
f 789 787 788
f 124 122 85
f 789 750 787
f 124 85 88
f 789 753 750
f 124 88 125
f 789 790 753
f 125 88 128
f 790 793 753
f 126 127 166
f 791 831 792
f 127 126 128
f 792 793 791
f 126 125 128
f 791 793 790
f 127 128 129
f 792 794 793
f 127 129 166
f 792 831 794
f 129 130 131
f 794 796 795
f 129 131 170
f 794 835 796
f 130 129 128
f 795 793 794
f 130 128 91
f 795 756 793
f 130 91 132
f 795 797 756
f 130 132 131
f 795 796 797
f 133 134 174
f 798 839 799
f 134 133 136
f 799 801 798
f 133 135 136
f 798 801 800
f 136 135 95
f 801 760 800
f 134 136 137
f 799 802 801
f 134 137 174
f 799 839 802
f 137 138 139
f 802 804 803
f 137 139 140
f 802 805 804
f 138 137 136
f 803 801 802
f 138 136 99
f 803 764 801
f 138 99 102
f 803 767 764
f 138 102 139
f 803 804 767
f 139 102 142
f 804 807 767
f 140 141 180
f 805 845 806
f 141 140 142
f 806 807 805
f 140 139 142
f 805 807 804
f 141 142 143
f 806 808 807
f 141 143 180
f 806 845 808
f 143 144 145
f 808 810 809
f 143 145 146
f 808 811 810
f 144 143 142
f 809 807 808
f 144 142 105
f 809 770 807
f 144 105 108
f 809 773 770
f 144 108 145
f 809 810 773
f 145 108 148
f 810 813 773
f 146 147 186
f 811 851 812
f 147 146 148
f 812 813 811
f 146 145 148
f 811 813 810
f 147 148 149
f 812 814 813
f 147 149 186
f 812 851 814
f 149 150 151
f 814 816 815
f 149 151 152
f 814 817 816
f 150 149 148
f 815 813 814
f 150 148 111
f 815 776 813
f 150 111 114
f 815 779 776
f 150 114 151
f 815 816 779
f 151 114 154
f 816 819 779
f 152 153 192
f 817 857 818
f 153 152 154
f 818 819 817
f 152 151 154
f 817 819 816
f 153 154 155
f 818 820 819
f 153 155 192
f 818 857 820
f 155 156 157
f 820 822 821
f 155 157 158
f 820 823 822
f 156 155 154
f 821 819 820
f 156 154 117
f 821 782 819
f 156 117 120
f 821 785 782
f 156 120 157
f 821 822 785
f 157 120 160
f 822 825 785
f 158 159 198
f 823 863 824
f 159 158 160
f 824 825 823
f 158 157 160
f 823 825 822
f 159 160 161
f 824 826 825
f 159 161 198
f 824 863 826
f 161 162 163
f 826 828 827
f 161 163 164
f 826 829 828
f 162 161 160
f 827 825 826
f 162 160 123
f 827 788 825
f 162 123 126
f 827 791 788
f 162 126 163
f 827 828 791
f 163 126 166
f 828 831 791
f 164 165 204
f 829 869 830
f 165 164 166
f 830 831 829
f 164 163 166
f 829 831 828
f 165 166 167
f 830 832 831
f 165 167 204
f 830 869 832
f 167 168 169
f 832 834 833
f 167 169 208
f 832 873 834
f 168 167 166
f 833 831 832
f 168 166 129
f 833 794 831
f 168 129 170
f 833 835 794
f 168 170 169
f 833 834 835
f 171 172 212
f 836 877 837
f 172 171 174
f 837 839 836
f 171 173 174
f 836 839 838
f 174 173 133
f 839 798 838
f 172 174 175
f 837 840 839
f 172 175 212
f 837 877 840
f 175 176 177
f 840 842 841
f 175 177 178
f 840 843 842
f 176 175 174
f 841 839 840
f 176 174 137
f 841 802 839
f 176 137 140
f 841 805 802
f 176 140 177
f 841 842 805
f 177 140 180
f 842 845 805
f 178 179 218
f 843 883 844
f 179 178 180
f 844 845 843
f 178 177 180
f 843 845 842
f 179 180 181
f 844 846 845
f 179 181 218
f 844 883 846
f 181 182 183
f 846 848 847
f 181 183 184
f 846 849 848
f 182 181 180
f 847 845 846
f 182 180 143
f 847 808 845
f 182 143 146
f 847 811 808
f 182 146 183
f 847 848 811
f 183 146 186
f 848 851 811
f 184 185 224
f 849 889 850
f 185 184 186
f 850 851 849
f 184 183 186
f 849 851 848
f 185 186 187
f 850 852 851
f 185 187 224
f 850 889 852
f 187 188 189
f 852 854 853
f 187 189 190
f 852 855 854
f 188 187 186
f 853 851 852
f 188 186 149
f 853 814 851
f 188 149 152
f 853 817 814
f 188 152 189
f 853 854 817
f 189 152 192
f 854 857 817
f 190 191 230
f 855 895 856
f 191 190 192
f 856 857 855
f 190 189 192
f 855 857 854
f 191 192 193
f 856 858 857
f 191 193 230
f 856 895 858
f 193 194 195
f 858 860 859
f 193 195 196
f 858 861 860
f 194 193 192
f 859 857 858
f 194 192 155
f 859 820 857
f 194 155 158
f 859 823 820
f 194 158 195
f 859 860 823
f 195 158 198
f 860 863 823
f 196 197 236
f 861 901 862
f 197 196 198
f 862 863 861
f 196 195 198
f 861 863 860
f 197 198 199
f 862 864 863
f 197 199 236
f 862 901 864
f 199 200 201
f 864 866 865
f 199 201 202
f 864 867 866
f 200 199 198
f 865 863 864
f 200 198 161
f 865 826 863
f 200 161 164
f 865 829 826
f 200 164 201
f 865 866 829
f 201 164 204
f 866 869 829
f 202 203 242
f 867 907 868
f 203 202 204
f 868 869 867
f 202 201 204
f 867 869 866
f 203 204 205
f 868 870 869
f 203 205 242
f 868 907 870
f 205 206 207
f 870 872 871
f 205 207 246
f 870 911 872
f 206 205 204
f 871 869 870
f 206 204 167
f 871 832 869
f 206 167 208
f 871 873 832
f 206 208 207
f 871 872 873
f 209 210 250
f 874 915 875
f 210 209 212
f 875 877 874
f 209 211 212
f 874 877 876
f 212 211 171
f 877 836 876
f 210 212 213
f 875 878 877
f 210 213 250
f 875 915 878
f 213 214 215
f 878 880 879
f 213 215 216
f 878 881 880
f 214 213 212
f 879 877 878
f 214 212 175
f 879 840 877
f 214 175 178
f 879 843 840
f 214 178 215
f 879 880 843
f 215 178 218
f 880 883 843
f 216 217 256
f 881 921 882
f 217 216 218
f 882 883 881
f 216 215 218
f 881 883 880
f 217 218 219
f 882 884 883
f 217 219 256
f 882 921 884
f 219 220 221
f 884 886 885
f 219 221 222
f 884 887 886
f 220 219 218
f 885 883 884
f 220 218 181
f 885 846 883
f 220 181 184
f 885 849 846
f 220 184 221
f 885 886 849
f 221 184 224
f 886 889 849
f 222 223 262
f 887 927 888
f 223 222 224
f 888 889 887
f 222 221 224
f 887 889 886
f 223 224 225
f 888 890 889
f 223 225 262
f 888 927 890
f 225 226 227
f 890 892 891
f 225 227 228
f 890 893 892
f 226 225 224
f 891 889 890
f 226 224 187
f 891 852 889
f 226 187 190
f 891 855 852
f 226 190 227
f 891 892 855
f 227 190 230
f 892 895 855
f 228 229 268
f 893 933 894
f 229 228 230
f 894 895 893
f 228 227 230
f 893 895 892
f 229 230 231
f 894 896 895
f 229 231 268
f 894 933 896
f 231 232 233
f 896 898 897
f 231 233 234
f 896 899 898
f 232 231 230
f 897 895 896
f 232 230 193
f 897 858 895
f 232 193 196
f 897 861 858
f 232 196 233
f 897 898 861
f 233 196 236
f 898 901 861
f 234 235 274
f 899 939 900
f 235 234 236
f 900 901 899
f 234 233 236
f 899 901 898
f 235 236 237
f 900 902 901
f 235 237 274
f 900 939 902
f 237 238 239
f 902 904 903
f 237 239 240
f 902 905 904
f 238 237 236
f 903 901 902
f 238 236 199
f 903 864 901
f 238 199 202
f 903 867 864
f 238 202 239
f 903 904 867
f 239 202 242
f 904 907 867
f 240 241 280
f 905 945 906
f 241 240 242
f 906 907 905
f 240 239 242
f 905 907 904
f 241 242 243
f 906 908 907
f 241 243 280
f 906 945 908
f 243 244 245
f 908 910 909
f 243 245 284
f 908 949 910
f 244 243 242
f 909 907 908
f 244 242 205
f 909 870 907
f 244 205 246
f 909 911 870
f 244 246 245
f 909 910 911
f 247 248 288
f 912 953 913
f 248 247 250
f 913 915 912
f 247 249 250
f 912 915 914
f 250 249 209
f 915 874 914
f 248 250 251
f 913 916 915
f 248 251 288
f 913 953 916
f 251 252 253
f 916 918 917
f 251 253 254
f 916 919 918
f 252 251 250
f 917 915 916
f 252 250 213
f 917 878 915
f 252 213 216
f 917 881 878
f 252 216 253
f 917 918 881
f 253 216 256
f 918 921 881
f 254 255 294
f 919 959 920
f 255 254 256
f 920 921 919
f 254 253 256
f 919 921 918
f 255 256 257
f 920 922 921
f 255 257 294
f 920 959 922
f 257 258 259
f 922 924 923
f 257 259 260
f 922 925 924
f 258 257 256
f 923 921 922
f 258 256 219
f 923 884 921
f 258 219 222
f 923 887 884
f 258 222 259
f 923 924 887
f 259 222 262
f 924 927 887
f 260 261 300
f 925 965 926
f 261 260 262
f 926 927 925
f 260 259 262
f 925 927 924
f 261 262 263
f 926 928 927
f 261 263 300
f 926 965 928
f 263 264 265
f 928 930 929
f 263 265 266
f 928 931 930
f 264 263 262
f 929 927 928
f 264 262 225
f 929 890 927
f 264 225 228
f 929 893 890
f 264 228 265
f 929 930 893
f 265 228 268
f 930 933 893
f 266 267 306
f 931 971 932
f 267 266 268
f 932 933 931
f 266 265 268
f 931 933 930
f 267 268 269
f 932 934 933
f 267 269 306
f 932 971 934
f 269 270 271
f 934 936 935
f 269 271 272
f 934 937 936
f 270 269 268
f 935 933 934
f 270 268 231
f 935 896 933
f 270 231 234
f 935 899 896
f 270 234 271
f 935 936 899
f 271 234 274
f 936 939 899
f 272 273 312
f 937 977 938
f 273 272 274
f 938 939 937
f 272 271 274
f 937 939 936
f 273 274 275
f 938 940 939
f 273 275 312
f 938 977 940
f 275 276 277
f 940 942 941
f 275 277 278
f 940 943 942
f 276 275 274
f 941 939 940
f 276 274 237
f 941 902 939
f 276 237 240
f 941 905 902
f 276 240 277
f 941 942 905
f 277 240 280
f 942 945 905
f 278 279 318
f 943 983 944
f 279 278 280
f 944 945 943
f 278 277 280
f 943 945 942
f 279 280 281
f 944 946 945
f 279 281 318
f 944 983 946
f 281 282 283
f 946 948 947
f 281 283 322
f 946 987 948
f 282 281 280
f 947 945 946
f 282 280 243
f 947 908 945
f 282 243 284
f 947 949 908
f 282 284 283
f 947 948 949
f 285 286 326
f 950 991 951
f 286 285 288
f 951 953 950
f 285 287 288
f 950 953 952
f 288 287 247
f 953 912 952
f 286 288 289
f 951 954 953
f 286 289 326
f 951 991 954
f 289 290 291
f 954 956 955
f 289 291 292
f 954 957 956
f 290 289 288
f 955 953 954
f 290 288 251
f 955 916 953
f 290 251 254
f 955 919 916
f 290 254 291
f 955 956 919
f 291 254 294
f 956 959 919
f 292 293 332
f 957 997 958
f 293 292 294
f 958 959 957
f 292 291 294
f 957 959 956
f 293 294 295
f 958 960 959
f 293 295 332
f 958 997 960
f 295 296 297
f 960 962 961
f 295 297 298
f 960 963 962
f 296 295 294
f 961 959 960
f 296 294 257
f 961 922 959
f 296 257 260
f 961 925 922
f 296 260 297
f 961 962 925
f 297 260 300
f 962 965 925
f 298 299 338
f 963 1003 964
f 299 298 300
f 964 965 963
f 298 297 300
f 963 965 962
f 299 300 301
f 964 966 965
f 299 301 338
f 964 1003 966
f 301 302 303
f 966 968 967
f 301 303 304
f 966 969 968
f 302 301 300
f 967 965 966
f 302 300 263
f 967 928 965
f 302 263 266
f 967 931 928
f 302 266 303
f 967 968 931
f 303 266 306
f 968 971 931
f 304 305 344
f 969 1009 970
f 305 304 306
f 970 971 969
f 304 303 306
f 969 971 968
f 305 306 307
f 970 972 971
f 305 307 344
f 970 1009 972
f 307 308 309
f 972 974 973
f 307 309 310
f 972 975 974
f 308 307 306
f 973 971 972
f 308 306 269
f 973 934 971
f 308 269 272
f 973 937 934
f 308 272 309
f 973 974 937
f 309 272 312
f 974 977 937
f 310 311 350
f 975 1015 976
f 311 310 312
f 976 977 975
f 310 309 312
f 975 977 974
f 311 312 313
f 976 978 977
f 311 313 350
f 976 1015 978
f 313 314 315
f 978 980 979
f 313 315 316
f 978 981 980
f 314 313 312
f 979 977 978
f 314 312 275
f 979 940 977
f 314 275 278
f 979 943 940
f 314 278 315
f 979 980 943
f 315 278 318
f 980 983 943
f 316 317 356
f 981 1021 982
f 317 316 318
f 982 983 981
f 316 315 318
f 981 983 980
f 317 318 319
f 982 984 983
f 317 319 356
f 982 1021 984
f 319 320 321
f 984 986 985
f 319 321 360
f 984 1025 986
f 320 319 318
f 985 983 984
f 320 318 281
f 985 946 983
f 320 281 322
f 985 987 946
f 320 322 321
f 985 986 987
f 323 324 364
f 988 1029 989
f 324 323 326
f 989 991 988
f 323 325 326
f 988 991 990
f 326 325 285
f 991 950 990
f 324 326 327
f 989 992 991
f 324 327 364
f 989 1029 992
f 327 328 329
f 992 994 993
f 327 329 330
f 992 995 994
f 328 327 326
f 993 991 992
f 328 326 289
f 993 954 991
f 328 289 292
f 993 957 954
f 328 292 329
f 993 994 957
f 329 292 332
f 994 997 957
f 330 331 370
f 995 1035 996
f 331 330 332
f 996 997 995
f 330 329 332
f 995 997 994
f 331 332 333
f 996 998 997
f 331 333 370
f 996 1035 998
f 333 334 335
f 998 1000 999
f 333 335 336
f 998 1001 1000
f 334 333 332
f 999 997 998
f 334 332 295
f 999 960 997
f 334 295 298
f 999 963 960
f 334 298 335
f 999 1000 963
f 335 298 338
f 1000 1003 963
f 336 337 376
f 1001 1041 1002
f 337 336 338
f 1002 1003 1001
f 336 335 338
f 1001 1003 1000
f 337 338 339
f 1002 1004 1003
f 337 339 376
f 1002 1041 1004
f 339 340 341
f 1004 1006 1005
f 339 341 342
f 1004 1007 1006
f 340 339 338
f 1005 1003 1004
f 340 338 301
f 1005 966 1003
f 340 301 304
f 1005 969 966
f 340 304 341
f 1005 1006 969
f 341 304 344
f 1006 1009 969
f 342 343 382
f 1007 1047 1008
f 343 342 344
f 1008 1009 1007
f 342 341 344
f 1007 1009 1006
f 343 344 345
f 1008 1010 1009
f 343 345 382
f 1008 1047 1010
f 345 346 347
f 1010 1012 1011
f 345 347 348
f 1010 1013 1012
f 346 345 344
f 1011 1009 1010
f 346 344 307
f 1011 972 1009
f 346 307 310
f 1011 975 972
f 346 310 347
f 1011 1012 975
f 347 310 350
f 1012 1015 975
f 348 349 388
f 1013 1053 1014
f 349 348 350
f 1014 1015 1013
f 348 347 350
f 1013 1015 1012
f 349 350 351
f 1014 1016 1015
f 349 351 388
f 1014 1053 1016
f 351 352 353
f 1016 1018 1017
f 351 353 354
f 1016 1019 1018
f 352 351 350
f 1017 1015 1016
f 352 350 313
f 1017 978 1015
f 352 313 316
f 1017 981 978
f 352 316 353
f 1017 1018 981
f 353 316 356
f 1018 1021 981
f 354 355 394
f 1019 1059 1020
f 355 354 356
f 1020 1021 1019
f 354 353 356
f 1019 1021 1018
f 355 356 357
f 1020 1022 1021
f 355 357 394
f 1020 1059 1022
f 357 358 359
f 1022 1024 1023
f 357 359 398
f 1022 1063 1024
f 358 357 356
f 1023 1021 1022
f 358 356 319
f 1023 984 1021
f 358 319 360
f 1023 1025 984
f 358 360 359
f 1023 1024 1025
f 361 362 402
f 1026 1067 1027
f 362 361 364
f 1027 1029 1026
f 361 363 364
f 1026 1029 1028
f 364 363 323
f 1029 988 1028
f 362 364 365
f 1027 1030 1029
f 362 365 402
f 1027 1067 1030
f 365 366 367
f 1030 1032 1031
f 365 367 368
f 1030 1033 1032
f 366 365 364
f 1031 1029 1030
f 366 364 327
f 1031 992 1029
f 366 327 330
f 1031 995 992
f 366 330 367
f 1031 1032 995
f 367 330 370
f 1032 1035 995
f 368 369 408
f 1033 1073 1034
f 369 368 370
f 1034 1035 1033
f 368 367 370
f 1033 1035 1032
f 369 370 371
f 1034 1036 1035
f 369 371 408
f 1034 1073 1036
f 371 372 373
f 1036 1038 1037
f 371 373 374
f 1036 1039 1038
f 372 371 370
f 1037 1035 1036
f 372 370 333
f 1037 998 1035
f 372 333 336
f 1037 1001 998
f 372 336 373
f 1037 1038 1001
f 373 336 376
f 1038 1041 1001
f 374 375 414
f 1039 1079 1040
f 375 374 376
f 1040 1041 1039
f 374 373 376
f 1039 1041 1038
f 375 376 377
f 1040 1042 1041
f 375 377 414
f 1040 1079 1042
f 377 378 379
f 1042 1044 1043
f 377 379 380
f 1042 1045 1044
f 378 377 376
f 1043 1041 1042
f 378 376 339
f 1043 1004 1041
f 378 339 342
f 1043 1007 1004
f 378 342 379
f 1043 1044 1007
f 379 342 382
f 1044 1047 1007
f 380 381 420
f 1045 1085 1046
f 381 380 382
f 1046 1047 1045
f 380 379 382
f 1045 1047 1044
f 381 382 383
f 1046 1048 1047
f 381 383 420
f 1046 1085 1048
f 383 384 385
f 1048 1050 1049
f 383 385 386
f 1048 1051 1050
f 384 383 382
f 1049 1047 1048
f 384 382 345
f 1049 1010 1047
f 384 345 348
f 1049 1013 1010
f 384 348 385
f 1049 1050 1013
f 385 348 388
f 1050 1053 1013
f 386 387 426
f 1051 1091 1052
f 387 386 388
f 1052 1053 1051
f 386 385 388
f 1051 1053 1050
f 387 388 389
f 1052 1054 1053
f 387 389 426
f 1052 1091 1054
f 389 390 391
f 1054 1056 1055
f 389 391 392
f 1054 1057 1056
f 390 389 388
f 1055 1053 1054
f 390 388 351
f 1055 1016 1053
f 390 351 354
f 1055 1019 1016
f 390 354 391
f 1055 1056 1019
f 391 354 394
f 1056 1059 1019
f 392 393 432
f 1057 1097 1058
f 393 392 394
f 1058 1059 1057
f 392 391 394
f 1057 1059 1056
f 393 394 395
f 1058 1060 1059
f 393 395 432
f 1058 1097 1060
f 395 396 397
f 1060 1062 1061
f 395 397 436
f 1060 1101 1062
f 396 395 394
f 1061 1059 1060
f 396 394 357
f 1061 1022 1059
f 396 357 398
f 1061 1063 1022
f 396 398 397
f 1061 1062 1063
f 399 400 440
f 1064 1105 1065
f 400 399 402
f 1065 1067 1064
f 399 401 402
f 1064 1067 1066
f 402 401 361
f 1067 1026 1066
f 400 402 403
f 1065 1068 1067
f 400 403 440
f 1065 1105 1068
f 403 404 405
f 1068 1070 1069
f 403 405 406
f 1068 1071 1070
f 404 403 402
f 1069 1067 1068
f 404 402 365
f 1069 1030 1067
f 404 365 368
f 1069 1033 1030
f 404 368 405
f 1069 1070 1033
f 405 368 408
f 1070 1073 1033
f 406 407 446
f 1071 1111 1072
f 407 406 408
f 1072 1073 1071
f 406 405 408
f 1071 1073 1070
f 407 408 409
f 1072 1074 1073
f 407 409 446
f 1072 1111 1074
f 409 410 411
f 1074 1076 1075
f 409 411 412
f 1074 1077 1076
f 410 409 408
f 1075 1073 1074
f 410 408 371
f 1075 1036 1073
f 410 371 374
f 1075 1039 1036
f 410 374 411
f 1075 1076 1039
f 411 374 414
f 1076 1079 1039
f 412 413 452
f 1077 1117 1078
f 413 412 414
f 1078 1079 1077
f 412 411 414
f 1077 1079 1076
f 413 414 415
f 1078 1080 1079
f 413 415 452
f 1078 1117 1080
f 415 416 417
f 1080 1082 1081
f 415 417 418
f 1080 1083 1082
f 416 415 414
f 1081 1079 1080
f 416 414 377
f 1081 1042 1079
f 416 377 380
f 1081 1045 1042
f 416 380 417
f 1081 1082 1045
f 417 380 420
f 1082 1085 1045
f 418 419 458
f 1083 1123 1084
f 419 418 420
f 1084 1085 1083
f 418 417 420
f 1083 1085 1082
f 419 420 421
f 1084 1086 1085
f 419 421 458
f 1084 1123 1086
f 421 422 423
f 1086 1088 1087
f 421 423 424
f 1086 1089 1088
f 422 421 420
f 1087 1085 1086
f 422 420 383
f 1087 1048 1085
f 422 383 386
f 1087 1051 1048
f 422 386 423
f 1087 1088 1051
f 423 386 426
f 1088 1091 1051
f 424 425 464
f 1089 1129 1090
f 425 424 426
f 1090 1091 1089
f 424 423 426
f 1089 1091 1088
f 425 426 427
f 1090 1092 1091
f 425 427 464
f 1090 1129 1092
f 427 428 429
f 1092 1094 1093
f 427 429 430
f 1092 1095 1094
f 428 427 426
f 1093 1091 1092
f 428 426 389
f 1093 1054 1091
f 428 389 392
f 1093 1057 1054
f 428 392 429
f 1093 1094 1057
f 429 392 432
f 1094 1097 1057
f 430 431 470
f 1095 1135 1096
f 431 430 432
f 1096 1097 1095
f 430 429 432
f 1095 1097 1094
f 431 432 433
f 1096 1098 1097
f 431 433 470
f 1096 1135 1098
f 433 434 435
f 1098 1100 1099
f 433 435 474
f 1098 1139 1100
f 434 433 432
f 1099 1097 1098
f 434 432 395
f 1099 1060 1097
f 434 395 436
f 1099 1101 1060
f 434 436 435
f 1099 1100 1101
f 437 438 478
f 1102 1143 1103
f 438 437 440
f 1103 1105 1102
f 437 439 440
f 1102 1105 1104
f 440 439 399
f 1105 1064 1104
f 438 440 441
f 1103 1106 1105
f 438 441 478
f 1103 1143 1106
f 441 442 443
f 1106 1108 1107
f 441 443 444
f 1106 1109 1108
f 442 441 440
f 1107 1105 1106
f 442 440 403
f 1107 1068 1105
f 442 403 406
f 1107 1071 1068
f 442 406 443
f 1107 1108 1071
f 443 406 446
f 1108 1111 1071
f 444 445 484
f 1109 1149 1110
f 445 444 446
f 1110 1111 1109
f 444 443 446
f 1109 1111 1108
f 445 446 447
f 1110 1112 1111
f 445 447 484
f 1110 1149 1112
f 447 448 449
f 1112 1114 1113
f 447 449 450
f 1112 1115 1114
f 448 447 446
f 1113 1111 1112
f 448 446 409
f 1113 1074 1111
f 448 409 412
f 1113 1077 1074
f 448 412 449
f 1113 1114 1077
f 449 412 452
f 1114 1117 1077
f 450 451 490
f 1115 1155 1116
f 451 450 452
f 1116 1117 1115
f 450 449 452
f 1115 1117 1114
f 451 452 453
f 1116 1118 1117
f 451 453 490
f 1116 1155 1118
f 453 454 455
f 1118 1120 1119
f 453 455 456
f 1118 1121 1120
f 454 453 452
f 1119 1117 1118
f 454 452 415
f 1119 1080 1117
f 454 415 418
f 1119 1083 1080
f 454 418 455
f 1119 1120 1083
f 455 418 458
f 1120 1123 1083
f 456 457 496
f 1121 1161 1122
f 457 456 458
f 1122 1123 1121
f 456 455 458
f 1121 1123 1120
f 457 458 459
f 1122 1124 1123
f 457 459 496
f 1122 1161 1124
f 459 460 461
f 1124 1126 1125
f 459 461 462
f 1124 1127 1126
f 460 459 458
f 1125 1123 1124
f 460 458 421
f 1125 1086 1123
f 460 421 424
f 1125 1089 1086
f 460 424 461
f 1125 1126 1089
f 461 424 464
f 1126 1129 1089
f 462 463 502
f 1127 1167 1128
f 463 462 464
f 1128 1129 1127
f 462 461 464
f 1127 1129 1126
f 463 464 465
f 1128 1130 1129
f 463 465 502
f 1128 1167 1130
f 465 466 467
f 1130 1132 1131
f 465 467 468
f 1130 1133 1132
f 466 465 464
f 1131 1129 1130
f 466 464 427
f 1131 1092 1129
f 466 427 430
f 1131 1095 1092
f 466 430 467
f 1131 1132 1095
f 467 430 470
f 1132 1135 1095
f 468 469 508
f 1133 1173 1134
f 469 468 470
f 1134 1135 1133
f 468 467 470
f 1133 1135 1132
f 469 470 471
f 1134 1136 1135
f 469 471 508
f 1134 1173 1136
f 471 472 473
f 1136 1138 1137
f 471 473 512
f 1136 1177 1138
f 472 471 470
f 1137 1135 1136
f 472 470 433
f 1137 1098 1135
f 472 433 474
f 1137 1139 1098
f 472 474 473
f 1137 1138 1139
f 475 476 516
f 1140 1181 1141
f 476 475 478
f 1141 1143 1140
f 475 477 478
f 1140 1143 1142
f 478 477 437
f 1143 1102 1142
f 476 478 479
f 1141 1144 1143
f 476 479 516
f 1141 1181 1144
f 479 480 481
f 1144 1146 1145
f 479 481 482
f 1144 1147 1146
f 480 479 478
f 1145 1143 1144
f 480 478 441
f 1145 1106 1143
f 480 441 444
f 1145 1109 1106
f 480 444 481
f 1145 1146 1109
f 481 444 484
f 1146 1149 1109
f 482 483 522
f 1147 1187 1148
f 483 482 484
f 1148 1149 1147
f 482 481 484
f 1147 1149 1146
f 483 484 485
f 1148 1150 1149
f 483 485 522
f 1148 1187 1150
f 485 486 487
f 1150 1152 1151
f 485 487 488
f 1150 1153 1152
f 486 485 484
f 1151 1149 1150
f 486 484 447
f 1151 1112 1149
f 486 447 450
f 1151 1115 1112
f 486 450 487
f 1151 1152 1115
f 487 450 490
f 1152 1155 1115
f 488 489 528
f 1153 1193 1154
f 489 488 490
f 1154 1155 1153
f 488 487 490
f 1153 1155 1152
f 489 490 491
f 1154 1156 1155
f 489 491 528
f 1154 1193 1156
f 491 492 493
f 1156 1158 1157
f 491 493 494
f 1156 1159 1158
f 492 491 490
f 1157 1155 1156
f 492 490 453
f 1157 1118 1155
f 492 453 456
f 1157 1121 1118
f 492 456 493
f 1157 1158 1121
f 493 456 496
f 1158 1161 1121
f 494 495 534
f 1159 1199 1160
f 495 494 496
f 1160 1161 1159
f 494 493 496
f 1159 1161 1158
f 495 496 497
f 1160 1162 1161
f 495 497 534
f 1160 1199 1162
f 497 498 499
f 1162 1164 1163
f 497 499 500
f 1162 1165 1164
f 498 497 496
f 1163 1161 1162
f 498 496 459
f 1163 1124 1161
f 498 459 462
f 1163 1127 1124
f 498 462 499
f 1163 1164 1127
f 499 462 502
f 1164 1167 1127
f 500 501 540
f 1165 1205 1166
f 501 500 502
f 1166 1167 1165
f 500 499 502
f 1165 1167 1164
f 501 502 503
f 1166 1168 1167
f 501 503 540
f 1166 1205 1168
f 503 504 505
f 1168 1170 1169
f 503 505 506
f 1168 1171 1170
f 504 503 502
f 1169 1167 1168
f 504 502 465
f 1169 1130 1167
f 504 465 468
f 1169 1133 1130
f 504 468 505
f 1169 1170 1133
f 505 468 508
f 1170 1173 1133
f 506 507 546
f 1171 1211 1172
f 507 506 508
f 1172 1173 1171
f 506 505 508
f 1171 1173 1170
f 507 508 509
f 1172 1174 1173
f 507 509 546
f 1172 1211 1174
f 509 510 511
f 1174 1176 1175
f 509 511 550
f 1174 1215 1176
f 510 509 508
f 1175 1173 1174
f 510 508 471
f 1175 1136 1173
f 510 471 512
f 1175 1177 1136
f 510 512 511
f 1175 1176 1177
f 513 514 554
f 1178 1219 1179
f 514 513 516
f 1179 1181 1178
f 513 515 516
f 1178 1181 1180
f 516 515 475
f 1181 1140 1180
f 514 516 517
f 1179 1182 1181
f 514 517 554
f 1179 1219 1182
f 517 518 519
f 1182 1184 1183
f 517 519 520
f 1182 1185 1184
f 518 517 516
f 1183 1181 1182
f 518 516 479
f 1183 1144 1181
f 518 479 482
f 1183 1147 1144
f 518 482 519
f 1183 1184 1147
f 519 482 522
f 1184 1187 1147
f 520 521 560
f 1185 1225 1186
f 521 520 522
f 1186 1187 1185
f 520 519 522
f 1185 1187 1184
f 521 522 523
f 1186 1188 1187
f 521 523 560
f 1186 1225 1188
f 523 524 525
f 1188 1190 1189
f 523 525 526
f 1188 1191 1190
f 524 523 522
f 1189 1187 1188
f 524 522 485
f 1189 1150 1187
f 524 485 488
f 1189 1153 1150
f 524 488 525
f 1189 1190 1153
f 525 488 528
f 1190 1193 1153
f 526 527 566
f 1191 1231 1192
f 527 526 528
f 1192 1193 1191
f 526 525 528
f 1191 1193 1190
f 527 528 529
f 1192 1194 1193
f 527 529 566
f 1192 1231 1194
f 529 530 531
f 1194 1196 1195
f 529 531 532
f 1194 1197 1196
f 530 529 528
f 1195 1193 1194
f 530 528 491
f 1195 1156 1193
f 530 491 494
f 1195 1159 1156
f 530 494 531
f 1195 1196 1159
f 531 494 534
f 1196 1199 1159
f 532 533 572
f 1197 1237 1198
f 533 532 534
f 1198 1199 1197
f 532 531 534
f 1197 1199 1196
f 533 534 535
f 1198 1200 1199
f 533 535 572
f 1198 1237 1200
f 535 536 537
f 1200 1202 1201
f 535 537 538
f 1200 1203 1202
f 536 535 534
f 1201 1199 1200
f 536 534 497
f 1201 1162 1199
f 536 497 500
f 1201 1165 1162
f 536 500 537
f 1201 1202 1165
f 537 500 540
f 1202 1205 1165
f 538 539 578
f 1203 1243 1204
f 539 538 540
f 1204 1205 1203
f 538 537 540
f 1203 1205 1202
f 539 540 541
f 1204 1206 1205
f 539 541 578
f 1204 1243 1206
f 541 542 543
f 1206 1208 1207
f 541 543 544
f 1206 1209 1208
f 542 541 540
f 1207 1205 1206
f 542 540 503
f 1207 1168 1205
f 542 503 506
f 1207 1171 1168
f 542 506 543
f 1207 1208 1171
f 543 506 546
f 1208 1211 1171
f 544 545 584
f 1209 1249 1210
f 545 544 546
f 1210 1211 1209
f 544 543 546
f 1209 1211 1208
f 545 546 547
f 1210 1212 1211
f 545 547 584
f 1210 1249 1212
f 547 548 549
f 1212 1214 1213
f 547 549 588
f 1212 1253 1214
f 548 547 546
f 1213 1211 1212
f 548 546 509
f 1213 1174 1211
f 548 509 550
f 1213 1215 1174
f 548 550 549
f 1213 1214 1215
f 551 552 592
f 1216 1257 1217
f 552 551 554
f 1217 1219 1216
f 551 553 554
f 1216 1219 1218
f 554 553 513
f 1219 1178 1218
f 552 554 555
f 1217 1220 1219
f 552 555 592
f 1217 1257 1220
f 555 556 557
f 1220 1222 1221
f 555 557 558
f 1220 1223 1222
f 556 555 554
f 1221 1219 1220
f 556 554 517
f 1221 1182 1219
f 556 517 520
f 1221 1185 1182
f 556 520 557
f 1221 1222 1185
f 557 520 560
f 1222 1225 1185
f 558 559 598
f 1223 1263 1224
f 559 558 560
f 1224 1225 1223
f 558 557 560
f 1223 1225 1222
f 559 560 561
f 1224 1226 1225
f 559 561 598
f 1224 1263 1226
f 561 562 563
f 1226 1228 1227
f 561 563 564
f 1226 1229 1228
f 562 561 560
f 1227 1225 1226
f 562 560 523
f 1227 1188 1225
f 562 523 526
f 1227 1191 1188
f 562 526 563
f 1227 1228 1191
f 563 526 566
f 1228 1231 1191
f 564 565 604
f 1229 1269 1230
f 565 564 566
f 1230 1231 1229
f 564 563 566
f 1229 1231 1228
f 565 566 567
f 1230 1232 1231
f 565 567 604
f 1230 1269 1232
f 567 568 569
f 1232 1234 1233
f 567 569 570
f 1232 1235 1234
f 568 567 566
f 1233 1231 1232
f 568 566 529
f 1233 1194 1231
f 568 529 532
f 1233 1197 1194
f 568 532 569
f 1233 1234 1197
f 569 532 572
f 1234 1237 1197
f 570 571 610
f 1235 1275 1236
f 571 570 572
f 1236 1237 1235
f 570 569 572
f 1235 1237 1234
f 571 572 573
f 1236 1238 1237
f 571 573 610
f 1236 1275 1238
f 573 574 575
f 1238 1240 1239
f 573 575 576
f 1238 1241 1240
f 574 573 572
f 1239 1237 1238
f 574 572 535
f 1239 1200 1237
f 574 535 538
f 1239 1203 1200
f 574 538 575
f 1239 1240 1203
f 575 538 578
f 1240 1243 1203
f 576 577 616
f 1241 1281 1242
f 577 576 578
f 1242 1243 1241
f 576 575 578
f 1241 1243 1240
f 577 578 579
f 1242 1244 1243
f 577 579 616
f 1242 1281 1244
f 579 580 581
f 1244 1246 1245
f 579 581 582
f 1244 1247 1246
f 580 579 578
f 1245 1243 1244
f 580 578 541
f 1245 1206 1243
f 580 541 544
f 1245 1209 1206
f 580 544 581
f 1245 1246 1209
f 581 544 584
f 1246 1249 1209
f 582 583 622
f 1247 1287 1248
f 583 582 584
f 1248 1249 1247
f 582 581 584
f 1247 1249 1246
f 583 584 585
f 1248 1250 1249
f 583 585 622
f 1248 1287 1250
f 585 586 587
f 1250 1252 1251
f 585 587 626
f 1250 1291 1252
f 586 585 584
f 1251 1249 1250
f 586 584 547
f 1251 1212 1249
f 586 547 588
f 1251 1253 1212
f 586 588 587
f 1251 1252 1253
f 589 590 630
f 1254 1295 1255
f 590 589 592
f 1255 1257 1254
f 589 591 592
f 1254 1257 1256
f 592 591 551
f 1257 1216 1256
f 590 592 593
f 1255 1258 1257
f 590 593 630
f 1255 1295 1258
f 593 594 595
f 1258 1260 1259
f 593 595 596
f 1258 1261 1260
f 594 593 592
f 1259 1257 1258
f 594 592 555
f 1259 1220 1257
f 594 555 558
f 1259 1223 1220
f 594 558 595
f 1259 1260 1223
f 595 558 598
f 1260 1263 1223
f 596 597 636
f 1261 1301 1262
f 597 596 598
f 1262 1263 1261
f 596 595 598
f 1261 1263 1260
f 597 598 599
f 1262 1264 1263
f 597 599 636
f 1262 1301 1264
f 599 600 601
f 1264 1266 1265
f 599 601 602
f 1264 1267 1266
f 600 599 598
f 1265 1263 1264
f 600 598 561
f 1265 1226 1263
f 600 561 564
f 1265 1229 1226
f 600 564 601
f 1265 1266 1229
f 601 564 604
f 1266 1269 1229
f 602 603 642
f 1267 1307 1268
f 603 602 604
f 1268 1269 1267
f 602 601 604
f 1267 1269 1266
f 603 604 605
f 1268 1270 1269
f 603 605 642
f 1268 1307 1270
f 605 606 607
f 1270 1272 1271
f 605 607 608
f 1270 1273 1272
f 606 605 604
f 1271 1269 1270
f 606 604 567
f 1271 1232 1269
f 606 567 570
f 1271 1235 1232
f 606 570 607
f 1271 1272 1235
f 607 570 610
f 1272 1275 1235
f 608 609 648
f 1273 1313 1274
f 609 608 610
f 1274 1275 1273
f 608 607 610
f 1273 1275 1272
f 609 610 611
f 1274 1276 1275
f 609 611 648
f 1274 1313 1276
f 611 612 613
f 1276 1278 1277
f 611 613 614
f 1276 1279 1278
f 612 611 610
f 1277 1275 1276
f 612 610 573
f 1277 1238 1275
f 612 573 576
f 1277 1241 1238
f 612 576 613
f 1277 1278 1241
f 613 576 616
f 1278 1281 1241
f 614 615 654
f 1279 1319 1280
f 615 614 616
f 1280 1281 1279
f 614 613 616
f 1279 1281 1278
f 615 616 617
f 1280 1282 1281
f 615 617 654
f 1280 1319 1282
f 617 618 619
f 1282 1284 1283
f 617 619 620
f 1282 1285 1284
f 618 617 616
f 1283 1281 1282
f 618 616 579
f 1283 1244 1281
f 618 579 582
f 1283 1247 1244
f 618 582 619
f 1283 1284 1247
f 619 582 622
f 1284 1287 1247
f 620 621 660
f 1285 1325 1286
f 621 620 622
f 1286 1287 1285
f 620 619 622
f 1285 1287 1284
f 621 622 623
f 1286 1288 1287
f 621 623 660
f 1286 1325 1288
f 623 624 625
f 1288 1290 1289
f 623 625 664
f 1288 1329 1290
f 624 623 622
f 1289 1287 1288
f 624 622 585
f 1289 1250 1287
f 624 585 626
f 1289 1291 1250
f 624 626 625
f 1289 1290 1291
f 628 627 630
f 1293 1295 1292
f 627 629 630
f 1292 1295 1294
f 630 629 589
f 1295 1254 1294
f 628 630 631
f 1293 1296 1295
f 631 632 633
f 1296 1298 1297
f 631 633 634
f 1296 1299 1298
f 632 631 630
f 1297 1295 1296
f 632 630 593
f 1297 1258 1295
f 632 593 596
f 1297 1261 1258
f 632 596 633
f 1297 1298 1261
f 633 596 636
f 1298 1301 1261
f 635 634 636
f 1300 1301 1299
f 634 633 636
f 1299 1301 1298
f 635 636 637
f 1300 1302 1301
f 637 638 639
f 1302 1304 1303
f 637 639 640
f 1302 1305 1304
f 638 637 636
f 1303 1301 1302
f 638 636 599
f 1303 1264 1301
f 638 599 602
f 1303 1267 1264
f 638 602 639
f 1303 1304 1267
f 639 602 642
f 1304 1307 1267
f 641 640 642
f 1306 1307 1305
f 640 639 642
f 1305 1307 1304
f 641 642 643
f 1306 1308 1307
f 643 644 645
f 1308 1310 1309
f 643 645 646
f 1308 1311 1310
f 644 643 642
f 1309 1307 1308
f 644 642 605
f 1309 1270 1307
f 644 605 608
f 1309 1273 1270
f 644 608 645
f 1309 1310 1273
f 645 608 648
f 1310 1313 1273
f 647 646 648
f 1312 1313 1311
f 646 645 648
f 1311 1313 1310
f 647 648 649
f 1312 1314 1313
f 649 650 651
f 1314 1316 1315
f 649 651 652
f 1314 1317 1316
f 650 649 648
f 1315 1313 1314
f 650 648 611
f 1315 1276 1313
f 650 611 614
f 1315 1279 1276
f 650 614 651
f 1315 1316 1279
f 651 614 654
f 1316 1319 1279
f 653 652 654
f 1318 1319 1317
f 652 651 654
f 1317 1319 1316
f 653 654 655
f 1318 1320 1319
f 655 656 657
f 1320 1322 1321
f 655 657 658
f 1320 1323 1322
f 656 655 654
f 1321 1319 1320
f 656 654 617
f 1321 1282 1319
f 656 617 620
f 1321 1285 1282
f 656 620 657
f 1321 1322 1285
f 657 620 660
f 1322 1325 1285
f 659 658 660
f 1324 1325 1323
f 658 657 660
f 1323 1325 1322
f 659 660 661
f 1324 1326 1325
f 661 662 663
f 1326 1328 1327
f 661 663 665
f 1326 1330 1328
f 662 661 660
f 1327 1325 1326
f 662 660 623
f 1327 1288 1325
f 662 623 664
f 1327 1329 1288
f 662 664 663
f 1327 1328 1329
f 7 8 673
f 7 673 672
f 8 9 674
f 8 674 673
f 9 11 676
f 9 676 674
f 11 17 682
f 11 682 676
f 17 18 683
f 17 683 682
f 18 20 685
f 18 685 683
f 20 26 691
f 20 691 685
f 26 27 692
f 26 692 691
f 27 29 694
f 27 694 692
f 29 35 700
f 29 700 694
f 35 36 701
f 35 701 700
f 36 38 703
f 36 703 701
f 38 44 709
f 38 709 703
f 44 45 710
f 44 710 709
f 45 47 712
f 45 712 710
f 47 53 718
f 47 718 712
f 53 54 719
f 53 719 718
f 54 56 721
f 54 721 719
f 56 55 720
f 56 720 721
f 55 94 759
f 55 759 720
f 94 93 758
f 94 758 759
f 93 132 797
f 93 797 758
f 132 131 796
f 132 796 797
f 131 170 835
f 131 835 796
f 170 169 834
f 170 834 835
f 169 208 873
f 169 873 834
f 208 207 872
f 208 872 873
f 207 246 911
f 207 911 872
f 246 245 910
f 246 910 911
f 245 284 949
f 245 949 910
f 284 283 948
f 284 948 949
f 283 322 987
f 283 987 948
f 322 321 986
f 322 986 987
f 321 360 1025
f 321 1025 986
f 360 359 1024
f 360 1024 1025
f 359 398 1063
f 359 1063 1024
f 398 397 1062
f 398 1062 1063
f 397 436 1101
f 397 1101 1062
f 436 435 1100
f 436 1100 1101
f 435 474 1139
f 435 1139 1100
f 474 473 1138
f 474 1138 1139
f 473 512 1177
f 473 1177 1138
f 512 511 1176
f 512 1176 1177
f 511 550 1215
f 511 1215 1176
f 550 549 1214
f 550 1214 1215
f 549 588 1253
f 549 1253 1214
f 588 587 1252
f 588 1252 1253
f 587 626 1291
f 587 1291 1252
f 626 625 1290
f 626 1290 1291
f 625 664 1329
f 625 1329 1290
f 664 663 1328
f 664 1328 1329
f 663 665 1330
f 663 1330 1328
f 665 661 1326
f 665 1326 1330
f 661 659 1324
f 661 1324 1326
f 659 658 1323
f 659 1323 1324
f 658 655 1320
f 658 1320 1323
f 655 653 1318
f 655 1318 1320
f 653 652 1317
f 653 1317 1318
f 652 649 1314
f 652 1314 1317
f 649 647 1312
f 649 1312 1314
f 647 646 1311
f 647 1311 1312
f 646 643 1308
f 646 1308 1311
f 643 641 1306
f 643 1306 1308
f 641 640 1305
f 641 1305 1306
f 640 637 1302
f 640 1302 1305
f 637 635 1300
f 637 1300 1302
f 635 634 1299
f 635 1299 1300
f 634 631 1296
f 634 1296 1299
f 631 628 1293
f 631 1293 1296
f 628 627 1292
f 628 1292 1293
f 627 629 1294
f 627 1294 1292
f 629 589 1254
f 629 1254 1294
f 589 591 1256
f 589 1256 1254
f 591 551 1216
f 591 1216 1256
f 551 553 1218
f 551 1218 1216
f 553 513 1178
f 553 1178 1218
f 513 515 1180
f 513 1180 1178
f 515 475 1140
f 515 1140 1180
f 475 477 1142
f 475 1142 1140
f 477 437 1102
f 477 1102 1142
f 437 439 1104
f 437 1104 1102
f 439 399 1064
f 439 1064 1104
f 399 401 1066
f 399 1066 1064
f 401 361 1026
f 401 1026 1066
f 361 363 1028
f 361 1028 1026
f 363 323 988
f 363 988 1028
f 323 325 990
f 323 990 988
f 325 285 950
f 325 950 990
f 285 287 952
f 285 952 950
f 287 247 912
f 287 912 952
f 247 249 914
f 247 914 912
f 249 209 874
f 249 874 914
f 209 211 876
f 209 876 874
f 211 171 836
f 211 836 876
f 171 173 838
f 171 838 836
f 173 133 798
f 173 798 838
f 133 135 800
f 133 800 798
f 135 95 760
f 135 760 800
f 95 97 762
f 95 762 760
f 97 57 722
f 97 722 762
f 57 59 724
f 57 724 722
f 59 1 666
f 59 666 724
f 1 3 668
f 1 668 666
f 3 7 672
f 3 672 668
