# Bellows Diecut foldcore die
v -64.00000 -67.50000 -2.23333
v -56.00000 -75.00000 2.23333
v -48.00000 -82.50000 -1.34000
v -48.00000 -67.50000 -1.34000
v -64.00000 -82.50000 -2.23333
v -56.00000 -72.50000 -6.70000
v -56.00000 -77.50000 -6.70000
v -40.00000 -75.00000 2.23333
v -32.00000 -82.50000 -1.34000
v -32.00000 -67.50000 -1.34000
v -40.00000 -72.50000 -6.70000
v -40.00000 -77.50000 -6.70000
v -24.00000 -75.00000 2.23333
v -16.00000 -82.50000 -1.34000
v -16.00000 -67.50000 -1.34000
v -24.00000 -72.50000 -6.70000
v -24.00000 -77.50000 -6.70000
v -8.00000 -75.00000 2.23333
v 0.00000 -82.50000 -1.34000
v 0.00000 -67.50000 -1.34000
v -8.00000 -72.50000 -6.70000
v -8.00000 -77.50000 -6.70000
v 8.00000 -75.00000 2.23333
v 16.00000 -82.50000 -1.34000
v 16.00000 -67.50000 -1.34000
v 8.00000 -72.50000 -6.70000
v 8.00000 -77.50000 -6.70000
v 24.00000 -75.00000 2.23333
v 32.00000 -82.50000 -1.34000
v 32.00000 -67.50000 -1.34000
v 24.00000 -72.50000 -6.70000
v 24.00000 -77.50000 -6.70000
v 40.00000 -75.00000 2.23333
v 48.00000 -82.50000 -1.34000
v 48.00000 -67.50000 -1.34000
v 40.00000 -72.50000 -6.70000
v 40.00000 -77.50000 -6.70000
v 56.00000 -75.00000 2.23333
v 64.00000 -82.50000 -2.23333
v 64.00000 -67.50000 -2.23333
v 56.00000 -72.50000 -6.70000
v 56.00000 -77.50000 -6.70000
v -64.00000 -52.50000 -2.23333
v -56.00000 -60.00000 2.23333
v -48.00000 -52.50000 -1.34000
v -56.00000 -57.50000 -6.70000
v -56.00000 -62.50000 -6.70000
v -40.00000 -60.00000 2.23333
v -32.00000 -52.50000 -1.34000
v -40.00000 -57.50000 -6.70000
v -40.00000 -62.50000 -6.70000
v -24.00000 -60.00000 2.23333
v -16.00000 -52.50000 -1.34000
v -24.00000 -57.50000 -6.70000
v -24.00000 -62.50000 -6.70000
v -8.00000 -60.00000 2.23333
v 0.00000 -52.50000 -1.34000
v -8.00000 -57.50000 -6.70000
v -8.00000 -62.50000 -6.70000
v 8.00000 -60.00000 2.23333
v 16.00000 -52.50000 -1.34000
v 8.00000 -57.50000 -6.70000
v 8.00000 -62.50000 -6.70000
v 24.00000 -60.00000 2.23333
v 32.00000 -52.50000 -1.34000
v 24.00000 -57.50000 -6.70000
v 24.00000 -62.50000 -6.70000
v 40.00000 -60.00000 2.23333
v 48.00000 -52.50000 -1.34000
v 40.00000 -57.50000 -6.70000
v 40.00000 -62.50000 -6.70000
v 56.00000 -60.00000 2.23333
v 64.00000 -52.50000 -2.23333
v 56.00000 -57.50000 -6.70000
v 56.00000 -62.50000 -6.70000
v -64.00000 -37.50000 -2.23333
v -56.00000 -45.00000 2.23333
v -48.00000 -37.50000 -1.34000
v -56.00000 -42.50000 -6.70000
v -56.00000 -47.50000 -6.70000
v -40.00000 -45.00000 2.23333
v -32.00000 -37.50000 -1.34000
v -40.00000 -42.50000 -6.70000
v -40.00000 -47.50000 -6.70000
v -24.00000 -45.00000 2.23333
v -16.00000 -37.50000 -1.34000
v -24.00000 -42.50000 -6.70000
v -24.00000 -47.50000 -6.70000
v -8.00000 -45.00000 2.23333
v 0.00000 -37.50000 -1.34000
v -8.00000 -42.50000 -6.70000
v -8.00000 -47.50000 -6.70000
v 8.00000 -45.00000 2.23333
v 16.00000 -37.50000 -1.34000
v 8.00000 -42.50000 -6.70000
v 8.00000 -47.50000 -6.70000
v 24.00000 -45.00000 2.23333
v 32.00000 -37.50000 -1.34000
v 24.00000 -42.50000 -6.70000
v 24.00000 -47.50000 -6.70000
v 40.00000 -45.00000 2.23333
v 48.00000 -37.50000 -1.34000
v 40.00000 -42.50000 -6.70000
v 40.00000 -47.50000 -6.70000
v 56.00000 -45.00000 2.23333
v 64.00000 -37.50000 -2.23333
v 56.00000 -42.50000 -6.70000
v 56.00000 -47.50000 -6.70000
v -64.00000 -22.50000 -2.23333
v -56.00000 -30.00000 2.23333
v -48.00000 -22.50000 -1.34000
v -56.00000 -27.50000 -6.70000
v -56.00000 -32.50000 -6.70000
v -40.00000 -30.00000 2.23333
v -32.00000 -22.50000 -1.34000
v -40.00000 -27.50000 -6.70000
v -40.00000 -32.50000 -6.70000
v -24.00000 -30.00000 2.23333
v -16.00000 -22.50000 -1.34000
v -24.00000 -27.50000 -6.70000
v -24.00000 -32.50000 -6.70000
v -8.00000 -30.00000 2.23333
v 0.00000 -22.50000 -1.34000
v -8.00000 -27.50000 -6.70000
v -8.00000 -32.50000 -6.70000
v 8.00000 -30.00000 2.23333
v 16.00000 -22.50000 -1.34000
v 8.00000 -27.50000 -6.70000
v 8.00000 -32.50000 -6.70000
v 24.00000 -30.00000 2.23333
v 32.00000 -22.50000 -1.34000
v 24.00000 -27.50000 -6.70000
v 24.00000 -32.50000 -6.70000
v 40.00000 -30.00000 2.23333
v 48.00000 -22.50000 -1.34000
v 40.00000 -27.50000 -6.70000
v 40.00000 -32.50000 -6.70000
v 56.00000 -30.00000 2.23333
v 64.00000 -22.50000 -2.23333
v 56.00000 -27.50000 -6.70000
v 56.00000 -32.50000 -6.70000
v -64.00000 -7.50000 -2.23333
v -56.00000 -15.00000 2.23333
v -48.00000 -7.50000 -1.34000
v -56.00000 -12.50000 -6.70000
v -56.00000 -17.50000 -6.70000
v -40.00000 -15.00000 2.23333
v -32.00000 -7.50000 -1.34000
v -40.00000 -12.50000 -6.70000
v -40.00000 -17.50000 -6.70000
v -24.00000 -15.00000 2.23333
v -16.00000 -7.50000 -1.34000
v -24.00000 -12.50000 -6.70000
v -24.00000 -17.50000 -6.70000
v -8.00000 -15.00000 2.23333
v 0.00000 -7.50000 -1.34000
v -8.00000 -12.50000 -6.70000
v -8.00000 -17.50000 -6.70000
v 8.00000 -15.00000 2.23333
v 16.00000 -7.50000 -1.34000
v 8.00000 -12.50000 -6.70000
v 8.00000 -17.50000 -6.70000
v 24.00000 -15.00000 2.23333
v 32.00000 -7.50000 -1.34000
v 24.00000 -12.50000 -6.70000
v 24.00000 -17.50000 -6.70000
v 40.00000 -15.00000 2.23333
v 48.00000 -7.50000 -1.34000
v 40.00000 -12.50000 -6.70000
v 40.00000 -17.50000 -6.70000
v 56.00000 -15.00000 2.23333
v 64.00000 -7.50000 -2.23333
v 56.00000 -12.50000 -6.70000
v 56.00000 -17.50000 -6.70000
v -64.00000 7.50000 -2.23333
v -56.00000 0.00000 2.23333
v -48.00000 7.50000 -1.34000
v -56.00000 2.50000 -6.70000
v -56.00000 -2.50000 -6.70000
v -40.00000 0.00000 2.23333
v -32.00000 7.50000 -1.34000
v -40.00000 2.50000 -6.70000
v -40.00000 -2.50000 -6.70000
v -24.00000 0.00000 2.23333
v -16.00000 7.50000 -1.34000
v -24.00000 2.50000 -6.70000
v -24.00000 -2.50000 -6.70000
v -8.00000 0.00000 2.23333
v 0.00000 7.50000 -1.34000
v -8.00000 2.50000 -6.70000
v -8.00000 -2.50000 -6.70000
v 8.00000 0.00000 2.23333
v 16.00000 7.50000 -1.34000
v 8.00000 2.50000 -6.70000
v 8.00000 -2.50000 -6.70000
v 24.00000 0.00000 2.23333
v 32.00000 7.50000 -1.34000
v 24.00000 2.50000 -6.70000
v 24.00000 -2.50000 -6.70000
v 40.00000 0.00000 2.23333
v 48.00000 7.50000 -1.34000
v 40.00000 2.50000 -6.70000
v 40.00000 -2.50000 -6.70000
v 56.00000 0.00000 2.23333
v 64.00000 7.50000 -2.23333
v 56.00000 2.50000 -6.70000
v 56.00000 -2.50000 -6.70000
v -64.00000 22.50000 -2.23333
v -56.00000 15.00000 2.23333
v -48.00000 22.50000 -1.34000
v -56.00000 17.50000 -6.70000
v -56.00000 12.50000 -6.70000
v -40.00000 15.00000 2.23333
v -32.00000 22.50000 -1.34000
v -40.00000 17.50000 -6.70000
v -40.00000 12.50000 -6.70000
v -24.00000 15.00000 2.23333
v -16.00000 22.50000 -1.34000
v -24.00000 17.50000 -6.70000
v -24.00000 12.50000 -6.70000
v -8.00000 15.00000 2.23333
v 0.00000 22.50000 -1.34000
v -8.00000 17.50000 -6.70000
v -8.00000 12.50000 -6.70000
v 8.00000 15.00000 2.23333
v 16.00000 22.50000 -1.34000
v 8.00000 17.50000 -6.70000
v 8.00000 12.50000 -6.70000
v 24.00000 15.00000 2.23333
v 32.00000 22.50000 -1.34000
v 24.00000 17.50000 -6.70000
v 24.00000 12.50000 -6.70000
v 40.00000 15.00000 2.23333
v 48.00000 22.50000 -1.34000
v 40.00000 17.50000 -6.70000
v 40.00000 12.50000 -6.70000
v 56.00000 15.00000 2.23333
v 64.00000 22.50000 -2.23333
v 56.00000 17.50000 -6.70000
v 56.00000 12.50000 -6.70000
v -64.00000 37.50000 -2.23333
v -56.00000 30.00000 2.23333
v -48.00000 37.50000 -1.34000
v -56.00000 32.50000 -6.70000
v -56.00000 27.50000 -6.70000
v -40.00000 30.00000 2.23333
v -32.00000 37.50000 -1.34000
v -40.00000 32.50000 -6.70000
v -40.00000 27.50000 -6.70000
v -24.00000 30.00000 2.23333
v -16.00000 37.50000 -1.34000
v -24.00000 32.50000 -6.70000
v -24.00000 27.50000 -6.70000
v -8.00000 30.00000 2.23333
v 0.00000 37.50000 -1.34000
v -8.00000 32.50000 -6.70000
v -8.00000 27.50000 -6.70000
v 8.00000 30.00000 2.23333
v 16.00000 37.50000 -1.34000
v 8.00000 32.50000 -6.70000
v 8.00000 27.50000 -6.70000
v 24.00000 30.00000 2.23333
v 32.00000 37.50000 -1.34000
v 24.00000 32.50000 -6.70000
v 24.00000 27.50000 -6.70000
v 40.00000 30.00000 2.23333
v 48.00000 37.50000 -1.34000
v 40.00000 32.50000 -6.70000
v 40.00000 27.50000 -6.70000
v 56.00000 30.00000 2.23333
v 64.00000 37.50000 -2.23333
v 56.00000 32.50000 -6.70000
v 56.00000 27.50000 -6.70000
v -64.00000 52.50000 -2.23333
v -56.00000 45.00000 2.23333
v -48.00000 52.50000 -1.34000
v -56.00000 47.50000 -6.70000
v -56.00000 42.50000 -6.70000
v -40.00000 45.00000 2.23333
v -32.00000 52.50000 -1.34000
v -40.00000 47.50000 -6.70000
v -40.00000 42.50000 -6.70000
v -24.00000 45.00000 2.23333
v -16.00000 52.50000 -1.34000
v -24.00000 47.50000 -6.70000
v -24.00000 42.50000 -6.70000
v -8.00000 45.00000 2.23333
v 0.00000 52.50000 -1.34000
v -8.00000 47.50000 -6.70000
v -8.00000 42.50000 -6.70000
v 8.00000 45.00000 2.23333
v 16.00000 52.50000 -1.34000
v 8.00000 47.50000 -6.70000
v 8.00000 42.50000 -6.70000
v 24.00000 45.00000 2.23333
v 32.00000 52.50000 -1.34000
v 24.00000 47.50000 -6.70000
v 24.00000 42.50000 -6.70000
v 40.00000 45.00000 2.23333
v 48.00000 52.50000 -1.34000
v 40.00000 47.50000 -6.70000
v 40.00000 42.50000 -6.70000
v 56.00000 45.00000 2.23333
v 64.00000 52.50000 -2.23333
v 56.00000 47.50000 -6.70000
v 56.00000 42.50000 -6.70000
v -64.00000 67.50000 -2.23333
v -56.00000 60.00000 2.23333
v -48.00000 67.50000 -1.34000
v -56.00000 62.50000 -6.70000
v -56.00000 57.50000 -6.70000
v -40.00000 60.00000 2.23333
v -32.00000 67.50000 -1.34000
v -40.00000 62.50000 -6.70000
v -40.00000 57.50000 -6.70000
v -24.00000 60.00000 2.23333
v -16.00000 67.50000 -1.34000
v -24.00000 62.50000 -6.70000
v -24.00000 57.50000 -6.70000
v -8.00000 60.00000 2.23333
v 0.00000 67.50000 -1.34000
v -8.00000 62.50000 -6.70000
v -8.00000 57.50000 -6.70000
v 8.00000 60.00000 2.23333
v 16.00000 67.50000 -1.34000
v 8.00000 62.50000 -6.70000
v 8.00000 57.50000 -6.70000
v 24.00000 60.00000 2.23333
v 32.00000 67.50000 -1.34000
v 24.00000 62.50000 -6.70000
v 24.00000 57.50000 -6.70000
v 40.00000 60.00000 2.23333
v 48.00000 67.50000 -1.34000
v 40.00000 62.50000 -6.70000
v 40.00000 57.50000 -6.70000
v 56.00000 60.00000 2.23333
v 64.00000 67.50000 -2.23333
v 56.00000 62.50000 -6.70000
v 56.00000 57.50000 -6.70000
v -64.00000 82.50000 -2.23333
v -56.00000 75.00000 2.23333
v -48.00000 82.50000 -1.34000
v -56.00000 77.50000 -6.70000
v -56.00000 72.50000 -6.70000
v -40.00000 75.00000 2.23333
v -32.00000 82.50000 -1.34000
v -40.00000 77.50000 -6.70000
v -40.00000 72.50000 -6.70000
v -24.00000 75.00000 2.23333
v -16.00000 82.50000 -1.34000
v -24.00000 77.50000 -6.70000
v -24.00000 72.50000 -6.70000
v -8.00000 75.00000 2.23333
v 0.00000 82.50000 -1.34000
v -8.00000 77.50000 -6.70000
v -8.00000 72.50000 -6.70000
v 8.00000 75.00000 2.23333
v 16.00000 82.50000 -1.34000
v 8.00000 77.50000 -6.70000
v 8.00000 72.50000 -6.70000
v 24.00000 75.00000 2.23333
v 32.00000 82.50000 -1.34000
v 24.00000 77.50000 -6.70000
v 24.00000 72.50000 -6.70000
v 40.00000 75.00000 2.23333
v 48.00000 82.50000 -1.34000
v 40.00000 77.50000 -6.70000
v 40.00000 72.50000 -6.70000
v 56.00000 75.00000 2.23333
v 64.00000 82.50000 -2.23333
v 56.00000 77.50000 -6.70000
v 56.00000 72.50000 -6.70000
v -56.00000 -67.50000 -7.59333
v -40.00000 -67.50000 -7.37000
v -24.00000 -67.50000 -7.37000
v -8.00000 -67.50000 -7.37000
v 8.00000 -67.50000 -7.37000
v 24.00000 -67.50000 -7.37000
v 40.00000 -67.50000 -7.37000
v 56.00000 -67.50000 -7.59333
v -56.00000 -52.50000 -7.59333
v -40.00000 -52.50000 -7.37000
v -24.00000 -52.50000 -7.37000
v -8.00000 -52.50000 -7.37000
v 8.00000 -52.50000 -7.37000
v 24.00000 -52.50000 -7.37000
v 40.00000 -52.50000 -7.37000
v 56.00000 -52.50000 -7.59333
v -56.00000 -37.50000 -7.59333
v -40.00000 -37.50000 -7.37000
v -24.00000 -37.50000 -7.37000
v -8.00000 -37.50000 -7.37000
v 8.00000 -37.50000 -7.37000
v 24.00000 -37.50000 -7.37000
v 40.00000 -37.50000 -7.37000
v 56.00000 -37.50000 -7.59333
v -56.00000 -22.50000 -7.59333
v -40.00000 -22.50000 -7.37000
v -24.00000 -22.50000 -7.37000
v -8.00000 -22.50000 -7.37000
v 8.00000 -22.50000 -7.37000
v 24.00000 -22.50000 -7.37000
v 40.00000 -22.50000 -7.37000
v 56.00000 -22.50000 -7.59333
v -56.00000 -7.50000 -7.59333
v -40.00000 -7.50000 -7.37000
v -24.00000 -7.50000 -7.37000
v -8.00000 -7.50000 -7.37000
v 8.00000 -7.50000 -7.37000
v 24.00000 -7.50000 -7.37000
v 40.00000 -7.50000 -7.37000
v 56.00000 -7.50000 -7.59333
v -56.00000 7.50000 -7.59333
v -40.00000 7.50000 -7.37000
v -24.00000 7.50000 -7.37000
v -8.00000 7.50000 -7.37000
v 8.00000 7.50000 -7.37000
v 24.00000 7.50000 -7.37000
v 40.00000 7.50000 -7.37000
v 56.00000 7.50000 -7.59333
v -56.00000 22.50000 -7.59333
v -40.00000 22.50000 -7.37000
v -24.00000 22.50000 -7.37000
v -8.00000 22.50000 -7.37000
v 8.00000 22.50000 -7.37000
v 24.00000 22.50000 -7.37000
v 40.00000 22.50000 -7.37000
v 56.00000 22.50000 -7.59333
v -56.00000 37.50000 -7.59333
v -40.00000 37.50000 -7.37000
v -24.00000 37.50000 -7.37000
v -8.00000 37.50000 -7.37000
v 8.00000 37.50000 -7.37000
v 24.00000 37.50000 -7.37000
v 40.00000 37.50000 -7.37000
v 56.00000 37.50000 -7.59333
v -56.00000 52.50000 -7.59333
v -40.00000 52.50000 -7.37000
v -24.00000 52.50000 -7.37000
v -8.00000 52.50000 -7.37000
v 8.00000 52.50000 -7.37000
v 24.00000 52.50000 -7.37000
v 40.00000 52.50000 -7.37000
v 56.00000 52.50000 -7.59333
v -56.00000 67.50000 -7.59333
v -40.00000 67.50000 -7.37000
v -24.00000 67.50000 -7.37000
v -8.00000 67.50000 -7.37000
v 8.00000 67.50000 -7.37000
v 24.00000 67.50000 -7.37000
v 40.00000 67.50000 -7.37000
v 56.00000 67.50000 -7.59333
v -64.00000 -67.50000 -10.59333
v -56.00000 -75.00000 -10.59333
v -48.00000 -82.50000 -10.59333
v -48.00000 -67.50000 -10.59333
v -64.00000 -82.50000 -10.59333
v -56.00000 -72.50000 -10.59333
v -56.00000 -77.50000 -10.59333
v -40.00000 -75.00000 -10.59333
v -32.00000 -82.50000 -10.59333
v -32.00000 -67.50000 -10.59333
v -40.00000 -72.50000 -10.59333
v -40.00000 -77.50000 -10.59333
v -24.00000 -75.00000 -10.59333
v -16.00000 -82.50000 -10.59333
v -16.00000 -67.50000 -10.59333
v -24.00000 -72.50000 -10.59333
v -24.00000 -77.50000 -10.59333
v -8.00000 -75.00000 -10.59333
v 0.00000 -82.50000 -10.59333
v 0.00000 -67.50000 -10.59333
v -8.00000 -72.50000 -10.59333
v -8.00000 -77.50000 -10.59333
v 8.00000 -75.00000 -10.59333
v 16.00000 -82.50000 -10.59333
v 16.00000 -67.50000 -10.59333
v 8.00000 -72.50000 -10.59333
v 8.00000 -77.50000 -10.59333
v 24.00000 -75.00000 -10.59333
v 32.00000 -82.50000 -10.59333
v 32.00000 -67.50000 -10.59333
v 24.00000 -72.50000 -10.59333
v 24.00000 -77.50000 -10.59333
v 40.00000 -75.00000 -10.59333
v 48.00000 -82.50000 -10.59333
v 48.00000 -67.50000 -10.59333
v 40.00000 -72.50000 -10.59333
v 40.00000 -77.50000 -10.59333
v 56.00000 -75.00000 -10.59333
v 64.00000 -82.50000 -10.59333
v 64.00000 -67.50000 -10.59333
v 56.00000 -72.50000 -10.59333
v 56.00000 -77.50000 -10.59333
v -64.00000 -52.50000 -10.59333
v -56.00000 -60.00000 -10.59333
v -48.00000 -52.50000 -10.59333
v -56.00000 -57.50000 -10.59333
v -56.00000 -62.50000 -10.59333
v -40.00000 -60.00000 -10.59333
v -32.00000 -52.50000 -10.59333
v -40.00000 -57.50000 -10.59333
v -40.00000 -62.50000 -10.59333
v -24.00000 -60.00000 -10.59333
v -16.00000 -52.50000 -10.59333
v -24.00000 -57.50000 -10.59333
v -24.00000 -62.50000 -10.59333
v -8.00000 -60.00000 -10.59333
v 0.00000 -52.50000 -10.59333
v -8.00000 -57.50000 -10.59333
v -8.00000 -62.50000 -10.59333
v 8.00000 -60.00000 -10.59333
v 16.00000 -52.50000 -10.59333
v 8.00000 -57.50000 -10.59333
v 8.00000 -62.50000 -10.59333
v 24.00000 -60.00000 -10.59333
v 32.00000 -52.50000 -10.59333
v 24.00000 -57.50000 -10.59333
v 24.00000 -62.50000 -10.59333
v 40.00000 -60.00000 -10.59333
v 48.00000 -52.50000 -10.59333
v 40.00000 -57.50000 -10.59333
v 40.00000 -62.50000 -10.59333
v 56.00000 -60.00000 -10.59333
v 64.00000 -52.50000 -10.59333
v 56.00000 -57.50000 -10.59333
v 56.00000 -62.50000 -10.59333
v -64.00000 -37.50000 -10.59333
v -56.00000 -45.00000 -10.59333
v -48.00000 -37.50000 -10.59333
v -56.00000 -42.50000 -10.59333
v -56.00000 -47.50000 -10.59333
v -40.00000 -45.00000 -10.59333
v -32.00000 -37.50000 -10.59333
v -40.00000 -42.50000 -10.59333
v -40.00000 -47.50000 -10.59333
v -24.00000 -45.00000 -10.59333
v -16.00000 -37.50000 -10.59333
v -24.00000 -42.50000 -10.59333
v -24.00000 -47.50000 -10.59333
v -8.00000 -45.00000 -10.59333
v 0.00000 -37.50000 -10.59333
v -8.00000 -42.50000 -10.59333
v -8.00000 -47.50000 -10.59333
v 8.00000 -45.00000 -10.59333
v 16.00000 -37.50000 -10.59333
v 8.00000 -42.50000 -10.59333
v 8.00000 -47.50000 -10.59333
v 24.00000 -45.00000 -10.59333
v 32.00000 -37.50000 -10.59333
v 24.00000 -42.50000 -10.59333
v 24.00000 -47.50000 -10.59333
v 40.00000 -45.00000 -10.59333
v 48.00000 -37.50000 -10.59333
v 40.00000 -42.50000 -10.59333
v 40.00000 -47.50000 -10.59333
v 56.00000 -45.00000 -10.59333
v 64.00000 -37.50000 -10.59333
v 56.00000 -42.50000 -10.59333
v 56.00000 -47.50000 -10.59333
v -64.00000 -22.50000 -10.59333
v -56.00000 -30.00000 -10.59333
v -48.00000 -22.50000 -10.59333
v -56.00000 -27.50000 -10.59333
v -56.00000 -32.50000 -10.59333
v -40.00000 -30.00000 -10.59333
v -32.00000 -22.50000 -10.59333
v -40.00000 -27.50000 -10.59333
v -40.00000 -32.50000 -10.59333
v -24.00000 -30.00000 -10.59333
v -16.00000 -22.50000 -10.59333
v -24.00000 -27.50000 -10.59333
v -24.00000 -32.50000 -10.59333
v -8.00000 -30.00000 -10.59333
v 0.00000 -22.50000 -10.59333
v -8.00000 -27.50000 -10.59333
v -8.00000 -32.50000 -10.59333
v 8.00000 -30.00000 -10.59333
v 16.00000 -22.50000 -10.59333
v 8.00000 -27.50000 -10.59333
v 8.00000 -32.50000 -10.59333
v 24.00000 -30.00000 -10.59333
v 32.00000 -22.50000 -10.59333
v 24.00000 -27.50000 -10.59333
v 24.00000 -32.50000 -10.59333
v 40.00000 -30.00000 -10.59333
v 48.00000 -22.50000 -10.59333
v 40.00000 -27.50000 -10.59333
v 40.00000 -32.50000 -10.59333
v 56.00000 -30.00000 -10.59333
v 64.00000 -22.50000 -10.59333
v 56.00000 -27.50000 -10.59333
v 56.00000 -32.50000 -10.59333
v -64.00000 -7.50000 -10.59333
v -56.00000 -15.00000 -10.59333
v -48.00000 -7.50000 -10.59333
v -56.00000 -12.50000 -10.59333
v -56.00000 -17.50000 -10.59333
v -40.00000 -15.00000 -10.59333
v -32.00000 -7.50000 -10.59333
v -40.00000 -12.50000 -10.59333
v -40.00000 -17.50000 -10.59333
v -24.00000 -15.00000 -10.59333
v -16.00000 -7.50000 -10.59333
v -24.00000 -12.50000 -10.59333
v -24.00000 -17.50000 -10.59333
v -8.00000 -15.00000 -10.59333
v 0.00000 -7.50000 -10.59333
v -8.00000 -12.50000 -10.59333
v -8.00000 -17.50000 -10.59333
v 8.00000 -15.00000 -10.59333
v 16.00000 -7.50000 -10.59333
v 8.00000 -12.50000 -10.59333
v 8.00000 -17.50000 -10.59333
v 24.00000 -15.00000 -10.59333
v 32.00000 -7.50000 -10.59333
v 24.00000 -12.50000 -10.59333
v 24.00000 -17.50000 -10.59333
v 40.00000 -15.00000 -10.59333
v 48.00000 -7.50000 -10.59333
v 40.00000 -12.50000 -10.59333
v 40.00000 -17.50000 -10.59333
v 56.00000 -15.00000 -10.59333
v 64.00000 -7.50000 -10.59333
v 56.00000 -12.50000 -10.59333
v 56.00000 -17.50000 -10.59333
v -64.00000 7.50000 -10.59333
v -56.00000 0.00000 -10.59333
v -48.00000 7.50000 -10.59333
v -56.00000 2.50000 -10.59333
v -56.00000 -2.50000 -10.59333
v -40.00000 0.00000 -10.59333
v -32.00000 7.50000 -10.59333
v -40.00000 2.50000 -10.59333
v -40.00000 -2.50000 -10.59333
v -24.00000 0.00000 -10.59333
v -16.00000 7.50000 -10.59333
v -24.00000 2.50000 -10.59333
v -24.00000 -2.50000 -10.59333
v -8.00000 0.00000 -10.59333
v 0.00000 7.50000 -10.59333
v -8.00000 2.50000 -10.59333
v -8.00000 -2.50000 -10.59333
v 8.00000 0.00000 -10.59333
v 16.00000 7.50000 -10.59333
v 8.00000 2.50000 -10.59333
v 8.00000 -2.50000 -10.59333
v 24.00000 0.00000 -10.59333
v 32.00000 7.50000 -10.59333
v 24.00000 2.50000 -10.59333
v 24.00000 -2.50000 -10.59333
v 40.00000 0.00000 -10.59333
v 48.00000 7.50000 -10.59333
v 40.00000 2.50000 -10.59333
v 40.00000 -2.50000 -10.59333
v 56.00000 0.00000 -10.59333
v 64.00000 7.50000 -10.59333
v 56.00000 2.50000 -10.59333
v 56.00000 -2.50000 -10.59333
v -64.00000 22.50000 -10.59333
v -56.00000 15.00000 -10.59333
v -48.00000 22.50000 -10.59333
v -56.00000 17.50000 -10.59333
v -56.00000 12.50000 -10.59333
v -40.00000 15.00000 -10.59333
v -32.00000 22.50000 -10.59333
v -40.00000 17.50000 -10.59333
v -40.00000 12.50000 -10.59333
v -24.00000 15.00000 -10.59333
v -16.00000 22.50000 -10.59333
v -24.00000 17.50000 -10.59333
v -24.00000 12.50000 -10.59333
v -8.00000 15.00000 -10.59333
v 0.00000 22.50000 -10.59333
v -8.00000 17.50000 -10.59333
v -8.00000 12.50000 -10.59333
v 8.00000 15.00000 -10.59333
v 16.00000 22.50000 -10.59333
v 8.00000 17.50000 -10.59333
v 8.00000 12.50000 -10.59333
v 24.00000 15.00000 -10.59333
v 32.00000 22.50000 -10.59333
v 24.00000 17.50000 -10.59333
v 24.00000 12.50000 -10.59333
v 40.00000 15.00000 -10.59333
v 48.00000 22.50000 -10.59333
v 40.00000 17.50000 -10.59333
v 40.00000 12.50000 -10.59333
v 56.00000 15.00000 -10.59333
v 64.00000 22.50000 -10.59333
v 56.00000 17.50000 -10.59333
v 56.00000 12.50000 -10.59333
v -64.00000 37.50000 -10.59333
v -56.00000 30.00000 -10.59333
v -48.00000 37.50000 -10.59333
v -56.00000 32.50000 -10.59333
v -56.00000 27.50000 -10.59333
v -40.00000 30.00000 -10.59333
v -32.00000 37.50000 -10.59333
v -40.00000 32.50000 -10.59333
v -40.00000 27.50000 -10.59333
v -24.00000 30.00000 -10.59333
v -16.00000 37.50000 -10.59333
v -24.00000 32.50000 -10.59333
v -24.00000 27.50000 -10.59333
v -8.00000 30.00000 -10.59333
v 0.00000 37.50000 -10.59333
v -8.00000 32.50000 -10.59333
v -8.00000 27.50000 -10.59333
v 8.00000 30.00000 -10.59333
v 16.00000 37.50000 -10.59333
v 8.00000 32.50000 -10.59333
v 8.00000 27.50000 -10.59333
v 24.00000 30.00000 -10.59333
v 32.00000 37.50000 -10.59333
v 24.00000 32.50000 -10.59333
v 24.00000 27.50000 -10.59333
v 40.00000 30.00000 -10.59333
v 48.00000 37.50000 -10.59333
v 40.00000 32.50000 -10.59333
v 40.00000 27.50000 -10.59333
v 56.00000 30.00000 -10.59333
v 64.00000 37.50000 -10.59333
v 56.00000 32.50000 -10.59333
v 56.00000 27.50000 -10.59333
v -64.00000 52.50000 -10.59333
v -56.00000 45.00000 -10.59333
v -48.00000 52.50000 -10.59333
v -56.00000 47.50000 -10.59333
v -56.00000 42.50000 -10.59333
v -40.00000 45.00000 -10.59333
v -32.00000 52.50000 -10.59333
v -40.00000 47.50000 -10.59333
v -40.00000 42.50000 -10.59333
v -24.00000 45.00000 -10.59333
v -16.00000 52.50000 -10.59333
v -24.00000 47.50000 -10.59333
v -24.00000 42.50000 -10.59333
v -8.00000 45.00000 -10.59333
v 0.00000 52.50000 -10.59333
v -8.00000 47.50000 -10.59333
v -8.00000 42.50000 -10.59333
v 8.00000 45.00000 -10.59333
v 16.00000 52.50000 -10.59333
v 8.00000 47.50000 -10.59333
v 8.00000 42.50000 -10.59333
v 24.00000 45.00000 -10.59333
v 32.00000 52.50000 -10.59333
v 24.00000 47.50000 -10.59333
v 24.00000 42.50000 -10.59333
v 40.00000 45.00000 -10.59333
v 48.00000 52.50000 -10.59333
v 40.00000 47.50000 -10.59333
v 40.00000 42.50000 -10.59333
v 56.00000 45.00000 -10.59333
v 64.00000 52.50000 -10.59333
v 56.00000 47.50000 -10.59333
v 56.00000 42.50000 -10.59333
v -64.00000 67.50000 -10.59333
v -56.00000 60.00000 -10.59333
v -48.00000 67.50000 -10.59333
v -56.00000 62.50000 -10.59333
v -56.00000 57.50000 -10.59333
v -40.00000 60.00000 -10.59333
v -32.00000 67.50000 -10.59333
v -40.00000 62.50000 -10.59333
v -40.00000 57.50000 -10.59333
v -24.00000 60.00000 -10.59333
v -16.00000 67.50000 -10.59333
v -24.00000 62.50000 -10.59333
v -24.00000 57.50000 -10.59333
v -8.00000 60.00000 -10.59333
v 0.00000 67.50000 -10.59333
v -8.00000 62.50000 -10.59333
v -8.00000 57.50000 -10.59333
v 8.00000 60.00000 -10.59333
v 16.00000 67.50000 -10.59333
v 8.00000 62.50000 -10.59333
v 8.00000 57.50000 -10.59333
v 24.00000 60.00000 -10.59333
v 32.00000 67.50000 -10.59333
v 24.00000 62.50000 -10.59333
v 24.00000 57.50000 -10.59333
v 40.00000 60.00000 -10.59333
v 48.00000 67.50000 -10.59333
v 40.00000 62.50000 -10.59333
v 40.00000 57.50000 -10.59333
v 56.00000 60.00000 -10.59333
v 64.00000 67.50000 -10.59333
v 56.00000 62.50000 -10.59333
v 56.00000 57.50000 -10.59333
v -64.00000 82.50000 -10.59333
v -56.00000 75.00000 -10.59333
v -48.00000 82.50000 -10.59333
v -56.00000 77.50000 -10.59333
v -56.00000 72.50000 -10.59333
v -40.00000 75.00000 -10.59333
v -32.00000 82.50000 -10.59333
v -40.00000 77.50000 -10.59333
v -40.00000 72.50000 -10.59333
v -24.00000 75.00000 -10.59333
v -16.00000 82.50000 -10.59333
v -24.00000 77.50000 -10.59333
v -24.00000 72.50000 -10.59333
v -8.00000 75.00000 -10.59333
v 0.00000 82.50000 -10.59333
v -8.00000 77.50000 -10.59333
v -8.00000 72.50000 -10.59333
v 8.00000 75.00000 -10.59333
v 16.00000 82.50000 -10.59333
v 8.00000 77.50000 -10.59333
v 8.00000 72.50000 -10.59333
v 24.00000 75.00000 -10.59333
v 32.00000 82.50000 -10.59333
v 24.00000 77.50000 -10.59333
v 24.00000 72.50000 -10.59333
v 40.00000 75.00000 -10.59333
v 48.00000 82.50000 -10.59333
v 40.00000 77.50000 -10.59333
v 40.00000 72.50000 -10.59333
v 56.00000 75.00000 -10.59333
v 64.00000 82.50000 -10.59333
v 56.00000 77.50000 -10.59333
v 56.00000 72.50000 -10.59333
v -56.00000 -67.50000 -10.59333
v -40.00000 -67.50000 -10.59333
v -24.00000 -67.50000 -10.59333
v -8.00000 -67.50000 -10.59333
v 8.00000 -67.50000 -10.59333
v 24.00000 -67.50000 -10.59333
v 40.00000 -67.50000 -10.59333
v 56.00000 -67.50000 -10.59333
v -56.00000 -52.50000 -10.59333
v -40.00000 -52.50000 -10.59333
v -24.00000 -52.50000 -10.59333
v -8.00000 -52.50000 -10.59333
v 8.00000 -52.50000 -10.59333
v 24.00000 -52.50000 -10.59333
v 40.00000 -52.50000 -10.59333
v 56.00000 -52.50000 -10.59333
v -56.00000 -37.50000 -10.59333
v -40.00000 -37.50000 -10.59333
v -24.00000 -37.50000 -10.59333
v -8.00000 -37.50000 -10.59333
v 8.00000 -37.50000 -10.59333
v 24.00000 -37.50000 -10.59333
v 40.00000 -37.50000 -10.59333
v 56.00000 -37.50000 -10.59333
v -56.00000 -22.50000 -10.59333
v -40.00000 -22.50000 -10.59333
v -24.00000 -22.50000 -10.59333
v -8.00000 -22.50000 -10.59333
v 8.00000 -22.50000 -10.59333
v 24.00000 -22.50000 -10.59333
v 40.00000 -22.50000 -10.59333
v 56.00000 -22.50000 -10.59333
v -56.00000 -7.50000 -10.59333
v -40.00000 -7.50000 -10.59333
v -24.00000 -7.50000 -10.59333
v -8.00000 -7.50000 -10.59333
v 8.00000 -7.50000 -10.59333
v 24.00000 -7.50000 -10.59333
v 40.00000 -7.50000 -10.59333
v 56.00000 -7.50000 -10.59333
v -56.00000 7.50000 -10.59333
v -40.00000 7.50000 -10.59333
v -24.00000 7.50000 -10.59333
v -8.00000 7.50000 -10.59333
v 8.00000 7.50000 -10.59333
v 24.00000 7.50000 -10.59333
v 40.00000 7.50000 -10.59333
v 56.00000 7.50000 -10.59333
v -56.00000 22.50000 -10.59333
v -40.00000 22.50000 -10.59333
v -24.00000 22.50000 -10.59333
v -8.00000 22.50000 -10.59333
v 8.00000 22.50000 -10.59333
v 24.00000 22.50000 -10.59333
v 40.00000 22.50000 -10.59333
v 56.00000 22.50000 -10.59333
v -56.00000 37.50000 -10.59333
v -40.00000 37.50000 -10.59333
v -24.00000 37.50000 -10.59333
v -8.00000 37.50000 -10.59333
v 8.00000 37.50000 -10.59333
v 24.00000 37.50000 -10.59333
v 40.00000 37.50000 -10.59333
v 56.00000 37.50000 -10.59333
v -56.00000 52.50000 -10.59333
v -40.00000 52.50000 -10.59333
v -24.00000 52.50000 -10.59333
v -8.00000 52.50000 -10.59333
v 8.00000 52.50000 -10.59333
v 24.00000 52.50000 -10.59333
v 40.00000 52.50000 -10.59333
v 56.00000 52.50000 -10.59333
v -56.00000 67.50000 -10.59333
v -40.00000 67.50000 -10.59333
v -24.00000 67.50000 -10.59333
v -8.00000 67.50000 -10.59333
v 8.00000 67.50000 -10.59333
v 24.00000 67.50000 -10.59333
v 40.00000 67.50000 -10.59333
v 56.00000 67.50000 -10.59333
f 1 2 6
f 453 458 454
f 2 1 5
f 454 457 453
f 2 3 4
f 454 456 455
f 3 2 7
f 455 459 454
f 2 4 6
f 454 458 456
f 2 5 7
f 454 459 457
f 1 6 373
f 453 825 458
f 6 4 373
f 458 825 456
f 4 47 373
f 456 825 499
f 47 1 373
f 499 825 453
f 7 5 3
f 459 455 457
f 4 3 8
f 456 460 455
f 4 8 11
f 456 463 460
f 8 9 10
f 460 462 461
f 9 8 12
f 461 464 460
f 8 10 11
f 460 463 462
f 8 3 12
f 460 464 455
f 4 11 374
f 456 826 463
f 11 10 374
f 463 826 462
f 10 51 374
f 462 826 503
f 51 4 374
f 503 826 456
f 12 3 9
f 464 461 455
f 10 9 13
f 462 465 461
f 10 13 16
f 462 468 465
f 13 14 15
f 465 467 466
f 14 13 17
f 466 469 465
f 13 15 16
f 465 468 467
f 13 9 17
f 465 469 461
f 10 16 375
f 462 827 468
f 16 15 375
f 468 827 467
f 15 55 375
f 467 827 507
f 55 10 375
f 507 827 462
f 17 9 14
f 469 466 461
f 15 14 18
f 467 470 466
f 15 18 21
f 467 473 470
f 18 19 20
f 470 472 471
f 19 18 22
f 471 474 470
f 18 20 21
f 470 473 472
f 18 14 22
f 470 474 466
f 15 21 376
f 467 828 473
f 21 20 376
f 473 828 472
f 20 59 376
f 472 828 511
f 59 15 376
f 511 828 467
f 22 14 19
f 474 471 466
f 20 19 23
f 472 475 471
f 20 23 26
f 472 478 475
f 23 24 25
f 475 477 476
f 24 23 27
f 476 479 475
f 23 25 26
f 475 478 477
f 23 19 27
f 475 479 471
f 20 26 377
f 472 829 478
f 26 25 377
f 478 829 477
f 25 63 377
f 477 829 515
f 63 20 377
f 515 829 472
f 27 19 24
f 479 476 471
f 25 24 28
f 477 480 476
f 25 28 31
f 477 483 480
f 28 29 30
f 480 482 481
f 29 28 32
f 481 484 480
f 28 30 31
f 480 483 482
f 28 24 32
f 480 484 476
f 25 31 378
f 477 830 483
f 31 30 378
f 483 830 482
f 30 67 378
f 482 830 519
f 67 25 378
f 519 830 477
f 32 24 29
f 484 481 476
f 30 29 33
f 482 485 481
f 30 33 36
f 482 488 485
f 33 34 35
f 485 487 486
f 34 33 37
f 486 489 485
f 33 35 36
f 485 488 487
f 33 29 37
f 485 489 481
f 30 36 379
f 482 831 488
f 36 35 379
f 488 831 487
f 35 71 379
f 487 831 523
f 71 30 379
f 523 831 482
f 37 29 34
f 489 486 481
f 35 34 38
f 487 490 486
f 35 38 41
f 487 493 490
f 38 39 40
f 490 492 491
f 39 38 42
f 491 494 490
f 38 40 41
f 490 493 492
f 38 34 42
f 490 494 486
f 35 41 380
f 487 832 493
f 41 40 380
f 493 832 492
f 40 75 380
f 492 832 527
f 75 35 380
f 527 832 487
f 42 34 39
f 494 491 486
f 43 44 46
f 495 498 496
f 44 43 1
f 496 453 495
f 4 44 47
f 456 499 496
f 44 4 45
f 496 497 456
f 44 45 46
f 496 498 497
f 44 1 47
f 496 499 453
f 43 46 381
f 495 833 498
f 46 45 381
f 498 833 497
f 45 80 381
f 497 833 532
f 80 43 381
f 532 833 495
f 45 4 48
f 497 500 456
f 45 48 50
f 497 502 500
f 10 48 51
f 462 503 500
f 48 10 49
f 500 501 462
f 48 49 50
f 500 502 501
f 48 4 51
f 500 503 456
f 45 50 382
f 497 834 502
f 50 49 382
f 502 834 501
f 49 84 382
f 501 834 536
f 84 45 382
f 536 834 497
f 49 10 52
f 501 504 462
f 49 52 54
f 501 506 504
f 15 52 55
f 467 507 504
f 52 15 53
f 504 505 467
f 52 53 54
f 504 506 505
f 52 10 55
f 504 507 462
f 49 54 383
f 501 835 506
f 54 53 383
f 506 835 505
f 53 88 383
f 505 835 540
f 88 49 383
f 540 835 501
f 53 15 56
f 505 508 467
f 53 56 58
f 505 510 508
f 20 56 59
f 472 511 508
f 56 20 57
f 508 509 472
f 56 57 58
f 508 510 509
f 56 15 59
f 508 511 467
f 53 58 384
f 505 836 510
f 58 57 384
f 510 836 509
f 57 92 384
f 509 836 544
f 92 53 384
f 544 836 505
f 57 20 60
f 509 512 472
f 57 60 62
f 509 514 512
f 25 60 63
f 477 515 512
f 60 25 61
f 512 513 477
f 60 61 62
f 512 514 513
f 60 20 63
f 512 515 472
f 57 62 385
f 509 837 514
f 62 61 385
f 514 837 513
f 61 96 385
f 513 837 548
f 96 57 385
f 548 837 509
f 61 25 64
f 513 516 477
f 61 64 66
f 513 518 516
f 30 64 67
f 482 519 516
f 64 30 65
f 516 517 482
f 64 65 66
f 516 518 517
f 64 25 67
f 516 519 477
f 61 66 386
f 513 838 518
f 66 65 386
f 518 838 517
f 65 100 386
f 517 838 552
f 100 61 386
f 552 838 513
f 65 30 68
f 517 520 482
f 65 68 70
f 517 522 520
f 35 68 71
f 487 523 520
f 68 35 69
f 520 521 487
f 68 69 70
f 520 522 521
f 68 30 71
f 520 523 482
f 65 70 387
f 517 839 522
f 70 69 387
f 522 839 521
f 69 104 387
f 521 839 556
f 104 65 387
f 556 839 517
f 69 35 72
f 521 524 487
f 69 72 74
f 521 526 524
f 40 72 75
f 492 527 524
f 72 40 73
f 524 525 492
f 72 73 74
f 524 526 525
f 72 35 75
f 524 527 487
f 69 74 388
f 521 840 526
f 74 73 388
f 526 840 525
f 73 108 388
f 525 840 560
f 108 69 388
f 560 840 521
f 76 77 79
f 528 531 529
f 77 76 43
f 529 495 528
f 45 77 80
f 497 532 529
f 77 45 78
f 529 530 497
f 77 78 79
f 529 531 530
f 77 43 80
f 529 532 495
f 76 79 389
f 528 841 531
f 79 78 389
f 531 841 530
f 78 113 389
f 530 841 565
f 113 76 389
f 565 841 528
f 78 45 81
f 530 533 497
f 78 81 83
f 530 535 533
f 49 81 84
f 501 536 533
f 81 49 82
f 533 534 501
f 81 82 83
f 533 535 534
f 81 45 84
f 533 536 497
f 78 83 390
f 530 842 535
f 83 82 390
f 535 842 534
f 82 117 390
f 534 842 569
f 117 78 390
f 569 842 530
f 82 49 85
f 534 537 501
f 82 85 87
f 534 539 537
f 53 85 88
f 505 540 537
f 85 53 86
f 537 538 505
f 85 86 87
f 537 539 538
f 85 49 88
f 537 540 501
f 82 87 391
f 534 843 539
f 87 86 391
f 539 843 538
f 86 121 391
f 538 843 573
f 121 82 391
f 573 843 534
f 86 53 89
f 538 541 505
f 86 89 91
f 538 543 541
f 57 89 92
f 509 544 541
f 89 57 90
f 541 542 509
f 89 90 91
f 541 543 542
f 89 53 92
f 541 544 505
f 86 91 392
f 538 844 543
f 91 90 392
f 543 844 542
f 90 125 392
f 542 844 577
f 125 86 392
f 577 844 538
f 90 57 93
f 542 545 509
f 90 93 95
f 542 547 545
f 61 93 96
f 513 548 545
f 93 61 94
f 545 546 513
f 93 94 95
f 545 547 546
f 93 57 96
f 545 548 509
f 90 95 393
f 542 845 547
f 95 94 393
f 547 845 546
f 94 129 393
f 546 845 581
f 129 90 393
f 581 845 542
f 94 61 97
f 546 549 513
f 94 97 99
f 546 551 549
f 65 97 100
f 517 552 549
f 97 65 98
f 549 550 517
f 97 98 99
f 549 551 550
f 97 61 100
f 549 552 513
f 94 99 394
f 546 846 551
f 99 98 394
f 551 846 550
f 98 133 394
f 550 846 585
f 133 94 394
f 585 846 546
f 98 65 101
f 550 553 517
f 98 101 103
f 550 555 553
f 69 101 104
f 521 556 553
f 101 69 102
f 553 554 521
f 101 102 103
f 553 555 554
f 101 65 104
f 553 556 517
f 98 103 395
f 550 847 555
f 103 102 395
f 555 847 554
f 102 137 395
f 554 847 589
f 137 98 395
f 589 847 550
f 102 69 105
f 554 557 521
f 102 105 107
f 554 559 557
f 73 105 108
f 525 560 557
f 105 73 106
f 557 558 525
f 105 106 107
f 557 559 558
f 105 69 108
f 557 560 521
f 102 107 396
f 554 848 559
f 107 106 396
f 559 848 558
f 106 141 396
f 558 848 593
f 141 102 396
f 593 848 554
f 109 110 112
f 561 564 562
f 110 109 76
f 562 528 561
f 78 110 113
f 530 565 562
f 110 78 111
f 562 563 530
f 110 111 112
f 562 564 563
f 110 76 113
f 562 565 528
f 109 112 397
f 561 849 564
f 112 111 397
f 564 849 563
f 111 146 397
f 563 849 598
f 146 109 397
f 598 849 561
f 111 78 114
f 563 566 530
f 111 114 116
f 563 568 566
f 82 114 117
f 534 569 566
f 114 82 115
f 566 567 534
f 114 115 116
f 566 568 567
f 114 78 117
f 566 569 530
f 111 116 398
f 563 850 568
f 116 115 398
f 568 850 567
f 115 150 398
f 567 850 602
f 150 111 398
f 602 850 563
f 115 82 118
f 567 570 534
f 115 118 120
f 567 572 570
f 86 118 121
f 538 573 570
f 118 86 119
f 570 571 538
f 118 119 120
f 570 572 571
f 118 82 121
f 570 573 534
f 115 120 399
f 567 851 572
f 120 119 399
f 572 851 571
f 119 154 399
f 571 851 606
f 154 115 399
f 606 851 567
f 119 86 122
f 571 574 538
f 119 122 124
f 571 576 574
f 90 122 125
f 542 577 574
f 122 90 123
f 574 575 542
f 122 123 124
f 574 576 575
f 122 86 125
f 574 577 538
f 119 124 400
f 571 852 576
f 124 123 400
f 576 852 575
f 123 158 400
f 575 852 610
f 158 119 400
f 610 852 571
f 123 90 126
f 575 578 542
f 123 126 128
f 575 580 578
f 94 126 129
f 546 581 578
f 126 94 127
f 578 579 546
f 126 127 128
f 578 580 579
f 126 90 129
f 578 581 542
f 123 128 401
f 575 853 580
f 128 127 401
f 580 853 579
f 127 162 401
f 579 853 614
f 162 123 401
f 614 853 575
f 127 94 130
f 579 582 546
f 127 130 132
f 579 584 582
f 98 130 133
f 550 585 582
f 130 98 131
f 582 583 550
f 130 131 132
f 582 584 583
f 130 94 133
f 582 585 546
f 127 132 402
f 579 854 584
f 132 131 402
f 584 854 583
f 131 166 402
f 583 854 618
f 166 127 402
f 618 854 579
f 131 98 134
f 583 586 550
f 131 134 136
f 583 588 586
f 102 134 137
f 554 589 586
f 134 102 135
f 586 587 554
f 134 135 136
f 586 588 587
f 134 98 137
f 586 589 550
f 131 136 403
f 583 855 588
f 136 135 403
f 588 855 587
f 135 170 403
f 587 855 622
f 170 131 403
f 622 855 583
f 135 102 138
f 587 590 554
f 135 138 140
f 587 592 590
f 106 138 141
f 558 593 590
f 138 106 139
f 590 591 558
f 138 139 140
f 590 592 591
f 138 102 141
f 590 593 554
f 135 140 404
f 587 856 592
f 140 139 404
f 592 856 591
f 139 174 404
f 591 856 626
f 174 135 404
f 626 856 587
f 142 143 145
f 594 597 595
f 143 142 109
f 595 561 594
f 111 143 146
f 563 598 595
f 143 111 144
f 595 596 563
f 143 144 145
f 595 597 596
f 143 109 146
f 595 598 561
f 142 145 405
f 594 857 597
f 145 144 405
f 597 857 596
f 144 179 405
f 596 857 631
f 179 142 405
f 631 857 594
f 144 111 147
f 596 599 563
f 144 147 149
f 596 601 599
f 115 147 150
f 567 602 599
f 147 115 148
f 599 600 567
f 147 148 149
f 599 601 600
f 147 111 150
f 599 602 563
f 144 149 406
f 596 858 601
f 149 148 406
f 601 858 600
f 148 183 406
f 600 858 635
f 183 144 406
f 635 858 596
f 148 115 151
f 600 603 567
f 148 151 153
f 600 605 603
f 119 151 154
f 571 606 603
f 151 119 152
f 603 604 571
f 151 152 153
f 603 605 604
f 151 115 154
f 603 606 567
f 148 153 407
f 600 859 605
f 153 152 407
f 605 859 604
f 152 187 407
f 604 859 639
f 187 148 407
f 639 859 600
f 152 119 155
f 604 607 571
f 152 155 157
f 604 609 607
f 123 155 158
f 575 610 607
f 155 123 156
f 607 608 575
f 155 156 157
f 607 609 608
f 155 119 158
f 607 610 571
f 152 157 408
f 604 860 609
f 157 156 408
f 609 860 608
f 156 191 408
f 608 860 643
f 191 152 408
f 643 860 604
f 156 123 159
f 608 611 575
f 156 159 161
f 608 613 611
f 127 159 162
f 579 614 611
f 159 127 160
f 611 612 579
f 159 160 161
f 611 613 612
f 159 123 162
f 611 614 575
f 156 161 409
f 608 861 613
f 161 160 409
f 613 861 612
f 160 195 409
f 612 861 647
f 195 156 409
f 647 861 608
f 160 127 163
f 612 615 579
f 160 163 165
f 612 617 615
f 131 163 166
f 583 618 615
f 163 131 164
f 615 616 583
f 163 164 165
f 615 617 616
f 163 127 166
f 615 618 579
f 160 165 410
f 612 862 617
f 165 164 410
f 617 862 616
f 164 199 410
f 616 862 651
f 199 160 410
f 651 862 612
f 164 131 167
f 616 619 583
f 164 167 169
f 616 621 619
f 135 167 170
f 587 622 619
f 167 135 168
f 619 620 587
f 167 168 169
f 619 621 620
f 167 131 170
f 619 622 583
f 164 169 411
f 616 863 621
f 169 168 411
f 621 863 620
f 168 203 411
f 620 863 655
f 203 164 411
f 655 863 616
f 168 135 171
f 620 623 587
f 168 171 173
f 620 625 623
f 139 171 174
f 591 626 623
f 171 139 172
f 623 624 591
f 171 172 173
f 623 625 624
f 171 135 174
f 623 626 587
f 168 173 412
f 620 864 625
f 173 172 412
f 625 864 624
f 172 207 412
f 624 864 659
f 207 168 412
f 659 864 620
f 175 176 178
f 627 630 628
f 176 175 142
f 628 594 627
f 144 176 179
f 596 631 628
f 176 144 177
f 628 629 596
f 176 177 178
f 628 630 629
f 176 142 179
f 628 631 594
f 175 178 413
f 627 865 630
f 178 177 413
f 630 865 629
f 177 212 413
f 629 865 664
f 212 175 413
f 664 865 627
f 177 144 180
f 629 632 596
f 177 180 182
f 629 634 632
f 148 180 183
f 600 635 632
f 180 148 181
f 632 633 600
f 180 181 182
f 632 634 633
f 180 144 183
f 632 635 596
f 177 182 414
f 629 866 634
f 182 181 414
f 634 866 633
f 181 216 414
f 633 866 668
f 216 177 414
f 668 866 629
f 181 148 184
f 633 636 600
f 181 184 186
f 633 638 636
f 152 184 187
f 604 639 636
f 184 152 185
f 636 637 604
f 184 185 186
f 636 638 637
f 184 148 187
f 636 639 600
f 181 186 415
f 633 867 638
f 186 185 415
f 638 867 637
f 185 220 415
f 637 867 672
f 220 181 415
f 672 867 633
f 185 152 188
f 637 640 604
f 185 188 190
f 637 642 640
f 156 188 191
f 608 643 640
f 188 156 189
f 640 641 608
f 188 189 190
f 640 642 641
f 188 152 191
f 640 643 604
f 185 190 416
f 637 868 642
f 190 189 416
f 642 868 641
f 189 224 416
f 641 868 676
f 224 185 416
f 676 868 637
f 189 156 192
f 641 644 608
f 189 192 194
f 641 646 644
f 160 192 195
f 612 647 644
f 192 160 193
f 644 645 612
f 192 193 194
f 644 646 645
f 192 156 195
f 644 647 608
f 189 194 417
f 641 869 646
f 194 193 417
f 646 869 645
f 193 228 417
f 645 869 680
f 228 189 417
f 680 869 641
f 193 160 196
f 645 648 612
f 193 196 198
f 645 650 648
f 164 196 199
f 616 651 648
f 196 164 197
f 648 649 616
f 196 197 198
f 648 650 649
f 196 160 199
f 648 651 612
f 193 198 418
f 645 870 650
f 198 197 418
f 650 870 649
f 197 232 418
f 649 870 684
f 232 193 418
f 684 870 645
f 197 164 200
f 649 652 616
f 197 200 202
f 649 654 652
f 168 200 203
f 620 655 652
f 200 168 201
f 652 653 620
f 200 201 202
f 652 654 653
f 200 164 203
f 652 655 616
f 197 202 419
f 649 871 654
f 202 201 419
f 654 871 653
f 201 236 419
f 653 871 688
f 236 197 419
f 688 871 649
f 201 168 204
f 653 656 620
f 201 204 206
f 653 658 656
f 172 204 207
f 624 659 656
f 204 172 205
f 656 657 624
f 204 205 206
f 656 658 657
f 204 168 207
f 656 659 620
f 201 206 420
f 653 872 658
f 206 205 420
f 658 872 657
f 205 240 420
f 657 872 692
f 240 201 420
f 692 872 653
f 208 209 211
f 660 663 661
f 209 208 175
f 661 627 660
f 177 209 212
f 629 664 661
f 209 177 210
f 661 662 629
f 209 210 211
f 661 663 662
f 209 175 212
f 661 664 627
f 208 211 421
f 660 873 663
f 211 210 421
f 663 873 662
f 210 245 421
f 662 873 697
f 245 208 421
f 697 873 660
f 210 177 213
f 662 665 629
f 210 213 215
f 662 667 665
f 181 213 216
f 633 668 665
f 213 181 214
f 665 666 633
f 213 214 215
f 665 667 666
f 213 177 216
f 665 668 629
f 210 215 422
f 662 874 667
f 215 214 422
f 667 874 666
f 214 249 422
f 666 874 701
f 249 210 422
f 701 874 662
f 214 181 217
f 666 669 633
f 214 217 219
f 666 671 669
f 185 217 220
f 637 672 669
f 217 185 218
f 669 670 637
f 217 218 219
f 669 671 670
f 217 181 220
f 669 672 633
f 214 219 423
f 666 875 671
f 219 218 423
f 671 875 670
f 218 253 423
f 670 875 705
f 253 214 423
f 705 875 666
f 218 185 221
f 670 673 637
f 218 221 223
f 670 675 673
f 189 221 224
f 641 676 673
f 221 189 222
f 673 674 641
f 221 222 223
f 673 675 674
f 221 185 224
f 673 676 637
f 218 223 424
f 670 876 675
f 223 222 424
f 675 876 674
f 222 257 424
f 674 876 709
f 257 218 424
f 709 876 670
f 222 189 225
f 674 677 641
f 222 225 227
f 674 679 677
f 193 225 228
f 645 680 677
f 225 193 226
f 677 678 645
f 225 226 227
f 677 679 678
f 225 189 228
f 677 680 641
f 222 227 425
f 674 877 679
f 227 226 425
f 679 877 678
f 226 261 425
f 678 877 713
f 261 222 425
f 713 877 674
f 226 193 229
f 678 681 645
f 226 229 231
f 678 683 681
f 197 229 232
f 649 684 681
f 229 197 230
f 681 682 649
f 229 230 231
f 681 683 682
f 229 193 232
f 681 684 645
f 226 231 426
f 678 878 683
f 231 230 426
f 683 878 682
f 230 265 426
f 682 878 717
f 265 226 426
f 717 878 678
f 230 197 233
f 682 685 649
f 230 233 235
f 682 687 685
f 201 233 236
f 653 688 685
f 233 201 234
f 685 686 653
f 233 234 235
f 685 687 686
f 233 197 236
f 685 688 649
f 230 235 427
f 682 879 687
f 235 234 427
f 687 879 686
f 234 269 427
f 686 879 721
f 269 230 427
f 721 879 682
f 234 201 237
f 686 689 653
f 234 237 239
f 686 691 689
f 205 237 240
f 657 692 689
f 237 205 238
f 689 690 657
f 237 238 239
f 689 691 690
f 237 201 240
f 689 692 653
f 234 239 428
f 686 880 691
f 239 238 428
f 691 880 690
f 238 273 428
f 690 880 725
f 273 234 428
f 725 880 686
f 241 242 244
f 693 696 694
f 242 241 208
f 694 660 693
f 210 242 245
f 662 697 694
f 242 210 243
f 694 695 662
f 242 243 244
f 694 696 695
f 242 208 245
f 694 697 660
f 241 244 429
f 693 881 696
f 244 243 429
f 696 881 695
f 243 278 429
f 695 881 730
f 278 241 429
f 730 881 693
f 243 210 246
f 695 698 662
f 243 246 248
f 695 700 698
f 214 246 249
f 666 701 698
f 246 214 247
f 698 699 666
f 246 247 248
f 698 700 699
f 246 210 249
f 698 701 662
f 243 248 430
f 695 882 700
f 248 247 430
f 700 882 699
f 247 282 430
f 699 882 734
f 282 243 430
f 734 882 695
f 247 214 250
f 699 702 666
f 247 250 252
f 699 704 702
f 218 250 253
f 670 705 702
f 250 218 251
f 702 703 670
f 250 251 252
f 702 704 703
f 250 214 253
f 702 705 666
f 247 252 431
f 699 883 704
f 252 251 431
f 704 883 703
f 251 286 431
f 703 883 738
f 286 247 431
f 738 883 699
f 251 218 254
f 703 706 670
f 251 254 256
f 703 708 706
f 222 254 257
f 674 709 706
f 254 222 255
f 706 707 674
f 254 255 256
f 706 708 707
f 254 218 257
f 706 709 670
f 251 256 432
f 703 884 708
f 256 255 432
f 708 884 707
f 255 290 432
f 707 884 742
f 290 251 432
f 742 884 703
f 255 222 258
f 707 710 674
f 255 258 260
f 707 712 710
f 226 258 261
f 678 713 710
f 258 226 259
f 710 711 678
f 258 259 260
f 710 712 711
f 258 222 261
f 710 713 674
f 255 260 433
f 707 885 712
f 260 259 433
f 712 885 711
f 259 294 433
f 711 885 746
f 294 255 433
f 746 885 707
f 259 226 262
f 711 714 678
f 259 262 264
f 711 716 714
f 230 262 265
f 682 717 714
f 262 230 263
f 714 715 682
f 262 263 264
f 714 716 715
f 262 226 265
f 714 717 678
f 259 264 434
f 711 886 716
f 264 263 434
f 716 886 715
f 263 298 434
f 715 886 750
f 298 259 434
f 750 886 711
f 263 230 266
f 715 718 682
f 263 266 268
f 715 720 718
f 234 266 269
f 686 721 718
f 266 234 267
f 718 719 686
f 266 267 268
f 718 720 719
f 266 230 269
f 718 721 682
f 263 268 435
f 715 887 720
f 268 267 435
f 720 887 719
f 267 302 435
f 719 887 754
f 302 263 435
f 754 887 715
f 267 234 270
f 719 722 686
f 267 270 272
f 719 724 722
f 238 270 273
f 690 725 722
f 270 238 271
f 722 723 690
f 270 271 272
f 722 724 723
f 270 234 273
f 722 725 686
f 267 272 436
f 719 888 724
f 272 271 436
f 724 888 723
f 271 306 436
f 723 888 758
f 306 267 436
f 758 888 719
f 274 275 277
f 726 729 727
f 275 274 241
f 727 693 726
f 243 275 278
f 695 730 727
f 275 243 276
f 727 728 695
f 275 276 277
f 727 729 728
f 275 241 278
f 727 730 693
f 274 277 437
f 726 889 729
f 277 276 437
f 729 889 728
f 276 311 437
f 728 889 763
f 311 274 437
f 763 889 726
f 276 243 279
f 728 731 695
f 276 279 281
f 728 733 731
f 247 279 282
f 699 734 731
f 279 247 280
f 731 732 699
f 279 280 281
f 731 733 732
f 279 243 282
f 731 734 695
f 276 281 438
f 728 890 733
f 281 280 438
f 733 890 732
f 280 315 438
f 732 890 767
f 315 276 438
f 767 890 728
f 280 247 283
f 732 735 699
f 280 283 285
f 732 737 735
f 251 283 286
f 703 738 735
f 283 251 284
f 735 736 703
f 283 284 285
f 735 737 736
f 283 247 286
f 735 738 699
f 280 285 439
f 732 891 737
f 285 284 439
f 737 891 736
f 284 319 439
f 736 891 771
f 319 280 439
f 771 891 732
f 284 251 287
f 736 739 703
f 284 287 289
f 736 741 739
f 255 287 290
f 707 742 739
f 287 255 288
f 739 740 707
f 287 288 289
f 739 741 740
f 287 251 290
f 739 742 703
f 284 289 440
f 736 892 741
f 289 288 440
f 741 892 740
f 288 323 440
f 740 892 775
f 323 284 440
f 775 892 736
f 288 255 291
f 740 743 707
f 288 291 293
f 740 745 743
f 259 291 294
f 711 746 743
f 291 259 292
f 743 744 711
f 291 292 293
f 743 745 744
f 291 255 294
f 743 746 707
f 288 293 441
f 740 893 745
f 293 292 441
f 745 893 744
f 292 327 441
f 744 893 779
f 327 288 441
f 779 893 740
f 292 259 295
f 744 747 711
f 292 295 297
f 744 749 747
f 263 295 298
f 715 750 747
f 295 263 296
f 747 748 715
f 295 296 297
f 747 749 748
f 295 259 298
f 747 750 711
f 292 297 442
f 744 894 749
f 297 296 442
f 749 894 748
f 296 331 442
f 748 894 783
f 331 292 442
f 783 894 744
f 296 263 299
f 748 751 715
f 296 299 301
f 748 753 751
f 267 299 302
f 719 754 751
f 299 267 300
f 751 752 719
f 299 300 301
f 751 753 752
f 299 263 302
f 751 754 715
f 296 301 443
f 748 895 753
f 301 300 443
f 753 895 752
f 300 335 443
f 752 895 787
f 335 296 443
f 787 895 748
f 300 267 303
f 752 755 719
f 300 303 305
f 752 757 755
f 271 303 306
f 723 758 755
f 303 271 304
f 755 756 723
f 303 304 305
f 755 757 756
f 303 267 306
f 755 758 719
f 300 305 444
f 752 896 757
f 305 304 444
f 757 896 756
f 304 339 444
f 756 896 791
f 339 300 444
f 791 896 752
f 307 308 310
f 759 762 760
f 308 307 274
f 760 726 759
f 276 308 311
f 728 763 760
f 308 276 309
f 760 761 728
f 308 309 310
f 760 762 761
f 308 274 311
f 760 763 726
f 307 310 445
f 759 897 762
f 310 309 445
f 762 897 761
f 309 344 445
f 761 897 796
f 344 307 445
f 796 897 759
f 309 276 312
f 761 764 728
f 309 312 314
f 761 766 764
f 280 312 315
f 732 767 764
f 312 280 313
f 764 765 732
f 312 313 314
f 764 766 765
f 312 276 315
f 764 767 728
f 309 314 446
f 761 898 766
f 314 313 446
f 766 898 765
f 313 348 446
f 765 898 800
f 348 309 446
f 800 898 761
f 313 280 316
f 765 768 732
f 313 316 318
f 765 770 768
f 284 316 319
f 736 771 768
f 316 284 317
f 768 769 736
f 316 317 318
f 768 770 769
f 316 280 319
f 768 771 732
f 313 318 447
f 765 899 770
f 318 317 447
f 770 899 769
f 317 352 447
f 769 899 804
f 352 313 447
f 804 899 765
f 317 284 320
f 769 772 736
f 317 320 322
f 769 774 772
f 288 320 323
f 740 775 772
f 320 288 321
f 772 773 740
f 320 321 322
f 772 774 773
f 320 284 323
f 772 775 736
f 317 322 448
f 769 900 774
f 322 321 448
f 774 900 773
f 321 356 448
f 773 900 808
f 356 317 448
f 808 900 769
f 321 288 324
f 773 776 740
f 321 324 326
f 773 778 776
f 292 324 327
f 744 779 776
f 324 292 325
f 776 777 744
f 324 325 326
f 776 778 777
f 324 288 327
f 776 779 740
f 321 326 449
f 773 901 778
f 326 325 449
f 778 901 777
f 325 360 449
f 777 901 812
f 360 321 449
f 812 901 773
f 325 292 328
f 777 780 744
f 325 328 330
f 777 782 780
f 296 328 331
f 748 783 780
f 328 296 329
f 780 781 748
f 328 329 330
f 780 782 781
f 328 292 331
f 780 783 744
f 325 330 450
f 777 902 782
f 330 329 450
f 782 902 781
f 329 364 450
f 781 902 816
f 364 325 450
f 816 902 777
f 329 296 332
f 781 784 748
f 329 332 334
f 781 786 784
f 300 332 335
f 752 787 784
f 332 300 333
f 784 785 752
f 332 333 334
f 784 786 785
f 332 296 335
f 784 787 748
f 329 334 451
f 781 903 786
f 334 333 451
f 786 903 785
f 333 368 451
f 785 903 820
f 368 329 451
f 820 903 781
f 333 300 336
f 785 788 752
f 333 336 338
f 785 790 788
f 304 336 339
f 756 791 788
f 336 304 337
f 788 789 756
f 336 337 338
f 788 790 789
f 336 300 339
f 788 791 752
f 333 338 452
f 785 904 790
f 338 337 452
f 790 904 789
f 337 372 452
f 789 904 824
f 372 333 452
f 824 904 785
f 340 341 343
f 792 795 793
f 341 340 307
f 793 759 792
f 309 341 344
f 761 796 793
f 341 309 342
f 793 794 761
f 341 342 343
f 793 795 794
f 341 307 344
f 793 796 759
f 340 343 342
f 792 794 795
f 342 309 345
f 794 797 761
f 342 345 347
f 794 799 797
f 313 345 348
f 765 800 797
f 345 313 346
f 797 798 765
f 345 346 347
f 797 799 798
f 345 309 348
f 797 800 761
f 342 347 346
f 794 798 799
f 346 313 349
f 798 801 765
f 346 349 351
f 798 803 801
f 317 349 352
f 769 804 801
f 349 317 350
f 801 802 769
f 349 350 351
f 801 803 802
f 349 313 352
f 801 804 765
f 346 351 350
f 798 802 803
f 350 317 353
f 802 805 769
f 350 353 355
f 802 807 805
f 321 353 356
f 773 808 805
f 353 321 354
f 805 806 773
f 353 354 355
f 805 807 806
f 353 317 356
f 805 808 769
f 350 355 354
f 802 806 807
f 354 321 357
f 806 809 773
f 354 357 359
f 806 811 809
f 325 357 360
f 777 812 809
f 357 325 358
f 809 810 777
f 357 358 359
f 809 811 810
f 357 321 360
f 809 812 773
f 354 359 358
f 806 810 811
f 358 325 361
f 810 813 777
f 358 361 363
f 810 815 813
f 329 361 364
f 781 816 813
f 361 329 362
f 813 814 781
f 361 362 363
f 813 815 814
f 361 325 364
f 813 816 777
f 358 363 362
f 810 814 815
f 362 329 365
f 814 817 781
f 362 365 367
f 814 819 817
f 333 365 368
f 785 820 817
f 365 333 366
f 817 818 785
f 365 366 367
f 817 819 818
f 365 329 368
f 817 820 781
f 362 367 366
f 814 818 819
f 366 333 369
f 818 821 785
f 366 369 371
f 818 823 821
f 337 369 372
f 789 824 821
f 369 337 370
f 821 822 789
f 369 370 371
f 821 823 822
f 369 333 372
f 821 824 785
f 366 371 370
f 818 822 823
f 5 3 455
f 5 455 457
f 3 9 461
f 3 461 455
f 9 14 466
f 9 466 461
f 14 19 471
f 14 471 466
f 19 24 476
f 19 476 471
f 24 29 481
f 24 481 476
f 29 34 486
f 29 486 481
f 34 39 491
f 34 491 486
f 39 40 492
f 39 492 491
f 40 73 525
f 40 525 492
f 73 106 558
f 73 558 525
f 106 139 591
f 106 591 558
f 139 172 624
f 139 624 591
f 172 205 657
f 172 657 624
f 205 238 690
f 205 690 657
f 238 271 723
f 238 723 690
f 271 304 756
f 271 756 723
f 304 337 789
f 304 789 756
f 337 370 822
f 337 822 789
f 370 366 818
f 370 818 822
f 366 362 814
f 366 814 818
f 362 358 810
f 362 810 814
f 358 354 806
f 358 806 810
f 354 350 802
f 354 802 806
f 350 346 798
f 350 798 802
f 346 342 794
f 346 794 798
f 342 340 792
f 342 792 794
f 340 307 759
f 340 759 792
f 307 274 726
f 307 726 759
f 274 241 693
f 274 693 726
f 241 208 660
f 241 660 693
f 208 175 627
f 208 627 660
f 175 142 594
f 175 594 627
f 142 109 561
f 142 561 594
f 109 76 528
f 109 528 561
f 76 43 495
f 76 495 528
f 43 1 453
f 43 453 495
f 1 5 457
f 1 457 453
