# Bellows Diecut foldcore die
v -68.00000 -70.00000 9.49333
v -60.00000 -74.66667 9.49333
v -52.00000 -70.00000 9.49333
v -68.00000 -79.33333 9.49333
v -52.00000 -79.33333 9.49333
v -60.00000 -84.00000 9.49333
v -44.00000 -74.66667 9.49333
v -36.00000 -70.00000 9.49333
v -36.00000 -79.33333 9.49333
v -44.00000 -84.00000 9.49333
v -28.00000 -74.66667 9.49333
v -20.00000 -70.00000 9.49333
v -20.00000 -79.33333 9.49333
v -28.00000 -84.00000 9.49333
v -12.00000 -74.66667 9.49333
v -4.00000 -70.00000 9.49333
v -4.00000 -79.33333 9.49333
v -12.00000 -84.00000 9.49333
v 4.00000 -74.66667 9.49333
v 12.00000 -70.00000 9.49333
v 12.00000 -79.33333 9.49333
v 4.00000 -84.00000 9.49333
v 20.00000 -74.66667 9.49333
v 28.00000 -70.00000 9.49333
v 28.00000 -79.33333 9.49333
v 20.00000 -84.00000 9.49333
v 36.00000 -74.66667 9.49333
v 44.00000 -70.00000 9.49333
v 44.00000 -79.33333 9.49333
v 36.00000 -84.00000 9.49333
v 52.00000 -74.66667 9.49333
v 60.00000 -70.00000 9.49333
v 60.00000 -79.33333 9.49333
v 52.00000 -84.00000 9.49333
v -60.00000 -56.00000 9.49333
v -52.00000 -60.66667 9.49333
v -44.00000 -56.00000 9.49333
v -60.00000 -65.33333 9.49333
v -44.00000 -65.33333 9.49333
v -36.00000 -60.66667 9.49333
v -28.00000 -56.00000 9.49333
v -28.00000 -65.33333 9.49333
v -20.00000 -60.66667 9.49333
v -12.00000 -56.00000 9.49333
v -12.00000 -65.33333 9.49333
v -4.00000 -60.66667 9.49333
v 4.00000 -56.00000 9.49333
v 4.00000 -65.33333 9.49333
v 12.00000 -60.66667 9.49333
v 20.00000 -56.00000 9.49333
v 20.00000 -65.33333 9.49333
v 28.00000 -60.66667 9.49333
v 36.00000 -56.00000 9.49333
v 36.00000 -65.33333 9.49333
v 44.00000 -60.66667 9.49333
v 52.00000 -56.00000 9.49333
v 52.00000 -65.33333 9.49333
v 60.00000 -60.66667 9.49333
v 68.00000 -56.00000 9.49333
v 68.00000 -65.33333 9.49333
v -68.00000 -42.00000 9.49333
v -60.00000 -46.66667 9.49333
v -52.00000 -42.00000 9.49333
v -68.00000 -51.33333 9.49333
v -52.00000 -51.33333 9.49333
v -44.00000 -46.66667 9.49333
v -36.00000 -42.00000 9.49333
v -36.00000 -51.33333 9.49333
v -28.00000 -46.66667 9.49333
v -20.00000 -42.00000 9.49333
v -20.00000 -51.33333 9.49333
v -12.00000 -46.66667 9.49333
v -4.00000 -42.00000 9.49333
v -4.00000 -51.33333 9.49333
v 4.00000 -46.66667 9.49333
v 12.00000 -42.00000 9.49333
v 12.00000 -51.33333 9.49333
v 20.00000 -46.66667 9.49333
v 28.00000 -42.00000 9.49333
v 28.00000 -51.33333 9.49333
v 36.00000 -46.66667 9.49333
v 44.00000 -42.00000 9.49333
v 44.00000 -51.33333 9.49333
v 52.00000 -46.66667 9.49333
v 60.00000 -42.00000 9.49333
v 60.00000 -51.33333 9.49333
v -60.00000 -28.00000 9.49333
v -52.00000 -32.66667 9.49333
v -44.00000 -28.00000 9.49333
v -60.00000 -37.33333 9.49333
v -44.00000 -37.33333 9.49333
v -36.00000 -32.66667 9.49333
v -28.00000 -28.00000 9.49333
v -28.00000 -37.33333 9.49333
v -20.00000 -32.66667 9.49333
v -12.00000 -28.00000 9.49333
v -12.00000 -37.33333 9.49333
v -4.00000 -32.66667 9.49333
v 4.00000 -28.00000 9.49333
v 4.00000 -37.33333 9.49333
v 12.00000 -32.66667 9.49333
v 20.00000 -28.00000 9.49333
v 20.00000 -37.33333 9.49333
v 28.00000 -32.66667 9.49333
v 36.00000 -28.00000 9.49333
v 36.00000 -37.33333 9.49333
v 44.00000 -32.66667 9.49333
v 52.00000 -28.00000 9.49333
v 52.00000 -37.33333 9.49333
v 60.00000 -32.66667 9.49333
v 68.00000 -28.00000 9.49333
v 68.00000 -37.33333 9.49333
v -68.00000 -14.00000 9.49333
v -60.00000 -18.66667 9.49333
v -52.00000 -14.00000 9.49333
v -68.00000 -23.33333 9.49333
v -52.00000 -23.33333 9.49333
v -44.00000 -18.66667 9.49333
v -36.00000 -14.00000 9.49333
v -36.00000 -23.33333 9.49333
v -28.00000 -18.66667 9.49333
v -20.00000 -14.00000 9.49333
v -20.00000 -23.33333 9.49333
v -12.00000 -18.66667 9.49333
v -4.00000 -14.00000 9.49333
v -4.00000 -23.33333 9.49333
v 4.00000 -18.66667 9.49333
v 12.00000 -14.00000 9.49333
v 12.00000 -23.33333 9.49333
v 20.00000 -18.66667 9.49333
v 28.00000 -14.00000 9.49333
v 28.00000 -23.33333 9.49333
v 36.00000 -18.66667 9.49333
v 44.00000 -14.00000 9.49333
v 44.00000 -23.33333 9.49333
v 52.00000 -18.66667 9.49333
v 60.00000 -14.00000 9.49333
v 60.00000 -23.33333 9.49333
v -60.00000 0.00000 9.49333
v -52.00000 -4.66667 9.49333
v -44.00000 0.00000 9.49333
v -60.00000 -9.33333 9.49333
v -44.00000 -9.33333 9.49333
v -36.00000 -4.66667 9.49333
v -28.00000 0.00000 9.49333
v -28.00000 -9.33333 9.49333
v -20.00000 -4.66667 9.49333
v -12.00000 0.00000 9.49333
v -12.00000 -9.33333 9.49333
v -4.00000 -4.66667 9.49333
v 4.00000 0.00000 9.49333
v 4.00000 -9.33333 9.49333
v 12.00000 -4.66667 9.49333
v 20.00000 0.00000 9.49333
v 20.00000 -9.33333 9.49333
v 28.00000 -4.66667 9.49333
v 36.00000 0.00000 9.49333
v 36.00000 -9.33333 9.49333
v 44.00000 -4.66667 9.49333
v 52.00000 0.00000 9.49333
v 52.00000 -9.33333 9.49333
v 60.00000 -4.66667 9.49333
v 68.00000 0.00000 9.49333
v 68.00000 -9.33333 9.49333
v -68.00000 14.00000 9.49333
v -60.00000 9.33333 9.49333
v -52.00000 14.00000 9.49333
v -68.00000 4.66667 9.49333
v -52.00000 4.66667 9.49333
v -44.00000 9.33333 9.49333
v -36.00000 14.00000 9.49333
v -36.00000 4.66667 9.49333
v -28.00000 9.33333 9.49333
v -20.00000 14.00000 9.49333
v -20.00000 4.66667 9.49333
v -12.00000 9.33333 9.49333
v -4.00000 14.00000 9.49333
v -4.00000 4.66667 9.49333
v 4.00000 9.33333 9.49333
v 12.00000 14.00000 9.49333
v 12.00000 4.66667 9.49333
v 20.00000 9.33333 9.49333
v 28.00000 14.00000 9.49333
v 28.00000 4.66667 9.49333
v 36.00000 9.33333 9.49333
v 44.00000 14.00000 9.49333
v 44.00000 4.66667 9.49333
v 52.00000 9.33333 9.49333
v 60.00000 14.00000 9.49333
v 60.00000 4.66667 9.49333
v -60.00000 28.00000 9.49333
v -52.00000 23.33333 9.49333
v -44.00000 28.00000 9.49333
v -60.00000 18.66667 9.49333
v -44.00000 18.66667 9.49333
v -36.00000 23.33333 9.49333
v -28.00000 28.00000 9.49333
v -28.00000 18.66667 9.49333
v -20.00000 23.33333 9.49333
v -12.00000 28.00000 9.49333
v -12.00000 18.66667 9.49333
v -4.00000 23.33333 9.49333
v 4.00000 28.00000 9.49333
v 4.00000 18.66667 9.49333
v 12.00000 23.33333 9.49333
v 20.00000 28.00000 9.49333
v 20.00000 18.66667 9.49333
v 28.00000 23.33333 9.49333
v 36.00000 28.00000 9.49333
v 36.00000 18.66667 9.49333
v 44.00000 23.33333 9.49333
v 52.00000 28.00000 9.49333
v 52.00000 18.66667 9.49333
v 60.00000 23.33333 9.49333
v 68.00000 28.00000 9.49333
v 68.00000 18.66667 9.49333
v -68.00000 42.00000 9.49333
v -60.00000 37.33333 9.49333
v -52.00000 42.00000 9.49333
v -68.00000 32.66667 9.49333
v -52.00000 32.66667 9.49333
v -44.00000 37.33333 9.49333
v -36.00000 42.00000 9.49333
v -36.00000 32.66667 9.49333
v -28.00000 37.33333 9.49333
v -20.00000 42.00000 9.49333
v -20.00000 32.66667 9.49333
v -12.00000 37.33333 9.49333
v -4.00000 42.00000 9.49333
v -4.00000 32.66667 9.49333
v 4.00000 37.33333 9.49333
v 12.00000 42.00000 9.49333
v 12.00000 32.66667 9.49333
v 20.00000 37.33333 9.49333
v 28.00000 42.00000 9.49333
v 28.00000 32.66667 9.49333
v 36.00000 37.33333 9.49333
v 44.00000 42.00000 9.49333
v 44.00000 32.66667 9.49333
v 52.00000 37.33333 9.49333
v 60.00000 42.00000 9.49333
v 60.00000 32.66667 9.49333
v -60.00000 56.00000 9.49333
v -52.00000 51.33333 9.49333
v -44.00000 56.00000 9.49333
v -60.00000 46.66667 9.49333
v -44.00000 46.66667 9.49333
v -36.00000 51.33333 9.49333
v -28.00000 56.00000 9.49333
v -28.00000 46.66667 9.49333
v -20.00000 51.33333 9.49333
v -12.00000 56.00000 9.49333
v -12.00000 46.66667 9.49333
v -4.00000 51.33333 9.49333
v 4.00000 56.00000 9.49333
v 4.00000 46.66667 9.49333
v 12.00000 51.33333 9.49333
v 20.00000 56.00000 9.49333
v 20.00000 46.66667 9.49333
v 28.00000 51.33333 9.49333
v 36.00000 56.00000 9.49333
v 36.00000 46.66667 9.49333
v 44.00000 51.33333 9.49333
v 52.00000 56.00000 9.49333
v 52.00000 46.66667 9.49333
v 60.00000 51.33333 9.49333
v 68.00000 56.00000 9.49333
v 68.00000 46.66667 9.49333
v -68.00000 70.00000 9.49333
v -60.00000 65.33333 9.49333
v -52.00000 70.00000 9.49333
v -68.00000 60.66667 9.49333
v -52.00000 60.66667 9.49333
v -44.00000 65.33333 9.49333
v -36.00000 70.00000 9.49333
v -36.00000 60.66667 9.49333
v -28.00000 65.33333 9.49333
v -20.00000 70.00000 9.49333
v -20.00000 60.66667 9.49333
v -12.00000 65.33333 9.49333
v -4.00000 70.00000 9.49333
v -4.00000 60.66667 9.49333
v 4.00000 65.33333 9.49333
v 12.00000 70.00000 9.49333
v 12.00000 60.66667 9.49333
v 20.00000 65.33333 9.49333
v 28.00000 70.00000 9.49333
v 28.00000 60.66667 9.49333
v 36.00000 65.33333 9.49333
v 44.00000 70.00000 9.49333
v 44.00000 60.66667 9.49333
v 52.00000 65.33333 9.49333
v 60.00000 70.00000 9.49333
v 60.00000 60.66667 9.49333
v -60.00000 84.00000 9.49333
v -52.00000 79.33333 9.49333
v -44.00000 84.00000 9.49333
v -60.00000 74.66667 9.49333
v -44.00000 74.66667 9.49333
v -36.00000 79.33333 9.49333
v -28.00000 84.00000 9.49333
v -28.00000 74.66667 9.49333
v -20.00000 79.33333 9.49333
v -12.00000 84.00000 9.49333
v -12.00000 74.66667 9.49333
v -4.00000 79.33333 9.49333
v 4.00000 84.00000 9.49333
v 4.00000 74.66667 9.49333
v 12.00000 79.33333 9.49333
v 20.00000 84.00000 9.49333
v 20.00000 74.66667 9.49333
v 28.00000 79.33333 9.49333
v 36.00000 84.00000 9.49333
v 36.00000 74.66667 9.49333
v 44.00000 79.33333 9.49333
v 52.00000 84.00000 9.49333
v 52.00000 74.66667 9.49333
v 60.00000 79.33333 9.49333
v 68.00000 84.00000 9.49333
v 68.00000 74.66667 9.49333
v -68.00000 -84.00000 9.49333
v 68.00000 -84.00000 9.49333
v -68.00000 84.00000 9.49333
v -61.33333 -64.55555 9.49333
v -44.00000 -70.00000 9.49333
v -28.00000 -70.00000 9.49333
v -12.00000 -70.00000 9.49333
v 4.00000 -70.00000 9.49333
v 20.00000 -70.00000 9.49333
v 36.00000 -70.00000 9.49333
v 52.00000 -70.00000 9.49333
v 61.60000 -76.53333 9.49333
v -52.00000 -56.00000 9.49333
v -36.00000 -56.00000 9.49333
v -20.00000 -56.00000 9.49333
v -4.00000 -56.00000 9.49333
v 12.00000 -56.00000 9.49333
v 28.00000 -56.00000 9.49333
v 44.00000 -56.00000 9.49333
v 61.33333 -50.55555 9.49333
v -61.33333 -36.55555 9.49333
v -44.00000 -42.00000 9.49333
v -28.00000 -42.00000 9.49333
v -12.00000 -42.00000 9.49333
v 4.00000 -42.00000 9.49333
v 20.00000 -42.00000 9.49333
v 36.00000 -42.00000 9.49333
v 52.00000 -42.00000 9.49333
v -52.00000 -28.00000 9.49333
v -36.00000 -28.00000 9.49333
v -20.00000 -28.00000 9.49333
v -4.00000 -28.00000 9.49333
v 12.00000 -28.00000 9.49333
v 28.00000 -28.00000 9.49333
v 44.00000 -28.00000 9.49333
v 61.33333 -22.55555 9.49333
v -61.33333 -8.55555 9.49333
v -44.00000 -14.00000 9.49333
v -28.00000 -14.00000 9.49333
v -12.00000 -14.00000 9.49333
v 4.00000 -14.00000 9.49333
v 20.00000 -14.00000 9.49333
v 36.00000 -14.00000 9.49333
v 52.00000 -14.00000 9.49333
v -52.00000 0.00000 9.49333
v -36.00000 0.00000 9.49333
v -20.00000 0.00000 9.49333
v -4.00000 0.00000 9.49333
v 12.00000 0.00000 9.49333
v 28.00000 0.00000 9.49333
v 44.00000 0.00000 9.49333
v 61.33333 5.44444 9.49333
v -61.33333 19.44444 9.49333
v -44.00000 14.00000 9.49333
v -28.00000 14.00000 9.49333
v -12.00000 14.00000 9.49333
v 4.00000 14.00000 9.49333
v 20.00000 14.00000 9.49333
v 36.00000 14.00000 9.49333
v 52.00000 14.00000 9.49333
v -52.00000 28.00000 9.49333
v -36.00000 28.00000 9.49333
v -20.00000 28.00000 9.49333
v -4.00000 28.00000 9.49333
v 12.00000 28.00000 9.49333
v 28.00000 28.00000 9.49333
v 44.00000 28.00000 9.49333
v 61.33333 33.44444 9.49333
v -61.33333 47.44445 9.49333
v -44.00000 42.00000 9.49333
v -28.00000 42.00000 9.49333
v -12.00000 42.00000 9.49333
v 4.00000 42.00000 9.49333
v 20.00000 42.00000 9.49333
v 36.00000 42.00000 9.49333
v 52.00000 42.00000 9.49333
v -52.00000 56.00000 9.49333
v -36.00000 56.00000 9.49333
v -20.00000 56.00000 9.49333
v -4.00000 56.00000 9.49333
v 12.00000 56.00000 9.49333
v 28.00000 56.00000 9.49333
v 44.00000 56.00000 9.49333
v 61.33333 61.44445 9.49333
v -44.00000 70.00000 9.49333
v -28.00000 70.00000 9.49333
v -12.00000 70.00000 9.49333
v 4.00000 70.00000 9.49333
v 20.00000 70.00000 9.49333
v 36.00000 70.00000 9.49333
v 52.00000 70.00000 9.49333
v -68.00000 -70.00000 0.50000
v -60.00000 -74.66667 4.22000
v -52.00000 -70.00000 2.56667
v -68.00000 -79.33333 2.56667
v -52.00000 -79.33333 4.22000
v -60.00000 -84.00000 2.56667
v -44.00000 -74.66667 4.22000
v -36.00000 -70.00000 2.56667
v -36.00000 -79.33333 4.22000
v -44.00000 -84.00000 2.56667
v -28.00000 -74.66667 4.22000
v -20.00000 -70.00000 2.56667
v -20.00000 -79.33333 4.22000
v -28.00000 -84.00000 2.56667
v -12.00000 -74.66667 4.22000
v -4.00000 -70.00000 2.56667
v -4.00000 -79.33333 4.22000
v -12.00000 -84.00000 2.56667
v 4.00000 -74.66667 4.22000
v 12.00000 -70.00000 2.56667
v 12.00000 -79.33333 4.22000
v 4.00000 -84.00000 2.56667
v 20.00000 -74.66667 4.22000
v 28.00000 -70.00000 2.56667
v 28.00000 -79.33333 4.22000
v 20.00000 -84.00000 2.56667
v 36.00000 -74.66667 4.22000
v 44.00000 -70.00000 2.56667
v 44.00000 -79.33333 4.22000
v 36.00000 -84.00000 2.56667
v 52.00000 -74.66667 4.22000
v 60.00000 -70.00000 1.74000
v 60.00000 -79.33333 2.56667
v 52.00000 -84.00000 2.56667
v -60.00000 -56.00000 1.74000
v -52.00000 -60.66667 4.22000
v -44.00000 -56.00000 2.56667
v -60.00000 -65.33333 2.56667
v -44.00000 -65.33333 4.22000
v -36.00000 -60.66667 4.22000
v -28.00000 -56.00000 2.56667
v -28.00000 -65.33333 4.22000
v -20.00000 -60.66667 4.22000
v -12.00000 -56.00000 2.56667
v -12.00000 -65.33333 4.22000
v -4.00000 -60.66667 4.22000
v 4.00000 -56.00000 2.56667
v 4.00000 -65.33333 4.22000
v 12.00000 -60.66667 4.22000
v 20.00000 -56.00000 2.56667
v 20.00000 -65.33333 4.22000
v 28.00000 -60.66667 4.22000
v 36.00000 -56.00000 2.56667
v 36.00000 -65.33333 4.22000
v 44.00000 -60.66667 4.22000
v 52.00000 -56.00000 2.56667
v 52.00000 -65.33333 4.22000
v 60.00000 -60.66667 4.22000
v 68.00000 -56.00000 0.50000
v 68.00000 -65.33333 2.56667
v -68.00000 -42.00000 0.50000
v -60.00000 -46.66667 4.22000
v -52.00000 -42.00000 2.56667
v -68.00000 -51.33333 2.56667
v -52.00000 -51.33333 4.22000
v -44.00000 -46.66667 4.22000
v -36.00000 -42.00000 2.56667
v -36.00000 -51.33333 4.22000
v -28.00000 -46.66667 4.22000
v -20.00000 -42.00000 2.56667
v -20.00000 -51.33333 4.22000
v -12.00000 -46.66667 4.22000
v -4.00000 -42.00000 2.56667
v -4.00000 -51.33333 4.22000
v 4.00000 -46.66667 4.22000
v 12.00000 -42.00000 2.56667
v 12.00000 -51.33333 4.22000
v 20.00000 -46.66667 4.22000
v 28.00000 -42.00000 2.56667
v 28.00000 -51.33333 4.22000
v 36.00000 -46.66667 4.22000
v 44.00000 -42.00000 2.56667
v 44.00000 -51.33333 4.22000
v 52.00000 -46.66667 4.22000
v 60.00000 -42.00000 1.74000
v 60.00000 -51.33333 2.56667
v -60.00000 -28.00000 1.74000
v -52.00000 -32.66667 4.22000
v -44.00000 -28.00000 2.56667
v -60.00000 -37.33333 2.56667
v -44.00000 -37.33333 4.22000
v -36.00000 -32.66667 4.22000
v -28.00000 -28.00000 2.56667
v -28.00000 -37.33333 4.22000
v -20.00000 -32.66667 4.22000
v -12.00000 -28.00000 2.56667
v -12.00000 -37.33333 4.22000
v -4.00000 -32.66667 4.22000
v 4.00000 -28.00000 2.56667
v 4.00000 -37.33333 4.22000
v 12.00000 -32.66667 4.22000
v 20.00000 -28.00000 2.56667
v 20.00000 -37.33333 4.22000
v 28.00000 -32.66667 4.22000
v 36.00000 -28.00000 2.56667
v 36.00000 -37.33333 4.22000
v 44.00000 -32.66667 4.22000
v 52.00000 -28.00000 2.56667
v 52.00000 -37.33333 4.22000
v 60.00000 -32.66667 4.22000
v 68.00000 -28.00000 0.50000
v 68.00000 -37.33333 2.56667
v -68.00000 -14.00000 0.50000
v -60.00000 -18.66667 4.22000
v -52.00000 -14.00000 2.56667
v -68.00000 -23.33333 2.56667
v -52.00000 -23.33333 4.22000
v -44.00000 -18.66667 4.22000
v -36.00000 -14.00000 2.56667
v -36.00000 -23.33333 4.22000
v -28.00000 -18.66667 4.22000
v -20.00000 -14.00000 2.56667
v -20.00000 -23.33333 4.22000
v -12.00000 -18.66667 4.22000
v -4.00000 -14.00000 2.56667
v -4.00000 -23.33333 4.22000
v 4.00000 -18.66667 4.22000
v 12.00000 -14.00000 2.56667
v 12.00000 -23.33333 4.22000
v 20.00000 -18.66667 4.22000
v 28.00000 -14.00000 2.56667
v 28.00000 -23.33333 4.22000
v 36.00000 -18.66667 4.22000
v 44.00000 -14.00000 2.56667
v 44.00000 -23.33333 4.22000
v 52.00000 -18.66667 4.22000
v 60.00000 -14.00000 1.74000
v 60.00000 -23.33333 2.56667
v -60.00000 0.00000 1.74000
v -52.00000 -4.66667 4.22000
v -44.00000 0.00000 2.56667
v -60.00000 -9.33333 2.56667
v -44.00000 -9.33333 4.22000
v -36.00000 -4.66667 4.22000
v -28.00000 0.00000 2.56667
v -28.00000 -9.33333 4.22000
v -20.00000 -4.66667 4.22000
v -12.00000 0.00000 2.56667
v -12.00000 -9.33333 4.22000
v -4.00000 -4.66667 4.22000
v 4.00000 0.00000 2.56667
v 4.00000 -9.33333 4.22000
v 12.00000 -4.66667 4.22000
v 20.00000 0.00000 2.56667
v 20.00000 -9.33333 4.22000
v 28.00000 -4.66667 4.22000
v 36.00000 0.00000 2.56667
v 36.00000 -9.33333 4.22000
v 44.00000 -4.66667 4.22000
v 52.00000 0.00000 2.56667
v 52.00000 -9.33333 4.22000
v 60.00000 -4.66667 4.22000
v 68.00000 0.00000 0.50000
v 68.00000 -9.33333 2.56667
v -68.00000 14.00000 0.50000
v -60.00000 9.33333 4.22000
v -52.00000 14.00000 2.56667
v -68.00000 4.66667 2.56667
v -52.00000 4.66667 4.22000
v -44.00000 9.33333 4.22000
v -36.00000 14.00000 2.56667
v -36.00000 4.66667 4.22000
v -28.00000 9.33333 4.22000
v -20.00000 14.00000 2.56667
v -20.00000 4.66667 4.22000
v -12.00000 9.33333 4.22000
v -4.00000 14.00000 2.56667
v -4.00000 4.66667 4.22000
v 4.00000 9.33333 4.22000
v 12.00000 14.00000 2.56667
v 12.00000 4.66667 4.22000
v 20.00000 9.33333 4.22000
v 28.00000 14.00000 2.56667
v 28.00000 4.66667 4.22000
v 36.00000 9.33333 4.22000
v 44.00000 14.00000 2.56667
v 44.00000 4.66667 4.22000
v 52.00000 9.33333 4.22000
v 60.00000 14.00000 1.74000
v 60.00000 4.66667 2.56667
v -60.00000 28.00000 1.74000
v -52.00000 23.33333 4.22000
v -44.00000 28.00000 2.56667
v -60.00000 18.66667 2.56667
v -44.00000 18.66667 4.22000
v -36.00000 23.33333 4.22000
v -28.00000 28.00000 2.56667
v -28.00000 18.66667 4.22000
v -20.00000 23.33333 4.22000
v -12.00000 28.00000 2.56667
v -12.00000 18.66667 4.22000
v -4.00000 23.33333 4.22000
v 4.00000 28.00000 2.56667
v 4.00000 18.66667 4.22000
v 12.00000 23.33333 4.22000
v 20.00000 28.00000 2.56667
v 20.00000 18.66667 4.22000
v 28.00000 23.33333 4.22000
v 36.00000 28.00000 2.56667
v 36.00000 18.66667 4.22000
v 44.00000 23.33333 4.22000
v 52.00000 28.00000 2.56667
v 52.00000 18.66667 4.22000
v 60.00000 23.33333 4.22000
v 68.00000 28.00000 0.50000
v 68.00000 18.66667 2.56667
v -68.00000 42.00000 0.50000
v -60.00000 37.33333 4.22000
v -52.00000 42.00000 2.56667
v -68.00000 32.66667 2.56667
v -52.00000 32.66667 4.22000
v -44.00000 37.33333 4.22000
v -36.00000 42.00000 2.56667
v -36.00000 32.66667 4.22000
v -28.00000 37.33333 4.22000
v -20.00000 42.00000 2.56667
v -20.00000 32.66667 4.22000
v -12.00000 37.33333 4.22000
v -4.00000 42.00000 2.56667
v -4.00000 32.66667 4.22000
v 4.00000 37.33333 4.22000
v 12.00000 42.00000 2.56667
v 12.00000 32.66667 4.22000
v 20.00000 37.33333 4.22000
v 28.00000 42.00000 2.56667
v 28.00000 32.66667 4.22000
v 36.00000 37.33333 4.22000
v 44.00000 42.00000 2.56667
v 44.00000 32.66667 4.22000
v 52.00000 37.33333 4.22000
v 60.00000 42.00000 1.74000
v 60.00000 32.66667 2.56667
v -60.00000 56.00000 1.74000
v -52.00000 51.33333 4.22000
v -44.00000 56.00000 2.56667
v -60.00000 46.66667 2.56667
v -44.00000 46.66667 4.22000
v -36.00000 51.33333 4.22000
v -28.00000 56.00000 2.56667
v -28.00000 46.66667 4.22000
v -20.00000 51.33333 4.22000
v -12.00000 56.00000 2.56667
v -12.00000 46.66667 4.22000
v -4.00000 51.33333 4.22000
v 4.00000 56.00000 2.56667
v 4.00000 46.66667 4.22000
v 12.00000 51.33333 4.22000
v 20.00000 56.00000 2.56667
v 20.00000 46.66667 4.22000
v 28.00000 51.33333 4.22000
v 36.00000 56.00000 2.56667
v 36.00000 46.66667 4.22000
v 44.00000 51.33333 4.22000
v 52.00000 56.00000 2.56667
v 52.00000 46.66667 4.22000
v 60.00000 51.33333 4.22000
v 68.00000 56.00000 0.50000
v 68.00000 46.66667 2.56667
v -68.00000 70.00000 0.50000
v -60.00000 65.33333 4.22000
v -52.00000 70.00000 2.56667
v -68.00000 60.66667 2.56667
v -52.00000 60.66667 4.22000
v -44.00000 65.33333 4.22000
v -36.00000 70.00000 2.56667
v -36.00000 60.66667 4.22000
v -28.00000 65.33333 4.22000
v -20.00000 70.00000 2.56667
v -20.00000 60.66667 4.22000
v -12.00000 65.33333 4.22000
v -4.00000 70.00000 2.56667
v -4.00000 60.66667 4.22000
v 4.00000 65.33333 4.22000
v 12.00000 70.00000 2.56667
v 12.00000 60.66667 4.22000
v 20.00000 65.33333 4.22000
v 28.00000 70.00000 2.56667
v 28.00000 60.66667 4.22000
v 36.00000 65.33333 4.22000
v 44.00000 70.00000 2.56667
v 44.00000 60.66667 4.22000
v 52.00000 65.33333 4.22000
v 60.00000 70.00000 1.74000
v 60.00000 60.66667 2.56667
v -60.00000 84.00000 0.50000
v -52.00000 79.33333 4.22000
v -44.00000 84.00000 2.56667
v -60.00000 74.66667 2.56667
v -44.00000 74.66667 4.22000
v -36.00000 79.33333 4.22000
v -28.00000 84.00000 2.56667
v -28.00000 74.66667 4.22000
v -20.00000 79.33333 4.22000
v -12.00000 84.00000 2.56667
v -12.00000 74.66667 4.22000
v -4.00000 79.33333 4.22000
v 4.00000 84.00000 2.56667
v 4.00000 74.66667 4.22000
v 12.00000 79.33333 4.22000
v 20.00000 84.00000 2.56667
v 20.00000 74.66667 4.22000
v 28.00000 79.33333 4.22000
v 36.00000 84.00000 2.56667
v 36.00000 74.66667 4.22000
v 44.00000 79.33333 4.22000
v 52.00000 84.00000 2.56667
v 52.00000 74.66667 4.22000
v 60.00000 79.33333 4.22000
v 68.00000 84.00000 0.50000
v 68.00000 74.66667 2.56667
v -68.00000 -84.00000 0.50000
v 68.00000 -84.00000 0.50000
v -68.00000 84.00000 0.50000
v -61.33333 -64.55555 5.46000
v -44.00000 -70.00000 6.49333
v -28.00000 -70.00000 6.49333
v -12.00000 -70.00000 6.49333
v 4.00000 -70.00000 6.49333
v 20.00000 -70.00000 6.49333
v 36.00000 -70.00000 6.49333
v 52.00000 -70.00000 6.28667
v 61.60000 -76.53333 5.08800
v -52.00000 -56.00000 6.28667
v -36.00000 -56.00000 6.49333
v -20.00000 -56.00000 6.49333
v -4.00000 -56.00000 6.49333
v 12.00000 -56.00000 6.49333
v 28.00000 -56.00000 6.49333
v 44.00000 -56.00000 6.49333
v 61.33333 -50.55555 5.46000
v -61.33333 -36.55555 5.46000
v -44.00000 -42.00000 6.49333
v -28.00000 -42.00000 6.49333
v -12.00000 -42.00000 6.49333
v 4.00000 -42.00000 6.49333
v 20.00000 -42.00000 6.49333
v 36.00000 -42.00000 6.49333
v 52.00000 -42.00000 6.28667
v -52.00000 -28.00000 6.28667
v -36.00000 -28.00000 6.49333
v -20.00000 -28.00000 6.49333
v -4.00000 -28.00000 6.49333
v 12.00000 -28.00000 6.49333
v 28.00000 -28.00000 6.49333
v 44.00000 -28.00000 6.49333
v 61.33333 -22.55555 5.46000
v -61.33333 -8.55555 5.46000
v -44.00000 -14.00000 6.49333
v -28.00000 -14.00000 6.49333
v -12.00000 -14.00000 6.49333
v 4.00000 -14.00000 6.49333
v 20.00000 -14.00000 6.49333
v 36.00000 -14.00000 6.49333
v 52.00000 -14.00000 6.28667
v -52.00000 0.00000 6.28667
v -36.00000 0.00000 6.49333
v -20.00000 0.00000 6.49333
v -4.00000 0.00000 6.49333
v 12.00000 0.00000 6.49333
v 28.00000 0.00000 6.49333
v 44.00000 0.00000 6.49333
v 61.33333 5.44444 5.46000
v -61.33333 19.44444 5.46000
v -44.00000 14.00000 6.49333
v -28.00000 14.00000 6.49333
v -12.00000 14.00000 6.49333
v 4.00000 14.00000 6.49333
v 20.00000 14.00000 6.49333
v 36.00000 14.00000 6.49333
v 52.00000 14.00000 6.28667
v -52.00000 28.00000 6.28667
v -36.00000 28.00000 6.49333
v -20.00000 28.00000 6.49333
v -4.00000 28.00000 6.49333
v 12.00000 28.00000 6.49333
v 28.00000 28.00000 6.49333
v 44.00000 28.00000 6.49333
v 61.33333 33.44444 5.46000
v -61.33333 47.44445 5.46000
v -44.00000 42.00000 6.49333
v -28.00000 42.00000 6.49333
v -12.00000 42.00000 6.49333
v 4.00000 42.00000 6.49333
v 20.00000 42.00000 6.49333
v 36.00000 42.00000 6.49333
v 52.00000 42.00000 6.28667
v -52.00000 56.00000 6.28667
v -36.00000 56.00000 6.49333
v -20.00000 56.00000 6.49333
v -4.00000 56.00000 6.49333
v 12.00000 56.00000 6.49333
v 28.00000 56.00000 6.49333
v 44.00000 56.00000 6.49333
v 61.33333 61.44445 5.46000
v -44.00000 70.00000 6.49333
v -28.00000 70.00000 6.49333
v -12.00000 70.00000 6.49333
v 4.00000 70.00000 6.49333
v 20.00000 70.00000 6.49333
v 36.00000 70.00000 6.49333
v 52.00000 70.00000 6.28667
f 1 2 324
f 412 735 413
f 2 3 324
f 413 735 414
f 3 38 324
f 414 735 449
f 38 35 324
f 449 735 446
f 35 64 324
f 446 735 475
f 64 1 324
f 475 735 412
f 2 1 4
f 413 415 412
f 3 2 5
f 414 416 413
f 2 4 6
f 413 417 415
f 5 2 6
f 416 417 413
f 6 4 321
f 417 732 415
f 5 6 10
f 416 421 417
f 3 5 7
f 414 418 416
f 3 7 325
f 414 736 418
f 7 8 325
f 418 736 419
f 8 39 325
f 419 736 450
f 39 3 325
f 450 736 414
f 8 7 9
f 419 420 418
f 7 5 10
f 418 421 416
f 9 7 10
f 420 421 418
f 9 10 14
f 420 425 421
f 8 9 11
f 419 422 420
f 8 11 326
f 419 737 422
f 11 12 326
f 422 737 423
f 12 42 326
f 423 737 453
f 42 8 326
f 453 737 419
f 12 11 13
f 423 424 422
f 11 9 14
f 422 425 420
f 13 11 14
f 424 425 422
f 13 14 18
f 424 429 425
f 12 13 15
f 423 426 424
f 12 15 327
f 423 738 426
f 15 16 327
f 426 738 427
f 16 45 327
f 427 738 456
f 45 12 327
f 456 738 423
f 16 15 17
f 427 428 426
f 15 13 18
f 426 429 424
f 17 15 18
f 428 429 426
f 17 18 22
f 428 433 429
f 16 17 19
f 427 430 428
f 16 19 328
f 427 739 430
f 19 20 328
f 430 739 431
f 20 48 328
f 431 739 459
f 48 16 328
f 459 739 427
f 20 19 21
f 431 432 430
f 19 17 22
f 430 433 428
f 21 19 22
f 432 433 430
f 21 22 26
f 432 437 433
f 20 21 23
f 431 434 432
f 20 23 329
f 431 740 434
f 23 24 329
f 434 740 435
f 24 51 329
f 435 740 462
f 51 20 329
f 462 740 431
f 24 23 25
f 435 436 434
f 23 21 26
f 434 437 432
f 25 23 26
f 436 437 434
f 25 26 30
f 436 441 437
f 24 25 27
f 435 438 436
f 24 27 330
f 435 741 438
f 27 28 330
f 438 741 439
f 28 54 330
f 439 741 465
f 54 24 330
f 465 741 435
f 28 27 29
f 439 440 438
f 27 25 30
f 438 441 436
f 29 27 30
f 440 441 438
f 29 30 34
f 440 445 441
f 28 29 31
f 439 442 440
f 28 31 331
f 439 742 442
f 31 32 331
f 442 742 443
f 32 57 331
f 443 742 468
f 57 28 331
f 468 742 439
f 32 31 33
f 443 444 442
f 31 29 34
f 442 445 440
f 33 31 34
f 444 445 442
f 33 34 332
f 444 743 445
f 34 322 332
f 445 743 733
f 322 60 332
f 733 743 471
f 60 32 332
f 471 743 443
f 32 33 332
f 443 743 444
f 35 36 333
f 446 744 447
f 36 37 333
f 447 744 448
f 37 65 333
f 448 744 476
f 65 35 333
f 476 744 446
f 36 35 38
f 447 449 446
f 37 36 39
f 448 450 447
f 36 38 3
f 447 414 449
f 39 36 3
f 450 414 447
f 37 39 40
f 448 451 450
f 37 40 334
f 448 745 451
f 40 41 334
f 451 745 452
f 41 68 334
f 452 745 479
f 68 37 334
f 479 745 448
f 41 40 42
f 452 453 451
f 40 39 8
f 451 419 450
f 42 40 8
f 453 419 451
f 41 42 43
f 452 454 453
f 41 43 335
f 452 746 454
f 43 44 335
f 454 746 455
f 44 71 335
f 455 746 482
f 71 41 335
f 482 746 452
f 44 43 45
f 455 456 454
f 43 42 12
f 454 423 453
f 45 43 12
f 456 423 454
f 44 45 46
f 455 457 456
f 44 46 336
f 455 747 457
f 46 47 336
f 457 747 458
f 47 74 336
f 458 747 485
f 74 44 336
f 485 747 455
f 47 46 48
f 458 459 457
f 46 45 16
f 457 427 456
f 48 46 16
f 459 427 457
f 47 48 49
f 458 460 459
f 47 49 337
f 458 748 460
f 49 50 337
f 460 748 461
f 50 77 337
f 461 748 488
f 77 47 337
f 488 748 458
f 50 49 51
f 461 462 460
f 49 48 20
f 460 431 459
f 51 49 20
f 462 431 460
f 50 51 52
f 461 463 462
f 50 52 338
f 461 749 463
f 52 53 338
f 463 749 464
f 53 80 338
f 464 749 491
f 80 50 338
f 491 749 461
f 53 52 54
f 464 465 463
f 52 51 24
f 463 435 462
f 54 52 24
f 465 435 463
f 53 54 55
f 464 466 465
f 53 55 339
f 464 750 466
f 55 56 339
f 466 750 467
f 56 83 339
f 467 750 494
f 83 53 339
f 494 750 464
f 56 55 57
f 467 468 466
f 55 54 28
f 466 439 465
f 57 55 28
f 468 439 466
f 56 57 58
f 467 469 468
f 56 58 340
f 467 751 469
f 58 59 340
f 469 751 470
f 59 112 340
f 470 751 523
f 112 85 340
f 523 751 496
f 85 86 340
f 496 751 497
f 86 56 340
f 497 751 467
f 59 58 60
f 470 471 469
f 58 57 32
f 469 443 468
f 60 58 32
f 471 443 469
f 61 62 341
f 472 752 473
f 62 63 341
f 473 752 474
f 63 90 341
f 474 752 501
f 90 87 341
f 501 752 498
f 87 116 341
f 498 752 527
f 116 61 341
f 527 752 472
f 62 61 64
f 473 475 472
f 63 62 65
f 474 476 473
f 62 64 35
f 473 446 475
f 65 62 35
f 476 446 473
f 63 65 66
f 474 477 476
f 63 66 342
f 474 753 477
f 66 67 342
f 477 753 478
f 67 91 342
f 478 753 502
f 91 63 342
f 502 753 474
f 67 66 68
f 478 479 477
f 66 65 37
f 477 448 476
f 68 66 37
f 479 448 477
f 67 68 69
f 478 480 479
f 67 69 343
f 478 754 480
f 69 70 343
f 480 754 481
f 70 94 343
f 481 754 505
f 94 67 343
f 505 754 478
f 70 69 71
f 481 482 480
f 69 68 41
f 480 452 479
f 71 69 41
f 482 452 480
f 70 71 72
f 481 483 482
f 70 72 344
f 481 755 483
f 72 73 344
f 483 755 484
f 73 97 344
f 484 755 508
f 97 70 344
f 508 755 481
f 73 72 74
f 484 485 483
f 72 71 44
f 483 455 482
f 74 72 44
f 485 455 483
f 73 74 75
f 484 486 485
f 73 75 345
f 484 756 486
f 75 76 345
f 486 756 487
f 76 100 345
f 487 756 511
f 100 73 345
f 511 756 484
f 76 75 77
f 487 488 486
f 75 74 47
f 486 458 485
f 77 75 47
f 488 458 486
f 76 77 78
f 487 489 488
f 76 78 346
f 487 757 489
f 78 79 346
f 489 757 490
f 79 103 346
f 490 757 514
f 103 76 346
f 514 757 487
f 79 78 80
f 490 491 489
f 78 77 50
f 489 461 488
f 80 78 50
f 491 461 489
f 79 80 81
f 490 492 491
f 79 81 347
f 490 758 492
f 81 82 347
f 492 758 493
f 82 106 347
f 493 758 517
f 106 79 347
f 517 758 490
f 82 81 83
f 493 494 492
f 81 80 53
f 492 464 491
f 83 81 53
f 494 464 492
f 82 83 84
f 493 495 494
f 82 84 348
f 493 759 495
f 84 85 348
f 495 759 496
f 85 109 348
f 496 759 520
f 109 82 348
f 520 759 493
f 85 84 86
f 496 497 495
f 84 83 56
f 495 467 494
f 86 84 56
f 497 467 495
f 87 88 349
f 498 760 499
f 88 89 349
f 499 760 500
f 89 117 349
f 500 760 528
f 117 87 349
f 528 760 498
f 88 87 90
f 499 501 498
f 89 88 91
f 500 502 499
f 88 90 63
f 499 474 501
f 91 88 63
f 502 474 499
f 89 91 92
f 500 503 502
f 89 92 350
f 500 761 503
f 92 93 350
f 503 761 504
f 93 120 350
f 504 761 531
f 120 89 350
f 531 761 500
f 93 92 94
f 504 505 503
f 92 91 67
f 503 478 502
f 94 92 67
f 505 478 503
f 93 94 95
f 504 506 505
f 93 95 351
f 504 762 506
f 95 96 351
f 506 762 507
f 96 123 351
f 507 762 534
f 123 93 351
f 534 762 504
f 96 95 97
f 507 508 506
f 95 94 70
f 506 481 505
f 97 95 70
f 508 481 506
f 96 97 98
f 507 509 508
f 96 98 352
f 507 763 509
f 98 99 352
f 509 763 510
f 99 126 352
f 510 763 537
f 126 96 352
f 537 763 507
f 99 98 100
f 510 511 509
f 98 97 73
f 509 484 508
f 100 98 73
f 511 484 509
f 99 100 101
f 510 512 511
f 99 101 353
f 510 764 512
f 101 102 353
f 512 764 513
f 102 129 353
f 513 764 540
f 129 99 353
f 540 764 510
f 102 101 103
f 513 514 512
f 101 100 76
f 512 487 511
f 103 101 76
f 514 487 512
f 102 103 104
f 513 515 514
f 102 104 354
f 513 765 515
f 104 105 354
f 515 765 516
f 105 132 354
f 516 765 543
f 132 102 354
f 543 765 513
f 105 104 106
f 516 517 515
f 104 103 79
f 515 490 514
f 106 104 79
f 517 490 515
f 105 106 107
f 516 518 517
f 105 107 355
f 516 766 518
f 107 108 355
f 518 766 519
f 108 135 355
f 519 766 546
f 135 105 355
f 546 766 516
f 108 107 109
f 519 520 518
f 107 106 82
f 518 493 517
f 109 107 82
f 520 493 518
f 108 109 110
f 519 521 520
f 108 110 356
f 519 767 521
f 110 111 356
f 521 767 522
f 111 164 356
f 522 767 575
f 164 137 356
f 575 767 548
f 137 138 356
f 548 767 549
f 138 108 356
f 549 767 519
f 111 110 112
f 522 523 521
f 110 109 85
f 521 496 520
f 112 110 85
f 523 496 521
f 113 114 357
f 524 768 525
f 114 115 357
f 525 768 526
f 115 142 357
f 526 768 553
f 142 139 357
f 553 768 550
f 139 168 357
f 550 768 579
f 168 113 357
f 579 768 524
f 114 113 116
f 525 527 524
f 115 114 117
f 526 528 525
f 114 116 87
f 525 498 527
f 117 114 87
f 528 498 525
f 115 117 118
f 526 529 528
f 115 118 358
f 526 769 529
f 118 119 358
f 529 769 530
f 119 143 358
f 530 769 554
f 143 115 358
f 554 769 526
f 119 118 120
f 530 531 529
f 118 117 89
f 529 500 528
f 120 118 89
f 531 500 529
f 119 120 121
f 530 532 531
f 119 121 359
f 530 770 532
f 121 122 359
f 532 770 533
f 122 146 359
f 533 770 557
f 146 119 359
f 557 770 530
f 122 121 123
f 533 534 532
f 121 120 93
f 532 504 531
f 123 121 93
f 534 504 532
f 122 123 124
f 533 535 534
f 122 124 360
f 533 771 535
f 124 125 360
f 535 771 536
f 125 149 360
f 536 771 560
f 149 122 360
f 560 771 533
f 125 124 126
f 536 537 535
f 124 123 96
f 535 507 534
f 126 124 96
f 537 507 535
f 125 126 127
f 536 538 537
f 125 127 361
f 536 772 538
f 127 128 361
f 538 772 539
f 128 152 361
f 539 772 563
f 152 125 361
f 563 772 536
f 128 127 129
f 539 540 538
f 127 126 99
f 538 510 537
f 129 127 99
f 540 510 538
f 128 129 130
f 539 541 540
f 128 130 362
f 539 773 541
f 130 131 362
f 541 773 542
f 131 155 362
f 542 773 566
f 155 128 362
f 566 773 539
f 131 130 132
f 542 543 541
f 130 129 102
f 541 513 540
f 132 130 102
f 543 513 541
f 131 132 133
f 542 544 543
f 131 133 363
f 542 774 544
f 133 134 363
f 544 774 545
f 134 158 363
f 545 774 569
f 158 131 363
f 569 774 542
f 134 133 135
f 545 546 544
f 133 132 105
f 544 516 543
f 135 133 105
f 546 516 544
f 134 135 136
f 545 547 546
f 134 136 364
f 545 775 547
f 136 137 364
f 547 775 548
f 137 161 364
f 548 775 572
f 161 134 364
f 572 775 545
f 137 136 138
f 548 549 547
f 136 135 108
f 547 519 546
f 138 136 108
f 549 519 547
f 139 140 365
f 550 776 551
f 140 141 365
f 551 776 552
f 141 169 365
f 552 776 580
f 169 139 365
f 580 776 550
f 140 139 142
f 551 553 550
f 141 140 143
f 552 554 551
f 140 142 115
f 551 526 553
f 143 140 115
f 554 526 551
f 141 143 144
f 552 555 554
f 141 144 366
f 552 777 555
f 144 145 366
f 555 777 556
f 145 172 366
f 556 777 583
f 172 141 366
f 583 777 552
f 145 144 146
f 556 557 555
f 144 143 119
f 555 530 554
f 146 144 119
f 557 530 555
f 145 146 147
f 556 558 557
f 145 147 367
f 556 778 558
f 147 148 367
f 558 778 559
f 148 175 367
f 559 778 586
f 175 145 367
f 586 778 556
f 148 147 149
f 559 560 558
f 147 146 122
f 558 533 557
f 149 147 122
f 560 533 558
f 148 149 150
f 559 561 560
f 148 150 368
f 559 779 561
f 150 151 368
f 561 779 562
f 151 178 368
f 562 779 589
f 178 148 368
f 589 779 559
f 151 150 152
f 562 563 561
f 150 149 125
f 561 536 560
f 152 150 125
f 563 536 561
f 151 152 153
f 562 564 563
f 151 153 369
f 562 780 564
f 153 154 369
f 564 780 565
f 154 181 369
f 565 780 592
f 181 151 369
f 592 780 562
f 154 153 155
f 565 566 564
f 153 152 128
f 564 539 563
f 155 153 128
f 566 539 564
f 154 155 156
f 565 567 566
f 154 156 370
f 565 781 567
f 156 157 370
f 567 781 568
f 157 184 370
f 568 781 595
f 184 154 370
f 595 781 565
f 157 156 158
f 568 569 567
f 156 155 131
f 567 542 566
f 158 156 131
f 569 542 567
f 157 158 159
f 568 570 569
f 157 159 371
f 568 782 570
f 159 160 371
f 570 782 571
f 160 187 371
f 571 782 598
f 187 157 371
f 598 782 568
f 160 159 161
f 571 572 570
f 159 158 134
f 570 545 569
f 161 159 134
f 572 545 570
f 160 161 162
f 571 573 572
f 160 162 372
f 571 783 573
f 162 163 372
f 573 783 574
f 163 216 372
f 574 783 627
f 216 189 372
f 627 783 600
f 189 190 372
f 600 783 601
f 190 160 372
f 601 783 571
f 163 162 164
f 574 575 573
f 162 161 137
f 573 548 572
f 164 162 137
f 575 548 573
f 165 166 373
f 576 784 577
f 166 167 373
f 577 784 578
f 167 194 373
f 578 784 605
f 194 191 373
f 605 784 602
f 191 220 373
f 602 784 631
f 220 165 373
f 631 784 576
f 166 165 168
f 577 579 576
f 167 166 169
f 578 580 577
f 166 168 139
f 577 550 579
f 169 166 139
f 580 550 577
f 167 169 170
f 578 581 580
f 167 170 374
f 578 785 581
f 170 171 374
f 581 785 582
f 171 195 374
f 582 785 606
f 195 167 374
f 606 785 578
f 171 170 172
f 582 583 581
f 170 169 141
f 581 552 580
f 172 170 141
f 583 552 581
f 171 172 173
f 582 584 583
f 171 173 375
f 582 786 584
f 173 174 375
f 584 786 585
f 174 198 375
f 585 786 609
f 198 171 375
f 609 786 582
f 174 173 175
f 585 586 584
f 173 172 145
f 584 556 583
f 175 173 145
f 586 556 584
f 174 175 176
f 585 587 586
f 174 176 376
f 585 787 587
f 176 177 376
f 587 787 588
f 177 201 376
f 588 787 612
f 201 174 376
f 612 787 585
f 177 176 178
f 588 589 587
f 176 175 148
f 587 559 586
f 178 176 148
f 589 559 587
f 177 178 179
f 588 590 589
f 177 179 377
f 588 788 590
f 179 180 377
f 590 788 591
f 180 204 377
f 591 788 615
f 204 177 377
f 615 788 588
f 180 179 181
f 591 592 590
f 179 178 151
f 590 562 589
f 181 179 151
f 592 562 590
f 180 181 182
f 591 593 592
f 180 182 378
f 591 789 593
f 182 183 378
f 593 789 594
f 183 207 378
f 594 789 618
f 207 180 378
f 618 789 591
f 183 182 184
f 594 595 593
f 182 181 154
f 593 565 592
f 184 182 154
f 595 565 593
f 183 184 185
f 594 596 595
f 183 185 379
f 594 790 596
f 185 186 379
f 596 790 597
f 186 210 379
f 597 790 621
f 210 183 379
f 621 790 594
f 186 185 187
f 597 598 596
f 185 184 157
f 596 568 595
f 187 185 157
f 598 568 596
f 186 187 188
f 597 599 598
f 186 188 380
f 597 791 599
f 188 189 380
f 599 791 600
f 189 213 380
f 600 791 624
f 213 186 380
f 624 791 597
f 189 188 190
f 600 601 599
f 188 187 160
f 599 571 598
f 190 188 160
f 601 571 599
f 191 192 381
f 602 792 603
f 192 193 381
f 603 792 604
f 193 221 381
f 604 792 632
f 221 191 381
f 632 792 602
f 192 191 194
f 603 605 602
f 193 192 195
f 604 606 603
f 192 194 167
f 603 578 605
f 195 192 167
f 606 578 603
f 193 195 196
f 604 607 606
f 193 196 382
f 604 793 607
f 196 197 382
f 607 793 608
f 197 224 382
f 608 793 635
f 224 193 382
f 635 793 604
f 197 196 198
f 608 609 607
f 196 195 171
f 607 582 606
f 198 196 171
f 609 582 607
f 197 198 199
f 608 610 609
f 197 199 383
f 608 794 610
f 199 200 383
f 610 794 611
f 200 227 383
f 611 794 638
f 227 197 383
f 638 794 608
f 200 199 201
f 611 612 610
f 199 198 174
f 610 585 609
f 201 199 174
f 612 585 610
f 200 201 202
f 611 613 612
f 200 202 384
f 611 795 613
f 202 203 384
f 613 795 614
f 203 230 384
f 614 795 641
f 230 200 384
f 641 795 611
f 203 202 204
f 614 615 613
f 202 201 177
f 613 588 612
f 204 202 177
f 615 588 613
f 203 204 205
f 614 616 615
f 203 205 385
f 614 796 616
f 205 206 385
f 616 796 617
f 206 233 385
f 617 796 644
f 233 203 385
f 644 796 614
f 206 205 207
f 617 618 616
f 205 204 180
f 616 591 615
f 207 205 180
f 618 591 616
f 206 207 208
f 617 619 618
f 206 208 386
f 617 797 619
f 208 209 386
f 619 797 620
f 209 236 386
f 620 797 647
f 236 206 386
f 647 797 617
f 209 208 210
f 620 621 619
f 208 207 183
f 619 594 618
f 210 208 183
f 621 594 619
f 209 210 211
f 620 622 621
f 209 211 387
f 620 798 622
f 211 212 387
f 622 798 623
f 212 239 387
f 623 798 650
f 239 209 387
f 650 798 620
f 212 211 213
f 623 624 622
f 211 210 186
f 622 597 621
f 213 211 186
f 624 597 622
f 212 213 214
f 623 625 624
f 212 214 388
f 623 799 625
f 214 215 388
f 625 799 626
f 215 268 388
f 626 799 679
f 268 241 388
f 679 799 652
f 241 242 388
f 652 799 653
f 242 212 388
f 653 799 623
f 215 214 216
f 626 627 625
f 214 213 189
f 625 600 624
f 216 214 189
f 627 600 625
f 217 218 389
f 628 800 629
f 218 219 389
f 629 800 630
f 219 246 389
f 630 800 657
f 246 243 389
f 657 800 654
f 243 272 389
f 654 800 683
f 272 217 389
f 683 800 628
f 218 217 220
f 629 631 628
f 219 218 221
f 630 632 629
f 218 220 191
f 629 602 631
f 221 218 191
f 632 602 629
f 219 221 222
f 630 633 632
f 219 222 390
f 630 801 633
f 222 223 390
f 633 801 634
f 223 247 390
f 634 801 658
f 247 219 390
f 658 801 630
f 223 222 224
f 634 635 633
f 222 221 193
f 633 604 632
f 224 222 193
f 635 604 633
f 223 224 225
f 634 636 635
f 223 225 391
f 634 802 636
f 225 226 391
f 636 802 637
f 226 250 391
f 637 802 661
f 250 223 391
f 661 802 634
f 226 225 227
f 637 638 636
f 225 224 197
f 636 608 635
f 227 225 197
f 638 608 636
f 226 227 228
f 637 639 638
f 226 228 392
f 637 803 639
f 228 229 392
f 639 803 640
f 229 253 392
f 640 803 664
f 253 226 392
f 664 803 637
f 229 228 230
f 640 641 639
f 228 227 200
f 639 611 638
f 230 228 200
f 641 611 639
f 229 230 231
f 640 642 641
f 229 231 393
f 640 804 642
f 231 232 393
f 642 804 643
f 232 256 393
f 643 804 667
f 256 229 393
f 667 804 640
f 232 231 233
f 643 644 642
f 231 230 203
f 642 614 641
f 233 231 203
f 644 614 642
f 232 233 234
f 643 645 644
f 232 234 394
f 643 805 645
f 234 235 394
f 645 805 646
f 235 259 394
f 646 805 670
f 259 232 394
f 670 805 643
f 235 234 236
f 646 647 645
f 234 233 206
f 645 617 644
f 236 234 206
f 647 617 645
f 235 236 237
f 646 648 647
f 235 237 395
f 646 806 648
f 237 238 395
f 648 806 649
f 238 262 395
f 649 806 673
f 262 235 395
f 673 806 646
f 238 237 239
f 649 650 648
f 237 236 209
f 648 620 647
f 239 237 209
f 650 620 648
f 238 239 240
f 649 651 650
f 238 240 396
f 649 807 651
f 240 241 396
f 651 807 652
f 241 265 396
f 652 807 676
f 265 238 396
f 676 807 649
f 241 240 242
f 652 653 651
f 240 239 212
f 651 623 650
f 242 240 212
f 653 623 651
f 243 244 397
f 654 808 655
f 244 245 397
f 655 808 656
f 245 273 397
f 656 808 684
f 273 243 397
f 684 808 654
f 244 243 246
f 655 657 654
f 245 244 247
f 656 658 655
f 244 246 219
f 655 630 657
f 247 244 219
f 658 630 655
f 245 247 248
f 656 659 658
f 245 248 398
f 656 809 659
f 248 249 398
f 659 809 660
f 249 276 398
f 660 809 687
f 276 245 398
f 687 809 656
f 249 248 250
f 660 661 659
f 248 247 223
f 659 634 658
f 250 248 223
f 661 634 659
f 249 250 251
f 660 662 661
f 249 251 399
f 660 810 662
f 251 252 399
f 662 810 663
f 252 279 399
f 663 810 690
f 279 249 399
f 690 810 660
f 252 251 253
f 663 664 662
f 251 250 226
f 662 637 661
f 253 251 226
f 664 637 662
f 252 253 254
f 663 665 664
f 252 254 400
f 663 811 665
f 254 255 400
f 665 811 666
f 255 282 400
f 666 811 693
f 282 252 400
f 693 811 663
f 255 254 256
f 666 667 665
f 254 253 229
f 665 640 664
f 256 254 229
f 667 640 665
f 255 256 257
f 666 668 667
f 255 257 401
f 666 812 668
f 257 258 401
f 668 812 669
f 258 285 401
f 669 812 696
f 285 255 401
f 696 812 666
f 258 257 259
f 669 670 668
f 257 256 232
f 668 643 667
f 259 257 232
f 670 643 668
f 258 259 260
f 669 671 670
f 258 260 402
f 669 813 671
f 260 261 402
f 671 813 672
f 261 288 402
f 672 813 699
f 288 258 402
f 699 813 669
f 261 260 262
f 672 673 671
f 260 259 235
f 671 646 670
f 262 260 235
f 673 646 671
f 261 262 263
f 672 674 673
f 261 263 403
f 672 814 674
f 263 264 403
f 674 814 675
f 264 291 403
f 675 814 702
f 291 261 403
f 702 814 672
f 264 263 265
f 675 676 674
f 263 262 238
f 674 649 673
f 265 263 238
f 676 649 674
f 264 265 266
f 675 677 676
f 264 266 404
f 675 815 677
f 266 267 404
f 677 815 678
f 267 320 404
f 678 815 731
f 320 293 404
f 731 815 704
f 293 294 404
f 704 815 705
f 294 264 404
f 705 815 675
f 267 266 268
f 678 679 677
f 266 265 241
f 677 652 676
f 268 266 241
f 679 652 677
f 269 270 271
f 680 682 681
f 269 271 298
f 680 709 682
f 269 298 295
f 680 706 709
f 269 295 323
f 680 734 706
f 270 269 272
f 681 683 680
f 271 270 273
f 682 684 681
f 270 272 243
f 681 654 683
f 273 270 243
f 684 654 681
f 271 273 274
f 682 685 684
f 271 274 405
f 682 816 685
f 274 275 405
f 685 816 686
f 275 299 405
f 686 816 710
f 299 271 405
f 710 816 682
f 275 274 276
f 686 687 685
f 274 273 245
f 685 656 684
f 276 274 245
f 687 656 685
f 275 276 277
f 686 688 687
f 275 277 406
f 686 817 688
f 277 278 406
f 688 817 689
f 278 302 406
f 689 817 713
f 302 275 406
f 713 817 686
f 278 277 279
f 689 690 688
f 277 276 249
f 688 660 687
f 279 277 249
f 690 660 688
f 278 279 280
f 689 691 690
f 278 280 407
f 689 818 691
f 280 281 407
f 691 818 692
f 281 305 407
f 692 818 716
f 305 278 407
f 716 818 689
f 281 280 282
f 692 693 691
f 280 279 252
f 691 663 690
f 282 280 252
f 693 663 691
f 281 282 283
f 692 694 693
f 281 283 408
f 692 819 694
f 283 284 408
f 694 819 695
f 284 308 408
f 695 819 719
f 308 281 408
f 719 819 692
f 284 283 285
f 695 696 694
f 283 282 255
f 694 666 693
f 285 283 255
f 696 666 694
f 284 285 286
f 695 697 696
f 284 286 409
f 695 820 697
f 286 287 409
f 697 820 698
f 287 311 409
f 698 820 722
f 311 284 409
f 722 820 695
f 287 286 288
f 698 699 697
f 286 285 258
f 697 669 696
f 288 286 258
f 699 669 697
f 287 288 289
f 698 700 699
f 287 289 410
f 698 821 700
f 289 290 410
f 700 821 701
f 290 314 410
f 701 821 725
f 314 287 410
f 725 821 698
f 290 289 291
f 701 702 700
f 289 288 261
f 700 672 699
f 291 289 261
f 702 672 700
f 290 291 292
f 701 703 702
f 290 292 411
f 701 822 703
f 292 293 411
f 703 822 704
f 293 317 411
f 704 822 728
f 317 290 411
f 728 822 701
f 293 292 294
f 704 705 703
f 292 291 264
f 703 675 702
f 294 292 264
f 705 675 703
f 295 296 297
f 706 708 707
f 296 295 298
f 707 709 706
f 297 296 299
f 708 710 707
f 296 298 271
f 707 682 709
f 299 296 271
f 710 682 707
f 297 299 300
f 708 711 710
f 297 300 301
f 708 712 711
f 301 300 302
f 712 713 711
f 300 299 275
f 711 686 710
f 302 300 275
f 713 686 711
f 301 302 303
f 712 714 713
f 301 303 304
f 712 715 714
f 304 303 305
f 715 716 714
f 303 302 278
f 714 689 713
f 305 303 278
f 716 689 714
f 304 305 306
f 715 717 716
f 304 306 307
f 715 718 717
f 307 306 308
f 718 719 717
f 306 305 281
f 717 692 716
f 308 306 281
f 719 692 717
f 307 308 309
f 718 720 719
f 307 309 310
f 718 721 720
f 310 309 311
f 721 722 720
f 309 308 284
f 720 695 719
f 311 309 284
f 722 695 720
f 310 311 312
f 721 723 722
f 310 312 313
f 721 724 723
f 313 312 314
f 724 725 723
f 312 311 287
f 723 698 722
f 314 312 287
f 725 698 723
f 313 314 315
f 724 726 725
f 313 315 316
f 724 727 726
f 316 315 317
f 727 728 726
f 315 314 290
f 726 701 725
f 317 315 290
f 728 701 726
f 316 317 318
f 727 729 728
f 316 318 319
f 727 730 729
f 319 318 320
f 730 731 729
f 318 317 293
f 729 704 728
f 320 318 293
f 731 704 729
f 321 6 417
f 321 417 732
f 6 10 421
f 6 421 417
f 10 14 425
f 10 425 421
f 14 18 429
f 14 429 425
f 18 22 433
f 18 433 429
f 22 26 437
f 22 437 433
f 26 30 441
f 26 441 437
f 30 34 445
f 30 445 441
f 34 322 733
f 34 733 445
f 322 60 471
f 322 471 733
f 60 59 470
f 60 470 471
f 59 112 523
f 59 523 470
f 112 111 522
f 112 522 523
f 111 164 575
f 111 575 522
f 164 163 574
f 164 574 575
f 163 216 627
f 163 627 574
f 216 215 626
f 216 626 627
f 215 268 679
f 215 679 626
f 268 267 678
f 268 678 679
f 267 320 731
f 267 731 678
f 320 319 730
f 320 730 731
f 319 316 727
f 319 727 730
f 316 313 724
f 316 724 727
f 313 310 721
f 313 721 724
f 310 307 718
f 310 718 721
f 307 304 715
f 307 715 718
f 304 301 712
f 304 712 715
f 301 297 708
f 301 708 712
f 297 295 706
f 297 706 708
f 295 323 734
f 295 734 706
f 323 269 680
f 323 680 734
f 269 272 683
f 269 683 680
f 272 217 628
f 272 628 683
f 217 220 631
f 217 631 628
f 220 165 576
f 220 576 631
f 165 168 579
f 165 579 576
f 168 113 524
f 168 524 579
f 113 116 527
f 113 527 524
f 116 61 472
f 116 472 527
f 61 64 475
f 61 475 472
f 64 1 412
f 64 412 475
f 1 4 415
f 1 415 412
f 4 321 732
f 4 732 415
