# Bellows Diecut flat pattern: yoshimura_tile
# width=136.000 height=168.000 (mm)
v 0.00000 14.00000 0.0
v 8.00000 9.33333 0.0
v 16.00000 14.00000 0.0
v 0.00000 4.66667 0.0
v 16.00000 4.66667 0.0
v 8.00000 0.00000 0.0
v 24.00000 9.33333 0.0
v 32.00000 14.00000 0.0
v 32.00000 4.66667 0.0
v 24.00000 0.00000 0.0
v 40.00000 9.33333 0.0
v 48.00000 14.00000 0.0
v 48.00000 4.66667 0.0
v 40.00000 0.00000 0.0
v 56.00000 9.33333 0.0
v 64.00000 14.00000 0.0
v 64.00000 4.66667 0.0
v 56.00000 0.00000 0.0
v 72.00000 9.33333 0.0
v 80.00000 14.00000 0.0
v 80.00000 4.66667 0.0
v 72.00000 0.00000 0.0
v 88.00000 9.33333 0.0
v 96.00000 14.00000 0.0
v 96.00000 4.66667 0.0
v 88.00000 0.00000 0.0
v 104.00000 9.33333 0.0
v 112.00000 14.00000 0.0
v 112.00000 4.66667 0.0
v 104.00000 0.00000 0.0
v 120.00000 9.33333 0.0
v 128.00000 14.00000 0.0
v 128.00000 4.66667 0.0
v 120.00000 0.00000 0.0
v 8.00000 28.00000 0.0
v 16.00000 23.33333 0.0
v 24.00000 28.00000 0.0
v 8.00000 18.66667 0.0
v 24.00000 18.66667 0.0
v 32.00000 23.33333 0.0
v 40.00000 28.00000 0.0
v 40.00000 18.66667 0.0
v 48.00000 23.33333 0.0
v 56.00000 28.00000 0.0
v 56.00000 18.66667 0.0
v 64.00000 23.33333 0.0
v 72.00000 28.00000 0.0
v 72.00000 18.66667 0.0
v 80.00000 23.33333 0.0
v 88.00000 28.00000 0.0
v 88.00000 18.66667 0.0
v 96.00000 23.33333 0.0
v 104.00000 28.00000 0.0
v 104.00000 18.66667 0.0
v 112.00000 23.33333 0.0
v 120.00000 28.00000 0.0
v 120.00000 18.66667 0.0
v 128.00000 23.33333 0.0
v 136.00000 28.00000 0.0
v 136.00000 18.66667 0.0
v 0.00000 42.00000 0.0
v 8.00000 37.33333 0.0
v 16.00000 42.00000 0.0
v 0.00000 32.66667 0.0
v 16.00000 32.66667 0.0
v 24.00000 37.33333 0.0
v 32.00000 42.00000 0.0
v 32.00000 32.66667 0.0
v 40.00000 37.33333 0.0
v 48.00000 42.00000 0.0
v 48.00000 32.66667 0.0
v 56.00000 37.33333 0.0
v 64.00000 42.00000 0.0
v 64.00000 32.66667 0.0
v 72.00000 37.33333 0.0
v 80.00000 42.00000 0.0
v 80.00000 32.66667 0.0
v 88.00000 37.33333 0.0
v 96.00000 42.00000 0.0
v 96.00000 32.66667 0.0
v 104.00000 37.33333 0.0
v 112.00000 42.00000 0.0
v 112.00000 32.66667 0.0
v 120.00000 37.33333 0.0
v 128.00000 42.00000 0.0
v 128.00000 32.66667 0.0
v 8.00000 56.00000 0.0
v 16.00000 51.33333 0.0
v 24.00000 56.00000 0.0
v 8.00000 46.66667 0.0
v 24.00000 46.66667 0.0
v 32.00000 51.33333 0.0
v 40.00000 56.00000 0.0
v 40.00000 46.66667 0.0
v 48.00000 51.33333 0.0
v 56.00000 56.00000 0.0
v 56.00000 46.66667 0.0
v 64.00000 51.33333 0.0
v 72.00000 56.00000 0.0
v 72.00000 46.66667 0.0
v 80.00000 51.33333 0.0
v 88.00000 56.00000 0.0
v 88.00000 46.66667 0.0
v 96.00000 51.33333 0.0
v 104.00000 56.00000 0.0
v 104.00000 46.66667 0.0
v 112.00000 51.33333 0.0
v 120.00000 56.00000 0.0
v 120.00000 46.66667 0.0
v 128.00000 51.33333 0.0
v 136.00000 56.00000 0.0
v 136.00000 46.66667 0.0
v 0.00000 70.00000 0.0
v 8.00000 65.33333 0.0
v 16.00000 70.00000 0.0
v 0.00000 60.66667 0.0
v 16.00000 60.66667 0.0
v 24.00000 65.33333 0.0
v 32.00000 70.00000 0.0
v 32.00000 60.66667 0.0
v 40.00000 65.33333 0.0
v 48.00000 70.00000 0.0
v 48.00000 60.66667 0.0
v 56.00000 65.33333 0.0
v 64.00000 70.00000 0.0
v 64.00000 60.66667 0.0
v 72.00000 65.33333 0.0
v 80.00000 70.00000 0.0
v 80.00000 60.66667 0.0
v 88.00000 65.33333 0.0
v 96.00000 70.00000 0.0
v 96.00000 60.66667 0.0
v 104.00000 65.33333 0.0
v 112.00000 70.00000 0.0
v 112.00000 60.66667 0.0
v 120.00000 65.33333 0.0
v 128.00000 70.00000 0.0
v 128.00000 60.66667 0.0
v 8.00000 84.00000 0.0
v 16.00000 79.33333 0.0
v 24.00000 84.00000 0.0
v 8.00000 74.66667 0.0
v 24.00000 74.66667 0.0
v 32.00000 79.33333 0.0
v 40.00000 84.00000 0.0
v 40.00000 74.66667 0.0
v 48.00000 79.33333 0.0
v 56.00000 84.00000 0.0
v 56.00000 74.66667 0.0
v 64.00000 79.33333 0.0
v 72.00000 84.00000 0.0
v 72.00000 74.66667 0.0
v 80.00000 79.33333 0.0
v 88.00000 84.00000 0.0
v 88.00000 74.66667 0.0
v 96.00000 79.33333 0.0
v 104.00000 84.00000 0.0
v 104.00000 74.66667 0.0
v 112.00000 79.33333 0.0
v 120.00000 84.00000 0.0
v 120.00000 74.66667 0.0
v 128.00000 79.33333 0.0
v 136.00000 84.00000 0.0
v 136.00000 74.66667 0.0
v 0.00000 98.00000 0.0
v 8.00000 93.33333 0.0
v 16.00000 98.00000 0.0
v 0.00000 88.66667 0.0
v 16.00000 88.66667 0.0
v 24.00000 93.33333 0.0
v 32.00000 98.00000 0.0
v 32.00000 88.66667 0.0
v 40.00000 93.33333 0.0
v 48.00000 98.00000 0.0
v 48.00000 88.66667 0.0
v 56.00000 93.33333 0.0
v 64.00000 98.00000 0.0
v 64.00000 88.66667 0.0
v 72.00000 93.33333 0.0
v 80.00000 98.00000 0.0
v 80.00000 88.66667 0.0
v 88.00000 93.33333 0.0
v 96.00000 98.00000 0.0
v 96.00000 88.66667 0.0
v 104.00000 93.33333 0.0
v 112.00000 98.00000 0.0
v 112.00000 88.66667 0.0
v 120.00000 93.33333 0.0
v 128.00000 98.00000 0.0
v 128.00000 88.66667 0.0
v 8.00000 112.00000 0.0
v 16.00000 107.33333 0.0
v 24.00000 112.00000 0.0
v 8.00000 102.66667 0.0
v 24.00000 102.66667 0.0
v 32.00000 107.33333 0.0
v 40.00000 112.00000 0.0
v 40.00000 102.66667 0.0
v 48.00000 107.33333 0.0
v 56.00000 112.00000 0.0
v 56.00000 102.66667 0.0
v 64.00000 107.33333 0.0
v 72.00000 112.00000 0.0
v 72.00000 102.66667 0.0
v 80.00000 107.33333 0.0
v 88.00000 112.00000 0.0
v 88.00000 102.66667 0.0
v 96.00000 107.33333 0.0
v 104.00000 112.00000 0.0
v 104.00000 102.66667 0.0
v 112.00000 107.33333 0.0
v 120.00000 112.00000 0.0
v 120.00000 102.66667 0.0
v 128.00000 107.33333 0.0
v 136.00000 112.00000 0.0
v 136.00000 102.66667 0.0
v 0.00000 126.00000 0.0
v 8.00000 121.33333 0.0
v 16.00000 126.00000 0.0
v 0.00000 116.66667 0.0
v 16.00000 116.66667 0.0
v 24.00000 121.33333 0.0
v 32.00000 126.00000 0.0
v 32.00000 116.66667 0.0
v 40.00000 121.33333 0.0
v 48.00000 126.00000 0.0
v 48.00000 116.66667 0.0
v 56.00000 121.33333 0.0
v 64.00000 126.00000 0.0
v 64.00000 116.66667 0.0
v 72.00000 121.33333 0.0
v 80.00000 126.00000 0.0
v 80.00000 116.66667 0.0
v 88.00000 121.33333 0.0
v 96.00000 126.00000 0.0
v 96.00000 116.66667 0.0
v 104.00000 121.33333 0.0
v 112.00000 126.00000 0.0
v 112.00000 116.66667 0.0
v 120.00000 121.33333 0.0
v 128.00000 126.00000 0.0
v 128.00000 116.66667 0.0
v 8.00000 140.00000 0.0
v 16.00000 135.33333 0.0
v 24.00000 140.00000 0.0
v 8.00000 130.66667 0.0
v 24.00000 130.66667 0.0
v 32.00000 135.33333 0.0
v 40.00000 140.00000 0.0
v 40.00000 130.66667 0.0
v 48.00000 135.33333 0.0
v 56.00000 140.00000 0.0
v 56.00000 130.66667 0.0
v 64.00000 135.33333 0.0
v 72.00000 140.00000 0.0
v 72.00000 130.66667 0.0
v 80.00000 135.33333 0.0
v 88.00000 140.00000 0.0
v 88.00000 130.66667 0.0
v 96.00000 135.33333 0.0
v 104.00000 140.00000 0.0
v 104.00000 130.66667 0.0
v 112.00000 135.33333 0.0
v 120.00000 140.00000 0.0
v 120.00000 130.66667 0.0
v 128.00000 135.33333 0.0
v 136.00000 140.00000 0.0
v 136.00000 130.66667 0.0
v 0.00000 154.00000 0.0
v 8.00000 149.33333 0.0
v 16.00000 154.00000 0.0
v 0.00000 144.66667 0.0
v 16.00000 144.66667 0.0
v 24.00000 149.33333 0.0
v 32.00000 154.00000 0.0
v 32.00000 144.66667 0.0
v 40.00000 149.33333 0.0
v 48.00000 154.00000 0.0
v 48.00000 144.66667 0.0
v 56.00000 149.33333 0.0
v 64.00000 154.00000 0.0
v 64.00000 144.66667 0.0
v 72.00000 149.33333 0.0
v 80.00000 154.00000 0.0
v 80.00000 144.66667 0.0
v 88.00000 149.33333 0.0
v 96.00000 154.00000 0.0
v 96.00000 144.66667 0.0
v 104.00000 149.33333 0.0
v 112.00000 154.00000 0.0
v 112.00000 144.66667 0.0
v 120.00000 149.33333 0.0
v 128.00000 154.00000 0.0
v 128.00000 144.66667 0.0
v 8.00000 168.00000 0.0
v 16.00000 163.33333 0.0
v 24.00000 168.00000 0.0
v 8.00000 158.66667 0.0
v 24.00000 158.66667 0.0
v 32.00000 163.33333 0.0
v 40.00000 168.00000 0.0
v 40.00000 158.66667 0.0
v 48.00000 163.33333 0.0
v 56.00000 168.00000 0.0
v 56.00000 158.66667 0.0
v 64.00000 163.33333 0.0
v 72.00000 168.00000 0.0
v 72.00000 158.66667 0.0
v 80.00000 163.33333 0.0
v 88.00000 168.00000 0.0
v 88.00000 158.66667 0.0
v 96.00000 163.33333 0.0
v 104.00000 168.00000 0.0
v 104.00000 158.66667 0.0
v 112.00000 163.33333 0.0
v 120.00000 168.00000 0.0
v 120.00000 158.66667 0.0
v 128.00000 163.33333 0.0
v 136.00000 168.00000 0.0
v 136.00000 158.66667 0.0
v 0.00000 0.00000 0.0
v 136.00000 0.00000 0.0
v 0.00000 168.00000 0.0
g mountain
l 1 2
l 3 2
l 2 4
l 2 5
l 4 6
l 5 6
l 3 7
l 8 7
l 7 5
l 7 9
l 5 10
l 9 10
l 8 11
l 12 11
l 11 9
l 11 13
l 9 14
l 13 14
l 12 15
l 16 15
l 15 13
l 15 17
l 13 18
l 17 18
l 16 19
l 20 19
l 19 17
l 19 21
l 17 22
l 21 22
l 20 23
l 24 23
l 23 21
l 23 25
l 21 26
l 25 26
l 24 27
l 28 27
l 27 25
l 27 29
l 25 30
l 29 30
l 28 31
l 32 31
l 31 29
l 31 33
l 29 34
l 33 34
l 35 36
l 37 36
l 36 38
l 36 39
l 38 3
l 39 3
l 37 40
l 41 40
l 40 39
l 40 42
l 39 8
l 42 8
l 41 43
l 44 43
l 43 42
l 43 45
l 42 12
l 45 12
l 44 46
l 47 46
l 46 45
l 46 48
l 45 16
l 48 16
l 47 49
l 50 49
l 49 48
l 49 51
l 48 20
l 51 20
l 50 52
l 53 52
l 52 51
l 52 54
l 51 24
l 54 24
l 53 55
l 56 55
l 55 54
l 55 57
l 54 28
l 57 28
l 56 58
l 59 58
l 58 57
l 58 60
l 57 32
l 60 32
l 61 62
l 63 62
l 62 64
l 62 65
l 64 35
l 65 35
l 63 66
l 67 66
l 66 65
l 66 68
l 65 37
l 68 37
l 67 69
l 70 69
l 69 68
l 69 71
l 68 41
l 71 41
l 70 72
l 73 72
l 72 71
l 72 74
l 71 44
l 74 44
l 73 75
l 76 75
l 75 74
l 75 77
l 74 47
l 77 47
l 76 78
l 79 78
l 78 77
l 78 80
l 77 50
l 80 50
l 79 81
l 82 81
l 81 80
l 81 83
l 80 53
l 83 53
l 82 84
l 85 84
l 84 83
l 84 86
l 83 56
l 86 56
l 87 88
l 89 88
l 88 90
l 88 91
l 90 63
l 91 63
l 89 92
l 93 92
l 92 91
l 92 94
l 91 67
l 94 67
l 93 95
l 96 95
l 95 94
l 95 97
l 94 70
l 97 70
l 96 98
l 99 98
l 98 97
l 98 100
l 97 73
l 100 73
l 99 101
l 102 101
l 101 100
l 101 103
l 100 76
l 103 76
l 102 104
l 105 104
l 104 103
l 104 106
l 103 79
l 106 79
l 105 107
l 108 107
l 107 106
l 107 109
l 106 82
l 109 82
l 108 110
l 111 110
l 110 109
l 110 112
l 109 85
l 112 85
l 113 114
l 115 114
l 114 116
l 114 117
l 116 87
l 117 87
l 115 118
l 119 118
l 118 117
l 118 120
l 117 89
l 120 89
l 119 121
l 122 121
l 121 120
l 121 123
l 120 93
l 123 93
l 122 124
l 125 124
l 124 123
l 124 126
l 123 96
l 126 96
l 125 127
l 128 127
l 127 126
l 127 129
l 126 99
l 129 99
l 128 130
l 131 130
l 130 129
l 130 132
l 129 102
l 132 102
l 131 133
l 134 133
l 133 132
l 133 135
l 132 105
l 135 105
l 134 136
l 137 136
l 136 135
l 136 138
l 135 108
l 138 108
l 139 140
l 141 140
l 140 142
l 140 143
l 142 115
l 143 115
l 141 144
l 145 144
l 144 143
l 144 146
l 143 119
l 146 119
l 145 147
l 148 147
l 147 146
l 147 149
l 146 122
l 149 122
l 148 150
l 151 150
l 150 149
l 150 152
l 149 125
l 152 125
l 151 153
l 154 153
l 153 152
l 153 155
l 152 128
l 155 128
l 154 156
l 157 156
l 156 155
l 156 158
l 155 131
l 158 131
l 157 159
l 160 159
l 159 158
l 159 161
l 158 134
l 161 134
l 160 162
l 163 162
l 162 161
l 162 164
l 161 137
l 164 137
l 165 166
l 167 166
l 166 168
l 166 169
l 168 139
l 169 139
l 167 170
l 171 170
l 170 169
l 170 172
l 169 141
l 172 141
l 171 173
l 174 173
l 173 172
l 173 175
l 172 145
l 175 145
l 174 176
l 177 176
l 176 175
l 176 178
l 175 148
l 178 148
l 177 179
l 180 179
l 179 178
l 179 181
l 178 151
l 181 151
l 180 182
l 183 182
l 182 181
l 182 184
l 181 154
l 184 154
l 183 185
l 186 185
l 185 184
l 185 187
l 184 157
l 187 157
l 186 188
l 189 188
l 188 187
l 188 190
l 187 160
l 190 160
l 191 192
l 193 192
l 192 194
l 192 195
l 194 167
l 195 167
l 193 196
l 197 196
l 196 195
l 196 198
l 195 171
l 198 171
l 197 199
l 200 199
l 199 198
l 199 201
l 198 174
l 201 174
l 200 202
l 203 202
l 202 201
l 202 204
l 201 177
l 204 177
l 203 205
l 206 205
l 205 204
l 205 207
l 204 180
l 207 180
l 206 208
l 209 208
l 208 207
l 208 210
l 207 183
l 210 183
l 209 211
l 212 211
l 211 210
l 211 213
l 210 186
l 213 186
l 212 214
l 215 214
l 214 213
l 214 216
l 213 189
l 216 189
l 217 218
l 219 218
l 218 220
l 218 221
l 220 191
l 221 191
l 219 222
l 223 222
l 222 221
l 222 224
l 221 193
l 224 193
l 223 225
l 226 225
l 225 224
l 225 227
l 224 197
l 227 197
l 226 228
l 229 228
l 228 227
l 228 230
l 227 200
l 230 200
l 229 231
l 232 231
l 231 230
l 231 233
l 230 203
l 233 203
l 232 234
l 235 234
l 234 233
l 234 236
l 233 206
l 236 206
l 235 237
l 238 237
l 237 236
l 237 239
l 236 209
l 239 209
l 238 240
l 241 240
l 240 239
l 240 242
l 239 212
l 242 212
l 243 244
l 245 244
l 244 246
l 244 247
l 246 219
l 247 219
l 245 248
l 249 248
l 248 247
l 248 250
l 247 223
l 250 223
l 249 251
l 252 251
l 251 250
l 251 253
l 250 226
l 253 226
l 252 254
l 255 254
l 254 253
l 254 256
l 253 229
l 256 229
l 255 257
l 258 257
l 257 256
l 257 259
l 256 232
l 259 232
l 258 260
l 261 260
l 260 259
l 260 262
l 259 235
l 262 235
l 261 263
l 264 263
l 263 262
l 263 265
l 262 238
l 265 238
l 264 266
l 267 266
l 266 265
l 266 268
l 265 241
l 268 241
l 269 270
l 271 270
l 270 272
l 270 273
l 272 243
l 273 243
l 271 274
l 275 274
l 274 273
l 274 276
l 273 245
l 276 245
l 275 277
l 278 277
l 277 276
l 277 279
l 276 249
l 279 249
l 278 280
l 281 280
l 280 279
l 280 282
l 279 252
l 282 252
l 281 283
l 284 283
l 283 282
l 283 285
l 282 255
l 285 255
l 284 286
l 287 286
l 286 285
l 286 288
l 285 258
l 288 258
l 287 289
l 290 289
l 289 288
l 289 291
l 288 261
l 291 261
l 290 292
l 293 292
l 292 291
l 292 294
l 291 264
l 294 264
l 295 296
l 297 296
l 296 298
l 296 299
l 298 271
l 299 271
l 297 300
l 301 300
l 300 299
l 300 302
l 299 275
l 302 275
l 301 303
l 304 303
l 303 302
l 303 305
l 302 278
l 305 278
l 304 306
l 307 306
l 306 305
l 306 308
l 305 281
l 308 281
l 307 309
l 310 309
l 309 308
l 309 311
l 308 284
l 311 284
l 310 312
l 313 312
l 312 311
l 312 314
l 311 287
l 314 287
l 313 315
l 316 315
l 315 314
l 315 317
l 314 290
l 317 290
l 316 318
l 319 318
l 318 317
l 318 320
l 317 293
l 320 293
g valley
l 1 4
l 3 5
l 2 6
l 3 5
l 8 9
l 7 10
l 8 9
l 12 13
l 11 14
l 12 13
l 16 17
l 15 18
l 16 17
l 20 21
l 19 22
l 20 21
l 24 25
l 23 26
l 24 25
l 28 29
l 27 30
l 28 29
l 32 33
l 31 34
l 35 38
l 37 39
l 36 3
l 37 39
l 41 42
l 40 8
l 41 42
l 44 45
l 43 12
l 44 45
l 47 48
l 46 16
l 47 48
l 50 51
l 49 20
l 50 51
l 53 54
l 52 24
l 53 54
l 56 57
l 55 28
l 56 57
l 59 60
l 58 32
l 61 64
l 63 65
l 62 35
l 63 65
l 67 68
l 66 37
l 67 68
l 70 71
l 69 41
l 70 71
l 73 74
l 72 44
l 73 74
l 76 77
l 75 47
l 76 77
l 79 80
l 78 50
l 79 80
l 82 83
l 81 53
l 82 83
l 85 86
l 84 56
l 87 90
l 89 91
l 88 63
l 89 91
l 93 94
l 92 67
l 93 94
l 96 97
l 95 70
l 96 97
l 99 100
l 98 73
l 99 100
l 102 103
l 101 76
l 102 103
l 105 106
l 104 79
l 105 106
l 108 109
l 107 82
l 108 109
l 111 112
l 110 85
l 113 116
l 115 117
l 114 87
l 115 117
l 119 120
l 118 89
l 119 120
l 122 123
l 121 93
l 122 123
l 125 126
l 124 96
l 125 126
l 128 129
l 127 99
l 128 129
l 131 132
l 130 102
l 131 132
l 134 135
l 133 105
l 134 135
l 137 138
l 136 108
l 139 142
l 141 143
l 140 115
l 141 143
l 145 146
l 144 119
l 145 146
l 148 149
l 147 122
l 148 149
l 151 152
l 150 125
l 151 152
l 154 155
l 153 128
l 154 155
l 157 158
l 156 131
l 157 158
l 160 161
l 159 134
l 160 161
l 163 164
l 162 137
l 165 168
l 167 169
l 166 139
l 167 169
l 171 172
l 170 141
l 171 172
l 174 175
l 173 145
l 174 175
l 177 178
l 176 148
l 177 178
l 180 181
l 179 151
l 180 181
l 183 184
l 182 154
l 183 184
l 186 187
l 185 157
l 186 187
l 189 190
l 188 160
l 191 194
l 193 195
l 192 167
l 193 195
l 197 198
l 196 171
l 197 198
l 200 201
l 199 174
l 200 201
l 203 204
l 202 177
l 203 204
l 206 207
l 205 180
l 206 207
l 209 210
l 208 183
l 209 210
l 212 213
l 211 186
l 212 213
l 215 216
l 214 189
l 217 220
l 219 221
l 218 191
l 219 221
l 223 224
l 222 193
l 223 224
l 226 227
l 225 197
l 226 227
l 229 230
l 228 200
l 229 230
l 232 233
l 231 203
l 232 233
l 235 236
l 234 206
l 235 236
l 238 239
l 237 209
l 238 239
l 241 242
l 240 212
l 243 246
l 245 247
l 244 219
l 245 247
l 249 250
l 248 223
l 249 250
l 252 253
l 251 226
l 252 253
l 255 256
l 254 229
l 255 256
l 258 259
l 257 232
l 258 259
l 261 262
l 260 235
l 261 262
l 264 265
l 263 238
l 264 265
l 267 268
l 266 241
l 269 272
l 271 273
l 270 243
l 271 273
l 275 276
l 274 245
l 275 276
l 278 279
l 277 249
l 278 279
l 281 282
l 280 252
l 281 282
l 284 285
l 283 255
l 284 285
l 287 288
l 286 258
l 287 288
l 290 291
l 289 261
l 290 291
l 293 294
l 292 264
l 295 298
l 297 299
l 296 271
l 297 299
l 301 302
l 300 275
l 301 302
l 304 305
l 303 278
l 304 305
l 307 308
l 306 281
l 307 308
l 310 311
l 309 284
l 310 311
l 313 314
l 312 287
l 313 314
l 316 317
l 315 290
l 316 317
l 319 320
l 318 293
g boundary
l 321 322
l 322 319
l 319 323
l 323 321
